%TF.GenerationSoftware,KiCad,Pcbnew,(5.99.0-8534-g3fcd0860c1)*%
%TF.CreationDate,2021-03-04T23:40:15+01:00*%
%TF.ProjectId,Navi_2_0,4e617669-5f32-45f3-902e-6b696361645f,rev?*%
%TF.SameCoordinates,Original*%
%TF.FileFunction,Copper,L1,Top*%
%TF.FilePolarity,Positive*%
%FSLAX46Y46*%
G04 Gerber Fmt 4.6, Leading zero omitted, Abs format (unit mm)*
G04 Created by KiCad (PCBNEW (5.99.0-8534-g3fcd0860c1)) date 2021-03-04 23:40:15*
%MOMM*%
%LPD*%
G01*
G04 APERTURE LIST*
%TA.AperFunction,SMDPad,CuDef*%
%ADD10R,2.160000X1.120000*%
%TD*%
%TA.AperFunction,SMDPad,CuDef*%
%ADD11R,2.500000X2.300000*%
%TD*%
%TA.AperFunction,SMDPad,CuDef*%
%ADD12C,1.000000*%
%TD*%
%TA.AperFunction,WasherPad*%
%ADD13C,1.000000*%
%TD*%
%TA.AperFunction,ViaPad*%
%ADD14C,0.800000*%
%TD*%
%TA.AperFunction,Conductor*%
%ADD15C,0.200000*%
%TD*%
%TA.AperFunction,Conductor*%
%ADD16C,0.500000*%
%TD*%
%TA.AperFunction,Conductor*%
%ADD17C,0.250000*%
%TD*%
G04 APERTURE END LIST*
D10*
%TO.P,SW3,2,2*%
%TO.N,IO27*%
X68365000Y-49400000D03*
%TO.P,SW3,1,1*%
%TO.N,GND*%
X61635000Y-49400000D03*
%TD*%
D11*
%TO.P,D6,2,A*%
%TO.N,IO27*%
X67350000Y-41400000D03*
%TO.P,D6,1,K*%
%TO.N,GND*%
X63050000Y-41400000D03*
%TD*%
D12*
%TO.P,J8,1,Pin_1*%
%TO.N,Net-(J8-Pad1)*%
X51200000Y-37400000D03*
%TD*%
D13*
%TO.P,SW1,*%
%TO.N,*%
X138850000Y-72950000D03*
X138850000Y-75250000D03*
%TD*%
%TO.P,SW2,*%
%TO.N,*%
X138850000Y-66000000D03*
X138850000Y-63700000D03*
%TD*%
D14*
%TO.N,EINK_SPI_MISO*%
X100000000Y-55000000D03*
%TO.N,I2C_DAT*%
X97600000Y-54952657D03*
%TO.N,EINK_SPI_MISO*%
X101200000Y-54000000D03*
%TO.N,I2C_DAT*%
X104600000Y-57600000D03*
%TO.N,G_INT1*%
X103000000Y-55449990D03*
X98800000Y-66400000D03*
%TO.N,I2C_DAT*%
X105400000Y-54799990D03*
%TO.N,IO27*%
X110200000Y-47000000D03*
%TO.N,UART1_RX*%
X105400000Y-49000000D03*
%TO.N,UART1_TX*%
X106200000Y-48200000D03*
%TO.N,+3V3*%
X109600000Y-54200000D03*
%TO.N,G_INT2*%
X103200000Y-60400000D03*
X103200000Y-66200033D03*
%TO.N,GND*%
X119500000Y-64500000D03*
X117850832Y-68056849D03*
X74200000Y-64169998D03*
X51000000Y-64169998D03*
X56200000Y-129800000D03*
X132100000Y-63600000D03*
X70200000Y-107600000D03*
X70200000Y-123000000D03*
X62400000Y-53200000D03*
X73600000Y-57899958D03*
X80600000Y-80200000D03*
X68800000Y-31600000D03*
X101600000Y-33200000D03*
X87676349Y-60176349D03*
X77800000Y-68600000D03*
X113200000Y-43400000D03*
X71000000Y-32400000D03*
X101600000Y-39200000D03*
X44200000Y-51200000D03*
X70200000Y-117800000D03*
X67000000Y-52800010D03*
X68400000Y-73000000D03*
X120200000Y-62800000D03*
X101600000Y-40200000D03*
X87800000Y-35200000D03*
X44400000Y-36250002D03*
X45200000Y-39000000D03*
X66250000Y-70800000D03*
X87800000Y-32100000D03*
X92700000Y-60900000D03*
X71000000Y-52800010D03*
X96800000Y-47200000D03*
X87800000Y-34200000D03*
X92700000Y-59500000D03*
X45200000Y-45800000D03*
X101600000Y-37200000D03*
X66200000Y-75200000D03*
X115000000Y-64400000D03*
X53000000Y-64169998D03*
X63930354Y-117572599D03*
X136200000Y-56600000D03*
X67200000Y-90000000D03*
X134235242Y-63585242D03*
X56400000Y-68600000D03*
X64200000Y-75000000D03*
X87800000Y-40200000D03*
X58992870Y-53200000D03*
X74581264Y-56950022D03*
X70200000Y-120400000D03*
X45500000Y-34000000D03*
X68200000Y-75000000D03*
X72200000Y-64169998D03*
X137800000Y-68200000D03*
X71000000Y-113800000D03*
X137400000Y-42400000D03*
X130400000Y-63000000D03*
X92800000Y-47200000D03*
X52000000Y-64200000D03*
X116495372Y-62253136D03*
X83800000Y-34800000D03*
X87900000Y-58800000D03*
X64200000Y-71000000D03*
X68200000Y-71000000D03*
X88400000Y-78000000D03*
X64000000Y-73000000D03*
X82599998Y-80400000D03*
X70200000Y-108800000D03*
X73200000Y-64200000D03*
X87800000Y-41200000D03*
X70200000Y-110200000D03*
X60600000Y-31600000D03*
X101600000Y-36200000D03*
X85000000Y-40600000D03*
X137800000Y-77400000D03*
X101600000Y-32000000D03*
X133600000Y-58100000D03*
X79400000Y-74600000D03*
X124200000Y-51000000D03*
X87800000Y-33200000D03*
X65400000Y-106400000D03*
X137600000Y-50800000D03*
X70200000Y-121800000D03*
X55000000Y-32800000D03*
X133350000Y-60052120D03*
X70200000Y-119200000D03*
X138821846Y-38731079D03*
X62800000Y-44400000D03*
X61434314Y-45565686D03*
%TO.N,+BATT*%
X77800000Y-63200000D03*
X77800000Y-52000000D03*
X79169591Y-83121637D03*
X77659620Y-80140380D03*
X127250000Y-76400000D03*
X124150000Y-76400000D03*
%TO.N,+3V3*%
X67200000Y-81600000D03*
X136428311Y-44150000D03*
X51800000Y-53000000D03*
X81000000Y-79200000D03*
X53600000Y-53000000D03*
X79800000Y-61400000D03*
X70800000Y-115200000D03*
X109600000Y-58600000D03*
X80374438Y-77978091D03*
X139220290Y-35192051D03*
X82000000Y-73400000D03*
X79400000Y-48000000D03*
X76400000Y-70800000D03*
X107400000Y-58800000D03*
X76400000Y-69800000D03*
X76400000Y-71800000D03*
X137400000Y-48400000D03*
X139150000Y-40000000D03*
%TO.N,EINK_VCC*%
X69893940Y-104893940D03*
X62600000Y-110000000D03*
%TO.N,Net-(J8-Pad1)*%
X75600000Y-41200000D03*
%TO.N,I2C_DAT*%
X98728703Y-56252668D03*
%TO.N,G_INT2*%
X112500000Y-60000022D03*
X137800000Y-61600000D03*
%TO.N,I2C_DAT*%
X95200000Y-67200000D03*
%TO.N,EINK_SPI_MOSI*%
X73800000Y-116027361D03*
X127378537Y-58700012D03*
X64200000Y-116000000D03*
X127850010Y-66019691D03*
%TO.N,EINK_SPI_CLK*%
X62899999Y-115306048D03*
X127059627Y-65459627D03*
X74563108Y-115377351D03*
X127600000Y-57400000D03*
%TO.N,EINK_~CS*%
X128600000Y-65250010D03*
X63600000Y-114600000D03*
X74482722Y-116687977D03*
X128211527Y-58127019D03*
%TO.N,EINK_DC*%
X73800000Y-114700000D03*
X62459378Y-113859378D03*
%TO.N,EINK_STATE*%
X128550006Y-74005603D03*
X72000000Y-111049990D03*
X123000000Y-73200000D03*
X62400000Y-112800000D03*
%TO.N,SD_DAT1*%
X112900000Y-59000000D03*
X117000000Y-59400000D03*
%TO.N,EINK_VCC_~EN*%
X77600000Y-82200000D03*
X79400000Y-82200000D03*
%TO.N,SD_VCC_nEN*%
X63000000Y-54400000D03*
X58650000Y-55599996D03*
%TO.N,GPS_VCC_nEN*%
X129400000Y-52200000D03*
X82800000Y-51350000D03*
%TO.N,UART1_RX*%
X66000000Y-54000000D03*
X107413050Y-50482450D03*
X71849712Y-53224855D03*
X99805852Y-57150010D03*
%TO.N,UART1_TX*%
X72699420Y-53649710D03*
X100800000Y-57200000D03*
X64128064Y-54471936D03*
X107688146Y-49328429D03*
%TO.N,SD_nDET*%
X121400000Y-68800000D03*
X138900000Y-49300000D03*
%TO.N,+5V*%
X124150000Y-75400000D03*
X129600000Y-73000000D03*
X67407083Y-54792917D03*
X80600000Y-83250010D03*
X67407083Y-61192917D03*
X77600000Y-79000000D03*
%TO.N,ESP_~RST*%
X137800000Y-70800000D03*
X139200000Y-46200000D03*
%TO.N,Net-(C18-Pad1)*%
X91600000Y-59500000D03*
X91600000Y-62500000D03*
X91645595Y-58045595D03*
X91600000Y-60949990D03*
X91476349Y-56376349D03*
%TO.N,EINK_SPI_MISO*%
X73749106Y-117650010D03*
X96950926Y-55936917D03*
X89774633Y-48825367D03*
X94400000Y-66500000D03*
X129300011Y-66000000D03*
X87800000Y-39200000D03*
X129105812Y-58447607D03*
X64010038Y-118519263D03*
%TO.N,EINK_EEPROM_~EN*%
X105284632Y-45965378D03*
X102800000Y-47000000D03*
X90600000Y-50400000D03*
X95807122Y-55392878D03*
X93299996Y-65800000D03*
X92800000Y-50600000D03*
%TO.N,JTAG_TCK*%
X116550820Y-67787626D03*
X118291075Y-64495937D03*
%TO.N,JTAG_TMS*%
X139400000Y-34000000D03*
X115999814Y-63459439D03*
X133075190Y-63505557D03*
X129200000Y-49600000D03*
%TO.N,JTAG_TDO*%
X121200000Y-56800000D03*
X117086355Y-63576192D03*
X118386366Y-63550010D03*
X138600000Y-42200000D03*
%TO.N,Net-(R18-Pad2)*%
X113059620Y-57859620D03*
X95093873Y-52306127D03*
X91800000Y-52600000D03*
X130000000Y-54600000D03*
%TO.N,Net-(R26-Pad2)*%
X87800000Y-38200000D03*
X86600000Y-48200000D03*
%TO.N,Net-(J2-Pad19)*%
X72995107Y-111880069D03*
X64200000Y-111724990D03*
%TO.N,Net-(J2-Pad18)*%
X63400000Y-112400000D03*
X72200000Y-112400000D03*
X63400000Y-112400000D03*
%TO.N,IO27*%
X129850000Y-48000000D03*
X78200000Y-42600000D03*
%TD*%
D15*
%TO.N,GND*%
X63050000Y-41400000D02*
X63050000Y-44150000D01*
X63050000Y-44150000D02*
X62800000Y-44400000D01*
X61635000Y-49400000D02*
X61635000Y-45766372D01*
X61635000Y-45766372D02*
X61434314Y-45565686D01*
%TO.N,IO27*%
X68365000Y-49400000D02*
X71400000Y-49400000D01*
X71400000Y-49400000D02*
X78200000Y-42600000D01*
X67350000Y-41400000D02*
X68550000Y-42600000D01*
X68550000Y-42600000D02*
X78200000Y-42600000D01*
%TO.N,EINK_SPI_MISO*%
X101000000Y-54000000D02*
X100000000Y-55000000D01*
X101200000Y-54000000D02*
X101000000Y-54000000D01*
%TO.N,I2C_DAT*%
X97600000Y-54952657D02*
X98728703Y-56081360D01*
X98728703Y-56081360D02*
X98728703Y-56252668D01*
X105400000Y-54799990D02*
X105400000Y-56800000D01*
X105400000Y-56800000D02*
X104600000Y-57600000D01*
%TO.N,G_INT1*%
X103000000Y-56000000D02*
X103000000Y-55449990D01*
X99657006Y-59800000D02*
X103000000Y-56457006D01*
X99400000Y-59800000D02*
X99657006Y-59800000D01*
X103000000Y-56457006D02*
X103000000Y-56000000D01*
X98800000Y-66400000D02*
X99400000Y-65800000D01*
X99400000Y-65800000D02*
X99400000Y-59800000D01*
%TO.N,IO27*%
X110299980Y-45899980D02*
X126099980Y-45899980D01*
X106300020Y-45899980D02*
X110299980Y-45899980D01*
X110200000Y-47000000D02*
X110200000Y-45999960D01*
X110200000Y-45999960D02*
X110299980Y-45899980D01*
%TO.N,UART1_RX*%
X105400000Y-49000000D02*
X105400000Y-50200000D01*
X105400000Y-50200000D02*
X105682450Y-50482450D01*
X105682450Y-50482450D02*
X107413050Y-50482450D01*
%TO.N,UART1_TX*%
X106200000Y-48200000D02*
X106559717Y-48200000D01*
X106559717Y-48200000D02*
X107688146Y-49328429D01*
%TO.N,GPS_VCC_nEN*%
X82800000Y-51350000D02*
X83199999Y-51749999D01*
X83199999Y-51749999D02*
X93106995Y-51749999D01*
X93106995Y-51749999D02*
X93456981Y-51400013D01*
X105852504Y-47547496D02*
X107342490Y-47547496D01*
X93456981Y-51400013D02*
X101999987Y-51400013D01*
X101999987Y-51400013D02*
X105852504Y-47547496D01*
%TO.N,IO27*%
X78200000Y-42600000D02*
X84000000Y-48400000D01*
X84200000Y-49800000D02*
X89705012Y-49800000D01*
X84000000Y-48400000D02*
X84000000Y-49600000D01*
X84000000Y-49600000D02*
X84200000Y-49800000D01*
X89705012Y-49800000D02*
X90105023Y-49399989D01*
X90105023Y-49399989D02*
X102800011Y-49399989D01*
X102800011Y-49399989D02*
X106300020Y-45899980D01*
X126099980Y-45899980D02*
X128200000Y-48000000D01*
X128200000Y-48000000D02*
X129850000Y-48000000D01*
%TO.N,GPS_VCC_nEN*%
X107342490Y-47547496D02*
X107397497Y-47602503D01*
X107342490Y-47547496D02*
X111994994Y-52200000D01*
X111994994Y-52200000D02*
X129400000Y-52200000D01*
D16*
%TO.N,+3V3*%
X111600000Y-54600000D02*
X108700000Y-57500000D01*
X108700000Y-57500000D02*
X108500000Y-57700000D01*
D15*
X107849989Y-55787984D02*
X107849989Y-56649989D01*
X109600000Y-54200000D02*
X109437973Y-54200000D01*
X109437973Y-54200000D02*
X107849989Y-55787984D01*
X107849989Y-56649989D02*
X108700000Y-57500000D01*
%TO.N,G_INT2*%
X103200000Y-66200033D02*
X103200000Y-60400000D01*
%TO.N,GND*%
X130100000Y-67400000D02*
X133914758Y-63585242D01*
X124099978Y-66699978D02*
X129565707Y-66699978D01*
X120900000Y-64500000D02*
X123800000Y-67400000D01*
X129565707Y-66699978D02*
X132100000Y-64165685D01*
D16*
X62600000Y-44400000D02*
X61434314Y-45565686D01*
X62800000Y-44400000D02*
X62600000Y-44400000D01*
D15*
X123800000Y-67400000D02*
X130100000Y-67400000D01*
X119500000Y-64500000D02*
X120900000Y-64500000D01*
X120200000Y-62800000D02*
X124099978Y-66699978D01*
X133914758Y-63585242D02*
X134235242Y-63585242D01*
X132100000Y-64165685D02*
X132100000Y-63600000D01*
%TO.N,+BATT*%
X80050001Y-81887999D02*
X78302382Y-80140380D01*
X78302382Y-80140380D02*
X77659620Y-80140380D01*
X79735276Y-83121637D02*
X80050001Y-82806912D01*
X80050001Y-82806912D02*
X80050001Y-81887999D01*
X127250000Y-76400000D02*
X124150000Y-76400000D01*
X79169591Y-83121637D02*
X79735276Y-83121637D01*
X77800000Y-63200000D02*
X77800000Y-52000000D01*
D16*
%TO.N,+3V3*%
X136028312Y-44805700D02*
X130550011Y-50284001D01*
X130550011Y-50284001D02*
X130550011Y-52719113D01*
X109600000Y-58600000D02*
X108700000Y-57700000D01*
D15*
X139600000Y-35571761D02*
X139220290Y-35192051D01*
D16*
X130550011Y-52719113D02*
X129919112Y-53350012D01*
X129919112Y-53350012D02*
X128319112Y-53350012D01*
D15*
X139600000Y-39550000D02*
X139600000Y-35571761D01*
D16*
X127069124Y-54600000D02*
X111600000Y-54600000D01*
D15*
X81000000Y-79200000D02*
X81000000Y-78603653D01*
D16*
X108500000Y-57700000D02*
X107400000Y-58800000D01*
D15*
X81000000Y-78603653D02*
X80374438Y-77978091D01*
X79400000Y-61000000D02*
X79800000Y-61400000D01*
X139150000Y-40000000D02*
X139600000Y-39550000D01*
D16*
X108700000Y-57700000D02*
X108500000Y-57700000D01*
X136028312Y-44549999D02*
X136028312Y-44805700D01*
D15*
X79400000Y-48000000D02*
X79400000Y-61000000D01*
D16*
X128319112Y-53350012D02*
X127069124Y-54600000D01*
X136428311Y-44150000D02*
X136028312Y-44549999D01*
D15*
%TO.N,EINK_VCC*%
X65000000Y-110000000D02*
X69893940Y-105106060D01*
X69893940Y-105106060D02*
X69893940Y-104893940D01*
X62600000Y-110000000D02*
X65000000Y-110000000D01*
%TO.N,Net-(J8-Pad1)*%
X71649990Y-33649990D02*
X73449990Y-33649990D01*
X55149999Y-34250001D02*
X55800000Y-33600000D01*
X54349999Y-34250001D02*
X51200000Y-37400000D01*
X71600000Y-33600000D02*
X71649990Y-33649990D01*
X54349999Y-34250001D02*
X55149999Y-34250001D01*
X73449990Y-33649990D02*
X74400000Y-34600000D01*
X55800000Y-33600000D02*
X71600000Y-33600000D01*
X74400000Y-34600000D02*
X74400000Y-40000000D01*
X74400000Y-40000000D02*
X75600000Y-41200000D01*
%TO.N,G_INT2*%
X119193150Y-68706850D02*
X119800000Y-68100000D01*
X115900818Y-68099628D02*
X116508040Y-68706850D01*
X131300000Y-68100000D02*
X137800000Y-61600000D01*
X112500000Y-60965685D02*
X115900818Y-64366503D01*
X115900818Y-64366503D02*
X115900818Y-68099628D01*
X116508040Y-68706850D02*
X119193150Y-68706850D01*
%TO.N,I2C_DAT*%
X98728703Y-63671297D02*
X95200000Y-67200000D01*
X98728703Y-56252668D02*
X98728703Y-63671297D01*
%TO.N,G_INT2*%
X112500000Y-60000022D02*
X112500000Y-60965685D01*
X119800000Y-68100000D02*
X131300000Y-68100000D01*
%TO.N,EINK_SPI_MOSI*%
X64200000Y-116000000D02*
X64667012Y-116000000D01*
X127850010Y-59171485D02*
X127378537Y-58700012D01*
X73267629Y-116027361D02*
X73800000Y-116027361D01*
X65417022Y-116750010D02*
X72544979Y-116750011D01*
X64667012Y-116000000D02*
X65417022Y-116750010D01*
X127850010Y-66019691D02*
X127850010Y-59171485D01*
X72544979Y-116750011D02*
X73267629Y-116027361D01*
%TO.N,EINK_SPI_CLK*%
X64512001Y-115349999D02*
X65562002Y-116400000D01*
X64512001Y-115112001D02*
X64512001Y-115349999D01*
X63918998Y-113918998D02*
X64400000Y-114400000D01*
X62899999Y-114337997D02*
X63318998Y-113918998D01*
X126659628Y-65059628D02*
X126659628Y-58340372D01*
X72400000Y-116400000D02*
X73422649Y-115377351D01*
X65562002Y-116400000D02*
X72400000Y-116400000D01*
X62899999Y-115306048D02*
X62899999Y-114337997D01*
X126659628Y-58340372D02*
X127600000Y-57400000D01*
X73422649Y-115377351D02*
X74563108Y-115377351D01*
X63318998Y-113918998D02*
X63918998Y-113918998D01*
X127059627Y-65459627D02*
X126659628Y-65059628D01*
X64400000Y-114400000D02*
X64400000Y-115000000D01*
X64400000Y-115000000D02*
X64512001Y-115112001D01*
%TO.N,EINK_~CS*%
X63600000Y-114600000D02*
X63549999Y-114650001D01*
X128600000Y-65250010D02*
X128600000Y-64684325D01*
X64237998Y-117000000D02*
X65172022Y-117000000D01*
X128211527Y-64295852D02*
X128211527Y-58127019D01*
X128600000Y-64684325D02*
X128211527Y-64295852D01*
X65272042Y-117100020D02*
X72689957Y-117100021D01*
X63549999Y-116312001D02*
X64237998Y-117000000D01*
X63549999Y-114650001D02*
X63549999Y-116312001D01*
X65172022Y-117000000D02*
X65272042Y-117100020D01*
X72689957Y-117100021D02*
X73102001Y-116687977D01*
X73102001Y-116687977D02*
X74482722Y-116687977D01*
%TO.N,EINK_DC*%
X62459378Y-113859378D02*
X62883630Y-113859378D01*
X64063978Y-113568990D02*
X64694977Y-114199989D01*
X64063976Y-113568988D02*
X64063978Y-113568990D01*
X65028495Y-115228495D02*
X65800000Y-116000000D01*
X72305012Y-116000000D02*
X73605012Y-114700000D01*
X73605012Y-114700000D02*
X73800000Y-114700000D01*
X63174020Y-113568988D02*
X64063976Y-113568988D01*
X65028495Y-114533507D02*
X65028495Y-115228495D01*
X64694977Y-114199989D02*
X65028495Y-114533507D01*
X65800000Y-116000000D02*
X72305012Y-116000000D01*
X62883630Y-113859378D02*
X63174020Y-113568988D01*
%TO.N,EINK_STATE*%
X123805603Y-74005603D02*
X128550006Y-74005603D01*
X64674989Y-111074989D02*
X64699988Y-111049990D01*
X63559326Y-111074989D02*
X64674989Y-111074989D01*
X123000000Y-73200000D02*
X123805603Y-74005603D01*
X62400000Y-112800000D02*
X62400000Y-112234315D01*
X62400000Y-112234315D02*
X63559326Y-111074989D01*
X64699988Y-111049990D02*
X72000000Y-111049990D01*
%TO.N,SD_DAT1*%
X117000000Y-59400000D02*
X116600000Y-59000000D01*
X116600000Y-59000000D02*
X112900000Y-59000000D01*
%TO.N,EINK_VCC_~EN*%
X79400000Y-82200000D02*
X77600000Y-82200000D01*
%TO.N,SD_VCC_nEN*%
X61800004Y-55599996D02*
X58650000Y-55599996D01*
X63000000Y-54400000D02*
X61800004Y-55599996D01*
%TO.N,UART1_RX*%
X71849712Y-53224855D02*
X71449713Y-53624854D01*
X66375146Y-53624854D02*
X66000000Y-54000000D01*
X71449713Y-53624854D02*
X66375146Y-53624854D01*
X99805852Y-56393496D02*
X99805852Y-57150010D01*
X105716898Y-50482450D02*
X99805852Y-56393496D01*
X107413050Y-50482450D02*
X105716898Y-50482450D01*
%TO.N,UART1_TX*%
X67025136Y-53974864D02*
X72374266Y-53974864D01*
X105561886Y-51132452D02*
X107725052Y-51132452D01*
X64128064Y-54471936D02*
X64528063Y-54871935D01*
X100800000Y-55894338D02*
X105561886Y-51132452D01*
X64528063Y-54871935D02*
X66128065Y-54871935D01*
X66128065Y-54871935D02*
X67025136Y-53974864D01*
X108088145Y-49728428D02*
X107688146Y-49328429D01*
X100800000Y-57200000D02*
X100800000Y-55894338D01*
X107725052Y-51132452D02*
X108088145Y-50769359D01*
X108088145Y-50769359D02*
X108088145Y-49728428D01*
X72374266Y-53974864D02*
X72699420Y-53649710D01*
%TO.N,SD_nDET*%
X138900000Y-61462002D02*
X131562002Y-68800000D01*
X138900000Y-49300000D02*
X138900000Y-61462002D01*
X131562002Y-68800000D02*
X121400000Y-68800000D01*
%TO.N,+5V*%
X129600000Y-73917611D02*
X128117611Y-75400000D01*
X80600000Y-81434315D02*
X80600000Y-83250010D01*
X128117611Y-75400000D02*
X124150000Y-75400000D01*
X78165685Y-79000000D02*
X80600000Y-81434315D01*
X129600000Y-73000000D02*
X129600000Y-73917611D01*
X77600000Y-79000000D02*
X78165685Y-79000000D01*
D16*
X67407083Y-61192917D02*
X67407083Y-54792917D01*
D15*
%TO.N,ESP_~RST*%
X137800000Y-70800000D02*
X139900001Y-68699999D01*
X139900001Y-68699999D02*
X139900001Y-46900001D01*
X139900001Y-46900001D02*
X139200000Y-46200000D01*
%TO.N,EINK_SPI_MISO*%
X129300011Y-58641806D02*
X129105812Y-58447607D01*
X96950926Y-63949074D02*
X94400000Y-66500000D01*
X87149999Y-46149999D02*
X89774633Y-48774633D01*
X73749106Y-117650010D02*
X72879853Y-118519263D01*
X87800000Y-39200000D02*
X87149999Y-39850001D01*
X96950926Y-55936917D02*
X96950926Y-63949074D01*
X89774633Y-48774633D02*
X89774633Y-48825367D01*
X87149999Y-39850001D02*
X87149999Y-46149999D01*
X129300011Y-66000000D02*
X129300011Y-58641806D01*
X72879853Y-118519263D02*
X64010038Y-118519263D01*
%TO.N,EINK_EEPROM_~EN*%
X95807122Y-63292874D02*
X93299996Y-65800000D01*
X103834622Y-45965378D02*
X105284632Y-45965378D01*
X102800000Y-47000000D02*
X103834622Y-45965378D01*
X95807122Y-55392878D02*
X95807122Y-63292874D01*
X90600000Y-50400000D02*
X92600000Y-50400000D01*
X92600000Y-50400000D02*
X92800000Y-50600000D01*
%TO.N,JTAG_TCK*%
X116550820Y-67787626D02*
X116550820Y-66236192D01*
X116550820Y-66236192D02*
X118291075Y-64495937D01*
%TO.N,JTAG_TMS*%
X129730758Y-67049989D02*
X133075190Y-63705557D01*
X129599999Y-49200001D02*
X129200000Y-49600000D01*
X123944979Y-67049989D02*
X129730758Y-67049989D01*
X115999814Y-63459439D02*
X116559253Y-62900000D01*
X119294990Y-62900000D02*
X120544979Y-64149989D01*
X121044980Y-64149990D02*
X123944979Y-67049989D01*
X133075190Y-63705557D02*
X133075190Y-63505557D01*
X120544979Y-64149989D02*
X121044980Y-64149990D01*
X137904699Y-35495301D02*
X137904699Y-40895301D01*
X139400000Y-34000000D02*
X137904699Y-35495301D01*
X116559253Y-62900000D02*
X119294990Y-62900000D01*
X137904699Y-40895301D02*
X129599999Y-49200001D01*
%TO.N,JTAG_TDO*%
X125576246Y-56800000D02*
X121200000Y-56800000D01*
X118360184Y-63576192D02*
X118386366Y-63550010D01*
X138600000Y-45376246D02*
X130126223Y-53850023D01*
X138600000Y-42200000D02*
X138600000Y-45376246D01*
X128526226Y-53850023D02*
X125576246Y-56800000D01*
X117086355Y-63576192D02*
X118360184Y-63576192D01*
X130126223Y-53850023D02*
X128526226Y-53850023D01*
%TO.N,Net-(R18-Pad2)*%
X128271237Y-54600000D02*
X125471237Y-57400000D01*
X124271237Y-58600000D02*
X117400000Y-58600000D01*
X113800000Y-58600000D02*
X113059620Y-57859620D01*
X95093873Y-52306127D02*
X92093873Y-52306127D01*
X130000000Y-54600000D02*
X128271237Y-54600000D01*
X92093873Y-52306127D02*
X91800000Y-52600000D01*
X117400000Y-58600000D02*
X113800000Y-58600000D01*
X125471237Y-57400000D02*
X124271237Y-58600000D01*
%TO.N,Net-(R26-Pad2)*%
X87800000Y-38200000D02*
X87000000Y-38200000D01*
X86000000Y-39200000D02*
X86000000Y-47600000D01*
X87000000Y-38200000D02*
X86000000Y-39200000D01*
X86000000Y-47600000D02*
X86600000Y-48200000D01*
D17*
%TO.N,Net-(J2-Pad19)*%
X72840028Y-111724990D02*
X72995107Y-111880069D01*
X64200000Y-111724990D02*
X72840028Y-111724990D01*
%TO.N,Net-(J2-Pad18)*%
X63400000Y-112400000D02*
X72200000Y-112400000D01*
%TD*%
%TA.AperFunction,Conductor*%
%TO.N,Net-(J8-Pad1)*%
G36*
X54425276Y-33040002D02*
G01*
X54466330Y-33089125D01*
X54468333Y-33087969D01*
X54472461Y-33095119D01*
X54475622Y-33102750D01*
X54571847Y-33228153D01*
X54697250Y-33324378D01*
X54843285Y-33384868D01*
X55000000Y-33405500D01*
X55008188Y-33404422D01*
X55148527Y-33385946D01*
X55156715Y-33384868D01*
X55302750Y-33324378D01*
X55428153Y-33228153D01*
X55524378Y-33102750D01*
X55527539Y-33095119D01*
X55531667Y-33087969D01*
X55533493Y-33089023D01*
X55570988Y-33042499D01*
X55642845Y-33020000D01*
X59564000Y-33020000D01*
X59632121Y-33040002D01*
X59678614Y-33093658D01*
X59690000Y-33146000D01*
X59690000Y-50674000D01*
X59669998Y-50742121D01*
X59616342Y-50788614D01*
X59564000Y-50800000D01*
X47116000Y-50800000D01*
X47047879Y-50779998D01*
X47001386Y-50726342D01*
X46990000Y-50674000D01*
X46990000Y-33146000D01*
X47010002Y-33077879D01*
X47063658Y-33031386D01*
X47116000Y-33020000D01*
X54357155Y-33020000D01*
X54425276Y-33040002D01*
G37*
%TD.AperFunction*%
%TD*%
M02*
