%TF.GenerationSoftware,KiCad,Pcbnew,(5.99.0-8534-g3fcd0860c1)*%
%TF.CreationDate,2021-03-04T23:40:15+01:00*%
%TF.ProjectId,Navi_2_0,4e617669-5f32-45f3-902e-6b696361645f,rev?*%
%TF.SameCoordinates,Original*%
%TF.FileFunction,Copper,L4,Bot*%
%TF.FilePolarity,Positive*%
%FSLAX46Y46*%
G04 Gerber Fmt 4.6, Leading zero omitted, Abs format (unit mm)*
G04 Created by KiCad (PCBNEW (5.99.0-8534-g3fcd0860c1)) date 2021-03-04 23:40:15*
%MOMM*%
%LPD*%
G01*
G04 APERTURE LIST*
G04 Aperture macros list*
%AMRoundRect*
0 Rectangle with rounded corners*
0 $1 Rounding radius*
0 $2 $3 $4 $5 $6 $7 $8 $9 X,Y pos of 4 corners*
0 Add a 4 corners polygon primitive as box body*
4,1,4,$2,$3,$4,$5,$6,$7,$8,$9,$2,$3,0*
0 Add four circle primitives for the rounded corners*
1,1,$1+$1,$2,$3*
1,1,$1+$1,$4,$5*
1,1,$1+$1,$6,$7*
1,1,$1+$1,$8,$9*
0 Add four rect primitives between the rounded corners*
20,1,$1+$1,$2,$3,$4,$5,0*
20,1,$1+$1,$4,$5,$6,$7,0*
20,1,$1+$1,$6,$7,$8,$9,0*
20,1,$1+$1,$8,$9,$2,$3,0*%
G04 Aperture macros list end*
%TA.AperFunction,ConnectorPad*%
%ADD10C,0.787400*%
%TD*%
%TA.AperFunction,SMDPad,CuDef*%
%ADD11RoundRect,0.200000X-0.200000X-0.275000X0.200000X-0.275000X0.200000X0.275000X-0.200000X0.275000X0*%
%TD*%
%TA.AperFunction,SMDPad,CuDef*%
%ADD12RoundRect,0.225000X-0.250000X0.225000X-0.250000X-0.225000X0.250000X-0.225000X0.250000X0.225000X0*%
%TD*%
%TA.AperFunction,SMDPad,CuDef*%
%ADD13RoundRect,0.225000X0.250000X-0.225000X0.250000X0.225000X-0.250000X0.225000X-0.250000X-0.225000X0*%
%TD*%
%TA.AperFunction,SMDPad,CuDef*%
%ADD14RoundRect,0.225000X-0.225000X-0.250000X0.225000X-0.250000X0.225000X0.250000X-0.225000X0.250000X0*%
%TD*%
%TA.AperFunction,SMDPad,CuDef*%
%ADD15RoundRect,0.212500X-0.212500X0.400000X-0.212500X-0.400000X0.212500X-0.400000X0.212500X0.400000X0*%
%TD*%
%TA.AperFunction,SMDPad,CuDef*%
%ADD16RoundRect,0.250000X-0.850000X0.462500X-0.850000X-0.462500X0.850000X-0.462500X0.850000X0.462500X0*%
%TD*%
%TA.AperFunction,SMDPad,CuDef*%
%ADD17R,1.220000X0.650000*%
%TD*%
%TA.AperFunction,SMDPad,CuDef*%
%ADD18RoundRect,0.200000X0.275000X-0.200000X0.275000X0.200000X-0.275000X0.200000X-0.275000X-0.200000X0*%
%TD*%
%TA.AperFunction,SMDPad,CuDef*%
%ADD19RoundRect,0.200000X-0.275000X0.200000X-0.275000X-0.200000X0.275000X-0.200000X0.275000X0.200000X0*%
%TD*%
%TA.AperFunction,SMDPad,CuDef*%
%ADD20RoundRect,0.200000X0.200000X0.275000X-0.200000X0.275000X-0.200000X-0.275000X0.200000X-0.275000X0*%
%TD*%
%TA.AperFunction,WasherPad*%
%ADD21C,1.000000*%
%TD*%
%TA.AperFunction,SMDPad,CuDef*%
%ADD22R,1.000000X0.900000*%
%TD*%
%TA.AperFunction,SMDPad,CuDef*%
%ADD23R,0.800000X1.450000*%
%TD*%
%TA.AperFunction,SMDPad,CuDef*%
%ADD24R,0.650000X1.060000*%
%TD*%
%TA.AperFunction,SMDPad,CuDef*%
%ADD25R,2.000000X0.900000*%
%TD*%
%TA.AperFunction,SMDPad,CuDef*%
%ADD26R,0.900000X2.000000*%
%TD*%
%TA.AperFunction,SMDPad,CuDef*%
%ADD27R,5.000000X5.000000*%
%TD*%
%TA.AperFunction,SMDPad,CuDef*%
%ADD28RoundRect,0.087500X0.225000X0.087500X-0.225000X0.087500X-0.225000X-0.087500X0.225000X-0.087500X0*%
%TD*%
%TA.AperFunction,SMDPad,CuDef*%
%ADD29RoundRect,0.087500X0.087500X0.225000X-0.087500X0.225000X-0.087500X-0.225000X0.087500X-0.225000X0*%
%TD*%
%TA.AperFunction,SMDPad,CuDef*%
%ADD30C,3.000000*%
%TD*%
%TA.AperFunction,SMDPad,CuDef*%
%ADD31R,3.000000X3.000000*%
%TD*%
%TA.AperFunction,SMDPad,CuDef*%
%ADD32RoundRect,0.225000X0.225000X0.250000X-0.225000X0.250000X-0.225000X-0.250000X0.225000X-0.250000X0*%
%TD*%
%TA.AperFunction,SMDPad,CuDef*%
%ADD33R,1.100000X1.100000*%
%TD*%
%TA.AperFunction,SMDPad,CuDef*%
%ADD34R,1.300000X0.300000*%
%TD*%
%TA.AperFunction,SMDPad,CuDef*%
%ADD35R,2.200000X1.800000*%
%TD*%
%TA.AperFunction,SMDPad,CuDef*%
%ADD36R,0.650000X1.220000*%
%TD*%
%TA.AperFunction,SMDPad,CuDef*%
%ADD37R,1.000000X1.500000*%
%TD*%
%TA.AperFunction,SMDPad,CuDef*%
%ADD38R,0.800000X0.900000*%
%TD*%
%TA.AperFunction,SMDPad,CuDef*%
%ADD39RoundRect,0.250000X0.850000X-0.462500X0.850000X0.462500X-0.850000X0.462500X-0.850000X-0.462500X0*%
%TD*%
%TA.AperFunction,SMDPad,CuDef*%
%ADD40RoundRect,0.249998X-0.262502X-0.450002X0.262502X-0.450002X0.262502X0.450002X-0.262502X0.450002X0*%
%TD*%
%TA.AperFunction,SMDPad,CuDef*%
%ADD41RoundRect,0.150000X0.825000X0.150000X-0.825000X0.150000X-0.825000X-0.150000X0.825000X-0.150000X0*%
%TD*%
%TA.AperFunction,SMDPad,CuDef*%
%ADD42R,1.060000X0.650000*%
%TD*%
%TA.AperFunction,SMDPad,CuDef*%
%ADD43R,0.850000X1.100000*%
%TD*%
%TA.AperFunction,SMDPad,CuDef*%
%ADD44R,0.750000X1.100000*%
%TD*%
%TA.AperFunction,SMDPad,CuDef*%
%ADD45R,1.200000X1.000000*%
%TD*%
%TA.AperFunction,SMDPad,CuDef*%
%ADD46R,1.170000X1.800000*%
%TD*%
%TA.AperFunction,SMDPad,CuDef*%
%ADD47R,1.900000X1.350000*%
%TD*%
%TA.AperFunction,SMDPad,CuDef*%
%ADD48R,1.550000X1.350000*%
%TD*%
%TA.AperFunction,SMDPad,CuDef*%
%ADD49R,0.400000X1.850000*%
%TD*%
%TA.AperFunction,SMDPad,CuDef*%
%ADD50R,1.690000X1.300000*%
%TD*%
%TA.AperFunction,SMDPad,CuDef*%
%ADD51R,1.650000X0.900000*%
%TD*%
%TA.AperFunction,SMDPad,CuDef*%
%ADD52R,2.150000X0.700000*%
%TD*%
%TA.AperFunction,SMDPad,CuDef*%
%ADD53R,0.700000X2.150000*%
%TD*%
%TA.AperFunction,ViaPad*%
%ADD54C,0.800000*%
%TD*%
%TA.AperFunction,Conductor*%
%ADD55C,0.200000*%
%TD*%
%TA.AperFunction,Conductor*%
%ADD56C,0.250000*%
%TD*%
%TA.AperFunction,Conductor*%
%ADD57C,0.500000*%
%TD*%
G04 APERTURE END LIST*
%TO.C,JP1*%
G36*
X69600000Y-114300000D02*
G01*
X69100000Y-114300000D01*
X69100000Y-113900000D01*
X69600000Y-113900000D01*
X69600000Y-114300000D01*
G37*
G36*
X69600000Y-113500000D02*
G01*
X69100000Y-113500000D01*
X69100000Y-113100000D01*
X69600000Y-113100000D01*
X69600000Y-113500000D01*
G37*
%TD*%
D10*
%TO.P,J23,6,Pin_6*%
%TO.N,JTAG_TDO*%
X136999000Y-36430000D03*
%TO.P,J23,5,Pin_5*%
%TO.N,GND*%
X138269000Y-36430000D03*
%TO.P,J23,4,Pin_4*%
%TO.N,JTAG_TCK*%
X136999000Y-35160000D03*
%TO.P,J23,3,Pin_3*%
%TO.N,ESP_~RST*%
X138269000Y-35160000D03*
%TO.P,J23,2,Pin_2*%
%TO.N,JTAG_TMS*%
X136999000Y-33890000D03*
%TO.P,J23,1,Pin_1*%
%TO.N,+3V3*%
X138269000Y-33890000D03*
%TD*%
D11*
%TO.P,R50,2*%
%TO.N,+3V3*%
X108425000Y-54200000D03*
%TO.P,R50,1*%
%TO.N,IO27*%
X106775000Y-54200000D03*
%TD*%
%TO.P,R49,2*%
%TO.N,G_INT2*%
X87225000Y-79800000D03*
%TO.P,R49,1*%
%TO.N,Net-(U6-Pad9)*%
X85575000Y-79800000D03*
%TD*%
%TO.P,R48,2*%
%TO.N,G_INT1*%
X87275000Y-76400000D03*
%TO.P,R48,1*%
%TO.N,Net-(U6-Pad4)*%
X85625000Y-76400000D03*
%TD*%
D12*
%TO.P,C1,1*%
%TO.N,+5V*%
X49400000Y-63375000D03*
%TO.P,C1,2*%
%TO.N,GND*%
X49400000Y-64925000D03*
%TD*%
%TO.P,C2,1*%
%TO.N,+BATT*%
X70600000Y-63375000D03*
%TO.P,C2,2*%
%TO.N,GND*%
X70600000Y-64925000D03*
%TD*%
D13*
%TO.P,C10,1*%
%TO.N,+BATT*%
X52200000Y-68575000D03*
%TO.P,C10,2*%
%TO.N,GND*%
X52200000Y-67025000D03*
%TD*%
%TO.P,C11,1*%
%TO.N,+3V3*%
X73750000Y-68575000D03*
%TO.P,C11,2*%
%TO.N,GND*%
X73750000Y-67025000D03*
%TD*%
D12*
%TO.P,C14,1*%
%TO.N,+3V3*%
X79500000Y-78625000D03*
%TO.P,C14,2*%
%TO.N,GND*%
X79500000Y-80175000D03*
%TD*%
D14*
%TO.P,C15,1*%
%TO.N,GND*%
X80475000Y-74650000D03*
%TO.P,C15,2*%
%TO.N,+3V3*%
X82025000Y-74650000D03*
%TD*%
D15*
%TO.P,D2,1,K*%
%TO.N,GND*%
X70900000Y-33775000D03*
%TO.P,D2,2,A*%
%TO.N,Net-(D2-Pad2)*%
X70900000Y-35400000D03*
%TD*%
D16*
%TO.P,L1,1,1*%
%TO.N,Net-(L1-Pad1)*%
X50000000Y-67325000D03*
%TO.P,L1,2,2*%
%TO.N,+BATT*%
X50000000Y-69650000D03*
%TD*%
%TO.P,L2,1,1*%
%TO.N,Net-(L2-Pad1)*%
X71500000Y-67237500D03*
%TO.P,L2,2,2*%
%TO.N,+3V3*%
X71500000Y-69562500D03*
%TD*%
D17*
%TO.P,Q3,1,G*%
%TO.N,GPS_VCC_nEN*%
X81140000Y-51150000D03*
%TO.P,Q3,2,S*%
%TO.N,+3V3*%
X81140000Y-49250000D03*
%TO.P,Q3,3,D*%
%TO.N,GPS_SUPPLY*%
X83760000Y-50200000D03*
%TD*%
%TO.P,Q6,1,G*%
%TO.N,SD_VCC_nEN*%
X51660000Y-49450000D03*
%TO.P,Q6,2,S*%
%TO.N,+3V3*%
X51660000Y-51350000D03*
%TO.P,Q6,3,D*%
%TO.N,Net-(C18-Pad1)*%
X49040000Y-50400000D03*
%TD*%
D18*
%TO.P,R2,1*%
%TO.N,Net-(R2-Pad1)*%
X55250000Y-65150000D03*
%TO.P,R2,2*%
%TO.N,+5V*%
X55250000Y-63500000D03*
%TD*%
%TO.P,R3,1*%
%TO.N,Net-(R3-Pad1)*%
X76500000Y-65050000D03*
%TO.P,R3,2*%
%TO.N,+BATT*%
X76500000Y-63400000D03*
%TD*%
%TO.P,R10,1*%
%TO.N,+BATT*%
X53750000Y-68625000D03*
%TO.P,R10,2*%
%TO.N,Net-(R10-Pad2)*%
X53750000Y-66975000D03*
%TD*%
%TO.P,R12,1*%
%TO.N,+3V3*%
X75250000Y-68625000D03*
%TO.P,R12,2*%
%TO.N,Net-(R12-Pad2)*%
X75250000Y-66975000D03*
%TD*%
D19*
%TO.P,R18,1*%
%TO.N,Net-(D2-Pad2)*%
X70900000Y-37575000D03*
%TO.P,R18,2*%
%TO.N,Net-(R18-Pad2)*%
X70900000Y-39225000D03*
%TD*%
D18*
%TO.P,R32,1*%
%TO.N,GPS_VCC_nEN*%
X79450000Y-51025000D03*
%TO.P,R32,2*%
%TO.N,+3V3*%
X79450000Y-49375000D03*
%TD*%
%TO.P,R33,1*%
%TO.N,+3V3*%
X53350000Y-51225000D03*
%TO.P,R33,2*%
%TO.N,SD_VCC_nEN*%
X53350000Y-49575000D03*
%TD*%
D20*
%TO.P,R34,1*%
%TO.N,GND*%
X87275000Y-78050000D03*
%TO.P,R34,2*%
%TO.N,Net-(R34-Pad2)*%
X85625000Y-78050000D03*
%TD*%
D21*
%TO.P,SW1,*%
%TO.N,*%
X138850000Y-72950000D03*
X138850000Y-75250000D03*
D22*
%TO.P,SW1,1,1*%
%TO.N,GND*%
X137800000Y-76200000D03*
%TO.P,SW1,2,2*%
%TO.N,ESP_~RST*%
X137800000Y-72000000D03*
D23*
%TO.P,SW1,PAD*%
%TO.N,N/C*%
X139850000Y-77475000D03*
X139850000Y-70730000D03*
%TD*%
D21*
%TO.P,SW2,*%
%TO.N,*%
X138850000Y-66000000D03*
X138850000Y-63700000D03*
D22*
%TO.P,SW2,1,1*%
%TO.N,GND*%
X137800000Y-66950000D03*
%TO.P,SW2,2,2*%
%TO.N,G_INT2*%
X137800000Y-62750000D03*
D23*
%TO.P,SW2,PAD*%
%TO.N,N/C*%
X139850000Y-68225000D03*
X139850000Y-61480000D03*
%TD*%
D24*
%TO.P,U1,1,EN*%
%TO.N,Net-(R2-Pad1)*%
X52950000Y-65250000D03*
%TO.P,U1,2,GND*%
%TO.N,GND*%
X52000000Y-65250000D03*
%TO.P,U1,3,SW*%
%TO.N,Net-(L1-Pad1)*%
X51050000Y-65250000D03*
%TO.P,U1,4,IN*%
%TO.N,+5V*%
X51050000Y-63050000D03*
%TO.P,U1,5,NC*%
%TO.N,no_connect_(U1-Pad5)*%
X52000000Y-63050000D03*
%TO.P,U1,6,FB*%
%TO.N,Net-(R10-Pad2)*%
X52950000Y-63050000D03*
%TD*%
%TO.P,U2,1,EN*%
%TO.N,Net-(R3-Pad1)*%
X74200000Y-65250000D03*
%TO.P,U2,2,GND*%
%TO.N,GND*%
X73250000Y-65250000D03*
%TO.P,U2,3,SW*%
%TO.N,Net-(L2-Pad1)*%
X72300000Y-65250000D03*
%TO.P,U2,4,IN*%
%TO.N,+BATT*%
X72300000Y-63050000D03*
%TO.P,U2,5,NC*%
%TO.N,no_connect_(U2-Pad5)*%
X73250000Y-63050000D03*
%TO.P,U2,6,FB*%
%TO.N,Net-(R12-Pad2)*%
X74200000Y-63050000D03*
%TD*%
D25*
%TO.P,U3,1,GND*%
%TO.N,GND*%
X131800000Y-43445000D03*
%TO.P,U3,2,VDD*%
%TO.N,+3V3*%
X131800000Y-44715000D03*
%TO.P,U3,3,EN*%
%TO.N,ESP_~RST*%
X131800000Y-45985000D03*
%TO.P,U3,4,SENSOR_VP*%
%TO.N,SD_nDET*%
X131800000Y-47255000D03*
%TO.P,U3,5,SENSOR_VN*%
%TO.N,EINK_STATE*%
X131800000Y-48525000D03*
%TO.P,U3,6,IO34*%
%TO.N,VBAT_ADC*%
X131800000Y-49795000D03*
%TO.P,U3,7,IO35*%
%TO.N,VIN_ADC*%
X131800000Y-51065000D03*
%TO.P,U3,8,IO32*%
%TO.N,GPS_VCC_nEN*%
X131800000Y-52335000D03*
%TO.P,U3,9,IO33*%
%TO.N,Net-(R18-Pad2)*%
X131800000Y-53605000D03*
%TO.P,U3,10,IO25*%
%TO.N,EINK_DC*%
X131800000Y-54875000D03*
%TO.P,U3,11,IO26*%
%TO.N,EINK_VCC_~EN*%
X131800000Y-56145000D03*
%TO.P,U3,12,IO27*%
%TO.N,IO27*%
X131800000Y-57415000D03*
%TO.P,U3,13,IO14*%
%TO.N,JTAG_TMS*%
X131800000Y-58685000D03*
%TO.P,U3,14,IO12*%
%TO.N,SD_DAT2*%
X131800000Y-59955000D03*
D26*
%TO.P,U3,15,GND*%
%TO.N,GND*%
X129015000Y-60955000D03*
%TO.P,U3,16,IO13*%
%TO.N,JTAG_TCK*%
X127745000Y-60955000D03*
%TO.P,U3,17,SHD/SD2*%
%TO.N,no_connect_(U3-Pad17)*%
X126475000Y-60955000D03*
%TO.P,U3,18,SWP/SD3*%
%TO.N,no_connect_(U3-Pad18)*%
X125205000Y-60955000D03*
%TO.P,U3,19,SCS/CMD*%
%TO.N,no_connect_(U3-Pad19)*%
X123935000Y-60955000D03*
%TO.P,U3,20,SCK/CLK*%
%TO.N,no_connect_(U3-Pad20)*%
X122665000Y-60955000D03*
%TO.P,U3,21,SDO/SD0*%
%TO.N,no_connect_(U3-Pad21)*%
X121395000Y-60955000D03*
%TO.P,U3,22,SDI/SD1*%
%TO.N,no_connect_(U3-Pad22)*%
X120125000Y-60955000D03*
%TO.P,U3,23,IO15*%
%TO.N,JTAG_TDO*%
X118855000Y-60955000D03*
%TO.P,U3,24,IO2*%
%TO.N,SD_DAT0*%
X117585000Y-60955000D03*
D25*
%TO.P,U3,25,IO0*%
%TO.N,G_INT2*%
X114800000Y-59955000D03*
%TO.P,U3,26,IO4*%
%TO.N,SD_DAT1*%
X114800000Y-58685000D03*
%TO.P,U3,27,IO16*%
%TO.N,SD_VCC_nEN*%
X114800000Y-57415000D03*
%TO.P,U3,28,IO17*%
%TO.N,EINK_SPI_MOSI*%
X114800000Y-56145000D03*
%TO.P,U3,29,IO5*%
%TO.N,EINK_~CS*%
X114800000Y-54875000D03*
%TO.P,U3,30,IO18*%
%TO.N,EINK_SPI_CLK*%
X114800000Y-53605000D03*
%TO.P,U3,31,IO19*%
%TO.N,G_INT1*%
X114800000Y-52335000D03*
%TO.P,U3,32,NC*%
%TO.N,no_connect_(U3-Pad32)*%
X114800000Y-51065000D03*
%TO.P,U3,33,IO21*%
%TO.N,I2C_DAT*%
X114800000Y-49795000D03*
%TO.P,U3,34,RXD0/IO3*%
%TO.N,Net-(R20-Pad1)*%
X114800000Y-48525000D03*
%TO.P,U3,35,TXD0/IO1*%
%TO.N,Net-(R19-Pad1)*%
X114800000Y-47255000D03*
%TO.P,U3,36,IO22*%
%TO.N,EINK_SPI_MISO*%
X114800000Y-45985000D03*
%TO.P,U3,37,IO23*%
%TO.N,EINK_EEPROM_~EN*%
X114800000Y-44715000D03*
%TO.P,U3,38,GND*%
%TO.N,GND*%
X114800000Y-43445000D03*
D27*
%TO.P,U3,39,GND*%
X124300000Y-50945000D03*
%TD*%
%TA.AperFunction,SMDPad,CuDef*%
%TO.P,U6,1,SDO/SA0*%
%TO.N,Net-(R34-Pad2)*%
G36*
X83665258Y-77573282D02*
G01*
X83661976Y-77573861D01*
X83659090Y-77572195D01*
X83649348Y-77570477D01*
X83634421Y-77557951D01*
X83617547Y-77548209D01*
X83615233Y-77541850D01*
X83610048Y-77537500D01*
X83606664Y-77518309D01*
X83600000Y-77500000D01*
X83600000Y-77481066D01*
X83600809Y-77476480D01*
X83600286Y-77474529D01*
X83601680Y-77471540D01*
X83604523Y-77455414D01*
X83615048Y-77442871D01*
X83621967Y-77428033D01*
X83828033Y-77221967D01*
X83831847Y-77219297D01*
X83832857Y-77217547D01*
X83835957Y-77216419D01*
X83849370Y-77207027D01*
X83865681Y-77205600D01*
X83881066Y-77200000D01*
X84150000Y-77200000D01*
X84159742Y-77201718D01*
X84163024Y-77201139D01*
X84165910Y-77202805D01*
X84175652Y-77204523D01*
X84190579Y-77217049D01*
X84207453Y-77226791D01*
X84209767Y-77233150D01*
X84214952Y-77237500D01*
X84218336Y-77256691D01*
X84225000Y-77275000D01*
X84225000Y-77500000D01*
X84223282Y-77509742D01*
X84223861Y-77513024D01*
X84222195Y-77515910D01*
X84220477Y-77525652D01*
X84207951Y-77540579D01*
X84198209Y-77557453D01*
X84191850Y-77559767D01*
X84187500Y-77564952D01*
X84168309Y-77568336D01*
X84150000Y-77575000D01*
X83675000Y-77575000D01*
X83665258Y-77573282D01*
G37*
%TD.AperFunction*%
D28*
%TO.P,U6,2,SDX*%
X83912500Y-77900000D03*
%TO.P,U6,3,SCX*%
X83912500Y-78400000D03*
%TA.AperFunction,SMDPad,CuDef*%
%TO.P,U6,4,INT1*%
%TO.N,Net-(U6-Pad4)*%
G36*
X83876480Y-79099191D02*
G01*
X83874530Y-79099714D01*
X83871542Y-79098321D01*
X83855414Y-79095477D01*
X83842870Y-79084951D01*
X83828033Y-79078033D01*
X83621967Y-78871967D01*
X83619297Y-78868153D01*
X83617547Y-78867143D01*
X83616419Y-78864043D01*
X83607027Y-78850630D01*
X83605600Y-78834320D01*
X83600000Y-78818934D01*
X83600000Y-78800000D01*
X83601718Y-78790258D01*
X83601139Y-78786976D01*
X83602805Y-78784090D01*
X83604523Y-78774348D01*
X83617049Y-78759421D01*
X83626791Y-78742547D01*
X83633150Y-78740233D01*
X83637500Y-78735048D01*
X83656691Y-78731664D01*
X83675000Y-78725000D01*
X84150000Y-78725000D01*
X84159742Y-78726718D01*
X84163024Y-78726139D01*
X84165910Y-78727805D01*
X84175652Y-78729523D01*
X84190579Y-78742049D01*
X84207453Y-78751791D01*
X84209767Y-78758150D01*
X84214952Y-78762500D01*
X84218336Y-78781691D01*
X84225000Y-78800000D01*
X84225000Y-79025000D01*
X84223282Y-79034742D01*
X84223861Y-79038024D01*
X84222195Y-79040910D01*
X84220477Y-79050652D01*
X84207951Y-79065579D01*
X84198209Y-79082453D01*
X84191850Y-79084767D01*
X84187500Y-79089952D01*
X84168309Y-79093336D01*
X84150000Y-79100000D01*
X83881066Y-79100000D01*
X83876480Y-79099191D01*
G37*
%TD.AperFunction*%
%TA.AperFunction,SMDPad,CuDef*%
%TO.P,U6,5,VDDIO*%
%TO.N,+3V3*%
G36*
X83140258Y-79373282D02*
G01*
X83136976Y-79373861D01*
X83134090Y-79372195D01*
X83124348Y-79370477D01*
X83109421Y-79357951D01*
X83092547Y-79348209D01*
X83090233Y-79341850D01*
X83085048Y-79337500D01*
X83081664Y-79318309D01*
X83075000Y-79300000D01*
X83075000Y-78825000D01*
X83076718Y-78815258D01*
X83076139Y-78811976D01*
X83077805Y-78809090D01*
X83079523Y-78799348D01*
X83092049Y-78784421D01*
X83101791Y-78767547D01*
X83108150Y-78765233D01*
X83112500Y-78760048D01*
X83131691Y-78756664D01*
X83150000Y-78750000D01*
X83168934Y-78750000D01*
X83173520Y-78750809D01*
X83175471Y-78750286D01*
X83178460Y-78751680D01*
X83194586Y-78754523D01*
X83207129Y-78765048D01*
X83221967Y-78771967D01*
X83428033Y-78978033D01*
X83430703Y-78981847D01*
X83432453Y-78982857D01*
X83433581Y-78985957D01*
X83442973Y-78999370D01*
X83444400Y-79015681D01*
X83450000Y-79031066D01*
X83450000Y-79300000D01*
X83448282Y-79309742D01*
X83448861Y-79313024D01*
X83447195Y-79315910D01*
X83445477Y-79325652D01*
X83432951Y-79340579D01*
X83423209Y-79357453D01*
X83416850Y-79359767D01*
X83412500Y-79364952D01*
X83393309Y-79368336D01*
X83375000Y-79375000D01*
X83150000Y-79375000D01*
X83140258Y-79373282D01*
G37*
%TD.AperFunction*%
D29*
%TO.P,U6,6,GND*%
%TO.N,GND*%
X82750000Y-79062500D03*
%TA.AperFunction,SMDPad,CuDef*%
%TO.P,U6,7,GND*%
G36*
X82115258Y-79373282D02*
G01*
X82111976Y-79373861D01*
X82109090Y-79372195D01*
X82099348Y-79370477D01*
X82084421Y-79357951D01*
X82067547Y-79348209D01*
X82065233Y-79341850D01*
X82060048Y-79337500D01*
X82056664Y-79318309D01*
X82050000Y-79300000D01*
X82050000Y-79031066D01*
X82050809Y-79026480D01*
X82050286Y-79024529D01*
X82051680Y-79021540D01*
X82054523Y-79005414D01*
X82065048Y-78992871D01*
X82071967Y-78978033D01*
X82278033Y-78771967D01*
X82281847Y-78769297D01*
X82282857Y-78767547D01*
X82285957Y-78766419D01*
X82299370Y-78757027D01*
X82315681Y-78755600D01*
X82331066Y-78750000D01*
X82350000Y-78750000D01*
X82359742Y-78751718D01*
X82363024Y-78751139D01*
X82365910Y-78752805D01*
X82375652Y-78754523D01*
X82390579Y-78767049D01*
X82407453Y-78776791D01*
X82409767Y-78783150D01*
X82414952Y-78787500D01*
X82418336Y-78806691D01*
X82425000Y-78825000D01*
X82425000Y-79300000D01*
X82423282Y-79309742D01*
X82423861Y-79313024D01*
X82422195Y-79315910D01*
X82420477Y-79325652D01*
X82407951Y-79340579D01*
X82398209Y-79357453D01*
X82391850Y-79359767D01*
X82387500Y-79364952D01*
X82368309Y-79368336D01*
X82350000Y-79375000D01*
X82125000Y-79375000D01*
X82115258Y-79373282D01*
G37*
%TD.AperFunction*%
%TA.AperFunction,SMDPad,CuDef*%
%TO.P,U6,8,VDD*%
%TO.N,+3V3*%
G36*
X81340258Y-79098282D02*
G01*
X81336976Y-79098861D01*
X81334090Y-79097195D01*
X81324348Y-79095477D01*
X81309421Y-79082951D01*
X81292547Y-79073209D01*
X81290233Y-79066850D01*
X81285048Y-79062500D01*
X81281664Y-79043309D01*
X81275000Y-79025000D01*
X81275000Y-78800000D01*
X81276718Y-78790258D01*
X81276139Y-78786976D01*
X81277805Y-78784090D01*
X81279523Y-78774348D01*
X81292049Y-78759421D01*
X81301791Y-78742547D01*
X81308150Y-78740233D01*
X81312500Y-78735048D01*
X81331691Y-78731664D01*
X81350000Y-78725000D01*
X81825000Y-78725000D01*
X81834742Y-78726718D01*
X81838024Y-78726139D01*
X81840910Y-78727805D01*
X81850652Y-78729523D01*
X81865579Y-78742049D01*
X81882453Y-78751791D01*
X81884767Y-78758150D01*
X81889952Y-78762500D01*
X81893336Y-78781691D01*
X81900000Y-78800000D01*
X81900000Y-78818934D01*
X81899191Y-78823520D01*
X81899714Y-78825470D01*
X81898321Y-78828458D01*
X81895477Y-78844586D01*
X81884951Y-78857130D01*
X81878033Y-78871967D01*
X81671967Y-79078033D01*
X81668153Y-79080703D01*
X81667143Y-79082453D01*
X81664043Y-79083581D01*
X81650630Y-79092973D01*
X81634320Y-79094400D01*
X81618934Y-79100000D01*
X81350000Y-79100000D01*
X81340258Y-79098282D01*
G37*
%TD.AperFunction*%
D28*
%TO.P,U6,9,INT2*%
%TO.N,Net-(U6-Pad9)*%
X81587500Y-78400000D03*
%TO.P,U6,10,NC*%
%TO.N,no_connect_(U6-Pad10)*%
X81587500Y-77900000D03*
%TA.AperFunction,SMDPad,CuDef*%
%TO.P,U6,11,NC*%
%TO.N,no_connect_(U6-Pad11)*%
G36*
X81340258Y-77573282D02*
G01*
X81336976Y-77573861D01*
X81334090Y-77572195D01*
X81324348Y-77570477D01*
X81309421Y-77557951D01*
X81292547Y-77548209D01*
X81290233Y-77541850D01*
X81285048Y-77537500D01*
X81281664Y-77518309D01*
X81275000Y-77500000D01*
X81275000Y-77275000D01*
X81276718Y-77265258D01*
X81276139Y-77261976D01*
X81277805Y-77259090D01*
X81279523Y-77249348D01*
X81292049Y-77234421D01*
X81301791Y-77217547D01*
X81308150Y-77215233D01*
X81312500Y-77210048D01*
X81331691Y-77206664D01*
X81350000Y-77200000D01*
X81618934Y-77200000D01*
X81623520Y-77200809D01*
X81625471Y-77200286D01*
X81628460Y-77201680D01*
X81644586Y-77204523D01*
X81657129Y-77215048D01*
X81671967Y-77221967D01*
X81878033Y-77428033D01*
X81880703Y-77431847D01*
X81882453Y-77432857D01*
X81883581Y-77435957D01*
X81892973Y-77449370D01*
X81894400Y-77465681D01*
X81900000Y-77481066D01*
X81900000Y-77500000D01*
X81898282Y-77509742D01*
X81898861Y-77513024D01*
X81897195Y-77515910D01*
X81895477Y-77525652D01*
X81882951Y-77540579D01*
X81873209Y-77557453D01*
X81866850Y-77559767D01*
X81862500Y-77564952D01*
X81843309Y-77568336D01*
X81825000Y-77575000D01*
X81350000Y-77575000D01*
X81340258Y-77573282D01*
G37*
%TD.AperFunction*%
%TA.AperFunction,SMDPad,CuDef*%
%TO.P,U6,12,CS*%
%TO.N,+3V3*%
G36*
X82326480Y-77549191D02*
G01*
X82324530Y-77549714D01*
X82321542Y-77548321D01*
X82305414Y-77545477D01*
X82292870Y-77534951D01*
X82278033Y-77528033D01*
X82071967Y-77321967D01*
X82069297Y-77318153D01*
X82067547Y-77317143D01*
X82066419Y-77314043D01*
X82057027Y-77300630D01*
X82055600Y-77284320D01*
X82050000Y-77268934D01*
X82050000Y-77000000D01*
X82051718Y-76990258D01*
X82051139Y-76986976D01*
X82052805Y-76984090D01*
X82054523Y-76974348D01*
X82067049Y-76959421D01*
X82076791Y-76942547D01*
X82083150Y-76940233D01*
X82087500Y-76935048D01*
X82106691Y-76931664D01*
X82125000Y-76925000D01*
X82350000Y-76925000D01*
X82359742Y-76926718D01*
X82363024Y-76926139D01*
X82365910Y-76927805D01*
X82375652Y-76929523D01*
X82390579Y-76942049D01*
X82407453Y-76951791D01*
X82409767Y-76958150D01*
X82414952Y-76962500D01*
X82418336Y-76981691D01*
X82425000Y-77000000D01*
X82425000Y-77475000D01*
X82423282Y-77484742D01*
X82423861Y-77488024D01*
X82422195Y-77490910D01*
X82420477Y-77500652D01*
X82407951Y-77515579D01*
X82398209Y-77532453D01*
X82391850Y-77534767D01*
X82387500Y-77539952D01*
X82368309Y-77543336D01*
X82350000Y-77550000D01*
X82331066Y-77550000D01*
X82326480Y-77549191D01*
G37*
%TD.AperFunction*%
D29*
%TO.P,U6,13,SCL*%
%TO.N,EINK_SPI_MISO*%
X82750000Y-77237500D03*
%TA.AperFunction,SMDPad,CuDef*%
%TO.P,U6,14,SDA*%
%TO.N,I2C_DAT*%
G36*
X83140258Y-77548282D02*
G01*
X83136976Y-77548861D01*
X83134090Y-77547195D01*
X83124348Y-77545477D01*
X83109421Y-77532951D01*
X83092547Y-77523209D01*
X83090233Y-77516850D01*
X83085048Y-77512500D01*
X83081664Y-77493309D01*
X83075000Y-77475000D01*
X83075000Y-77000000D01*
X83076718Y-76990258D01*
X83076139Y-76986976D01*
X83077805Y-76984090D01*
X83079523Y-76974348D01*
X83092049Y-76959421D01*
X83101791Y-76942547D01*
X83108150Y-76940233D01*
X83112500Y-76935048D01*
X83131691Y-76931664D01*
X83150000Y-76925000D01*
X83375000Y-76925000D01*
X83384742Y-76926718D01*
X83388024Y-76926139D01*
X83390910Y-76927805D01*
X83400652Y-76929523D01*
X83415579Y-76942049D01*
X83432453Y-76951791D01*
X83434767Y-76958150D01*
X83439952Y-76962500D01*
X83443336Y-76981691D01*
X83450000Y-77000000D01*
X83450000Y-77268934D01*
X83449191Y-77273520D01*
X83449714Y-77275470D01*
X83448321Y-77278458D01*
X83445477Y-77294586D01*
X83434951Y-77307130D01*
X83428033Y-77321967D01*
X83221967Y-77528033D01*
X83218153Y-77530703D01*
X83217143Y-77532453D01*
X83214043Y-77533581D01*
X83200630Y-77542973D01*
X83184320Y-77544400D01*
X83168934Y-77550000D01*
X83150000Y-77550000D01*
X83140258Y-77548282D01*
G37*
%TD.AperFunction*%
%TD*%
D30*
%TO.P,J9,1,Pin_1*%
%TO.N,+BATT*%
X61200000Y-73000000D03*
%TD*%
D31*
%TO.P,J10,1,Pin_1*%
%TO.N,GND*%
X66250000Y-73000000D03*
%TD*%
D13*
%TO.P,C3,1*%
%TO.N,+3V3*%
X135550000Y-44925000D03*
%TO.P,C3,2*%
%TO.N,GND*%
X135550000Y-43375000D03*
%TD*%
%TO.P,C4,1*%
%TO.N,ESP_~RST*%
X137400000Y-44900000D03*
%TO.P,C4,2*%
%TO.N,GND*%
X137400000Y-43350000D03*
%TD*%
D12*
%TO.P,C8,1*%
%TO.N,GND*%
X134800000Y-50825000D03*
%TO.P,C8,2*%
%TO.N,VBAT_ADC*%
X134800000Y-52375000D03*
%TD*%
D13*
%TO.P,C12,1*%
%TO.N,GND*%
X134800000Y-55375000D03*
%TO.P,C12,2*%
%TO.N,VIN_ADC*%
X134800000Y-53825000D03*
%TD*%
%TO.P,C5,1*%
%TO.N,+3V3*%
X134050000Y-44925000D03*
%TO.P,C5,2*%
%TO.N,GND*%
X134050000Y-43375000D03*
%TD*%
D11*
%TO.P,R6,1*%
%TO.N,SD_nDET*%
X134725000Y-46800000D03*
%TO.P,R6,2*%
%TO.N,+3V3*%
X136375000Y-46800000D03*
%TD*%
D18*
%TO.P,R1,1*%
%TO.N,ESP_~RST*%
X139000000Y-44975000D03*
%TO.P,R1,2*%
%TO.N,+3V3*%
X139000000Y-43325000D03*
%TD*%
%TO.P,R15,1*%
%TO.N,GND*%
X136300000Y-55425000D03*
%TO.P,R15,2*%
%TO.N,VIN_ADC*%
X136300000Y-53775000D03*
%TD*%
D11*
%TO.P,R21,1*%
%TO.N,+3V3*%
X108525000Y-57200000D03*
%TO.P,R21,2*%
%TO.N,EINK_SPI_MISO*%
X110175000Y-57200000D03*
%TD*%
D20*
%TO.P,R7,1*%
%TO.N,+3V3*%
X136375000Y-48400000D03*
%TO.P,R7,2*%
%TO.N,EINK_STATE*%
X134725000Y-48400000D03*
%TD*%
D18*
%TO.P,R26,1*%
%TO.N,EINK_EEPROM_~EN*%
X88000000Y-50025000D03*
%TO.P,R26,2*%
%TO.N,Net-(R26-Pad2)*%
X88000000Y-48375000D03*
%TD*%
D20*
%TO.P,R20,1*%
%TO.N,Net-(R20-Pad1)*%
X110275000Y-51350000D03*
%TO.P,R20,2*%
%TO.N,UART1_TX*%
X108625000Y-51350000D03*
%TD*%
%TO.P,R16,1*%
%TO.N,G_INT2*%
X110175000Y-60200000D03*
%TO.P,R16,2*%
%TO.N,+3V3*%
X108525000Y-60200000D03*
%TD*%
D11*
%TO.P,R8,1*%
%TO.N,VBAT_ADC*%
X137725000Y-52350000D03*
%TO.P,R8,2*%
%TO.N,+BATT*%
X139375000Y-52350000D03*
%TD*%
D19*
%TO.P,R9,1*%
%TO.N,GND*%
X136300000Y-50775000D03*
%TO.P,R9,2*%
%TO.N,VBAT_ADC*%
X136300000Y-52425000D03*
%TD*%
D20*
%TO.P,R19,1*%
%TO.N,Net-(R19-Pad1)*%
X110275000Y-49850000D03*
%TO.P,R19,2*%
%TO.N,UART1_RX*%
X108625000Y-49850000D03*
%TD*%
D11*
%TO.P,R14,1*%
%TO.N,VIN_ADC*%
X137725000Y-53850000D03*
%TO.P,R14,2*%
%TO.N,+5V*%
X139375000Y-53850000D03*
%TD*%
D18*
%TO.P,R17,1*%
%TO.N,GND*%
X117350000Y-67025000D03*
%TO.P,R17,2*%
%TO.N,SD_DAT0*%
X117350000Y-65375000D03*
%TD*%
D32*
%TO.P,C22,1*%
%TO.N,GND*%
X68950000Y-121700000D03*
%TO.P,C22,2*%
%TO.N,/PREVGL*%
X67400000Y-121700000D03*
%TD*%
%TO.P,C13,1*%
%TO.N,Net-(C13-Pad1)*%
X66975000Y-93850000D03*
%TO.P,C13,2*%
%TO.N,Net-(C13-Pad2)*%
X65425000Y-93850000D03*
%TD*%
%TO.P,C16,1*%
%TO.N,EINK_VCC*%
X68450000Y-105100000D03*
%TO.P,C16,2*%
%TO.N,GND*%
X66900000Y-105100000D03*
%TD*%
D12*
%TO.P,C17,1*%
%TO.N,EINK_VCC*%
X57450000Y-128325000D03*
%TO.P,C17,2*%
%TO.N,GND*%
X57450000Y-129875000D03*
%TD*%
D32*
%TO.P,C21,1*%
%TO.N,GND*%
X68950000Y-119200000D03*
%TO.P,C21,2*%
%TO.N,/PREVGH*%
X67400000Y-119200000D03*
%TD*%
D14*
%TO.P,C20,1*%
%TO.N,Net-(C20-Pad1)*%
X67375000Y-110700000D03*
%TO.P,C20,2*%
%TO.N,GND*%
X68925000Y-110700000D03*
%TD*%
D33*
%TO.P,D4,1,K*%
%TO.N,GND*%
X67100000Y-91350000D03*
%TO.P,D4,2,A*%
%TO.N,Net-(C13-Pad2)*%
X64300000Y-91350000D03*
%TD*%
D14*
%TO.P,C23,1*%
%TO.N,Net-(C23-Pad1)*%
X67375000Y-108200000D03*
%TO.P,C23,2*%
%TO.N,GND*%
X68925000Y-108200000D03*
%TD*%
%TO.P,C24,1*%
%TO.N,Net-(C23-Pad1)*%
X67400000Y-109450000D03*
%TO.P,C24,2*%
%TO.N,GND*%
X68950000Y-109450000D03*
%TD*%
%TO.P,C25,1*%
%TO.N,Net-(C20-Pad1)*%
X67350000Y-111950000D03*
%TO.P,C25,2*%
%TO.N,GND*%
X68900000Y-111950000D03*
%TD*%
%TO.P,C26,1*%
%TO.N,EINK_VCC*%
X67400000Y-115450000D03*
%TO.P,C26,2*%
%TO.N,GND*%
X68950000Y-115450000D03*
%TD*%
D32*
%TO.P,C27,1*%
%TO.N,GND*%
X68925000Y-116700000D03*
%TO.P,C27,2*%
%TO.N,Net-(C27-Pad2)*%
X67375000Y-116700000D03*
%TD*%
%TO.P,C28,1*%
%TO.N,GND*%
X68950000Y-117950000D03*
%TO.P,C28,2*%
%TO.N,Net-(C28-Pad2)*%
X67400000Y-117950000D03*
%TD*%
%TO.P,C29,1*%
%TO.N,GND*%
X68950000Y-120450000D03*
%TO.P,C29,2*%
%TO.N,Net-(C29-Pad2)*%
X67400000Y-120450000D03*
%TD*%
D33*
%TO.P,D3,1,K*%
%TO.N,Net-(C13-Pad2)*%
X63600000Y-93850000D03*
%TO.P,D3,2,A*%
%TO.N,/PREVGL*%
X60800000Y-93850000D03*
%TD*%
%TO.P,D5,1,K*%
%TO.N,/PREVGH*%
X64300000Y-96350000D03*
%TO.P,D5,2,A*%
%TO.N,Net-(C13-Pad1)*%
X67100000Y-96350000D03*
%TD*%
D34*
%TO.P,J2,1,Pin_1*%
%TO.N,Net-(C30-Pad2)*%
X65500000Y-120950000D03*
%TO.P,J2,2,Pin_2*%
%TO.N,/PREVGL*%
X65500000Y-120450000D03*
%TO.P,J2,3,Pin_3*%
%TO.N,Net-(C29-Pad2)*%
X65500000Y-119950000D03*
%TO.P,J2,4,Pin_4*%
%TO.N,/PREVGH*%
X65500000Y-119450000D03*
%TO.P,J2,5,Pin_5*%
%TO.N,Net-(C28-Pad2)*%
X65500000Y-118950000D03*
%TO.P,J2,6,Pin_6*%
%TO.N,EINK_SPI_MISO*%
X65500000Y-118450000D03*
%TO.P,J2,7,Pin_7*%
%TO.N,Net-(C27-Pad2)*%
X65500000Y-117950000D03*
%TO.P,J2,8,Pin_8*%
%TO.N,GND*%
X65500000Y-117450000D03*
%TO.P,J2,9,Pin_9*%
%TO.N,EINK_VCC*%
X65500000Y-116950000D03*
%TO.P,J2,10,Pin_10*%
X65500000Y-116450000D03*
%TO.P,J2,11,Pin_11*%
%TO.N,EINK_SPI_MOSI*%
X65500000Y-115950000D03*
%TO.P,J2,12,Pin_12*%
%TO.N,EINK_SPI_CLK*%
X65500000Y-115450000D03*
%TO.P,J2,13,Pin_13*%
%TO.N,EINK_~CS*%
X65500000Y-114950000D03*
%TO.P,J2,14,Pin_14*%
%TO.N,EINK_DC*%
X65500000Y-114450000D03*
%TO.P,J2,15,Pin_15*%
%TO.N,EINK_VCC*%
X65500000Y-113950000D03*
%TO.P,J2,16,Pin_16*%
%TO.N,EINK_STATE*%
X65500000Y-113450000D03*
%TO.P,J2,17,Pin_17*%
%TO.N,Net-(J2-Pad17)*%
X65500000Y-112950000D03*
%TO.P,J2,18,Pin_18*%
%TO.N,Net-(J2-Pad18)*%
X65500000Y-112450000D03*
%TO.P,J2,19,Pin_19*%
%TO.N,Net-(J2-Pad19)*%
X65500000Y-111950000D03*
%TO.P,J2,20,Pin_20*%
%TO.N,Net-(C20-Pad1)*%
X65500000Y-111450000D03*
%TO.P,J2,21,Pin_21*%
%TO.N,Net-(C23-Pad1)*%
X65500000Y-110950000D03*
%TO.P,J2,22,Pin_22*%
%TO.N,/RESE*%
X65500000Y-110450000D03*
%TO.P,J2,23,Pin_23*%
%TO.N,/GDR*%
X65500000Y-109950000D03*
%TO.P,J2,24,Pin_24*%
%TO.N,EINK_EEPROM_~EN*%
X65500000Y-109450000D03*
D35*
%TO.P,J2,MP*%
%TO.N,N/C*%
X62250000Y-107550000D03*
X62250000Y-122850000D03*
%TD*%
D32*
%TO.P,C30,1*%
%TO.N,GND*%
X68950000Y-122950000D03*
%TO.P,C30,2*%
%TO.N,Net-(C30-Pad2)*%
X67400000Y-122950000D03*
%TD*%
D36*
%TO.P,Q1,1,G*%
%TO.N,EINK_VCC_~EN*%
X65100000Y-84540000D03*
%TO.P,Q1,2,S*%
%TO.N,+3V3*%
X67000000Y-84540000D03*
%TO.P,Q1,3,D*%
%TO.N,EINK_VCC*%
X66050000Y-87160000D03*
%TD*%
D37*
%TO.P,JP1,1,A*%
%TO.N,GND*%
X70000000Y-113700000D03*
%TO.P,JP1,2,C*%
%TO.N,Net-(J2-Pad17)*%
X68700000Y-113700000D03*
%TO.P,JP1,3,B*%
%TO.N,+3V3*%
X67400000Y-113700000D03*
%TD*%
D38*
%TO.P,Q2,1,G*%
%TO.N,/GDR*%
X63900000Y-100850000D03*
%TO.P,Q2,2,S*%
%TO.N,/RESE*%
X62000000Y-100850000D03*
%TO.P,Q2,3,D*%
%TO.N,Net-(C13-Pad1)*%
X62950000Y-98850000D03*
%TD*%
D39*
%TO.P,L3,1,1*%
%TO.N,EINK_VCC*%
X67200000Y-101100000D03*
%TO.P,L3,2,2*%
%TO.N,Net-(C13-Pad1)*%
X67200000Y-98775000D03*
%TD*%
D40*
%TO.P,R28,1*%
%TO.N,/RESE*%
X63450000Y-105100000D03*
%TO.P,R28,2*%
%TO.N,GND*%
X65275000Y-105100000D03*
%TD*%
D11*
%TO.P,R27,1*%
%TO.N,EINK_VCC_~EN*%
X65225000Y-82850000D03*
%TO.P,R27,2*%
%TO.N,+3V3*%
X66875000Y-82850000D03*
%TD*%
D41*
%TO.P,U7,1,SDA*%
%TO.N,Net-(J2-Pad18)*%
X65675000Y-128695000D03*
%TO.P,U7,2,SCL*%
%TO.N,Net-(J2-Pad19)*%
X65675000Y-129965000D03*
%TO.P,U7,3,TOUT*%
%TO.N,no_connect_(U7-Pad3)*%
X65675000Y-131235000D03*
%TO.P,U7,4,GND*%
%TO.N,GND*%
X65675000Y-132505000D03*
%TO.P,U7,5,A2*%
X60725000Y-132505000D03*
%TO.P,U7,6,A1*%
X60725000Y-131235000D03*
%TO.P,U7,7,A0*%
X60725000Y-129965000D03*
%TO.P,U7,8,VDD*%
%TO.N,EINK_VCC*%
X60725000Y-128695000D03*
%TD*%
D20*
%TO.P,R29,1*%
%TO.N,GND*%
X65275000Y-103100000D03*
%TO.P,R29,2*%
%TO.N,/GDR*%
X63625000Y-103100000D03*
%TD*%
D18*
%TO.P,R30,1*%
%TO.N,Net-(J2-Pad19)*%
X63200000Y-126925000D03*
%TO.P,R30,2*%
%TO.N,EINK_VCC*%
X63200000Y-125275000D03*
%TD*%
%TO.P,R11,1*%
%TO.N,GND*%
X55400000Y-68625000D03*
%TO.P,R11,2*%
%TO.N,Net-(R10-Pad2)*%
X55400000Y-66975000D03*
%TD*%
%TO.P,R13,1*%
%TO.N,GND*%
X76800000Y-68625000D03*
%TO.P,R13,2*%
%TO.N,Net-(R12-Pad2)*%
X76800000Y-66975000D03*
%TD*%
D12*
%TO.P,C31,1*%
%TO.N,+BATT*%
X85000000Y-38050000D03*
%TO.P,C31,2*%
%TO.N,GND*%
X85000000Y-39600000D03*
%TD*%
%TO.P,C32,1*%
%TO.N,GND*%
X85000000Y-34850000D03*
%TO.P,C32,2*%
%TO.N,GPS_SUPPLY*%
X85000000Y-36400000D03*
%TD*%
%TO.P,C33,1*%
%TO.N,GND*%
X86600000Y-34850000D03*
%TO.P,C33,2*%
%TO.N,GPS_SUPPLY*%
X86600000Y-36400000D03*
%TD*%
D32*
%TO.P,C6,1*%
%TO.N,GND*%
X65825000Y-52700000D03*
%TO.P,C6,2*%
%TO.N,+5V*%
X64275000Y-52700000D03*
%TD*%
%TO.P,C7,1*%
%TO.N,GND*%
X69825000Y-52700000D03*
%TO.P,C7,2*%
%TO.N,+5V*%
X68275000Y-52700000D03*
%TD*%
D13*
%TO.P,C9,1*%
%TO.N,Net-(C9-Pad1)*%
X60750000Y-47900000D03*
%TO.P,C9,2*%
%TO.N,GND*%
X60750000Y-46350000D03*
%TD*%
D41*
%TO.P,U4,1,UD+*%
%TO.N,/USB_D+*%
X69525000Y-47295000D03*
%TO.P,U4,2,UD-*%
%TO.N,/USB_D-*%
X69525000Y-48565000D03*
%TO.P,U4,3,GND*%
%TO.N,GND*%
X69525000Y-49835000D03*
%TO.P,U4,4,~RTS*%
%TO.N,no_connect_(U4-Pad4)*%
X69525000Y-51105000D03*
%TO.P,U4,5,VCC*%
%TO.N,+5V*%
X64575000Y-51105000D03*
%TO.P,U4,6,TXD*%
%TO.N,UART1_TX*%
X64575000Y-49835000D03*
%TO.P,U4,7,RXD*%
%TO.N,UART1_RX*%
X64575000Y-48565000D03*
%TO.P,U4,8,V3*%
%TO.N,Net-(C9-Pad1)*%
X64575000Y-47295000D03*
%TD*%
D14*
%TO.P,C19,1*%
%TO.N,GND*%
X44175000Y-50000000D03*
%TO.P,C19,2*%
%TO.N,Net-(C18-Pad1)*%
X45725000Y-50000000D03*
%TD*%
D32*
%TO.P,C18,1*%
%TO.N,Net-(C18-Pad1)*%
X45775000Y-48400000D03*
%TO.P,C18,2*%
%TO.N,GND*%
X44225000Y-48400000D03*
%TD*%
D42*
%TO.P,D1,1,IO1*%
%TO.N,+5V*%
X64200000Y-45650000D03*
%TO.P,D1,2,GND*%
%TO.N,GND*%
X64200000Y-44700000D03*
%TO.P,D1,3,IO2*%
%TO.N,no_connect_(D1-Pad3)*%
X64200000Y-43750000D03*
%TO.P,D1,4,IO3*%
%TO.N,/USB_D+*%
X66400000Y-43750000D03*
%TO.P,D1,5,IO4*%
%TO.N,/USB_D-*%
X66400000Y-44700000D03*
%TO.P,D1,6,IO5*%
%TO.N,no_connect_(D1-Pad6)*%
X66400000Y-45650000D03*
%TD*%
D43*
%TO.P,J27,1,DAT2*%
%TO.N,Net-(J27-Pad1)*%
X48655000Y-35150000D03*
%TO.P,J27,2,DAT3/CD*%
%TO.N,Net-(J27-Pad2)*%
X47555000Y-35150000D03*
%TO.P,J27,3,CMD*%
%TO.N,Net-(J27-Pad3)*%
X46455000Y-35150000D03*
%TO.P,J27,4,VDD*%
%TO.N,Net-(C18-Pad1)*%
X45355000Y-35150000D03*
%TO.P,J27,5,CLK*%
%TO.N,Net-(J27-Pad5)*%
X44255000Y-35150000D03*
%TO.P,J27,6,VSS*%
%TO.N,GND*%
X43155000Y-35150000D03*
%TO.P,J27,7,DAT0*%
%TO.N,Net-(J27-Pad7)*%
X42055000Y-35150000D03*
D44*
%TO.P,J27,8,DAT1*%
%TO.N,Net-(J27-Pad8)*%
X41005000Y-35150000D03*
D45*
%TO.P,J27,9,DET_B*%
%TO.N,GND*%
X51290000Y-41300000D03*
%TO.P,J27,10,DET_A*%
%TO.N,Net-(J27-Pad10)*%
X51290000Y-45000000D03*
D46*
%TO.P,J27,11,SHIELD*%
%TO.N,GND*%
X39795000Y-35500000D03*
D47*
X47790000Y-45975000D03*
X41820000Y-45975000D03*
D48*
X51115000Y-35275000D03*
%TD*%
D19*
%TO.P,R5,1*%
%TO.N,Net-(J1-Pad2)*%
X64200000Y-39250000D03*
%TO.P,R5,2*%
%TO.N,/USB_D-*%
X64200000Y-40900000D03*
%TD*%
%TO.P,R4,1*%
%TO.N,Net-(J1-Pad3)*%
X65750000Y-39250000D03*
%TO.P,R4,2*%
%TO.N,/USB_D+*%
X65750000Y-40900000D03*
%TD*%
D49*
%TO.P,J1,1,VBUS*%
%TO.N,+5V*%
X63400000Y-35525000D03*
%TO.P,J1,2,D-*%
%TO.N,Net-(J1-Pad2)*%
X64050000Y-35525000D03*
%TO.P,J1,3,D+*%
%TO.N,Net-(J1-Pad3)*%
X64700000Y-35525000D03*
%TO.P,J1,4,ID*%
%TO.N,no_connect_(J1-Pad4)*%
X65350000Y-35525000D03*
%TO.P,J1,5,GND*%
%TO.N,GND*%
X66000000Y-35525000D03*
D50*
%TO.P,J1,6,Shield*%
X60585000Y-32690000D03*
D51*
X60675000Y-35050000D03*
D50*
X68815000Y-32690000D03*
D51*
X68725000Y-35050000D03*
%TD*%
D18*
%TO.P,R25,1*%
%TO.N,EINK_EEPROM_~EN*%
X95850000Y-50150000D03*
%TO.P,R25,2*%
%TO.N,Net-(R25-Pad2)*%
X95850000Y-48500000D03*
%TD*%
D20*
%TO.P,R23,1*%
%TO.N,UART1_RX*%
X103925000Y-44350000D03*
%TO.P,R23,2*%
%TO.N,Net-(R23-Pad2)*%
X102275000Y-44350000D03*
%TD*%
%TO.P,R24,1*%
%TO.N,UART1_TX*%
X103925000Y-42850000D03*
%TO.P,R24,2*%
%TO.N,Net-(R24-Pad2)*%
X102275000Y-42850000D03*
%TD*%
%TO.P,R40,1*%
%TO.N,IO27*%
X77225000Y-42600000D03*
%TO.P,R40,2*%
%TO.N,Net-(J8-Pad1)*%
X75575000Y-42600000D03*
%TD*%
%TO.P,R22,1*%
%TO.N,GPS_SUPPLY*%
X103925000Y-41350000D03*
%TO.P,R22,2*%
%TO.N,Net-(R22-Pad2)*%
X102275000Y-41350000D03*
%TD*%
D11*
%TO.P,R31,1*%
%TO.N,Net-(J2-Pad18)*%
X64625000Y-126850000D03*
%TO.P,R31,2*%
%TO.N,EINK_VCC*%
X66275000Y-126850000D03*
%TD*%
D20*
%TO.P,R41,1*%
%TO.N,SD_DAT2*%
X86750000Y-64000000D03*
%TO.P,R41,2*%
%TO.N,Net-(J27-Pad1)*%
X85100000Y-64000000D03*
%TD*%
%TO.P,R42,1*%
%TO.N,JTAG_TCK*%
X86750000Y-62500000D03*
%TO.P,R42,2*%
%TO.N,Net-(J27-Pad2)*%
X85100000Y-62500000D03*
%TD*%
%TO.P,R43,1*%
%TO.N,JTAG_TDO*%
X86750000Y-61000000D03*
%TO.P,R43,2*%
%TO.N,Net-(J27-Pad3)*%
X85100000Y-61000000D03*
%TD*%
%TO.P,R45,1*%
%TO.N,SD_DAT0*%
X86750000Y-58000000D03*
%TO.P,R45,2*%
%TO.N,Net-(J27-Pad7)*%
X85100000Y-58000000D03*
%TD*%
%TO.P,R47,1*%
%TO.N,SD_nDET*%
X86750000Y-65500000D03*
%TO.P,R47,2*%
%TO.N,Net-(J27-Pad10)*%
X85100000Y-65500000D03*
%TD*%
%TO.P,R46,1*%
%TO.N,SD_DAT1*%
X86750000Y-56500000D03*
%TO.P,R46,2*%
%TO.N,Net-(J27-Pad8)*%
X85100000Y-56500000D03*
%TD*%
%TO.P,R44,1*%
%TO.N,JTAG_TMS*%
X86750000Y-59500000D03*
%TO.P,R44,2*%
%TO.N,Net-(J27-Pad5)*%
X85100000Y-59500000D03*
%TD*%
D11*
%TO.P,R39,1*%
%TO.N,SD_DAT1*%
X88775000Y-56500000D03*
%TO.P,R39,2*%
%TO.N,Net-(C18-Pad1)*%
X90425000Y-56500000D03*
%TD*%
%TO.P,R37,1*%
%TO.N,SD_DAT0*%
X88800000Y-58000000D03*
%TO.P,R37,2*%
%TO.N,Net-(C18-Pad1)*%
X90450000Y-58000000D03*
%TD*%
%TO.P,R38,1*%
%TO.N,JTAG_TMS*%
X88775000Y-59500000D03*
%TO.P,R38,2*%
%TO.N,Net-(C18-Pad1)*%
X90425000Y-59500000D03*
%TD*%
%TO.P,R35,1*%
%TO.N,JTAG_TCK*%
X88775000Y-62500000D03*
%TO.P,R35,2*%
%TO.N,Net-(C18-Pad1)*%
X90425000Y-62500000D03*
%TD*%
%TO.P,R36,1*%
%TO.N,JTAG_TDO*%
X88775000Y-61000000D03*
%TO.P,R36,2*%
%TO.N,Net-(C18-Pad1)*%
X90425000Y-61000000D03*
%TD*%
D52*
%TO.P,U5,1*%
%TO.N,N/C*%
X90000000Y-44100000D03*
%TO.P,U5,2,3D_FIX*%
%TO.N,no_connect_(U5-Pad2)*%
X90000000Y-43100000D03*
%TO.P,U5,3,I2C_SDA*%
%TO.N,I2C_DAT*%
X90000000Y-42100000D03*
%TO.P,U5,4,GND*%
%TO.N,GND*%
X90000000Y-41100000D03*
%TO.P,U5,5,GND*%
X90000000Y-40100000D03*
%TO.P,U5,6,I2C_SCL*%
%TO.N,EINK_SPI_MISO*%
X90000000Y-39100000D03*
%TO.P,U5,7,EXTINT0*%
%TO.N,Net-(R26-Pad2)*%
X90000000Y-38100000D03*
%TO.P,U5,8,V_BCKP*%
%TO.N,+BATT*%
X90000000Y-37100000D03*
%TO.P,U5,9,VCC*%
%TO.N,GPS_SUPPLY*%
X90000000Y-36100000D03*
%TO.P,U5,10,GND*%
%TO.N,GND*%
X90000000Y-35100000D03*
%TO.P,U5,11,GND*%
X90000000Y-34100000D03*
%TO.P,U5,12,GND*%
X90000000Y-33100000D03*
%TO.P,U5,13,GND*%
X90000000Y-31950000D03*
%TO.P,U5,14,GND*%
X99600000Y-31950000D03*
%TO.P,U5,15,GND*%
X99600000Y-33100000D03*
%TO.P,U5,16,RF_OUT*%
%TO.N,Net-(U5-Pad16)*%
X99600000Y-34100000D03*
%TO.P,U5,17,RF_IN*%
X99600000Y-35100000D03*
%TO.P,U5,18,GND*%
%TO.N,GND*%
X99600000Y-36100000D03*
%TO.P,U5,19,GND*%
X99600000Y-37100000D03*
%TO.P,U5,20,JAM_DET*%
%TO.N,no_connect_(U5-Pad20)*%
X99600000Y-38100000D03*
%TO.P,U5,21,GND*%
%TO.N,GND*%
X99600000Y-39100000D03*
%TO.P,U5,22,GND*%
X99600000Y-40100000D03*
%TO.P,U5,23,~RESET*%
%TO.N,Net-(R22-Pad2)*%
X99600000Y-41100000D03*
%TO.P,U5,24,GEO_FENCE*%
%TO.N,no_connect_(U5-Pad24)*%
X99600000Y-42100000D03*
%TO.P,U5,25,TXD1*%
%TO.N,Net-(R24-Pad2)*%
X99600000Y-43100000D03*
%TO.P,U5,26,RXD1*%
%TO.N,Net-(R23-Pad2)*%
X99600000Y-44100000D03*
D53*
%TO.P,U5,27,GND*%
%TO.N,GND*%
X96800000Y-44900000D03*
%TO.P,U5,28,FORCE_ON*%
%TO.N,Net-(R25-Pad2)*%
X95800000Y-44900000D03*
%TO.P,U5,29,TIMEPULSE*%
%TO.N,no_connect_(U5-Pad29)*%
X94800000Y-44900000D03*
%TO.P,U5,30,ANTON*%
%TO.N,no_connect_(U5-Pad30)*%
X93800000Y-44900000D03*
%TO.P,U5,31,GND*%
%TO.N,GND*%
X92800000Y-44900000D03*
%TD*%
D54*
%TO.N,EINK_SPI_MISO*%
X100000000Y-55000000D03*
%TO.N,I2C_DAT*%
X97600000Y-54952657D03*
%TO.N,EINK_SPI_MISO*%
X101200000Y-54000000D03*
%TO.N,I2C_DAT*%
X104600000Y-57600000D03*
%TO.N,G_INT1*%
X103000000Y-55449990D03*
X98800000Y-66400000D03*
%TO.N,I2C_DAT*%
X105400000Y-54799990D03*
%TO.N,IO27*%
X110200000Y-47000000D03*
%TO.N,UART1_RX*%
X105400000Y-49000000D03*
%TO.N,UART1_TX*%
X106200000Y-48200000D03*
%TO.N,+3V3*%
X109600000Y-54200000D03*
%TO.N,G_INT2*%
X103200000Y-60400000D03*
X103200000Y-66200033D03*
%TO.N,GND*%
X119500000Y-64500000D03*
X117850832Y-68056849D03*
X74200000Y-64169998D03*
X51000000Y-64169998D03*
X56200000Y-129800000D03*
X132100000Y-63600000D03*
X70200000Y-107600000D03*
X70200000Y-123000000D03*
X62400000Y-53200000D03*
X73600000Y-57899958D03*
X80600000Y-80200000D03*
X68800000Y-31600000D03*
X101600000Y-33200000D03*
X87676349Y-60176349D03*
X77800000Y-68600000D03*
X113200000Y-43400000D03*
X71000000Y-32400000D03*
X101600000Y-39200000D03*
X44200000Y-51200000D03*
X70200000Y-117800000D03*
X67000000Y-52800010D03*
X68400000Y-73000000D03*
X120200000Y-62800000D03*
X101600000Y-40200000D03*
X87800000Y-35200000D03*
X44400000Y-36250002D03*
X45200000Y-39000000D03*
X66250000Y-70800000D03*
X87800000Y-32100000D03*
X92700000Y-60900000D03*
X71000000Y-52800010D03*
X96800000Y-47200000D03*
X87800000Y-34200000D03*
X92700000Y-59500000D03*
X45200000Y-45800000D03*
X101600000Y-37200000D03*
X66200000Y-75200000D03*
X115000000Y-64400000D03*
X53000000Y-64169998D03*
X63930354Y-117572599D03*
X136200000Y-56600000D03*
X67200000Y-90000000D03*
X134235242Y-63585242D03*
X56400000Y-68600000D03*
X64200000Y-75000000D03*
X87800000Y-40200000D03*
X58992870Y-53200000D03*
X74581264Y-56950022D03*
X70200000Y-120400000D03*
X45500000Y-34000000D03*
X68200000Y-75000000D03*
X72200000Y-64169998D03*
X137800000Y-68200000D03*
X71000000Y-113800000D03*
X137400000Y-42400000D03*
X130400000Y-63000000D03*
X92800000Y-47200000D03*
X52000000Y-64200000D03*
X116495372Y-62253136D03*
X83800000Y-34800000D03*
X87900000Y-58800000D03*
X64200000Y-71000000D03*
X68200000Y-71000000D03*
X88400000Y-78000000D03*
X64000000Y-73000000D03*
X82599998Y-80400000D03*
X70200000Y-108800000D03*
X73200000Y-64200000D03*
X87800000Y-41200000D03*
X70200000Y-110200000D03*
X60600000Y-31600000D03*
X101600000Y-36200000D03*
X85000000Y-40600000D03*
X137800000Y-77400000D03*
X101600000Y-32000000D03*
X133600000Y-58100000D03*
X79400000Y-74600000D03*
X124200000Y-51000000D03*
X87800000Y-33200000D03*
X65400000Y-106400000D03*
X137600000Y-50800000D03*
X70200000Y-121800000D03*
X55000000Y-32800000D03*
X133350000Y-60052120D03*
X70200000Y-119200000D03*
X138821846Y-38731079D03*
X62800000Y-44400000D03*
X61434314Y-45565686D03*
%TO.N,+BATT*%
X77800000Y-63200000D03*
X77800000Y-52000000D03*
X79169591Y-83121637D03*
X77659620Y-80140380D03*
X127250000Y-76400000D03*
X124150000Y-76400000D03*
%TO.N,+3V3*%
X67200000Y-81600000D03*
X136428311Y-44150000D03*
X51800000Y-53000000D03*
X81000000Y-79200000D03*
X53600000Y-53000000D03*
X79800000Y-61400000D03*
X70800000Y-115200000D03*
X109600000Y-58600000D03*
X80374438Y-77978091D03*
X139220290Y-35192051D03*
X82000000Y-73400000D03*
X79400000Y-48000000D03*
X76400000Y-70800000D03*
X107400000Y-58800000D03*
X76400000Y-69800000D03*
X76400000Y-71800000D03*
X137400000Y-48400000D03*
X139150000Y-40000000D03*
%TO.N,EINK_VCC*%
X69893940Y-104893940D03*
X62600000Y-110000000D03*
%TO.N,Net-(J8-Pad1)*%
X75600000Y-41200000D03*
%TO.N,I2C_DAT*%
X98728703Y-56252668D03*
%TO.N,G_INT2*%
X112500000Y-60000022D03*
X137800000Y-61600000D03*
%TO.N,I2C_DAT*%
X95200000Y-67200000D03*
%TO.N,EINK_SPI_MOSI*%
X73800000Y-116027361D03*
X127378537Y-58700012D03*
X64200000Y-116000000D03*
X127850010Y-66019691D03*
%TO.N,EINK_SPI_CLK*%
X62899999Y-115306048D03*
X127059627Y-65459627D03*
X74563108Y-115377351D03*
X127600000Y-57400000D03*
%TO.N,EINK_~CS*%
X128600000Y-65250010D03*
X63600000Y-114600000D03*
X74482722Y-116687977D03*
X128211527Y-58127019D03*
%TO.N,EINK_DC*%
X73800000Y-114700000D03*
X62459378Y-113859378D03*
%TO.N,EINK_STATE*%
X128550006Y-74005603D03*
X72000000Y-111049990D03*
X123000000Y-73200000D03*
X62400000Y-112800000D03*
%TO.N,SD_DAT1*%
X112900000Y-59000000D03*
X117000000Y-59400000D03*
%TO.N,EINK_VCC_~EN*%
X77600000Y-82200000D03*
X79400000Y-82200000D03*
%TO.N,SD_VCC_nEN*%
X63000000Y-54400000D03*
X58650000Y-55599996D03*
%TO.N,GPS_VCC_nEN*%
X129400000Y-52200000D03*
X82800000Y-51350000D03*
%TO.N,UART1_RX*%
X66000000Y-54000000D03*
X107413050Y-50482450D03*
X71849712Y-53224855D03*
X99805852Y-57150010D03*
%TO.N,UART1_TX*%
X72699420Y-53649710D03*
X100800000Y-57200000D03*
X64128064Y-54471936D03*
X107688146Y-49328429D03*
%TO.N,SD_nDET*%
X121400000Y-68800000D03*
X138900000Y-49300000D03*
%TO.N,+5V*%
X124150000Y-75400000D03*
X129600000Y-73000000D03*
X67407083Y-54792917D03*
X80600000Y-83250010D03*
X67407083Y-61192917D03*
X77600000Y-79000000D03*
%TO.N,ESP_~RST*%
X137800000Y-70800000D03*
X139200000Y-46200000D03*
%TO.N,Net-(C18-Pad1)*%
X91600000Y-59500000D03*
X91600000Y-62500000D03*
X91645595Y-58045595D03*
X91600000Y-60949990D03*
X91476349Y-56376349D03*
%TO.N,EINK_SPI_MISO*%
X73749106Y-117650010D03*
X96950926Y-55936917D03*
X89774633Y-48825367D03*
X94400000Y-66500000D03*
X129300011Y-66000000D03*
X87800000Y-39200000D03*
X129105812Y-58447607D03*
X64010038Y-118519263D03*
%TO.N,EINK_EEPROM_~EN*%
X105284632Y-45965378D03*
X102800000Y-47000000D03*
X90600000Y-50400000D03*
X95807122Y-55392878D03*
X93299996Y-65800000D03*
X92800000Y-50600000D03*
%TO.N,JTAG_TCK*%
X116550820Y-67787626D03*
X118291075Y-64495937D03*
%TO.N,JTAG_TMS*%
X139400000Y-34000000D03*
X115999814Y-63459439D03*
X133075190Y-63505557D03*
X129200000Y-49600000D03*
%TO.N,JTAG_TDO*%
X121200000Y-56800000D03*
X117086355Y-63576192D03*
X118386366Y-63550010D03*
X138600000Y-42200000D03*
%TO.N,Net-(R18-Pad2)*%
X113059620Y-57859620D03*
X95093873Y-52306127D03*
X91800000Y-52600000D03*
X130000000Y-54600000D03*
%TO.N,Net-(R26-Pad2)*%
X87800000Y-38200000D03*
X86600000Y-48200000D03*
%TO.N,Net-(J2-Pad19)*%
X72995107Y-111880069D03*
X64200000Y-111724990D03*
%TO.N,Net-(J2-Pad18)*%
X63400000Y-112400000D03*
X72200000Y-112400000D03*
X63400000Y-112400000D03*
%TO.N,IO27*%
X129850000Y-48000000D03*
X78200000Y-42600000D03*
%TD*%
D55*
%TO.N,Net-(J2-Pad17)*%
X66699981Y-112699999D02*
X66699991Y-112699989D01*
X66699991Y-112699989D02*
X68499999Y-112699989D01*
X68499999Y-112699989D02*
X68700000Y-112899990D01*
X68700000Y-112899990D02*
X68700000Y-113299998D01*
X66500001Y-112699999D02*
X66250000Y-112950000D01*
X66250000Y-112950000D02*
X65500000Y-112950000D01*
D56*
%TO.N,Net-(C23-Pad1)*%
X65500000Y-110950000D02*
X66400000Y-110950000D01*
X66400000Y-110950000D02*
X66600000Y-110750000D01*
X66600000Y-110750000D02*
X66600000Y-110250000D01*
X66600000Y-110250000D02*
X67400000Y-109450000D01*
%TO.N,Net-(C20-Pad1)*%
X65500000Y-111450000D02*
X66250000Y-111450000D01*
X66250000Y-111450000D02*
X66400000Y-111600000D01*
X66400000Y-111600000D02*
X67000000Y-111600000D01*
X67000000Y-111600000D02*
X67350000Y-111950000D01*
D55*
%TO.N,Net-(J2-Pad17)*%
X68700000Y-113299998D02*
X68700000Y-113700000D01*
%TO.N,JTAG_TDO*%
X88775000Y-61000000D02*
X89313588Y-61000000D01*
X89313588Y-61000000D02*
X90038598Y-61725010D01*
X86750000Y-61000000D02*
X88775000Y-61000000D01*
%TO.N,UART1_TX*%
X99493851Y-57800011D02*
X100199989Y-57800011D01*
%TO.N,JTAG_TMS*%
X131800000Y-58685000D02*
X130485000Y-58685000D01*
X130485000Y-58685000D02*
X130200021Y-58400021D01*
X130200021Y-58400021D02*
X130200021Y-58084808D01*
X130200021Y-58084808D02*
X128950024Y-56834811D01*
X128950024Y-56834811D02*
X128950024Y-56798040D01*
X127400012Y-51119337D02*
X128919349Y-49600000D01*
X128919349Y-49600000D02*
X129200000Y-49600000D01*
X128950024Y-56798040D02*
X127400012Y-55248028D01*
X127400012Y-55248028D02*
X127400012Y-51119337D01*
%TO.N,EINK_SPI_MISO*%
X100000000Y-55000000D02*
X99502667Y-55497333D01*
X99502667Y-55497333D02*
X99502667Y-55602667D01*
%TO.N,I2C_DAT*%
X97600000Y-54952657D02*
X96821163Y-54952657D01*
X92149999Y-50912001D02*
X92149998Y-50281492D01*
X96821163Y-54952657D02*
X93118507Y-51250001D01*
X87950010Y-46081504D02*
X87950010Y-42924990D01*
X93118507Y-51250001D02*
X92487999Y-51250001D01*
X92149998Y-50281492D02*
X87950010Y-46081504D01*
X92487999Y-51250001D02*
X92149999Y-50912001D01*
X87950010Y-42924990D02*
X88675000Y-42200000D01*
X88675000Y-42200000D02*
X89950000Y-42200000D01*
%TO.N,EINK_SPI_MISO*%
X101600000Y-54000000D02*
X101200000Y-54000000D01*
X106509186Y-49090814D02*
X101600000Y-54000000D01*
X117400000Y-51800000D02*
X117400000Y-46800000D01*
X119800000Y-54200000D02*
X125362004Y-54200000D01*
X117400000Y-51800000D02*
X119800000Y-54200000D01*
X117400000Y-46800000D02*
X116585000Y-45985000D01*
X116585000Y-45985000D02*
X114800000Y-45985000D01*
X107600000Y-56600000D02*
X107725020Y-56474980D01*
X107725020Y-56474980D02*
X109449980Y-56474980D01*
X109449980Y-56474980D02*
X110175000Y-57200000D01*
%TO.N,Net-(R18-Pad2)*%
X113059620Y-57859620D02*
X111000000Y-55800000D01*
X102200000Y-56200000D02*
X98306127Y-52306127D01*
X111000000Y-55800000D02*
X104012007Y-55800000D01*
X104012007Y-55800000D02*
X103612007Y-56200000D01*
X98306127Y-52306127D02*
X96306127Y-52306127D01*
X103612007Y-56200000D02*
X102200000Y-56200000D01*
%TO.N,EINK_SPI_MISO*%
X96950926Y-55936917D02*
X97863083Y-55936917D01*
X97863083Y-55936917D02*
X98197333Y-55602667D01*
X99999990Y-56099990D02*
X101452488Y-56099990D01*
X98197333Y-55602667D02*
X99502667Y-55602667D01*
X99502667Y-55602667D02*
X99999990Y-56099990D01*
X101452488Y-56099990D02*
X101952498Y-56600000D01*
X101952498Y-56600000D02*
X107600000Y-56600000D01*
%TO.N,I2C_DAT*%
X104600000Y-57600000D02*
X104400000Y-57400000D01*
X104400000Y-57400000D02*
X102200000Y-57400000D01*
X101300000Y-56500000D02*
X98976035Y-56500000D01*
X102200000Y-57400000D02*
X101300000Y-56500000D01*
X98976035Y-56500000D02*
X98728703Y-56252668D01*
%TO.N,G_INT1*%
X112922021Y-52335000D02*
X114800000Y-52335000D01*
X103000000Y-55449990D02*
X109807031Y-55449990D01*
X109807031Y-55449990D02*
X112922021Y-52335000D01*
X88600000Y-76400000D02*
X88800000Y-76400000D01*
X87275000Y-76400000D02*
X88600000Y-76400000D01*
X88800000Y-76400000D02*
X98800000Y-66400000D01*
%TO.N,Net-(U6-Pad4)*%
X83912500Y-78900000D02*
X85886424Y-78900000D01*
X85886424Y-78900000D02*
X86275020Y-78511404D01*
X86275020Y-78511404D02*
X86275020Y-77050020D01*
X86275020Y-77050020D02*
X85625000Y-76400000D01*
%TO.N,I2C_DAT*%
X110250011Y-53714969D02*
X110250011Y-54512006D01*
X114169980Y-49795000D02*
X110250011Y-53714969D01*
X109762017Y-55000000D02*
X105400000Y-55000000D01*
X110250011Y-54512006D02*
X109762017Y-55000000D01*
X114800000Y-49795000D02*
X114169980Y-49795000D01*
X105400000Y-55000000D02*
X105400000Y-54799990D01*
%TO.N,IO27*%
X109800000Y-46600000D02*
X110200000Y-47000000D01*
X107038135Y-49895348D02*
X107038135Y-48961865D01*
X107038135Y-48961865D02*
X109400000Y-46600000D01*
X106763039Y-50170444D02*
X107038135Y-49895348D01*
X106763039Y-54188039D02*
X106763039Y-50170444D01*
X106775000Y-54200000D02*
X106763039Y-54188039D01*
X109400000Y-46600000D02*
X109800000Y-46600000D01*
%TO.N,EINK_SPI_MISO*%
X114800000Y-45985000D02*
X109415000Y-45985000D01*
X109415000Y-45985000D02*
X106509186Y-48890814D01*
X106509186Y-48890814D02*
X106509186Y-49090814D01*
%TO.N,UART1_RX*%
X105400000Y-49000000D02*
X105400000Y-48800000D01*
X103925000Y-47325000D02*
X103925000Y-44350000D01*
X105400000Y-48800000D02*
X103925000Y-47325000D01*
%TO.N,UART1_TX*%
X106200000Y-48200000D02*
X106200000Y-47897199D01*
X106200000Y-47897199D02*
X104600000Y-46297199D01*
X104600000Y-46297199D02*
X104600000Y-43525000D01*
X104600000Y-43525000D02*
X103925000Y-42850000D01*
%TO.N,+3V3*%
X108425000Y-54200000D02*
X109600000Y-54200000D01*
%TO.N,G_INT2*%
X110175000Y-60200000D02*
X112300022Y-60200000D01*
X112300022Y-60200000D02*
X112500000Y-60000022D01*
X87225000Y-79800000D02*
X90162017Y-79800000D01*
X90162017Y-79800000D02*
X103200000Y-66762017D01*
X103200000Y-66762017D02*
X103200000Y-66200033D01*
X105450011Y-58149989D02*
X108124989Y-58149989D01*
X103200000Y-60400000D02*
X105450011Y-58149989D01*
X108124989Y-58149989D02*
X110175000Y-60200000D01*
%TO.N,Net-(U6-Pad9)*%
X81587500Y-78400000D02*
X81275000Y-78400000D01*
X80349989Y-78887994D02*
X80349989Y-79071751D01*
X81275000Y-78400000D02*
X81125011Y-78549989D01*
X81125011Y-78549989D02*
X80687994Y-78549989D01*
X78774980Y-80596760D02*
X79228231Y-81050011D01*
X79228231Y-81050011D02*
X84324989Y-81050011D01*
X80687994Y-78549989D02*
X80349989Y-78887994D01*
X80349989Y-79071751D02*
X79946760Y-79474980D01*
X79946760Y-79474980D02*
X79053240Y-79474980D01*
X79053240Y-79474980D02*
X78774980Y-79753240D01*
X78774980Y-79753240D02*
X78774980Y-80596760D01*
X84324989Y-81050011D02*
X85575000Y-79800000D01*
D57*
%TO.N,GND*%
X87800000Y-32100000D02*
X87850000Y-32050000D01*
X87800000Y-33200000D02*
X87800000Y-33200000D01*
X87800000Y-35200000D02*
X87800000Y-34800000D01*
X87800000Y-34200000D02*
X87800000Y-34200000D01*
X68250000Y-35525000D02*
X68725000Y-35050000D01*
D55*
X134400000Y-58900000D02*
X134400000Y-63420484D01*
D57*
X87800000Y-32100000D02*
X87800000Y-32100000D01*
D55*
X77775000Y-68625000D02*
X77800000Y-68600000D01*
X82250000Y-80050002D02*
X82599998Y-80400000D01*
D57*
X87800000Y-34800000D02*
X87800000Y-34200000D01*
X137800000Y-66950000D02*
X137800000Y-68200000D01*
X44175000Y-48650000D02*
X44225000Y-48600000D01*
X99550000Y-39200000D02*
X101600000Y-39200000D01*
X66250000Y-73000000D02*
X66250000Y-70800000D01*
D55*
X82200064Y-57950044D02*
X73650086Y-57950044D01*
X70200000Y-116700000D02*
X70200000Y-117000000D01*
X68950000Y-117950000D02*
X70050000Y-117950000D01*
D57*
X66000000Y-35525000D02*
X68250000Y-35525000D01*
X59874990Y-50109305D02*
X62400000Y-52634315D01*
D55*
X70200000Y-117000000D02*
X70200000Y-117800000D01*
X82750000Y-79062500D02*
X82750000Y-80249998D01*
X68925000Y-116700000D02*
X70200000Y-116700000D01*
X54199958Y-31999958D02*
X55000000Y-32800000D01*
D57*
X47390000Y-39000000D02*
X45200000Y-39000000D01*
D55*
X55199957Y-49407087D02*
X58992870Y-53200000D01*
D57*
X101550000Y-32050000D02*
X101600000Y-32000000D01*
X52000000Y-65250000D02*
X52000000Y-64200000D01*
X71000000Y-50335000D02*
X71000000Y-52800010D01*
D55*
X57450000Y-129875000D02*
X58525000Y-129875000D01*
D57*
X68725000Y-32780000D02*
X68815000Y-32690000D01*
X41775000Y-45975000D02*
X39795000Y-43995000D01*
X73250000Y-66525000D02*
X73250000Y-65250000D01*
D55*
X133350000Y-60052120D02*
X133350000Y-62268745D01*
D57*
X99550000Y-40200000D02*
X101600000Y-40200000D01*
D55*
X46800020Y-32699980D02*
X53199980Y-32699980D01*
D57*
X73250000Y-64250000D02*
X73200000Y-64200000D01*
X92750000Y-47150000D02*
X92800000Y-47200000D01*
X73200000Y-64200000D02*
X72230002Y-64200000D01*
D55*
X69550000Y-109450000D02*
X70200000Y-108800000D01*
D57*
X52000000Y-64200000D02*
X52969998Y-64200000D01*
D55*
X84014986Y-58774990D02*
X87874990Y-58774990D01*
X136300000Y-56500000D02*
X136200000Y-56600000D01*
D57*
X66250000Y-75150000D02*
X66200000Y-75200000D01*
D55*
X138578033Y-38731079D02*
X138821846Y-38731079D01*
D57*
X66250000Y-73000000D02*
X64000000Y-73000000D01*
D55*
X114000000Y-63400000D02*
X115000000Y-64400000D01*
D57*
X71600000Y-64200000D02*
X73200000Y-64200000D01*
X65275000Y-105100000D02*
X66900000Y-105100000D01*
D55*
X43155000Y-35150000D02*
X43155000Y-35900000D01*
D57*
X69825000Y-52700000D02*
X70899990Y-52700000D01*
X62400000Y-52634315D02*
X62400000Y-53200000D01*
D55*
X60725000Y-133725000D02*
X60725000Y-132505000D01*
D57*
X66250000Y-73000000D02*
X66250000Y-73050000D01*
X66250000Y-73000000D02*
X68400000Y-73000000D01*
D55*
X60725000Y-131235000D02*
X58635000Y-131235000D01*
X58992870Y-53200000D02*
X58992870Y-53334830D01*
D57*
X66200000Y-73000000D02*
X64200000Y-75000000D01*
D55*
X55200000Y-68625000D02*
X56175000Y-68625000D01*
X92500000Y-59500000D02*
X94894990Y-59500000D01*
X61049979Y-53147079D02*
X61049980Y-54401960D01*
X92700000Y-60900000D02*
X95305012Y-60900000D01*
D57*
X87800000Y-34200000D02*
X87800000Y-33200000D01*
X51115000Y-35275000D02*
X47390000Y-39000000D01*
D55*
X65600000Y-134000000D02*
X61000000Y-134000000D01*
X68950000Y-119200000D02*
X70200000Y-119200000D01*
X133600000Y-58100000D02*
X134400000Y-58900000D01*
D57*
X113245000Y-43445000D02*
X113200000Y-43400000D01*
D55*
X68950000Y-122950000D02*
X70150000Y-122950000D01*
X79450000Y-74650000D02*
X79400000Y-74600000D01*
D57*
X68815000Y-31615000D02*
X68800000Y-31600000D01*
X74169998Y-64200000D02*
X74200000Y-64169998D01*
X63100000Y-44700000D02*
X63000000Y-44600000D01*
X131800000Y-43445000D02*
X131895000Y-43350000D01*
X129015000Y-60955000D02*
X129015000Y-62415000D01*
X89950000Y-40200000D02*
X87800000Y-40200000D01*
D55*
X70000000Y-113700000D02*
X70900000Y-113700000D01*
X68925000Y-108200000D02*
X69600000Y-108200000D01*
D57*
X65275000Y-105100000D02*
X65275000Y-106275000D01*
D55*
X99699977Y-63399977D02*
X99700000Y-63400000D01*
X136300000Y-55425000D02*
X136300000Y-56500000D01*
D57*
X114800000Y-43445000D02*
X113245000Y-43445000D01*
X49500000Y-64925000D02*
X50255002Y-64169998D01*
D55*
X70050000Y-117950000D02*
X70200000Y-117800000D01*
D57*
X68815000Y-32690000D02*
X68815000Y-31615000D01*
X66200000Y-73000000D02*
X64200000Y-71000000D01*
D55*
X132100000Y-63518745D02*
X132100000Y-63600000D01*
D57*
X87800000Y-35200000D02*
X87800000Y-35200000D01*
X65275000Y-106275000D02*
X65400000Y-106400000D01*
D55*
X58525000Y-132485000D02*
X58525000Y-131125000D01*
D57*
X129600000Y-63000000D02*
X130400000Y-63000000D01*
D55*
X69850000Y-115450000D02*
X70200000Y-115800000D01*
X60635000Y-129875000D02*
X60725000Y-129965000D01*
X68950000Y-109450000D02*
X69550000Y-109450000D01*
X136250000Y-50825000D02*
X136300000Y-50775000D01*
D57*
X45375000Y-45975000D02*
X45200000Y-45800000D01*
D55*
X95305012Y-60900000D02*
X97804989Y-63399977D01*
D57*
X60585000Y-31615000D02*
X60600000Y-31600000D01*
D55*
X56275000Y-129875000D02*
X56200000Y-129800000D01*
X53199980Y-32699980D02*
X55199957Y-34699957D01*
X55199957Y-36400000D02*
X55199957Y-49407087D01*
X82250000Y-79062500D02*
X82250000Y-80050002D01*
X88350000Y-78050000D02*
X88400000Y-78000000D01*
X43505002Y-36250002D02*
X44400000Y-36250002D01*
D57*
X44175000Y-49900000D02*
X44175000Y-51175000D01*
X73200000Y-64200000D02*
X74169998Y-64200000D01*
X52969998Y-64200000D02*
X53000000Y-64169998D01*
D55*
X70150000Y-120450000D02*
X70200000Y-120400000D01*
D57*
X70500000Y-49835000D02*
X71000000Y-50335000D01*
D55*
X70900000Y-113700000D02*
X71000000Y-113800000D01*
X55199957Y-34699957D02*
X55199957Y-36400000D01*
X134800000Y-55375000D02*
X136250000Y-55375000D01*
D57*
X52000000Y-65250000D02*
X52000000Y-66825000D01*
X60585000Y-32690000D02*
X60585000Y-31615000D01*
D55*
X45555042Y-31999958D02*
X54199958Y-31999958D01*
D57*
X84950000Y-34800000D02*
X85000000Y-34850000D01*
X51030002Y-64200000D02*
X51000000Y-64169998D01*
D55*
X69850000Y-111950000D02*
X70200000Y-111600000D01*
X136250000Y-55375000D02*
X136300000Y-55425000D01*
X70900000Y-32500000D02*
X71000000Y-32400000D01*
D57*
X73250000Y-65250000D02*
X73250000Y-64250000D01*
X68725000Y-35050000D02*
X68725000Y-32780000D01*
X66899990Y-52700000D02*
X67000000Y-52800010D01*
X92750000Y-45000000D02*
X92750000Y-47150000D01*
X41820000Y-45975000D02*
X41775000Y-45975000D01*
D55*
X87275000Y-78050000D02*
X88350000Y-78050000D01*
X80575000Y-80175000D02*
X80600000Y-80200000D01*
X60725000Y-132505000D02*
X58505000Y-132505000D01*
X137875301Y-36823699D02*
X137875301Y-38028347D01*
D57*
X99550000Y-32050000D02*
X101550000Y-32050000D01*
X66250000Y-73000000D02*
X66250000Y-72950000D01*
D55*
X97804989Y-63399977D02*
X99699977Y-63399977D01*
D57*
X67100000Y-90100000D02*
X67200000Y-90000000D01*
X66250000Y-73000000D02*
X66250000Y-75150000D01*
D55*
X98048125Y-62653135D02*
X116095373Y-62653135D01*
D57*
X47790000Y-45975000D02*
X45375000Y-45975000D01*
X67100000Y-91350000D02*
X67100000Y-90100000D01*
D55*
X63298054Y-56650034D02*
X74281276Y-56650034D01*
D57*
X86600000Y-34850000D02*
X87750000Y-34850000D01*
X69525000Y-49835000D02*
X70500000Y-49835000D01*
X137400000Y-43350000D02*
X137400000Y-42400000D01*
X70875000Y-64925000D02*
X71600000Y-64200000D01*
X89950000Y-35200000D02*
X87800000Y-35200000D01*
D55*
X56175000Y-68625000D02*
X56200000Y-68600000D01*
D57*
X44175000Y-49900000D02*
X44175000Y-48650000D01*
D55*
X55899979Y-33699979D02*
X55899979Y-47997079D01*
D57*
X52000000Y-64200000D02*
X51030002Y-64200000D01*
D55*
X55899979Y-47997079D02*
X61049979Y-53147079D01*
D57*
X60675000Y-32780000D02*
X60585000Y-32690000D01*
D55*
X58635000Y-131235000D02*
X58525000Y-131125000D01*
X63557998Y-57899958D02*
X73600000Y-57899958D01*
D57*
X44175000Y-51175000D02*
X44200000Y-51200000D01*
D55*
X134800000Y-50825000D02*
X136250000Y-50825000D01*
D57*
X52000000Y-66825000D02*
X52200000Y-67025000D01*
D55*
X82190018Y-56950022D02*
X84014986Y-58774990D01*
D57*
X131895000Y-43350000D02*
X137400000Y-43350000D01*
D55*
X68950000Y-115450000D02*
X69850000Y-115450000D01*
X58992870Y-53334830D02*
X63557998Y-57899958D01*
D57*
X87800000Y-33200000D02*
X87800000Y-32100000D01*
D55*
X74281276Y-56650034D02*
X74581264Y-56950022D01*
D57*
X96750000Y-45000000D02*
X96750000Y-47150000D01*
X59874990Y-47225010D02*
X59874990Y-50109305D01*
X70899990Y-52700000D02*
X71000000Y-52800010D01*
D55*
X68950000Y-121700000D02*
X70100000Y-121700000D01*
D57*
X70750000Y-64925000D02*
X70875000Y-64925000D01*
X86600000Y-34850000D02*
X85000000Y-34850000D01*
X61434314Y-45565686D02*
X61434314Y-45665686D01*
D55*
X136300000Y-50775000D02*
X137575000Y-50775000D01*
X68900000Y-111950000D02*
X69850000Y-111950000D01*
X65675000Y-133925000D02*
X65600000Y-134000000D01*
D57*
X89950000Y-34200000D02*
X87800000Y-34200000D01*
D55*
X117350000Y-67556017D02*
X117850832Y-68056849D01*
D57*
X64200000Y-44700000D02*
X63100000Y-44700000D01*
X39795000Y-43995000D02*
X39795000Y-35500000D01*
D55*
X68925000Y-110700000D02*
X69700000Y-110700000D01*
D57*
X99550000Y-33200000D02*
X101600000Y-33200000D01*
D55*
X87874990Y-58774990D02*
X87900000Y-58800000D01*
X137575000Y-50775000D02*
X137600000Y-50800000D01*
X43155000Y-35900000D02*
X43505002Y-36250002D01*
D57*
X66250000Y-73000000D02*
X66200000Y-73000000D01*
X89950000Y-41200000D02*
X87800000Y-41200000D01*
D55*
X99700000Y-63400000D02*
X114000000Y-63400000D01*
X70200000Y-111600000D02*
X70200000Y-110200000D01*
X70200000Y-115800000D02*
X70200000Y-117000000D01*
X45500000Y-34000000D02*
X46800020Y-32699980D01*
D57*
X65275000Y-105100000D02*
X65275000Y-103100000D01*
D55*
X137875301Y-38028347D02*
X138578033Y-38731079D01*
D57*
X44225000Y-48600000D02*
X44225000Y-48380000D01*
D55*
X58525000Y-131125000D02*
X58525000Y-129875000D01*
D57*
X44225000Y-48380000D02*
X41820000Y-45975000D01*
X129015000Y-62415000D02*
X129600000Y-63000000D01*
X96750000Y-47150000D02*
X96800000Y-47200000D01*
D55*
X55000000Y-32800000D02*
X55899979Y-33699979D01*
X138269000Y-36430000D02*
X137875301Y-36823699D01*
X76800000Y-68625000D02*
X77775000Y-68625000D01*
D57*
X61434314Y-45665686D02*
X60750000Y-46350000D01*
D55*
X69600000Y-108200000D02*
X70200000Y-107600000D01*
D57*
X63100000Y-44700000D02*
X62800000Y-44400000D01*
X73750000Y-67025000D02*
X73250000Y-66525000D01*
D55*
X74581264Y-56950022D02*
X82190018Y-56950022D01*
X57450000Y-129875000D02*
X56275000Y-129875000D01*
D57*
X51290000Y-41300000D02*
X49690000Y-41300000D01*
D56*
X64052953Y-117450000D02*
X63930354Y-117572599D01*
X65500000Y-117450000D02*
X64052953Y-117450000D01*
D57*
X49690000Y-41300000D02*
X47390000Y-39000000D01*
D55*
X79500000Y-80175000D02*
X80575000Y-80175000D01*
D57*
X87750000Y-34850000D02*
X87800000Y-34800000D01*
X83800000Y-34800000D02*
X84950000Y-34800000D01*
D55*
X58525000Y-129875000D02*
X60635000Y-129875000D01*
X87627688Y-60225010D02*
X84475030Y-60225010D01*
D57*
X72230002Y-64200000D02*
X72200000Y-64169998D01*
X99550000Y-37200000D02*
X101600000Y-37200000D01*
D55*
X116095373Y-62653135D02*
X116495372Y-62253136D01*
D57*
X65825000Y-52700000D02*
X66899990Y-52700000D01*
D55*
X65675000Y-132505000D02*
X65675000Y-133925000D01*
X69700000Y-110700000D02*
X70200000Y-110200000D01*
X61049980Y-54401960D02*
X63298054Y-56650034D01*
D57*
X66250000Y-72950000D02*
X68200000Y-71000000D01*
X50255002Y-64169998D02*
X51000000Y-64169998D01*
D55*
X70150000Y-122950000D02*
X70200000Y-123000000D01*
X70100000Y-121700000D02*
X70200000Y-121800000D01*
X82750000Y-80249998D02*
X82599998Y-80400000D01*
D57*
X60750000Y-46350000D02*
X59874990Y-47225010D01*
X137800000Y-76200000D02*
X137800000Y-77400000D01*
D55*
X70900000Y-33775000D02*
X70900000Y-32500000D01*
X117350000Y-67025000D02*
X117350000Y-67556017D01*
X61000000Y-134000000D02*
X60725000Y-133725000D01*
X94894990Y-59500000D02*
X98048125Y-62653135D01*
X84475030Y-60225010D02*
X82200064Y-57950044D01*
X80475000Y-74650000D02*
X79450000Y-74650000D01*
D57*
X99550000Y-36200000D02*
X101600000Y-36200000D01*
D55*
X134400000Y-63420484D02*
X134235242Y-63585242D01*
D57*
X89950000Y-33200000D02*
X87800000Y-33200000D01*
X66250000Y-73050000D02*
X68200000Y-75000000D01*
D55*
X133350000Y-62268745D02*
X132100000Y-63518745D01*
X43155000Y-35150000D02*
X43155000Y-34400000D01*
X58505000Y-132505000D02*
X58525000Y-132485000D01*
D57*
X60675000Y-35050000D02*
X60675000Y-32780000D01*
D55*
X43155000Y-34400000D02*
X45555042Y-31999958D01*
X73650086Y-57950044D02*
X73600000Y-57899958D01*
X85000000Y-39600000D02*
X85000000Y-40600000D01*
X68950000Y-120450000D02*
X70150000Y-120450000D01*
X87676349Y-60176349D02*
X87627688Y-60225010D01*
D57*
X89950000Y-32050000D02*
X87850000Y-32050000D01*
%TO.N,+BATT*%
X65625000Y-63375000D02*
X61200000Y-67800000D01*
D55*
X63000000Y-76200000D02*
X61200000Y-74400000D01*
D57*
X61200000Y-67800000D02*
X61200000Y-73000000D01*
X52200000Y-69400000D02*
X52200000Y-68575000D01*
D55*
X85000000Y-38050000D02*
X85725010Y-38775010D01*
X61200000Y-74400000D02*
X61200000Y-73000000D01*
X139375000Y-52350000D02*
X140025010Y-53000010D01*
X124150000Y-76400000D02*
X116550000Y-84000000D01*
X72800000Y-61800000D02*
X72300000Y-62300000D01*
D57*
X70750000Y-63375000D02*
X65625000Y-63375000D01*
D55*
X85850000Y-37200000D02*
X85000000Y-38050000D01*
X73719240Y-76200000D02*
X63000000Y-76200000D01*
X76500000Y-63400000D02*
X76500000Y-62500000D01*
X140025010Y-53000010D02*
X140025010Y-57774990D01*
D57*
X52250000Y-68625000D02*
X52200000Y-68575000D01*
D55*
X85725010Y-49619992D02*
X83345002Y-52000000D01*
D57*
X57400000Y-73000000D02*
X61200000Y-73000000D01*
D55*
X85725010Y-38775010D02*
X85725010Y-49619992D01*
X72300000Y-62300000D02*
X72300000Y-63050000D01*
D57*
X51950000Y-69650000D02*
X52200000Y-69400000D01*
D55*
X136400000Y-61400000D02*
X136400000Y-67250000D01*
X83345002Y-52000000D02*
X77800000Y-52000000D01*
X116550000Y-84000000D02*
X80047954Y-84000000D01*
D57*
X71975000Y-63375000D02*
X72300000Y-63050000D01*
X53750000Y-68625000D02*
X53750000Y-69350000D01*
D55*
X76700000Y-63200000D02*
X76500000Y-63400000D01*
X77659620Y-80140380D02*
X73719240Y-76200000D01*
X136400000Y-67250000D02*
X127250000Y-76400000D01*
X140025010Y-57774990D02*
X136400000Y-61400000D01*
X80047954Y-84000000D02*
X79169591Y-83121637D01*
X77800000Y-63200000D02*
X76700000Y-63200000D01*
D57*
X53750000Y-69350000D02*
X57400000Y-73000000D01*
D55*
X75800000Y-61800000D02*
X72800000Y-61800000D01*
D57*
X50000000Y-69650000D02*
X51950000Y-69650000D01*
X53750000Y-68625000D02*
X52250000Y-68625000D01*
D55*
X89950000Y-37200000D02*
X85850000Y-37200000D01*
X76500000Y-62500000D02*
X75800000Y-61800000D01*
D57*
X70750000Y-63375000D02*
X71975000Y-63375000D01*
%TO.N,+3V3*%
X76400000Y-69800000D02*
X76400000Y-69800000D01*
X76400000Y-71600000D02*
X76400000Y-71600000D01*
D55*
X79450000Y-49375000D02*
X79450000Y-48250000D01*
X70324990Y-114724990D02*
X70800000Y-115200000D01*
D57*
X67000000Y-84540000D02*
X67000000Y-82975000D01*
D55*
X82025000Y-76925000D02*
X82025000Y-74650000D01*
X82025000Y-73425000D02*
X82000000Y-73400000D01*
X139200001Y-40050001D02*
X139150000Y-40000000D01*
D57*
X108525000Y-59925000D02*
X107400000Y-58800000D01*
X51660000Y-52860000D02*
X51800000Y-53000000D01*
D55*
X82250000Y-77237500D02*
X82250000Y-77150000D01*
D57*
X135550000Y-44925000D02*
X135653311Y-44925000D01*
X135653311Y-44925000D02*
X136428311Y-44150000D01*
D55*
X79450000Y-48250000D02*
X79400000Y-48200000D01*
X79575000Y-49250000D02*
X79450000Y-49375000D01*
X139250001Y-42874999D02*
X139250001Y-40050001D01*
X82250000Y-77772686D02*
X82250000Y-77237500D01*
X136375000Y-47150000D02*
X136375000Y-48400000D01*
X81587500Y-78900000D02*
X81300000Y-78900000D01*
X83250000Y-78772686D02*
X82250000Y-77772686D01*
D57*
X108525000Y-60200000D02*
X108525000Y-59925000D01*
X51660000Y-51350000D02*
X51660000Y-52860000D01*
X76400000Y-69800000D02*
X76400000Y-70800000D01*
D55*
X136375000Y-48400000D02*
X137400000Y-48400000D01*
X138800000Y-43325000D02*
X137975000Y-44150000D01*
D57*
X131800000Y-44715000D02*
X133840000Y-44715000D01*
D55*
X139250001Y-40050001D02*
X139200001Y-40050001D01*
X66875000Y-81925000D02*
X67200000Y-81600000D01*
X80146909Y-77978091D02*
X79500000Y-78625000D01*
X67400000Y-113700000D02*
X67400000Y-114100002D01*
D57*
X134050000Y-44925000D02*
X135550000Y-44925000D01*
D55*
X66875000Y-82850000D02*
X66875000Y-81925000D01*
D57*
X71500000Y-69562500D02*
X72762500Y-69562500D01*
X73750000Y-68575000D02*
X75200000Y-68575000D01*
D55*
X81140000Y-49250000D02*
X79575000Y-49250000D01*
X80374438Y-77978091D02*
X80146909Y-77978091D01*
D57*
X53350000Y-52750000D02*
X53600000Y-53000000D01*
D55*
X137975000Y-44150000D02*
X136428311Y-44150000D01*
X82250000Y-77150000D02*
X82025000Y-76925000D01*
X67400000Y-114100002D02*
X68024988Y-114724990D01*
D57*
X76400000Y-70800000D02*
X76400000Y-71800000D01*
X72762500Y-69562500D02*
X73750000Y-68575000D01*
X75250000Y-68625000D02*
X75250000Y-68650000D01*
X108525000Y-57200000D02*
X108525000Y-57525000D01*
D55*
X138800000Y-43325000D02*
X139250001Y-42874999D01*
D57*
X75200000Y-68575000D02*
X75250000Y-68625000D01*
D55*
X79400000Y-48200000D02*
X79400000Y-48000000D01*
X139220290Y-35192051D02*
X139220290Y-34841290D01*
X82025000Y-74650000D02*
X82025000Y-73425000D01*
D57*
X53350000Y-51225000D02*
X53350000Y-52750000D01*
D55*
X68024988Y-114724990D02*
X70324990Y-114724990D01*
D57*
X75250000Y-68650000D02*
X76400000Y-69800000D01*
D55*
X81300000Y-78900000D02*
X81000000Y-79200000D01*
D57*
X133840000Y-44715000D02*
X134050000Y-44925000D01*
X108525000Y-57525000D02*
X109600000Y-58600000D01*
D55*
X139220290Y-34841290D02*
X138269000Y-33890000D01*
X83250000Y-79062500D02*
X83250000Y-78772686D01*
D57*
X67000000Y-82975000D02*
X66875000Y-82850000D01*
D55*
%TO.N,VIN_ADC*%
X131800000Y-51065000D02*
X132865000Y-51065000D01*
X136250000Y-53825000D02*
X136300000Y-53775000D01*
X136375000Y-53850000D02*
X136300000Y-53775000D01*
X132865000Y-51065000D02*
X134000000Y-52200000D01*
X134000000Y-52200000D02*
X134000000Y-53025000D01*
X134800000Y-53825000D02*
X136250000Y-53825000D01*
X134000000Y-53025000D02*
X134800000Y-53825000D01*
X137725000Y-53850000D02*
X136375000Y-53850000D01*
%TO.N,VBAT_ADC*%
X136375000Y-52350000D02*
X136300000Y-52425000D01*
X134000000Y-51575000D02*
X134800000Y-52375000D01*
X137725000Y-52350000D02*
X136375000Y-52350000D01*
X133395000Y-49795000D02*
X134000000Y-50400000D01*
X134800000Y-52375000D02*
X136250000Y-52375000D01*
X131800000Y-49795000D02*
X133395000Y-49795000D01*
X136250000Y-52375000D02*
X136300000Y-52425000D01*
X134000000Y-50400000D02*
X134000000Y-51575000D01*
D56*
%TO.N,EINK_VCC*%
X63200000Y-125275000D02*
X62125000Y-125275000D01*
D55*
X65472598Y-116922598D02*
X63122598Y-116922598D01*
D56*
X66275000Y-126475000D02*
X65075000Y-125275000D01*
X60725000Y-128695000D02*
X57820000Y-128695000D01*
X65500000Y-116450000D02*
X66649980Y-116450000D01*
D55*
X66250002Y-113950000D02*
X65500000Y-113950000D01*
X57450000Y-121650000D02*
X57450000Y-128325000D01*
D56*
X66649990Y-116200010D02*
X67400000Y-115450000D01*
X66649980Y-116450000D02*
X66649990Y-116449990D01*
D55*
X58400000Y-90600000D02*
X58400000Y-94000000D01*
X56200000Y-120400000D02*
X57450000Y-121650000D01*
X61840000Y-87160000D02*
X58400000Y-90600000D01*
D57*
X68450000Y-105100000D02*
X68450000Y-102350000D01*
X69900000Y-105100000D02*
X70000000Y-105000000D01*
D56*
X62125000Y-125275000D02*
X60725000Y-126675000D01*
X66275000Y-126850000D02*
X66275000Y-126475000D01*
D55*
X56200000Y-96200000D02*
X56200000Y-120400000D01*
D56*
X66450000Y-116950000D02*
X66649990Y-116750010D01*
X66649990Y-116750010D02*
X66649990Y-116449990D01*
X66649990Y-116449990D02*
X66649990Y-116200010D01*
X65075000Y-125275000D02*
X63200000Y-125275000D01*
D55*
X66050000Y-87160000D02*
X61840000Y-87160000D01*
D57*
X68450000Y-102350000D02*
X67200000Y-101100000D01*
D55*
X66400000Y-114450000D02*
X66400001Y-114099999D01*
X61749999Y-115549999D02*
X61749999Y-110850001D01*
X66400001Y-114099999D02*
X66250002Y-113950000D01*
D57*
X68160000Y-87160000D02*
X66050000Y-87160000D01*
X68450000Y-105100000D02*
X69900000Y-105100000D01*
D55*
X67400000Y-115450000D02*
X66400000Y-114450000D01*
D56*
X60725000Y-126675000D02*
X60725000Y-128695000D01*
X57820000Y-128695000D02*
X57450000Y-128325000D01*
D55*
X63122598Y-116922598D02*
X61749999Y-115549999D01*
X58400000Y-94000000D02*
X56200000Y-96200000D01*
X65500000Y-116950000D02*
X65472598Y-116922598D01*
D56*
X65500000Y-116950000D02*
X66450000Y-116950000D01*
D57*
X70000000Y-89000000D02*
X68160000Y-87160000D01*
X70000000Y-105000000D02*
X70000000Y-89000000D01*
D55*
X61749999Y-110850001D02*
X62600000Y-110000000D01*
%TO.N,Net-(J8-Pad1)*%
X75600000Y-41200000D02*
X75600000Y-42575000D01*
X75600000Y-42575000D02*
X75575000Y-42600000D01*
%TO.N,G_INT2*%
X114800000Y-59955000D02*
X112545022Y-59955000D01*
%TO.N,I2C_DAT*%
X83250000Y-77237500D02*
X93287500Y-67200000D01*
%TO.N,G_INT2*%
X110420000Y-59955000D02*
X110175000Y-60200000D01*
%TO.N,I2C_DAT*%
X93287500Y-67200000D02*
X95200000Y-67200000D01*
D57*
%TO.N,G_INT2*%
X137800000Y-62750000D02*
X137800000Y-61600000D01*
D55*
X112545022Y-59955000D02*
X112500000Y-60000022D01*
%TO.N,EINK_SPI_MOSI*%
X65500000Y-115950000D02*
X64250000Y-115950000D01*
X127243018Y-58700012D02*
X127378537Y-58700012D01*
X114800000Y-56145000D02*
X124688006Y-56145000D01*
X73800000Y-116027361D02*
X88782659Y-116027361D01*
X88782659Y-116027361D02*
X125899978Y-78910042D01*
X124688006Y-56145000D02*
X127243018Y-58700012D01*
X127850010Y-68760010D02*
X127850010Y-66019691D01*
X64250000Y-115950000D02*
X64200000Y-116000000D01*
X125899980Y-70710040D02*
X127850010Y-68760010D01*
X125899978Y-78910042D02*
X125899980Y-70710040D01*
%TO.N,EINK_SPI_CLK*%
X125500022Y-78689958D02*
X88812627Y-115377351D01*
X125400000Y-55200000D02*
X127600000Y-57400000D01*
X127059627Y-69055403D02*
X125500022Y-70615008D01*
X65500000Y-115450000D02*
X64612002Y-115450000D01*
X64612002Y-115450000D02*
X64512001Y-115349999D01*
X88812627Y-115377351D02*
X74563108Y-115377351D01*
X114800000Y-53605000D02*
X115350000Y-53605000D01*
X116945000Y-55200000D02*
X125400000Y-55200000D01*
X64512001Y-115349999D02*
X62943950Y-115349999D01*
X127059627Y-65459627D02*
X127059627Y-69055403D01*
X115350000Y-53605000D02*
X116945000Y-55200000D01*
X125500022Y-70615008D02*
X125500022Y-78689958D01*
X62943950Y-115349999D02*
X62899999Y-115306048D01*
%TO.N,EINK_~CS*%
X126249990Y-70855020D02*
X128600000Y-68505010D01*
X88617033Y-116687977D02*
X126249989Y-79055021D01*
X128600000Y-68505010D02*
X128600000Y-65250010D01*
X126249989Y-79055021D02*
X126249990Y-70855020D01*
X116000000Y-54875000D02*
X116919990Y-55794990D01*
X74482722Y-116687977D02*
X88617033Y-116687977D01*
X127087998Y-58050002D02*
X128134510Y-58050002D01*
X124832986Y-55794990D02*
X127087998Y-58050002D01*
X114800000Y-54875000D02*
X116000000Y-54875000D01*
X128134510Y-58050002D02*
X128211527Y-58127019D01*
X65500000Y-114950000D02*
X63950000Y-114950000D01*
X63950000Y-114950000D02*
X63600000Y-114600000D01*
X116919990Y-55794990D02*
X124832986Y-55794990D01*
%TO.N,EINK_DC*%
X125150011Y-70299986D02*
X126400000Y-69049997D01*
X134449989Y-64850011D02*
X135235255Y-64064745D01*
X63159380Y-113859378D02*
X62459378Y-113859378D01*
X130955021Y-64850011D02*
X134449989Y-64850011D01*
X64149999Y-113949999D02*
X63250001Y-113949999D01*
X126400000Y-69049997D02*
X126400000Y-65200002D01*
X135200000Y-63093006D02*
X135200000Y-57075000D01*
X63250001Y-113949999D02*
X63159380Y-113859378D01*
X135235255Y-63128261D02*
X135200000Y-63093006D01*
X64650000Y-114450000D02*
X64149999Y-113949999D01*
X135200000Y-57075000D02*
X133000000Y-54875000D01*
X75055021Y-114950011D02*
X88744977Y-114950011D01*
X130705010Y-64600000D02*
X130955021Y-64850011D01*
X127000002Y-64600000D02*
X130705010Y-64600000D01*
X133000000Y-54875000D02*
X131800000Y-54875000D01*
X125150011Y-78544979D02*
X125150011Y-70299986D01*
X74805010Y-114700000D02*
X75055021Y-114950011D01*
X135235255Y-64064745D02*
X135235255Y-63128261D01*
X88744977Y-114950011D02*
X125150011Y-78544979D01*
X126400000Y-65200002D02*
X127000002Y-64600000D01*
X65500000Y-114450000D02*
X64650000Y-114450000D01*
X73800000Y-114700000D02*
X74805010Y-114700000D01*
%TO.N,EINK_STATE*%
X134600000Y-48525000D02*
X134725000Y-48400000D01*
X73800000Y-111600000D02*
X73800000Y-113200000D01*
X88600000Y-114600000D02*
X124800000Y-78400000D01*
X75200000Y-114600000D02*
X88600000Y-114600000D01*
X124800000Y-75000000D02*
X123000000Y-73200000D01*
X135699978Y-65900022D02*
X135699978Y-61100022D01*
X73800000Y-113200000D02*
X75200000Y-114600000D01*
X73249990Y-111049990D02*
X73800000Y-111600000D01*
X138600000Y-50200000D02*
X138350011Y-49950011D01*
X63050000Y-113450000D02*
X62400000Y-112800000D01*
X128550006Y-74005603D02*
X128550006Y-73049994D01*
X135699978Y-61100022D02*
X138600000Y-58200000D01*
X131800000Y-48525000D02*
X134600000Y-48525000D01*
X72000000Y-111049990D02*
X73249990Y-111049990D01*
X135800011Y-49950011D02*
X134725000Y-48875000D01*
X128550006Y-73049994D02*
X135699978Y-65900022D01*
X65500000Y-113450000D02*
X63050000Y-113450000D01*
X138350011Y-49950011D02*
X135800011Y-49950011D01*
X138600000Y-58200000D02*
X138600000Y-50200000D01*
X134725000Y-48875000D02*
X134725000Y-48400000D01*
X124800000Y-78400000D02*
X124800000Y-75000000D01*
%TO.N,SD_DAT0*%
X94674990Y-58774990D02*
X90074990Y-58774990D01*
X117585000Y-60955000D02*
X116695000Y-60955000D01*
X86750000Y-58000000D02*
X88800000Y-58000000D01*
X89300000Y-58000000D02*
X88800000Y-58000000D01*
X117736356Y-61106356D02*
X117736356Y-63888193D01*
X117585000Y-60955000D02*
X117736356Y-61106356D01*
X117736356Y-63888193D02*
X117350000Y-64274549D01*
X115550000Y-62100000D02*
X98000000Y-62100000D01*
X116695000Y-60955000D02*
X115550000Y-62100000D01*
X90074990Y-58774990D02*
X89300000Y-58000000D01*
X98000000Y-62100000D02*
X94674990Y-58774990D01*
X117350000Y-64274549D02*
X117350000Y-65375000D01*
%TO.N,SD_DAT1*%
X92825010Y-57225010D02*
X94024979Y-58424979D01*
X112900000Y-59000000D02*
X113200000Y-58700000D01*
X115355021Y-61749989D02*
X116600001Y-60505009D01*
X94819969Y-58424979D02*
X98144979Y-61749989D01*
X94024979Y-58424979D02*
X94819969Y-58424979D01*
X114785000Y-58700000D02*
X114800000Y-58685000D01*
X89500010Y-57225010D02*
X92825010Y-57225010D01*
X86750000Y-56500000D02*
X88775000Y-56500000D01*
X88775000Y-56500000D02*
X89500010Y-57225010D01*
X113200000Y-58700000D02*
X114785000Y-58700000D01*
X116600001Y-59799999D02*
X117000000Y-59400000D01*
X116600001Y-60505009D02*
X116600001Y-59799999D01*
X98144979Y-61749989D02*
X115355021Y-61749989D01*
%TO.N,SD_DAT2*%
X118162833Y-68706850D02*
X123219682Y-63650001D01*
X95860031Y-64550011D02*
X96510042Y-65200022D01*
X132150010Y-59810022D02*
X132047494Y-59707506D01*
X123219682Y-63650001D02*
X130712001Y-63650001D01*
X116238818Y-68437628D02*
X117269609Y-68437628D01*
X113001212Y-65200022D02*
X116238818Y-68437628D01*
X117538831Y-68706850D02*
X118162833Y-68706850D01*
X117269609Y-68437628D02*
X117538831Y-68706850D01*
X132150010Y-62211992D02*
X132150010Y-59810022D01*
X130712001Y-63650001D02*
X132150010Y-62211992D01*
X96510042Y-65200022D02*
X113001212Y-65200022D01*
X89855021Y-64550011D02*
X95860031Y-64550011D01*
X87100000Y-64100000D02*
X89405010Y-64100000D01*
X89405010Y-64100000D02*
X89855021Y-64550011D01*
%TO.N,EINK_VCC_~EN*%
X122200000Y-73800000D02*
X121200000Y-74800000D01*
X121200000Y-77200000D02*
X116200000Y-82200000D01*
D57*
X65100000Y-82975000D02*
X65225000Y-82850000D01*
D55*
X125800000Y-68600000D02*
X122200000Y-72200000D01*
X69600000Y-77400000D02*
X65225000Y-81775000D01*
X116200000Y-82200000D02*
X79965685Y-82200000D01*
X126905012Y-64200000D02*
X125800000Y-65305012D01*
X131800000Y-56145000D02*
X133000000Y-56145000D01*
X122200000Y-72200000D02*
X122200000Y-73800000D01*
X77600000Y-82200000D02*
X77600000Y-81000000D01*
X79965685Y-82200000D02*
X79400000Y-82200000D01*
X134300000Y-64500000D02*
X131100000Y-64500000D01*
X65225000Y-82850000D02*
X65225000Y-81775000D01*
X134800000Y-57945000D02*
X134800000Y-63187996D01*
X121200000Y-74800000D02*
X121200000Y-77200000D01*
X131100000Y-64500000D02*
X130800000Y-64200000D01*
X74000000Y-77400000D02*
X69600000Y-77400000D01*
X134885244Y-63914756D02*
X134300000Y-64500000D01*
D57*
X65100000Y-84540000D02*
X65100000Y-82975000D01*
D55*
X77600000Y-81000000D02*
X74000000Y-77400000D01*
X133000000Y-56145000D02*
X134800000Y-57945000D01*
X130800000Y-64200000D02*
X126905012Y-64200000D01*
X134885244Y-63273240D02*
X134885244Y-63914756D01*
X125800000Y-65305012D02*
X125800000Y-68600000D01*
X134800000Y-63187996D02*
X134885244Y-63273240D01*
%TO.N,SD_VCC_nEN*%
X114800000Y-57415000D02*
X116000000Y-57415000D01*
X98289958Y-61399978D02*
X94964948Y-58074968D01*
X67876166Y-55600000D02*
X67719084Y-55442918D01*
X94964948Y-58074968D02*
X94174968Y-58074968D01*
X53350000Y-49575000D02*
X53350000Y-49975000D01*
X94174968Y-58074968D02*
X91700000Y-55600000D01*
X51660000Y-49450000D02*
X53225000Y-49450000D01*
X116000000Y-57415000D02*
X116050001Y-57465001D01*
X67719084Y-55442918D02*
X64042918Y-55442918D01*
X64042918Y-55442918D02*
X63000000Y-54400000D01*
X115210042Y-61399978D02*
X98289958Y-61399978D01*
X57154364Y-53779364D02*
X57154364Y-54104360D01*
X116050001Y-57465001D02*
X116050000Y-60560020D01*
X116050000Y-60560020D02*
X115210042Y-61399978D01*
X53225000Y-49450000D02*
X53350000Y-49575000D01*
X91700000Y-55600000D02*
X67876166Y-55600000D01*
X53350000Y-49975000D02*
X57154364Y-53779364D01*
X57154364Y-54104360D02*
X58650000Y-55599996D01*
%TO.N,GPS_VCC_nEN*%
X81015000Y-51025000D02*
X81140000Y-51150000D01*
X79450000Y-51025000D02*
X81015000Y-51025000D01*
X82600000Y-51150000D02*
X82800000Y-51350000D01*
X81140000Y-51150000D02*
X82600000Y-51150000D01*
X129535000Y-52335000D02*
X129400000Y-52200000D01*
X131800000Y-52335000D02*
X129535000Y-52335000D01*
%TO.N,Net-(R2-Pad1)*%
X53050000Y-65150000D02*
X52950000Y-65250000D01*
X55250000Y-65150000D02*
X53050000Y-65150000D01*
%TO.N,UART1_RX*%
X65800010Y-48815010D02*
X65800010Y-51428242D01*
X64575000Y-48565000D02*
X65550000Y-48565000D01*
X108625000Y-50325000D02*
X108467550Y-50482450D01*
X72836568Y-52824856D02*
X73349421Y-53337709D01*
X73349421Y-53337709D02*
X92832699Y-53337709D01*
X65978232Y-54000000D02*
X66000000Y-54000000D01*
X65124990Y-52103262D02*
X65124990Y-53146758D01*
X72249711Y-52824856D02*
X72836568Y-52824856D01*
X65800010Y-51428242D02*
X65124990Y-52103262D01*
X71849712Y-53224855D02*
X72249711Y-52824856D01*
X65550000Y-48565000D02*
X65800010Y-48815010D01*
X108467550Y-50482450D02*
X107413050Y-50482450D01*
X96645000Y-57150010D02*
X99805852Y-57150010D01*
X108625000Y-49850000D02*
X108625000Y-50325000D01*
X65124990Y-53146758D02*
X65978232Y-54000000D01*
X92832699Y-53337709D02*
X96645000Y-57150010D01*
%TO.N,UART1_TX*%
X93049709Y-54049709D02*
X96800000Y-57800000D01*
X109275010Y-49388598D02*
X108814842Y-48928430D01*
X100199989Y-57800011D02*
X100800000Y-57200000D01*
X63600000Y-49835000D02*
X63349990Y-50085010D01*
X108088145Y-48928430D02*
X107688146Y-49328429D01*
X63349990Y-50085010D02*
X63349990Y-53693862D01*
X72699420Y-53649710D02*
X73099419Y-54049709D01*
X64575000Y-49835000D02*
X63600000Y-49835000D01*
X73099419Y-54049709D02*
X93049709Y-54049709D01*
X63349990Y-53693862D02*
X64128064Y-54471936D01*
X108814842Y-48928430D02*
X108088145Y-48928430D01*
X96800000Y-57800000D02*
X99493840Y-57800000D01*
X109275010Y-50699990D02*
X109275010Y-49388598D01*
X99493840Y-57800000D02*
X99493851Y-57800011D01*
X108625000Y-51350000D02*
X109275010Y-50699990D01*
%TO.N,Net-(R34-Pad2)*%
X84800000Y-77900000D02*
X84800000Y-78000000D01*
X84800000Y-78400000D02*
X84800000Y-78000000D01*
X85475000Y-77900000D02*
X85625000Y-78050000D01*
X84800000Y-77400000D02*
X84800000Y-78000000D01*
X84800000Y-78400000D02*
X83912500Y-78400000D01*
X83912500Y-77900000D02*
X85475000Y-77900000D01*
X83912500Y-77900000D02*
X84800000Y-77900000D01*
X83912500Y-77400000D02*
X84800000Y-77400000D01*
%TO.N,I2C_DAT*%
X114800000Y-49795000D02*
X114250000Y-49795000D01*
%TO.N,SD_nDET*%
X117136991Y-68800000D02*
X117536990Y-69199999D01*
X121000001Y-69199999D02*
X121400000Y-68800000D01*
X134725000Y-46800000D02*
X135724990Y-47799990D01*
X107250033Y-65550033D02*
X110500000Y-68800000D01*
X134620000Y-47255000D02*
X134725000Y-47150000D01*
X136163588Y-49300000D02*
X138900000Y-49300000D01*
X117536990Y-69199999D02*
X121000001Y-69199999D01*
X110500000Y-68800000D02*
X117136991Y-68800000D01*
X131800000Y-47255000D02*
X134620000Y-47255000D01*
X135724990Y-47799990D02*
X135724990Y-48861402D01*
X91900000Y-65500000D02*
X92250001Y-65149999D01*
X92250001Y-65149999D02*
X95965029Y-65149999D01*
X96365063Y-65550033D02*
X107250033Y-65550033D01*
X86750000Y-65500000D02*
X91900000Y-65500000D01*
X95965029Y-65149999D02*
X96365063Y-65550033D01*
X135724990Y-48861402D02*
X136163588Y-49300000D01*
D57*
%TO.N,+5V*%
X66600000Y-47400000D02*
X64850000Y-45650000D01*
X68275000Y-52700000D02*
X68275000Y-51875000D01*
X55200000Y-61800000D02*
X54000000Y-61800000D01*
X64275000Y-51405000D02*
X64575000Y-51105000D01*
D55*
X78450001Y-62850001D02*
X77000000Y-61400000D01*
D57*
X67400000Y-48299980D02*
X66600000Y-47499980D01*
X49500000Y-63375000D02*
X50725000Y-63375000D01*
D55*
X129999999Y-72600001D02*
X129600000Y-73000000D01*
D57*
X67407083Y-61192917D02*
X66800000Y-61800000D01*
X63400000Y-37600000D02*
X63400000Y-35525000D01*
D55*
X136049989Y-61255021D02*
X136049989Y-66550011D01*
D57*
X65587500Y-54800000D02*
X67400000Y-54800000D01*
X49500000Y-61900000D02*
X49500000Y-63375000D01*
X66600000Y-47499980D02*
X66600000Y-47400000D01*
D55*
X55250000Y-62050000D02*
X55200000Y-62000000D01*
X139375000Y-57930010D02*
X136049989Y-61255021D01*
X78450001Y-68912001D02*
X78450001Y-62850001D01*
D57*
X61800000Y-39200000D02*
X63400000Y-37600000D01*
X64275000Y-53487500D02*
X65587500Y-54800000D01*
D55*
X124150000Y-75400000D02*
X116299990Y-83250010D01*
X67864167Y-61650001D02*
X67407083Y-61192917D01*
X77600000Y-79000000D02*
X77600000Y-69762002D01*
X69312001Y-61650001D02*
X67864167Y-61650001D01*
D57*
X62650000Y-45650000D02*
X61800000Y-44800000D01*
D55*
X77000000Y-61400000D02*
X69562002Y-61400000D01*
D57*
X68275000Y-51875000D02*
X67400000Y-51000000D01*
X66800000Y-61800000D02*
X54000000Y-61800000D01*
X64275000Y-52700000D02*
X64275000Y-53487500D01*
X64275000Y-52700000D02*
X64275000Y-51405000D01*
X68275000Y-52700000D02*
X68275000Y-53925000D01*
X64200000Y-45650000D02*
X62650000Y-45650000D01*
X54000000Y-61800000D02*
X49600000Y-61800000D01*
D55*
X116299990Y-83250010D02*
X80600000Y-83250010D01*
D57*
X67400000Y-51000000D02*
X67400000Y-48299980D01*
D55*
X69562002Y-61400000D02*
X69312001Y-61650001D01*
D57*
X61800000Y-44800000D02*
X61800000Y-39200000D01*
X67400000Y-54800000D02*
X67407083Y-54792917D01*
X64850000Y-45650000D02*
X64200000Y-45650000D01*
X50725000Y-63375000D02*
X51050000Y-63050000D01*
D55*
X55250000Y-63500000D02*
X55250000Y-62050000D01*
D57*
X68275000Y-53925000D02*
X67407083Y-54792917D01*
D55*
X77600000Y-69762002D02*
X78450001Y-68912001D01*
D57*
X49600000Y-61800000D02*
X49500000Y-61900000D01*
D55*
X136049989Y-66550011D02*
X129999999Y-72600001D01*
X139375000Y-53850000D02*
X139375000Y-57930010D01*
%TO.N,ESP_~RST*%
X136500000Y-45800000D02*
X137400000Y-44900000D01*
X131800000Y-45985000D02*
X131985000Y-45800000D01*
X137400000Y-44900000D02*
X138725000Y-44900000D01*
X139395301Y-36286301D02*
X138269000Y-35160000D01*
X139800000Y-36691000D02*
X139395301Y-36286301D01*
X139200000Y-46200000D02*
X139200000Y-45375000D01*
X131985000Y-45800000D02*
X136500000Y-45800000D01*
X139800000Y-43800000D02*
X139800000Y-36691000D01*
X138800000Y-44975000D02*
X138800000Y-44800000D01*
D57*
X137800000Y-72000000D02*
X137800000Y-70800000D01*
D55*
X138725000Y-44900000D02*
X138800000Y-44975000D01*
X139200000Y-45375000D02*
X138800000Y-44975000D01*
X138800000Y-44800000D02*
X139800000Y-43800000D01*
%TO.N,Net-(C9-Pad1)*%
X61355000Y-47295000D02*
X60750000Y-47900000D01*
X64575000Y-47295000D02*
X61355000Y-47295000D01*
D57*
%TO.N,Net-(C13-Pad2)*%
X63600000Y-93850000D02*
X63600000Y-92050000D01*
X65425000Y-93850000D02*
X63600000Y-93850000D01*
X63600000Y-92050000D02*
X64300000Y-91350000D01*
%TO.N,Net-(C13-Pad1)*%
X67200000Y-96450000D02*
X67100000Y-96350000D01*
X66975000Y-96225000D02*
X67100000Y-96350000D01*
X67200000Y-98775000D02*
X67200000Y-96450000D01*
X67125000Y-98850000D02*
X67200000Y-98775000D01*
X62950000Y-98850000D02*
X67125000Y-98850000D01*
X66975000Y-93850000D02*
X66975000Y-96225000D01*
D55*
%TO.N,Net-(C18-Pad1)*%
X90425000Y-61000000D02*
X91549990Y-61000000D01*
X91352698Y-56500000D02*
X91476349Y-56376349D01*
D57*
X45725000Y-49900000D02*
X45775000Y-49850000D01*
X45775000Y-47575000D02*
X44400000Y-46200000D01*
X45355000Y-36955000D02*
X45355000Y-35150000D01*
D55*
X82300000Y-64694990D02*
X82300000Y-61179960D01*
D57*
X49040000Y-50400000D02*
X46225000Y-50400000D01*
D55*
X81070050Y-59950010D02*
X56655022Y-59950010D01*
X90450000Y-58000000D02*
X91600000Y-58000000D01*
X86000000Y-62138588D02*
X86000000Y-65800000D01*
X82300000Y-61179960D02*
X81070050Y-59950010D01*
X91549990Y-61000000D02*
X91600000Y-60949990D01*
D57*
X45775000Y-49850000D02*
X45775000Y-47575000D01*
D55*
X90425000Y-56500000D02*
X91352698Y-56500000D01*
D57*
X46225000Y-50400000D02*
X45725000Y-49900000D01*
X44400000Y-46200000D02*
X44400000Y-37910000D01*
X44400000Y-37910000D02*
X45355000Y-36955000D01*
D55*
X91600000Y-58000000D02*
X91645595Y-58045595D01*
X49040000Y-52334988D02*
X49040000Y-50925000D01*
X89900000Y-62500000D02*
X89174990Y-61774990D01*
X83830020Y-66225010D02*
X82300000Y-64694990D01*
X49040000Y-50925000D02*
X49040000Y-50400000D01*
X56655022Y-59950010D02*
X49040000Y-52334988D01*
X85574990Y-66225010D02*
X83830020Y-66225010D01*
X90425000Y-59500000D02*
X91600000Y-59500000D01*
X90425000Y-62500000D02*
X89900000Y-62500000D01*
X86363598Y-61774990D02*
X86000000Y-62138588D01*
X86000000Y-65800000D02*
X85574990Y-66225010D01*
X89174990Y-61774990D02*
X86363598Y-61774990D01*
X90425000Y-62500000D02*
X91600000Y-62500000D01*
D56*
%TO.N,Net-(C20-Pad1)*%
X67375000Y-110700000D02*
X67375000Y-111925000D01*
X67375000Y-111925000D02*
X67350000Y-111950000D01*
%TO.N,/PREVGH*%
X65500000Y-119450000D02*
X64350000Y-119450000D01*
D57*
X57600000Y-118200000D02*
X59000000Y-119600000D01*
D56*
X65500000Y-119450000D02*
X67150000Y-119450000D01*
X67150000Y-119450000D02*
X67400000Y-119200000D01*
D57*
X59000000Y-119600000D02*
X64200000Y-119600000D01*
X59050000Y-96350000D02*
X57600000Y-97800000D01*
X64300000Y-96350000D02*
X59050000Y-96350000D01*
D56*
X64350000Y-119450000D02*
X64200000Y-119600000D01*
D57*
X57600000Y-97800000D02*
X57600000Y-118200000D01*
D56*
%TO.N,/PREVGL*%
X66674990Y-120974990D02*
X67400000Y-121700000D01*
D57*
X56800000Y-113000000D02*
X56800000Y-118319252D01*
D56*
X66450000Y-120450000D02*
X66674990Y-120674990D01*
X65500000Y-120450000D02*
X64250000Y-120450000D01*
D57*
X60800000Y-93850000D02*
X59750000Y-93850000D01*
D56*
X66674990Y-120674990D02*
X66674990Y-120974990D01*
D57*
X59750000Y-93850000D02*
X56800000Y-96800000D01*
D56*
X64250000Y-120450000D02*
X64200000Y-120400000D01*
X65500000Y-120450000D02*
X66450000Y-120450000D01*
D57*
X56800000Y-96800000D02*
X56800000Y-113000000D01*
X56800000Y-118319252D02*
X58880748Y-120400000D01*
X58880748Y-120400000D02*
X64200000Y-120400000D01*
D56*
%TO.N,Net-(C23-Pad1)*%
X67400000Y-108225000D02*
X67375000Y-108200000D01*
X67400000Y-109450000D02*
X67400000Y-108225000D01*
%TO.N,Net-(C27-Pad2)*%
X65500000Y-117950000D02*
X66217876Y-117950000D01*
X66217876Y-117950000D02*
X67375000Y-116792876D01*
X67375000Y-116792876D02*
X67375000Y-116700000D01*
%TO.N,Net-(C28-Pad2)*%
X65500000Y-118950000D02*
X66524990Y-118950000D01*
X66674990Y-118675010D02*
X67400000Y-117950000D01*
X66524990Y-118950000D02*
X66674990Y-118800000D01*
X66674990Y-118800000D02*
X66674990Y-118675010D01*
%TO.N,Net-(C29-Pad2)*%
X65500000Y-119950000D02*
X66900000Y-119950000D01*
X66900000Y-119950000D02*
X67400000Y-120450000D01*
%TO.N,Net-(C30-Pad2)*%
X65500000Y-120950000D02*
X65500000Y-122100000D01*
X66350000Y-122950000D02*
X67400000Y-122950000D01*
X65500000Y-122100000D02*
X66350000Y-122950000D01*
D55*
%TO.N,/USB_D-*%
X66100000Y-44700000D02*
X65400000Y-44000000D01*
X68765000Y-48565000D02*
X69525000Y-48565000D01*
X65400000Y-41950000D02*
X64350000Y-40900000D01*
X66400000Y-44700000D02*
X67130000Y-44700000D01*
X67130000Y-44700000D02*
X67200000Y-44770000D01*
X66400000Y-44700000D02*
X66100000Y-44700000D01*
X67200000Y-47000000D02*
X68765000Y-48565000D01*
X67200000Y-44770000D02*
X67200000Y-47000000D01*
X65400000Y-44000000D02*
X65400000Y-41950000D01*
%TO.N,/USB_D+*%
X66150000Y-43750000D02*
X65750000Y-43350000D01*
X65750000Y-43350000D02*
X65750000Y-40900000D01*
X67550000Y-43750000D02*
X67600000Y-43800000D01*
X66400000Y-43750000D02*
X67550000Y-43750000D01*
X67600000Y-46600000D02*
X68295000Y-47295000D01*
X67600000Y-43800000D02*
X67600000Y-46600000D01*
X68295000Y-47295000D02*
X69525000Y-47295000D01*
X66400000Y-43750000D02*
X66150000Y-43750000D01*
%TO.N,Net-(D2-Pad2)*%
X70900000Y-35400000D02*
X70900000Y-37575000D01*
%TO.N,Net-(J1-Pad3)*%
X64700000Y-38200000D02*
X65750000Y-39250000D01*
X64700000Y-35525000D02*
X64700000Y-38200000D01*
%TO.N,Net-(J1-Pad2)*%
X64050000Y-38950000D02*
X64350000Y-39250000D01*
X64050000Y-35525000D02*
X64050000Y-38950000D01*
%TO.N,EINK_SPI_MISO*%
X126600000Y-79200000D02*
X126600000Y-71000000D01*
X128250002Y-57186333D02*
X129105812Y-58042143D01*
X126600000Y-71000000D02*
X129300011Y-68299989D01*
X92973528Y-51600012D02*
X97000000Y-55626484D01*
X92343020Y-51600012D02*
X92973528Y-51600012D01*
X73749106Y-117650010D02*
X88149990Y-117650010D01*
%TO.N,G_INT1*%
X114800000Y-52335000D02*
X115350000Y-52335000D01*
%TO.N,EINK_SPI_MISO*%
X65500000Y-118450000D02*
X64079301Y-118450000D01*
X82750000Y-77237500D02*
X82750000Y-76384315D01*
X128250002Y-57087998D02*
X128250002Y-57186333D01*
X97000000Y-55800000D02*
X97000000Y-55887843D01*
X88149990Y-117650010D02*
X126600000Y-79200000D01*
X91799987Y-50656981D02*
X91799989Y-51056981D01*
X125362004Y-54200000D02*
X128250002Y-57087998D01*
X92384305Y-66750010D02*
X94149990Y-66750010D01*
X91799989Y-51056981D02*
X92343020Y-51600012D01*
X82750000Y-76384315D02*
X92384305Y-66750010D01*
X97000000Y-55626484D02*
X97000000Y-55800000D01*
X89968373Y-48825367D02*
X91799987Y-50656981D01*
X89774633Y-48825367D02*
X89968373Y-48825367D01*
X129105812Y-58042143D02*
X129105812Y-58447607D01*
X94149990Y-66750010D02*
X94400000Y-66500000D01*
X97000000Y-55887843D02*
X96950926Y-55936917D01*
X89950000Y-39200000D02*
X87800000Y-39200000D01*
X129300011Y-68299989D02*
X129300011Y-66000000D01*
X64079301Y-118450000D02*
X64010038Y-118519263D01*
D57*
%TO.N,/RESE*%
X62000000Y-104600000D02*
X62000000Y-100850000D01*
D56*
X65500000Y-110450000D02*
X64704998Y-110450000D01*
D57*
X63450000Y-105100000D02*
X62500000Y-105100000D01*
X62500000Y-105100000D02*
X62000000Y-104600000D01*
D56*
X63625001Y-105275001D02*
X63450000Y-105100000D01*
X64704998Y-110450000D02*
X63625001Y-109370003D01*
X63625001Y-109370003D02*
X63625001Y-105275001D01*
%TO.N,/GDR*%
X63900000Y-102825000D02*
X63625000Y-103100000D01*
X65500000Y-109950000D02*
X64775011Y-109950000D01*
X64775011Y-109950000D02*
X64237510Y-109412499D01*
X64237510Y-103712510D02*
X63625000Y-103100000D01*
X64237510Y-109412499D02*
X64237510Y-103712510D01*
X63900000Y-100850000D02*
X63900000Y-102825000D01*
D55*
%TO.N,EINK_EEPROM_~EN*%
X69107120Y-106600000D02*
X78424980Y-97282140D01*
X92150023Y-51950023D02*
X90600000Y-50400000D01*
X106535010Y-44715000D02*
X105284632Y-45965378D01*
X78424980Y-97282140D02*
X78424980Y-74325020D01*
X66800000Y-106600000D02*
X69107120Y-106600000D01*
X95807122Y-55392878D02*
X92364267Y-51950023D01*
X102800000Y-49200000D02*
X101850000Y-50150000D01*
X78424980Y-74325020D02*
X80475000Y-72275000D01*
X65500000Y-109450000D02*
X65500000Y-107900000D01*
X91099999Y-66299999D02*
X92799997Y-66299999D01*
X92364267Y-51950023D02*
X92150023Y-51950023D01*
X114800000Y-44715000D02*
X106535010Y-44715000D01*
X85124998Y-72275000D02*
X91099999Y-66299999D01*
X90225000Y-50025000D02*
X90600000Y-50400000D01*
X88000000Y-50025000D02*
X90225000Y-50025000D01*
X92799997Y-66299999D02*
X93299996Y-65800000D01*
X65500000Y-107900000D02*
X66800000Y-106600000D01*
X80475000Y-72275000D02*
X85124998Y-72275000D01*
X95850000Y-50150000D02*
X93250000Y-50150000D01*
X101850000Y-50150000D02*
X95850000Y-50150000D01*
X102800000Y-47000000D02*
X102800000Y-49200000D01*
X93250000Y-50150000D02*
X92800000Y-50600000D01*
%TO.N,JTAG_TCK*%
X127050001Y-50549999D02*
X127050001Y-55393007D01*
X127745000Y-60955000D02*
X127745000Y-62155000D01*
X129200000Y-48200000D02*
X129200000Y-44144998D01*
X113255022Y-64850011D02*
X116192637Y-67787626D01*
X128000000Y-49600000D02*
X127050001Y-50549999D01*
X138000000Y-40185046D02*
X135872699Y-38057745D01*
X128000000Y-49600000D02*
X128000000Y-49400000D01*
X129417814Y-59097609D02*
X129850001Y-58665422D01*
X136400000Y-42400000D02*
X138000000Y-40800000D01*
X123000000Y-63300000D02*
X121000000Y-65300000D01*
X127745000Y-60955000D02*
X127745000Y-59755000D01*
X128402391Y-59097609D02*
X129417814Y-59097609D01*
X127745000Y-62155000D02*
X126600000Y-63300000D01*
X127050001Y-55393007D02*
X128600013Y-56943019D01*
X135872699Y-38057745D02*
X135872699Y-36286301D01*
X128000000Y-49400000D02*
X129200000Y-48200000D01*
X116192637Y-67787626D02*
X116550820Y-67787626D01*
X86750000Y-62500000D02*
X88775000Y-62500000D01*
X135872699Y-36286301D02*
X136999000Y-35160000D01*
X138000000Y-40800000D02*
X138000000Y-40185046D01*
X121000000Y-65300000D02*
X119095138Y-65300000D01*
X88775000Y-62975000D02*
X90000000Y-64200000D01*
X128600013Y-56979804D02*
X129850001Y-58229792D01*
X129850001Y-58665422D02*
X129850001Y-58450001D01*
X129200000Y-44144998D02*
X130944998Y-42400000D01*
X129850001Y-58229792D02*
X129850001Y-58450001D01*
X126600000Y-63300000D02*
X123000000Y-63300000D01*
X119095138Y-65300000D02*
X118291075Y-64495937D01*
X96655021Y-64850011D02*
X113255022Y-64850011D01*
X90000000Y-64200000D02*
X96005010Y-64200000D01*
X96005010Y-64200000D02*
X96655021Y-64850011D01*
X127745000Y-59755000D02*
X128402391Y-59097609D01*
X130944998Y-42400000D02*
X136400000Y-42400000D01*
X128600013Y-56943019D02*
X128600013Y-56979804D01*
X88775000Y-62500000D02*
X88775000Y-62975000D01*
%TO.N,JTAG_TMS*%
X131800000Y-58685000D02*
X133000000Y-58685000D01*
X115590344Y-63049969D02*
X115999814Y-63459439D01*
X136999000Y-33890000D02*
X136605301Y-33496301D01*
X133000000Y-58685000D02*
X134000000Y-59685000D01*
X86750000Y-59500000D02*
X88775000Y-59500000D01*
X89500010Y-60225010D02*
X95125010Y-60225010D01*
X137991745Y-31874699D02*
X139400000Y-33282954D01*
X97949969Y-63049969D02*
X115590344Y-63049969D01*
X134000000Y-59685000D02*
X134000000Y-62580747D01*
X134000000Y-62580747D02*
X133075190Y-63505557D01*
X137276255Y-31874699D02*
X137991745Y-31874699D01*
X88775000Y-59500000D02*
X89500010Y-60225010D01*
X136605301Y-33496301D02*
X136605301Y-32545653D01*
X136605301Y-32545653D02*
X137276255Y-31874699D01*
X139400000Y-33282954D02*
X139400000Y-34000000D01*
X95125010Y-60225010D02*
X97949969Y-63049969D01*
%TO.N,JTAG_TDO*%
X118855000Y-63081376D02*
X118386366Y-63550010D01*
X113600000Y-64000000D02*
X96300000Y-64000000D01*
X114700000Y-65100000D02*
X113600000Y-64000000D01*
X96300000Y-64000000D02*
X94025010Y-61725010D01*
X137392699Y-36823699D02*
X137392699Y-38392699D01*
X118855000Y-60955000D02*
X118855000Y-59145000D01*
X118855000Y-60955000D02*
X118855000Y-63081376D01*
X137392699Y-38392699D02*
X138400000Y-39400000D01*
X118855000Y-59145000D02*
X121200000Y-56800000D01*
X117023808Y-63576192D02*
X115500000Y-65100000D01*
X138400000Y-39400000D02*
X138400000Y-42000000D01*
X117086355Y-63576192D02*
X117023808Y-63576192D01*
X136999000Y-36430000D02*
X137392699Y-36823699D01*
X115500000Y-65100000D02*
X114700000Y-65100000D01*
X138400000Y-42000000D02*
X138600000Y-42200000D01*
X94025010Y-61725010D02*
X90038598Y-61725010D01*
D57*
%TO.N,Net-(L1-Pad1)*%
X50000000Y-66200000D02*
X50000000Y-67325000D01*
X51050000Y-65250000D02*
X50950000Y-65250000D01*
X50950000Y-65250000D02*
X50000000Y-66200000D01*
%TO.N,Net-(L2-Pad1)*%
X71500000Y-66050000D02*
X72300000Y-65250000D01*
X71500000Y-67237500D02*
X71500000Y-66050000D01*
D55*
%TO.N,GPS_SUPPLY*%
X102925010Y-41674990D02*
X102925010Y-44811402D01*
D57*
X86600000Y-36400000D02*
X85000000Y-36400000D01*
X83760000Y-37040000D02*
X83760000Y-40040000D01*
D55*
X91800000Y-48000000D02*
X91800000Y-37000000D01*
D57*
X84400000Y-36400000D02*
X83760000Y-37040000D01*
D55*
X91800000Y-37000000D02*
X91000000Y-36200000D01*
X103925000Y-41350000D02*
X103250000Y-41350000D01*
X103250000Y-41350000D02*
X102925010Y-41674990D01*
X98536412Y-49200000D02*
X93000000Y-49200000D01*
D57*
X83760000Y-40040000D02*
X83760000Y-50200000D01*
X85000000Y-36400000D02*
X84400000Y-36400000D01*
D55*
X91000000Y-36200000D02*
X89950000Y-36200000D01*
D57*
X86800000Y-36200000D02*
X86600000Y-36400000D01*
X89950000Y-36200000D02*
X86800000Y-36200000D01*
D55*
X102925010Y-44811402D02*
X98536412Y-49200000D01*
X93000000Y-49200000D02*
X91800000Y-48000000D01*
%TO.N,Net-(R3-Pad1)*%
X74400000Y-65050000D02*
X74200000Y-65250000D01*
X76500000Y-65050000D02*
X74400000Y-65050000D01*
%TO.N,Net-(R10-Pad2)*%
X54600000Y-64200000D02*
X53450000Y-63050000D01*
X55825000Y-66975000D02*
X56400000Y-66400000D01*
X56400000Y-66400000D02*
X56400000Y-64800000D01*
X55200000Y-66975000D02*
X55825000Y-66975000D01*
X55800000Y-64200000D02*
X54600000Y-64200000D01*
X53750000Y-66975000D02*
X55200000Y-66975000D01*
X56400000Y-64800000D02*
X55800000Y-64200000D01*
X53450000Y-63050000D02*
X52950000Y-63050000D01*
%TO.N,Net-(R12-Pad2)*%
X76000000Y-64200000D02*
X77000000Y-64200000D01*
X77575000Y-64775000D02*
X77575000Y-66200000D01*
X77575000Y-66200000D02*
X76800000Y-66975000D01*
X74200000Y-63050000D02*
X74850000Y-63050000D01*
X77000000Y-64200000D02*
X77575000Y-64775000D01*
X75250000Y-66975000D02*
X76800000Y-66975000D01*
X74850000Y-63050000D02*
X76000000Y-64200000D01*
%TO.N,Net-(R18-Pad2)*%
X76200000Y-52800000D02*
X91600000Y-52800000D01*
X91600000Y-52800000D02*
X91800000Y-52600000D01*
X96306127Y-52306127D02*
X96506127Y-52306127D01*
X131800000Y-53605000D02*
X130995000Y-53605000D01*
X70900000Y-39225000D02*
X70900000Y-47500000D01*
X130995000Y-53605000D02*
X130000000Y-54600000D01*
X70900000Y-47500000D02*
X76200000Y-52800000D01*
X95093873Y-52306127D02*
X96306127Y-52306127D01*
%TO.N,Net-(R19-Pad1)*%
X110275000Y-48125000D02*
X110275000Y-49850000D01*
X111145000Y-47255000D02*
X110275000Y-48125000D01*
X114800000Y-47255000D02*
X111145000Y-47255000D01*
%TO.N,Net-(R20-Pad1)*%
X114800000Y-48525000D02*
X112075000Y-48525000D01*
X111200000Y-50425000D02*
X110275000Y-51350000D01*
X111675000Y-48525000D02*
X111200000Y-49000000D01*
X111200000Y-49000000D02*
X111200000Y-50425000D01*
X114800000Y-48525000D02*
X111675000Y-48525000D01*
%TO.N,Net-(R22-Pad2)*%
X99550000Y-41200000D02*
X102125000Y-41200000D01*
X102125000Y-41200000D02*
X102275000Y-41350000D01*
%TO.N,Net-(R23-Pad2)*%
X102125000Y-44200000D02*
X102275000Y-44350000D01*
X99550000Y-44200000D02*
X102125000Y-44200000D01*
%TO.N,Net-(R24-Pad2)*%
X99550000Y-43200000D02*
X101925000Y-43200000D01*
X101925000Y-43200000D02*
X102275000Y-42850000D01*
%TO.N,Net-(R25-Pad2)*%
X95750000Y-45000000D02*
X95750000Y-48400000D01*
X95750000Y-48400000D02*
X95850000Y-48500000D01*
%TO.N,Net-(R26-Pad2)*%
X89950000Y-38200000D02*
X87800000Y-38200000D01*
X86600000Y-48200000D02*
X87825000Y-48200000D01*
X87825000Y-48200000D02*
X88000000Y-48375000D01*
D56*
%TO.N,Net-(J2-Pad19)*%
X64425010Y-111950000D02*
X64200000Y-111724990D01*
X65675000Y-129965000D02*
X68035000Y-129965000D01*
X63200000Y-128800000D02*
X64365000Y-129965000D01*
X68035000Y-129965000D02*
X72995107Y-125004893D01*
X65500000Y-111950000D02*
X64425010Y-111950000D01*
X72995107Y-125004893D02*
X72995107Y-111880069D01*
X64365000Y-129965000D02*
X65675000Y-129965000D01*
X63200000Y-126925000D02*
X63200000Y-128800000D01*
%TO.N,Net-(J2-Pad18)*%
X64625000Y-128225000D02*
X64625000Y-126850000D01*
X63450000Y-112450000D02*
X63400000Y-112400000D01*
X65675000Y-128695000D02*
X65095000Y-128695000D01*
X65095000Y-128695000D02*
X64625000Y-128225000D01*
X72200000Y-122170000D02*
X72200000Y-112400000D01*
X65500000Y-112450000D02*
X63450000Y-112450000D01*
X65675000Y-128695000D02*
X72200000Y-122170000D01*
D55*
%TO.N,Net-(J2-Pad17)*%
X66500001Y-112699999D02*
X66699999Y-112699999D01*
X68799998Y-113299998D02*
X68700000Y-113299998D01*
X68700000Y-113700000D02*
X68500000Y-113700000D01*
%TO.N,IO27*%
X129850000Y-50787998D02*
X129850000Y-48000000D01*
X128749999Y-51887999D02*
X129850000Y-50787998D01*
X130600000Y-57415000D02*
X130549999Y-57364999D01*
X131800000Y-57415000D02*
X130600000Y-57415000D01*
X130549999Y-56549999D02*
X128749999Y-54749999D01*
X128749999Y-54749999D02*
X128749999Y-51887999D01*
X130549999Y-57364999D02*
X130549999Y-56549999D01*
X77225000Y-42600000D02*
X78200000Y-42600000D01*
%TO.N,Net-(J27-Pad10)*%
X56800001Y-59599999D02*
X81215029Y-59599999D01*
X49900001Y-52699999D02*
X56800001Y-59599999D01*
X50490000Y-45000000D02*
X49900001Y-45589999D01*
X84700000Y-65500000D02*
X85100000Y-65500000D01*
X49900001Y-45589999D02*
X49900001Y-52699999D01*
X81215029Y-59599999D02*
X82650011Y-61034981D01*
X82650011Y-63450011D02*
X84700000Y-65500000D01*
X51290000Y-45000000D02*
X50490000Y-45000000D01*
X82650011Y-61034981D02*
X82650011Y-63450011D01*
%TO.N,Net-(J27-Pad7)*%
X74900022Y-56300022D02*
X75200000Y-56600000D01*
X67586208Y-56300022D02*
X74900022Y-56300022D01*
X61399987Y-53002101D02*
X61399988Y-54256980D01*
X75200000Y-56600000D02*
X82334984Y-56600000D01*
X42055000Y-32745000D02*
X43200000Y-31600000D01*
X54962004Y-31600000D02*
X56249989Y-32887985D01*
X43200000Y-31600000D02*
X54962004Y-31600000D01*
X42055000Y-35150000D02*
X42055000Y-32745000D01*
X67429126Y-56142940D02*
X67586208Y-56300022D01*
X61399988Y-54256980D02*
X63285948Y-56142940D01*
X82334984Y-56600000D02*
X83734984Y-58000000D01*
X83734984Y-58000000D02*
X85100000Y-58000000D01*
X63285948Y-56142940D02*
X67429126Y-56142940D01*
X56249989Y-47852101D02*
X61399987Y-53002101D01*
X56249989Y-32887985D02*
X56249989Y-47852101D01*
%TO.N,Net-(J27-Pad5)*%
X63153072Y-57000044D02*
X73845090Y-57000044D01*
X53387964Y-32349968D02*
X55549967Y-34511971D01*
X59642870Y-52442870D02*
X59642870Y-53489842D01*
X84245008Y-59500000D02*
X85100000Y-59500000D01*
X73949998Y-57104952D02*
X73949998Y-57262034D01*
X44255000Y-34145000D02*
X46050032Y-32349968D01*
X74287998Y-57600034D02*
X82345042Y-57600034D01*
X55549967Y-34511971D02*
X55549967Y-48349967D01*
X55549967Y-48349967D02*
X59642870Y-52442870D01*
X59642870Y-53489842D02*
X63153072Y-57000044D01*
X73845090Y-57000044D02*
X73949998Y-57104952D01*
X44255000Y-35150000D02*
X44255000Y-34145000D01*
X46050032Y-32349968D02*
X53387964Y-32349968D01*
X73949998Y-57262034D02*
X74287998Y-57600034D01*
X82345042Y-57600034D02*
X84245008Y-59500000D01*
%TO.N,Net-(J27-Pad3)*%
X58663154Y-54078184D02*
X59241240Y-54078186D01*
X46455000Y-35150000D02*
X46455000Y-34400000D01*
X52649990Y-33049990D02*
X54849947Y-35249947D01*
X54849947Y-49957554D02*
X58204397Y-53312004D01*
X84100000Y-61000000D02*
X85100000Y-61000000D01*
X47805010Y-33049990D02*
X52649990Y-33049990D01*
X46455000Y-34400000D02*
X47805010Y-33049990D01*
X58204397Y-53619427D02*
X58663154Y-54078184D01*
X63713023Y-58549969D02*
X81649969Y-58549969D01*
X59241240Y-54078186D02*
X63713023Y-58549969D01*
X58204397Y-53312004D02*
X58204397Y-53619427D01*
X54849947Y-35249947D02*
X54849947Y-49957554D01*
X81649969Y-58549969D02*
X84100000Y-61000000D01*
%TO.N,Net-(J27-Pad2)*%
X85100000Y-62494990D02*
X85100000Y-62500000D01*
X63568044Y-58899980D02*
X81504990Y-58899980D01*
X54499937Y-50102534D02*
X57854386Y-53456983D01*
X48399999Y-33400001D02*
X52400001Y-33400001D01*
X59096260Y-54428196D02*
X63568044Y-58899980D01*
X57854386Y-53456983D02*
X57854387Y-53764407D01*
X52400001Y-33400001D02*
X54499936Y-35499936D01*
X47555000Y-34245000D02*
X48399999Y-33400001D01*
X58518175Y-54428195D02*
X59096260Y-54428196D01*
X54499936Y-35499936D02*
X54499937Y-50102534D01*
X47555000Y-35150000D02*
X47555000Y-34245000D01*
X81504990Y-58899980D02*
X85100000Y-62494990D01*
X57854387Y-53764407D02*
X58518175Y-54428195D01*
%TO.N,Net-(J27-Pad8)*%
X42974990Y-31225010D02*
X55082004Y-31225010D01*
X82479962Y-56249990D02*
X75344978Y-56249990D01*
X41005000Y-35150000D02*
X41005000Y-33195000D01*
X41005000Y-33195000D02*
X42974990Y-31225010D01*
X61749998Y-54112000D02*
X63430927Y-55792929D01*
X61749998Y-52857120D02*
X61749998Y-54112000D01*
X56600000Y-47707122D02*
X61749998Y-52857120D01*
X56600000Y-32743006D02*
X56600000Y-47707122D01*
X85100000Y-56500000D02*
X82729972Y-56500000D01*
X75344978Y-56249990D02*
X75044999Y-55950011D01*
X82729972Y-56500000D02*
X82479962Y-56249990D01*
X67574106Y-55792930D02*
X67731187Y-55950011D01*
X63430927Y-55792929D02*
X67574106Y-55792930D01*
X75044999Y-55950011D02*
X67731187Y-55950011D01*
X55082004Y-31225010D02*
X56600000Y-32743006D01*
%TO.N,Net-(J27-Pad1)*%
X52105010Y-33800000D02*
X54149925Y-35844915D01*
X57504375Y-53909385D02*
X58373196Y-54778206D01*
X57504375Y-53601962D02*
X57504375Y-53909385D01*
X83450000Y-61339980D02*
X83450000Y-62750000D01*
X83450000Y-62750000D02*
X84700000Y-64000000D01*
X48655000Y-35150000D02*
X50005000Y-33800000D01*
X63423065Y-59249991D02*
X81360011Y-59249991D01*
X58951280Y-54778206D02*
X63423065Y-59249991D01*
X81360011Y-59249991D02*
X83450000Y-61339980D01*
X50005000Y-33800000D02*
X52105010Y-33800000D01*
X54149925Y-35844915D02*
X54149927Y-50247514D01*
X58373196Y-54778206D02*
X58951280Y-54778206D01*
X54149927Y-50247514D02*
X57504375Y-53601962D01*
X84700000Y-64000000D02*
X85100000Y-64000000D01*
%TO.N,no_connect_(U3-Pad20)*%
X122500012Y-61119988D02*
X122665000Y-60955000D01*
%TO.N,no_connect_(U3-Pad17)*%
X126475000Y-61505000D02*
X126475000Y-60955000D01*
%TD*%
%TA.AperFunction,Conductor*%
%TO.N,Net-(U5-Pad16)*%
G36*
X100542121Y-33820002D02*
G01*
X100588614Y-33873658D01*
X100600000Y-33926000D01*
X100600000Y-35418500D01*
X100579998Y-35486621D01*
X100526342Y-35533114D01*
X100474000Y-35544500D01*
X98926000Y-35544500D01*
X98857879Y-35524498D01*
X98811386Y-35470842D01*
X98800000Y-35418500D01*
X98800000Y-33926000D01*
X98820002Y-33857879D01*
X98873658Y-33811386D01*
X98926000Y-33800000D01*
X100474000Y-33800000D01*
X100542121Y-33820002D01*
G37*
%TD.AperFunction*%
%TD*%
M02*
