M48
; DRILL file {KiCad (5.99.0-8534-g3fcd0860c1)} date 03/04/21 23:40:26
; FORMAT={-:-/ absolute / inch / decimal}
; #@! TF.CreationDate,2021-03-04T23:40:26+01:00
; #@! TF.GenerationSoftware,Kicad,Pcbnew,(5.99.0-8534-g3fcd0860c1)
FMAT,2
INCH
T1C0.0157
T2C0.0197
T3C0.0276
T4C0.0390
%
G90
G05
T1
X1.7402Y-2.0157
X1.748Y-1.4272
X1.7795Y-1.5354
X1.7795Y-1.8031
X1.7913Y-1.3386
X2.0079Y-2.5264
X2.0394Y-2.0866
X2.0472Y-2.5276
X2.0866Y-2.5264
X2.1102Y-2.0866
X2.1654Y-1.2913
X2.2126Y-5.1102
X2.2205Y-2.7008
X2.3091Y-2.189
X2.3226Y-2.0945
X2.3858Y-1.2441
X2.4187Y-1.7939
X2.4567Y-2.0945
X2.4567Y-4.4409
X2.459Y-4.4827
X2.4646Y-4.3307
X2.4724Y-1.748
X2.4764Y-4.5396
X2.4803Y-2.1417
X2.4961Y-4.4252
X2.4961Y-4.4252
X2.5039Y-4.5118
X2.5169Y-4.6288
X2.5197Y-2.874
X2.5201Y-4.6661
X2.5247Y-2.1446
X2.5276Y-2.7953
X2.5276Y-2.9528
X2.5276Y-4.3986
X2.5276Y-4.5669
X2.5748Y-4.189
X2.5984Y-2.126
X2.6063Y-2.9606
X2.6083Y-2.7874
X2.6378Y-2.0787
X2.6457Y-3.2126
X2.6457Y-3.5433
X2.6538Y-2.1572
X2.6538Y-2.4092
X2.685Y-2.7953
X2.685Y-2.9528
X2.6929Y-2.874
X2.7087Y-1.2441
X2.7517Y-4.1297
X2.7638Y-4.2362
X2.7638Y-4.2835
X2.7638Y-4.3386
X2.7638Y-4.6378
X2.7638Y-4.6929
X2.7638Y-4.7402
X2.7638Y-4.7953
X2.7638Y-4.8425
X2.7874Y-4.5354
X2.7953Y-1.2756
X2.7953Y-2.0787
X2.7953Y-4.4803
X2.8287Y-2.0955
X2.8346Y-4.372
X2.8425Y-2.5264
X2.8425Y-4.4252
X2.8622Y-2.1122
X2.8738Y-4.4047
X2.8819Y-2.5276
X2.8976Y-2.2795
X2.9035Y-4.6319
X2.9055Y-4.5157
X2.9055Y-4.568
X2.9213Y-2.5264
X2.9324Y-4.594
X2.9356Y-4.5424
X2.9363Y-2.2421
X2.9764Y-1.622
X3.0079Y-2.748
X3.0079Y-2.7874
X3.0079Y-2.8268
X3.0551Y-3.1102
X3.0551Y-3.2362
X3.0575Y-3.1551
X3.063Y-2.0472
X3.063Y-2.4882
X3.063Y-2.7008
X3.0787Y-1.6772
X3.1169Y-3.2725
X3.126Y-1.8898
X3.126Y-2.937
X3.126Y-3.2362
X3.1417Y-2.4173
X3.1643Y-3.07
X3.1732Y-3.1575
X3.1732Y-3.2776
X3.189Y-3.1181
X3.2283Y-2.8898
X3.252Y-3.1654
X3.2598Y-2.0217
X3.2992Y-1.3701
X3.3465Y-1.5984
X3.4094Y-1.8976
X3.4518Y-2.3691
X3.4567Y-1.2638
X3.4567Y-1.3071
X3.4567Y-1.3465
X3.4567Y-1.3858
X3.4567Y-1.5039
X3.4567Y-1.5433
X3.4567Y-1.5827
X3.4567Y-1.622
X3.4606Y-2.315
X3.4803Y-3.0709
X3.5344Y-1.9223
X3.5669Y-1.9843
X3.6014Y-2.2195
X3.6063Y-2.3425
X3.6063Y-2.3996
X3.6063Y-2.4606
X3.6081Y-2.2853
X3.6142Y-2.0709
X3.6496Y-2.3425
X3.6496Y-2.3976
X3.6535Y-1.8583
X3.6535Y-1.9921
X3.6732Y-2.5906
X3.7165Y-2.6181
X3.7439Y-2.0593
X3.748Y-2.6457
X3.7719Y-2.1808
X3.811Y-1.8583
X3.817Y-2.2022
X3.8425Y-2.1635
X3.887Y-2.2147
X3.8898Y-2.6142
X3.9294Y-2.25
X3.937Y-2.1654
X3.9685Y-2.252
X3.9843Y-2.126
X4.0Y-1.2598
X4.0Y-1.3071
X4.0Y-1.4252
X4.0Y-1.4646
X4.0Y-1.5433
X4.0Y-1.5827
X4.0472Y-1.8504
X4.0551Y-2.1831
X4.063Y-2.378
X4.063Y-2.6063
X4.1181Y-2.2677
X4.1451Y-1.8097
X4.1496Y-1.9291
X4.1496Y-2.1575
X4.1811Y-1.8976
X4.2283Y-2.315
X4.2289Y-1.9875
X4.2397Y-1.9421
X4.315Y-2.1339
X4.315Y-2.3071
X4.3386Y-1.8504
X4.4291Y-2.3622
X4.4449Y-2.3228
X4.4512Y-2.2779
X4.4567Y-1.7087
X4.5276Y-2.5354
X4.5669Y-2.4984
X4.5864Y-2.4509
X4.5886Y-2.6688
X4.6063Y-2.3386
X4.6097Y-2.503
X4.6398Y-2.6794
X4.6571Y-2.5392
X4.6609Y-2.502
X4.7047Y-2.5394
X4.7323Y-2.4724
X4.7717Y-2.2362
X4.7795Y-2.7087
X4.8425Y-2.8819
X4.8878Y-2.9685
X4.8878Y-3.0079
X4.8898Y-2.0079
X5.0023Y-2.5772
X5.0098Y-3.0079
X5.0149Y-2.311
X5.0236Y-2.2598
X5.0335Y-2.5992
X5.0477Y-2.2885
X5.061Y-2.9136
X5.063Y-2.5689
X5.0829Y-2.3011
X5.0866Y-1.9528
X5.0906Y-2.5984
X5.0945Y-2.0551
X5.1024Y-2.874
X5.1122Y-1.8898
X5.1181Y-2.1496
X5.1339Y-2.4803
X5.2008Y-2.5039
X5.2392Y-2.5002
X5.25Y-2.3643
X5.2598Y-2.2874
X5.2849Y-2.5034
X5.3622Y-2.2283
X5.3712Y-1.7382
X5.4094Y-1.6693
X5.4094Y-1.9055
X5.4173Y-2.0
X5.4252Y-2.4252
X5.4252Y-2.685
X5.4252Y-2.7874
X5.4252Y-3.0472
X5.4567Y-1.6614
X5.4654Y-1.5248
X5.4685Y-1.9409
X5.4783Y-1.5748
X5.4803Y-1.8189
X5.4811Y-1.3855
X5.4882Y-1.3386
T2
X2.4685Y-1.3717
X2.626Y-1.3717
T3
X5.4665Y-2.5079
X5.4665Y-2.5984
X5.4665Y-2.872
X5.4665Y-2.9626
T4
X5.3787Y-1.4843
X5.4187Y-1.2843
X5.4587Y-1.4843
T0
M30
