%TF.GenerationSoftware,KiCad,Pcbnew,(5.99.0-8534-g3fcd0860c1)*%
%TF.CreationDate,2021-03-04T23:40:16+01:00*%
%TF.ProjectId,Navi_2_0,4e617669-5f32-45f3-902e-6b696361645f,rev?*%
%TF.SameCoordinates,Original*%
%TF.FileFunction,Soldermask,Bot*%
%TF.FilePolarity,Negative*%
%FSLAX46Y46*%
G04 Gerber Fmt 4.6, Leading zero omitted, Abs format (unit mm)*
G04 Created by KiCad (PCBNEW (5.99.0-8534-g3fcd0860c1)) date 2021-03-04 23:40:16*
%MOMM*%
%LPD*%
G01*
G04 APERTURE LIST*
G04 Aperture macros list*
%AMRoundRect*
0 Rectangle with rounded corners*
0 $1 Rounding radius*
0 $2 $3 $4 $5 $6 $7 $8 $9 X,Y pos of 4 corners*
0 Add a 4 corners polygon primitive as box body*
4,1,4,$2,$3,$4,$5,$6,$7,$8,$9,$2,$3,0*
0 Add four circle primitives for the rounded corners*
1,1,$1+$1,$2,$3*
1,1,$1+$1,$4,$5*
1,1,$1+$1,$6,$7*
1,1,$1+$1,$8,$9*
0 Add four rect primitives between the rounded corners*
20,1,$1+$1,$2,$3,$4,$5,0*
20,1,$1+$1,$4,$5,$6,$7,0*
20,1,$1+$1,$6,$7,$8,$9,0*
20,1,$1+$1,$8,$9,$2,$3,0*%
G04 Aperture macros list end*
%ADD10C,0.787400*%
%ADD11C,0.990600*%
%ADD12RoundRect,0.200000X-0.200000X-0.275000X0.200000X-0.275000X0.200000X0.275000X-0.200000X0.275000X0*%
%ADD13RoundRect,0.225000X-0.250000X0.225000X-0.250000X-0.225000X0.250000X-0.225000X0.250000X0.225000X0*%
%ADD14RoundRect,0.225000X0.250000X-0.225000X0.250000X0.225000X-0.250000X0.225000X-0.250000X-0.225000X0*%
%ADD15RoundRect,0.225000X-0.225000X-0.250000X0.225000X-0.250000X0.225000X0.250000X-0.225000X0.250000X0*%
%ADD16RoundRect,0.212500X-0.212500X0.400000X-0.212500X-0.400000X0.212500X-0.400000X0.212500X0.400000X0*%
%ADD17RoundRect,0.250000X-0.850000X0.462500X-0.850000X-0.462500X0.850000X-0.462500X0.850000X0.462500X0*%
%ADD18R,1.220000X0.650000*%
%ADD19RoundRect,0.200000X0.275000X-0.200000X0.275000X0.200000X-0.275000X0.200000X-0.275000X-0.200000X0*%
%ADD20RoundRect,0.200000X-0.275000X0.200000X-0.275000X-0.200000X0.275000X-0.200000X0.275000X0.200000X0*%
%ADD21RoundRect,0.200000X0.200000X0.275000X-0.200000X0.275000X-0.200000X-0.275000X0.200000X-0.275000X0*%
%ADD22C,1.000000*%
%ADD23R,1.000000X0.900000*%
%ADD24R,0.800000X1.450000*%
%ADD25R,0.650000X1.060000*%
%ADD26R,2.000000X0.900000*%
%ADD27R,0.900000X2.000000*%
%ADD28R,5.000000X5.000000*%
%ADD29RoundRect,0.087500X0.225000X0.087500X-0.225000X0.087500X-0.225000X-0.087500X0.225000X-0.087500X0*%
%ADD30RoundRect,0.087500X0.087500X0.225000X-0.087500X0.225000X-0.087500X-0.225000X0.087500X-0.225000X0*%
%ADD31C,3.000000*%
%ADD32R,3.000000X3.000000*%
%ADD33RoundRect,0.225000X0.225000X0.250000X-0.225000X0.250000X-0.225000X-0.250000X0.225000X-0.250000X0*%
%ADD34R,1.100000X1.100000*%
%ADD35R,1.300000X0.300000*%
%ADD36R,2.200000X1.800000*%
%ADD37R,0.650000X1.220000*%
%ADD38R,1.000000X1.500000*%
%ADD39R,0.800000X0.900000*%
%ADD40RoundRect,0.250000X0.850000X-0.462500X0.850000X0.462500X-0.850000X0.462500X-0.850000X-0.462500X0*%
%ADD41RoundRect,0.249998X-0.262502X-0.450002X0.262502X-0.450002X0.262502X0.450002X-0.262502X0.450002X0*%
%ADD42RoundRect,0.150000X0.825000X0.150000X-0.825000X0.150000X-0.825000X-0.150000X0.825000X-0.150000X0*%
%ADD43R,1.060000X0.650000*%
%ADD44R,0.850000X1.100000*%
%ADD45R,0.750000X1.100000*%
%ADD46R,1.200000X1.000000*%
%ADD47R,1.170000X1.800000*%
%ADD48R,1.900000X1.350000*%
%ADD49R,1.550000X1.350000*%
%ADD50C,0.500000*%
%ADD51R,0.400000X1.850000*%
%ADD52R,1.690000X1.300000*%
%ADD53R,1.650000X0.900000*%
%ADD54R,2.150000X0.700000*%
%ADD55R,0.700000X2.150000*%
G04 APERTURE END LIST*
D10*
%TO.C,J23*%
X136999000Y-36430000D03*
X138269000Y-36430000D03*
X136999000Y-35160000D03*
X138269000Y-35160000D03*
X136999000Y-33890000D03*
X138269000Y-33890000D03*
D11*
X137634000Y-32620000D03*
X138650000Y-37700000D03*
X136618000Y-37700000D03*
%TD*%
D12*
%TO.C,R50*%
X108425000Y-54200000D03*
X106775000Y-54200000D03*
%TD*%
%TO.C,R49*%
X87225000Y-79800000D03*
X85575000Y-79800000D03*
%TD*%
%TO.C,R48*%
X87275000Y-76400000D03*
X85625000Y-76400000D03*
%TD*%
D13*
%TO.C,C1*%
X49400000Y-63375000D03*
X49400000Y-64925000D03*
%TD*%
%TO.C,C2*%
X70600000Y-63375000D03*
X70600000Y-64925000D03*
%TD*%
D14*
%TO.C,C10*%
X52200000Y-68575000D03*
X52200000Y-67025000D03*
%TD*%
%TO.C,C11*%
X73750000Y-68575000D03*
X73750000Y-67025000D03*
%TD*%
D13*
%TO.C,C14*%
X79500000Y-78625000D03*
X79500000Y-80175000D03*
%TD*%
D15*
%TO.C,C15*%
X80475000Y-74650000D03*
X82025000Y-74650000D03*
%TD*%
D16*
%TO.C,D2*%
X70900000Y-33775000D03*
X70900000Y-35400000D03*
%TD*%
D17*
%TO.C,L1*%
X50000000Y-67325000D03*
X50000000Y-69650000D03*
%TD*%
%TO.C,L2*%
X71500000Y-67237500D03*
X71500000Y-69562500D03*
%TD*%
D18*
%TO.C,Q3*%
X81140000Y-51150000D03*
X81140000Y-49250000D03*
X83760000Y-50200000D03*
%TD*%
%TO.C,Q6*%
X51660000Y-49450000D03*
X51660000Y-51350000D03*
X49040000Y-50400000D03*
%TD*%
D19*
%TO.C,R2*%
X55250000Y-65150000D03*
X55250000Y-63500000D03*
%TD*%
%TO.C,R3*%
X76500000Y-65050000D03*
X76500000Y-63400000D03*
%TD*%
%TO.C,R10*%
X53750000Y-68625000D03*
X53750000Y-66975000D03*
%TD*%
%TO.C,R12*%
X75250000Y-68625000D03*
X75250000Y-66975000D03*
%TD*%
D20*
%TO.C,R18*%
X70900000Y-37575000D03*
X70900000Y-39225000D03*
%TD*%
D19*
%TO.C,R32*%
X79450000Y-51025000D03*
X79450000Y-49375000D03*
%TD*%
%TO.C,R33*%
X53350000Y-51225000D03*
X53350000Y-49575000D03*
%TD*%
D21*
%TO.C,R34*%
X87275000Y-78050000D03*
X85625000Y-78050000D03*
%TD*%
D22*
%TO.C,SW1*%
X138850000Y-72950000D03*
X138850000Y-75250000D03*
D23*
X137800000Y-76200000D03*
X137800000Y-72000000D03*
D24*
X139850000Y-77475000D03*
X139850000Y-70730000D03*
%TD*%
D22*
%TO.C,SW2*%
X138850000Y-66000000D03*
X138850000Y-63700000D03*
D23*
X137800000Y-66950000D03*
X137800000Y-62750000D03*
D24*
X139850000Y-68225000D03*
X139850000Y-61480000D03*
%TD*%
D25*
%TO.C,U1*%
X52950000Y-65250000D03*
X52000000Y-65250000D03*
X51050000Y-65250000D03*
X51050000Y-63050000D03*
X52000000Y-63050000D03*
X52950000Y-63050000D03*
%TD*%
%TO.C,U2*%
X74200000Y-65250000D03*
X73250000Y-65250000D03*
X72300000Y-65250000D03*
X72300000Y-63050000D03*
X73250000Y-63050000D03*
X74200000Y-63050000D03*
%TD*%
D26*
%TO.C,U3*%
X131800000Y-43445000D03*
X131800000Y-44715000D03*
X131800000Y-45985000D03*
X131800000Y-47255000D03*
X131800000Y-48525000D03*
X131800000Y-49795000D03*
X131800000Y-51065000D03*
X131800000Y-52335000D03*
X131800000Y-53605000D03*
X131800000Y-54875000D03*
X131800000Y-56145000D03*
X131800000Y-57415000D03*
X131800000Y-58685000D03*
X131800000Y-59955000D03*
D27*
X129015000Y-60955000D03*
X127745000Y-60955000D03*
X126475000Y-60955000D03*
X125205000Y-60955000D03*
X123935000Y-60955000D03*
X122665000Y-60955000D03*
X121395000Y-60955000D03*
X120125000Y-60955000D03*
X118855000Y-60955000D03*
X117585000Y-60955000D03*
D26*
X114800000Y-59955000D03*
X114800000Y-58685000D03*
X114800000Y-57415000D03*
X114800000Y-56145000D03*
X114800000Y-54875000D03*
X114800000Y-53605000D03*
X114800000Y-52335000D03*
X114800000Y-51065000D03*
X114800000Y-49795000D03*
X114800000Y-48525000D03*
X114800000Y-47255000D03*
X114800000Y-45985000D03*
X114800000Y-44715000D03*
X114800000Y-43445000D03*
D28*
X124300000Y-50945000D03*
%TD*%
%TO.C,U6*%
G36*
X83665258Y-77573282D02*
G01*
X83661976Y-77573861D01*
X83659090Y-77572195D01*
X83649348Y-77570477D01*
X83634421Y-77557951D01*
X83617547Y-77548209D01*
X83615233Y-77541850D01*
X83610048Y-77537500D01*
X83606664Y-77518309D01*
X83600000Y-77500000D01*
X83600000Y-77481066D01*
X83600809Y-77476480D01*
X83600286Y-77474529D01*
X83601680Y-77471540D01*
X83604523Y-77455414D01*
X83615048Y-77442871D01*
X83621967Y-77428033D01*
X83828033Y-77221967D01*
X83831847Y-77219297D01*
X83832857Y-77217547D01*
X83835957Y-77216419D01*
X83849370Y-77207027D01*
X83865681Y-77205600D01*
X83881066Y-77200000D01*
X84150000Y-77200000D01*
X84159742Y-77201718D01*
X84163024Y-77201139D01*
X84165910Y-77202805D01*
X84175652Y-77204523D01*
X84190579Y-77217049D01*
X84207453Y-77226791D01*
X84209767Y-77233150D01*
X84214952Y-77237500D01*
X84218336Y-77256691D01*
X84225000Y-77275000D01*
X84225000Y-77500000D01*
X84223282Y-77509742D01*
X84223861Y-77513024D01*
X84222195Y-77515910D01*
X84220477Y-77525652D01*
X84207951Y-77540579D01*
X84198209Y-77557453D01*
X84191850Y-77559767D01*
X84187500Y-77564952D01*
X84168309Y-77568336D01*
X84150000Y-77575000D01*
X83675000Y-77575000D01*
X83665258Y-77573282D01*
G37*
D29*
X83912500Y-77900000D03*
X83912500Y-78400000D03*
G36*
X83876480Y-79099191D02*
G01*
X83874530Y-79099714D01*
X83871542Y-79098321D01*
X83855414Y-79095477D01*
X83842870Y-79084951D01*
X83828033Y-79078033D01*
X83621967Y-78871967D01*
X83619297Y-78868153D01*
X83617547Y-78867143D01*
X83616419Y-78864043D01*
X83607027Y-78850630D01*
X83605600Y-78834320D01*
X83600000Y-78818934D01*
X83600000Y-78800000D01*
X83601718Y-78790258D01*
X83601139Y-78786976D01*
X83602805Y-78784090D01*
X83604523Y-78774348D01*
X83617049Y-78759421D01*
X83626791Y-78742547D01*
X83633150Y-78740233D01*
X83637500Y-78735048D01*
X83656691Y-78731664D01*
X83675000Y-78725000D01*
X84150000Y-78725000D01*
X84159742Y-78726718D01*
X84163024Y-78726139D01*
X84165910Y-78727805D01*
X84175652Y-78729523D01*
X84190579Y-78742049D01*
X84207453Y-78751791D01*
X84209767Y-78758150D01*
X84214952Y-78762500D01*
X84218336Y-78781691D01*
X84225000Y-78800000D01*
X84225000Y-79025000D01*
X84223282Y-79034742D01*
X84223861Y-79038024D01*
X84222195Y-79040910D01*
X84220477Y-79050652D01*
X84207951Y-79065579D01*
X84198209Y-79082453D01*
X84191850Y-79084767D01*
X84187500Y-79089952D01*
X84168309Y-79093336D01*
X84150000Y-79100000D01*
X83881066Y-79100000D01*
X83876480Y-79099191D01*
G37*
G36*
X83140258Y-79373282D02*
G01*
X83136976Y-79373861D01*
X83134090Y-79372195D01*
X83124348Y-79370477D01*
X83109421Y-79357951D01*
X83092547Y-79348209D01*
X83090233Y-79341850D01*
X83085048Y-79337500D01*
X83081664Y-79318309D01*
X83075000Y-79300000D01*
X83075000Y-78825000D01*
X83076718Y-78815258D01*
X83076139Y-78811976D01*
X83077805Y-78809090D01*
X83079523Y-78799348D01*
X83092049Y-78784421D01*
X83101791Y-78767547D01*
X83108150Y-78765233D01*
X83112500Y-78760048D01*
X83131691Y-78756664D01*
X83150000Y-78750000D01*
X83168934Y-78750000D01*
X83173520Y-78750809D01*
X83175471Y-78750286D01*
X83178460Y-78751680D01*
X83194586Y-78754523D01*
X83207129Y-78765048D01*
X83221967Y-78771967D01*
X83428033Y-78978033D01*
X83430703Y-78981847D01*
X83432453Y-78982857D01*
X83433581Y-78985957D01*
X83442973Y-78999370D01*
X83444400Y-79015681D01*
X83450000Y-79031066D01*
X83450000Y-79300000D01*
X83448282Y-79309742D01*
X83448861Y-79313024D01*
X83447195Y-79315910D01*
X83445477Y-79325652D01*
X83432951Y-79340579D01*
X83423209Y-79357453D01*
X83416850Y-79359767D01*
X83412500Y-79364952D01*
X83393309Y-79368336D01*
X83375000Y-79375000D01*
X83150000Y-79375000D01*
X83140258Y-79373282D01*
G37*
D30*
X82750000Y-79062500D03*
G36*
X82115258Y-79373282D02*
G01*
X82111976Y-79373861D01*
X82109090Y-79372195D01*
X82099348Y-79370477D01*
X82084421Y-79357951D01*
X82067547Y-79348209D01*
X82065233Y-79341850D01*
X82060048Y-79337500D01*
X82056664Y-79318309D01*
X82050000Y-79300000D01*
X82050000Y-79031066D01*
X82050809Y-79026480D01*
X82050286Y-79024529D01*
X82051680Y-79021540D01*
X82054523Y-79005414D01*
X82065048Y-78992871D01*
X82071967Y-78978033D01*
X82278033Y-78771967D01*
X82281847Y-78769297D01*
X82282857Y-78767547D01*
X82285957Y-78766419D01*
X82299370Y-78757027D01*
X82315681Y-78755600D01*
X82331066Y-78750000D01*
X82350000Y-78750000D01*
X82359742Y-78751718D01*
X82363024Y-78751139D01*
X82365910Y-78752805D01*
X82375652Y-78754523D01*
X82390579Y-78767049D01*
X82407453Y-78776791D01*
X82409767Y-78783150D01*
X82414952Y-78787500D01*
X82418336Y-78806691D01*
X82425000Y-78825000D01*
X82425000Y-79300000D01*
X82423282Y-79309742D01*
X82423861Y-79313024D01*
X82422195Y-79315910D01*
X82420477Y-79325652D01*
X82407951Y-79340579D01*
X82398209Y-79357453D01*
X82391850Y-79359767D01*
X82387500Y-79364952D01*
X82368309Y-79368336D01*
X82350000Y-79375000D01*
X82125000Y-79375000D01*
X82115258Y-79373282D01*
G37*
G36*
X81340258Y-79098282D02*
G01*
X81336976Y-79098861D01*
X81334090Y-79097195D01*
X81324348Y-79095477D01*
X81309421Y-79082951D01*
X81292547Y-79073209D01*
X81290233Y-79066850D01*
X81285048Y-79062500D01*
X81281664Y-79043309D01*
X81275000Y-79025000D01*
X81275000Y-78800000D01*
X81276718Y-78790258D01*
X81276139Y-78786976D01*
X81277805Y-78784090D01*
X81279523Y-78774348D01*
X81292049Y-78759421D01*
X81301791Y-78742547D01*
X81308150Y-78740233D01*
X81312500Y-78735048D01*
X81331691Y-78731664D01*
X81350000Y-78725000D01*
X81825000Y-78725000D01*
X81834742Y-78726718D01*
X81838024Y-78726139D01*
X81840910Y-78727805D01*
X81850652Y-78729523D01*
X81865579Y-78742049D01*
X81882453Y-78751791D01*
X81884767Y-78758150D01*
X81889952Y-78762500D01*
X81893336Y-78781691D01*
X81900000Y-78800000D01*
X81900000Y-78818934D01*
X81899191Y-78823520D01*
X81899714Y-78825470D01*
X81898321Y-78828458D01*
X81895477Y-78844586D01*
X81884951Y-78857130D01*
X81878033Y-78871967D01*
X81671967Y-79078033D01*
X81668153Y-79080703D01*
X81667143Y-79082453D01*
X81664043Y-79083581D01*
X81650630Y-79092973D01*
X81634320Y-79094400D01*
X81618934Y-79100000D01*
X81350000Y-79100000D01*
X81340258Y-79098282D01*
G37*
D29*
X81587500Y-78400000D03*
X81587500Y-77900000D03*
G36*
X81340258Y-77573282D02*
G01*
X81336976Y-77573861D01*
X81334090Y-77572195D01*
X81324348Y-77570477D01*
X81309421Y-77557951D01*
X81292547Y-77548209D01*
X81290233Y-77541850D01*
X81285048Y-77537500D01*
X81281664Y-77518309D01*
X81275000Y-77500000D01*
X81275000Y-77275000D01*
X81276718Y-77265258D01*
X81276139Y-77261976D01*
X81277805Y-77259090D01*
X81279523Y-77249348D01*
X81292049Y-77234421D01*
X81301791Y-77217547D01*
X81308150Y-77215233D01*
X81312500Y-77210048D01*
X81331691Y-77206664D01*
X81350000Y-77200000D01*
X81618934Y-77200000D01*
X81623520Y-77200809D01*
X81625471Y-77200286D01*
X81628460Y-77201680D01*
X81644586Y-77204523D01*
X81657129Y-77215048D01*
X81671967Y-77221967D01*
X81878033Y-77428033D01*
X81880703Y-77431847D01*
X81882453Y-77432857D01*
X81883581Y-77435957D01*
X81892973Y-77449370D01*
X81894400Y-77465681D01*
X81900000Y-77481066D01*
X81900000Y-77500000D01*
X81898282Y-77509742D01*
X81898861Y-77513024D01*
X81897195Y-77515910D01*
X81895477Y-77525652D01*
X81882951Y-77540579D01*
X81873209Y-77557453D01*
X81866850Y-77559767D01*
X81862500Y-77564952D01*
X81843309Y-77568336D01*
X81825000Y-77575000D01*
X81350000Y-77575000D01*
X81340258Y-77573282D01*
G37*
G36*
X82326480Y-77549191D02*
G01*
X82324530Y-77549714D01*
X82321542Y-77548321D01*
X82305414Y-77545477D01*
X82292870Y-77534951D01*
X82278033Y-77528033D01*
X82071967Y-77321967D01*
X82069297Y-77318153D01*
X82067547Y-77317143D01*
X82066419Y-77314043D01*
X82057027Y-77300630D01*
X82055600Y-77284320D01*
X82050000Y-77268934D01*
X82050000Y-77000000D01*
X82051718Y-76990258D01*
X82051139Y-76986976D01*
X82052805Y-76984090D01*
X82054523Y-76974348D01*
X82067049Y-76959421D01*
X82076791Y-76942547D01*
X82083150Y-76940233D01*
X82087500Y-76935048D01*
X82106691Y-76931664D01*
X82125000Y-76925000D01*
X82350000Y-76925000D01*
X82359742Y-76926718D01*
X82363024Y-76926139D01*
X82365910Y-76927805D01*
X82375652Y-76929523D01*
X82390579Y-76942049D01*
X82407453Y-76951791D01*
X82409767Y-76958150D01*
X82414952Y-76962500D01*
X82418336Y-76981691D01*
X82425000Y-77000000D01*
X82425000Y-77475000D01*
X82423282Y-77484742D01*
X82423861Y-77488024D01*
X82422195Y-77490910D01*
X82420477Y-77500652D01*
X82407951Y-77515579D01*
X82398209Y-77532453D01*
X82391850Y-77534767D01*
X82387500Y-77539952D01*
X82368309Y-77543336D01*
X82350000Y-77550000D01*
X82331066Y-77550000D01*
X82326480Y-77549191D01*
G37*
D30*
X82750000Y-77237500D03*
G36*
X83140258Y-77548282D02*
G01*
X83136976Y-77548861D01*
X83134090Y-77547195D01*
X83124348Y-77545477D01*
X83109421Y-77532951D01*
X83092547Y-77523209D01*
X83090233Y-77516850D01*
X83085048Y-77512500D01*
X83081664Y-77493309D01*
X83075000Y-77475000D01*
X83075000Y-77000000D01*
X83076718Y-76990258D01*
X83076139Y-76986976D01*
X83077805Y-76984090D01*
X83079523Y-76974348D01*
X83092049Y-76959421D01*
X83101791Y-76942547D01*
X83108150Y-76940233D01*
X83112500Y-76935048D01*
X83131691Y-76931664D01*
X83150000Y-76925000D01*
X83375000Y-76925000D01*
X83384742Y-76926718D01*
X83388024Y-76926139D01*
X83390910Y-76927805D01*
X83400652Y-76929523D01*
X83415579Y-76942049D01*
X83432453Y-76951791D01*
X83434767Y-76958150D01*
X83439952Y-76962500D01*
X83443336Y-76981691D01*
X83450000Y-77000000D01*
X83450000Y-77268934D01*
X83449191Y-77273520D01*
X83449714Y-77275470D01*
X83448321Y-77278458D01*
X83445477Y-77294586D01*
X83434951Y-77307130D01*
X83428033Y-77321967D01*
X83221967Y-77528033D01*
X83218153Y-77530703D01*
X83217143Y-77532453D01*
X83214043Y-77533581D01*
X83200630Y-77542973D01*
X83184320Y-77544400D01*
X83168934Y-77550000D01*
X83150000Y-77550000D01*
X83140258Y-77548282D01*
G37*
%TD*%
D31*
%TO.C,J9*%
X61200000Y-73000000D03*
%TD*%
D32*
%TO.C,J10*%
X66250000Y-73000000D03*
%TD*%
D14*
%TO.C,C3*%
X135550000Y-44925000D03*
X135550000Y-43375000D03*
%TD*%
%TO.C,C4*%
X137400000Y-44900000D03*
X137400000Y-43350000D03*
%TD*%
D13*
%TO.C,C8*%
X134800000Y-50825000D03*
X134800000Y-52375000D03*
%TD*%
D14*
%TO.C,C12*%
X134800000Y-55375000D03*
X134800000Y-53825000D03*
%TD*%
%TO.C,C5*%
X134050000Y-44925000D03*
X134050000Y-43375000D03*
%TD*%
D12*
%TO.C,R6*%
X134725000Y-46800000D03*
X136375000Y-46800000D03*
%TD*%
D19*
%TO.C,R1*%
X139000000Y-44975000D03*
X139000000Y-43325000D03*
%TD*%
%TO.C,R15*%
X136300000Y-55425000D03*
X136300000Y-53775000D03*
%TD*%
D12*
%TO.C,R21*%
X108525000Y-57200000D03*
X110175000Y-57200000D03*
%TD*%
D21*
%TO.C,R7*%
X136375000Y-48400000D03*
X134725000Y-48400000D03*
%TD*%
D19*
%TO.C,R26*%
X88000000Y-50025000D03*
X88000000Y-48375000D03*
%TD*%
D21*
%TO.C,R20*%
X110275000Y-51350000D03*
X108625000Y-51350000D03*
%TD*%
%TO.C,R16*%
X110175000Y-60200000D03*
X108525000Y-60200000D03*
%TD*%
D12*
%TO.C,R8*%
X137725000Y-52350000D03*
X139375000Y-52350000D03*
%TD*%
D20*
%TO.C,R9*%
X136300000Y-50775000D03*
X136300000Y-52425000D03*
%TD*%
D21*
%TO.C,R19*%
X110275000Y-49850000D03*
X108625000Y-49850000D03*
%TD*%
D12*
%TO.C,R14*%
X137725000Y-53850000D03*
X139375000Y-53850000D03*
%TD*%
D19*
%TO.C,R17*%
X117350000Y-67025000D03*
X117350000Y-65375000D03*
%TD*%
D33*
%TO.C,C22*%
X68950000Y-121700000D03*
X67400000Y-121700000D03*
%TD*%
%TO.C,C13*%
X66975000Y-93850000D03*
X65425000Y-93850000D03*
%TD*%
%TO.C,C16*%
X68450000Y-105100000D03*
X66900000Y-105100000D03*
%TD*%
D13*
%TO.C,C17*%
X57450000Y-128325000D03*
X57450000Y-129875000D03*
%TD*%
D33*
%TO.C,C21*%
X68950000Y-119200000D03*
X67400000Y-119200000D03*
%TD*%
D15*
%TO.C,C20*%
X67375000Y-110700000D03*
X68925000Y-110700000D03*
%TD*%
D34*
%TO.C,D4*%
X67100000Y-91350000D03*
X64300000Y-91350000D03*
%TD*%
D15*
%TO.C,C23*%
X67375000Y-108200000D03*
X68925000Y-108200000D03*
%TD*%
%TO.C,C24*%
X67400000Y-109450000D03*
X68950000Y-109450000D03*
%TD*%
%TO.C,C25*%
X67350000Y-111950000D03*
X68900000Y-111950000D03*
%TD*%
%TO.C,C26*%
X67400000Y-115450000D03*
X68950000Y-115450000D03*
%TD*%
D33*
%TO.C,C27*%
X68925000Y-116700000D03*
X67375000Y-116700000D03*
%TD*%
%TO.C,C28*%
X68950000Y-117950000D03*
X67400000Y-117950000D03*
%TD*%
%TO.C,C29*%
X68950000Y-120450000D03*
X67400000Y-120450000D03*
%TD*%
D34*
%TO.C,D3*%
X63600000Y-93850000D03*
X60800000Y-93850000D03*
%TD*%
%TO.C,D5*%
X64300000Y-96350000D03*
X67100000Y-96350000D03*
%TD*%
D35*
%TO.C,J2*%
X65500000Y-120950000D03*
X65500000Y-120450000D03*
X65500000Y-119950000D03*
X65500000Y-119450000D03*
X65500000Y-118950000D03*
X65500000Y-118450000D03*
X65500000Y-117950000D03*
X65500000Y-117450000D03*
X65500000Y-116950000D03*
X65500000Y-116450000D03*
X65500000Y-115950000D03*
X65500000Y-115450000D03*
X65500000Y-114950000D03*
X65500000Y-114450000D03*
X65500000Y-113950000D03*
X65500000Y-113450000D03*
X65500000Y-112950000D03*
X65500000Y-112450000D03*
X65500000Y-111950000D03*
X65500000Y-111450000D03*
X65500000Y-110950000D03*
X65500000Y-110450000D03*
X65500000Y-109950000D03*
X65500000Y-109450000D03*
D36*
X62250000Y-107550000D03*
X62250000Y-122850000D03*
%TD*%
D33*
%TO.C,C30*%
X68950000Y-122950000D03*
X67400000Y-122950000D03*
%TD*%
D37*
%TO.C,Q1*%
X65100000Y-84540000D03*
X67000000Y-84540000D03*
X66050000Y-87160000D03*
%TD*%
D38*
%TO.C,JP1*%
X70000000Y-113700000D03*
X68700000Y-113700000D03*
X67400000Y-113700000D03*
%TD*%
D39*
%TO.C,Q2*%
X63900000Y-100850000D03*
X62000000Y-100850000D03*
X62950000Y-98850000D03*
%TD*%
D40*
%TO.C,L3*%
X67200000Y-101100000D03*
X67200000Y-98775000D03*
%TD*%
D41*
%TO.C,R28*%
X63450000Y-105100000D03*
X65275000Y-105100000D03*
%TD*%
D12*
%TO.C,R27*%
X65225000Y-82850000D03*
X66875000Y-82850000D03*
%TD*%
D42*
%TO.C,U7*%
X65675000Y-128695000D03*
X65675000Y-129965000D03*
X65675000Y-131235000D03*
X65675000Y-132505000D03*
X60725000Y-132505000D03*
X60725000Y-131235000D03*
X60725000Y-129965000D03*
X60725000Y-128695000D03*
%TD*%
D21*
%TO.C,R29*%
X65275000Y-103100000D03*
X63625000Y-103100000D03*
%TD*%
D19*
%TO.C,R30*%
X63200000Y-126925000D03*
X63200000Y-125275000D03*
%TD*%
%TO.C,R11*%
X55400000Y-68625000D03*
X55400000Y-66975000D03*
%TD*%
%TO.C,R13*%
X76800000Y-68625000D03*
X76800000Y-66975000D03*
%TD*%
D13*
%TO.C,C31*%
X85000000Y-38050000D03*
X85000000Y-39600000D03*
%TD*%
%TO.C,C32*%
X85000000Y-34850000D03*
X85000000Y-36400000D03*
%TD*%
%TO.C,C33*%
X86600000Y-34850000D03*
X86600000Y-36400000D03*
%TD*%
D33*
%TO.C,C6*%
X65825000Y-52700000D03*
X64275000Y-52700000D03*
%TD*%
%TO.C,C7*%
X69825000Y-52700000D03*
X68275000Y-52700000D03*
%TD*%
D14*
%TO.C,C9*%
X60750000Y-47900000D03*
X60750000Y-46350000D03*
%TD*%
D42*
%TO.C,U4*%
X69525000Y-47295000D03*
X69525000Y-48565000D03*
X69525000Y-49835000D03*
X69525000Y-51105000D03*
X64575000Y-51105000D03*
X64575000Y-49835000D03*
X64575000Y-48565000D03*
X64575000Y-47295000D03*
%TD*%
D15*
%TO.C,C19*%
X44175000Y-50000000D03*
X45725000Y-50000000D03*
%TD*%
D33*
%TO.C,C18*%
X45775000Y-48400000D03*
X44225000Y-48400000D03*
%TD*%
D43*
%TO.C,D1*%
X64200000Y-45650000D03*
X64200000Y-44700000D03*
X64200000Y-43750000D03*
X66400000Y-43750000D03*
X66400000Y-44700000D03*
X66400000Y-45650000D03*
%TD*%
D44*
%TO.C,J27*%
X48655000Y-35150000D03*
X47555000Y-35150000D03*
X46455000Y-35150000D03*
X45355000Y-35150000D03*
X44255000Y-35150000D03*
X43155000Y-35150000D03*
X42055000Y-35150000D03*
D45*
X41005000Y-35150000D03*
D46*
X51290000Y-41300000D03*
X51290000Y-45000000D03*
D47*
X39795000Y-35500000D03*
D48*
X47790000Y-45975000D03*
X41820000Y-45975000D03*
D49*
X51115000Y-35275000D03*
%TD*%
D20*
%TO.C,R5*%
X64200000Y-39250000D03*
X64200000Y-40900000D03*
%TD*%
%TO.C,R4*%
X65750000Y-39250000D03*
X65750000Y-40900000D03*
%TD*%
D50*
%TO.C,J1*%
X62700000Y-34840000D03*
X66700000Y-34840000D03*
D51*
X63400000Y-35525000D03*
X64050000Y-35525000D03*
X64700000Y-35525000D03*
X65350000Y-35525000D03*
X66000000Y-35525000D03*
D52*
X60585000Y-32690000D03*
D53*
X60675000Y-35050000D03*
D52*
X68815000Y-32690000D03*
D53*
X68725000Y-35050000D03*
%TD*%
D19*
%TO.C,R25*%
X95850000Y-50150000D03*
X95850000Y-48500000D03*
%TD*%
D21*
%TO.C,R23*%
X103925000Y-44350000D03*
X102275000Y-44350000D03*
%TD*%
%TO.C,R24*%
X103925000Y-42850000D03*
X102275000Y-42850000D03*
%TD*%
%TO.C,R40*%
X77225000Y-42600000D03*
X75575000Y-42600000D03*
%TD*%
%TO.C,R22*%
X103925000Y-41350000D03*
X102275000Y-41350000D03*
%TD*%
D12*
%TO.C,R31*%
X64625000Y-126850000D03*
X66275000Y-126850000D03*
%TD*%
D21*
%TO.C,R41*%
X86750000Y-64000000D03*
X85100000Y-64000000D03*
%TD*%
%TO.C,R42*%
X86750000Y-62500000D03*
X85100000Y-62500000D03*
%TD*%
%TO.C,R43*%
X86750000Y-61000000D03*
X85100000Y-61000000D03*
%TD*%
%TO.C,R45*%
X86750000Y-58000000D03*
X85100000Y-58000000D03*
%TD*%
%TO.C,R47*%
X86750000Y-65500000D03*
X85100000Y-65500000D03*
%TD*%
%TO.C,R46*%
X86750000Y-56500000D03*
X85100000Y-56500000D03*
%TD*%
%TO.C,R44*%
X86750000Y-59500000D03*
X85100000Y-59500000D03*
%TD*%
D12*
%TO.C,R39*%
X88775000Y-56500000D03*
X90425000Y-56500000D03*
%TD*%
%TO.C,R37*%
X88800000Y-58000000D03*
X90450000Y-58000000D03*
%TD*%
%TO.C,R38*%
X88775000Y-59500000D03*
X90425000Y-59500000D03*
%TD*%
%TO.C,R35*%
X88775000Y-62500000D03*
X90425000Y-62500000D03*
%TD*%
%TO.C,R36*%
X88775000Y-61000000D03*
X90425000Y-61000000D03*
%TD*%
D54*
%TO.C,U5*%
X90000000Y-44100000D03*
X90000000Y-43100000D03*
X90000000Y-42100000D03*
X90000000Y-41100000D03*
X90000000Y-40100000D03*
X90000000Y-39100000D03*
X90000000Y-38100000D03*
X90000000Y-37100000D03*
X90000000Y-36100000D03*
X90000000Y-35100000D03*
X90000000Y-34100000D03*
X90000000Y-33100000D03*
X90000000Y-31950000D03*
X99600000Y-31950000D03*
X99600000Y-33100000D03*
X99600000Y-34100000D03*
X99600000Y-35100000D03*
X99600000Y-36100000D03*
X99600000Y-37100000D03*
X99600000Y-38100000D03*
X99600000Y-39100000D03*
X99600000Y-40100000D03*
X99600000Y-41100000D03*
X99600000Y-42100000D03*
X99600000Y-43100000D03*
X99600000Y-44100000D03*
D55*
X96800000Y-44900000D03*
X95800000Y-44900000D03*
X94800000Y-44900000D03*
X93800000Y-44900000D03*
X92800000Y-44900000D03*
%TD*%
M02*
