%TF.GenerationSoftware,KiCad,Pcbnew,(5.1.8)-1*%
%TF.CreationDate,2021-02-03T00:49:59+01:00*%
%TF.ProjectId,Navi_2_0,4e617669-5f32-45f3-902e-6b696361645f,rev?*%
%TF.SameCoordinates,Original*%
%TF.FileFunction,Legend,Bot*%
%TF.FilePolarity,Positive*%
%FSLAX46Y46*%
G04 Gerber Fmt 4.6, Leading zero omitted, Abs format (unit mm)*
G04 Created by KiCad (PCBNEW (5.1.8)-1) date 2021-02-03 00:49:59*
%MOMM*%
%LPD*%
G01*
G04 APERTURE LIST*
%ADD10C,0.150000*%
%ADD11C,0.120000*%
%ADD12C,0.100000*%
%ADD13C,0.127000*%
%ADD14C,0.300000*%
%ADD15C,0.015000*%
G04 APERTURE END LIST*
D10*
X135452380Y-72347619D02*
X134976190Y-72014285D01*
X135452380Y-71776190D02*
X134452380Y-71776190D01*
X134452380Y-72157142D01*
X134500000Y-72252380D01*
X134547619Y-72300000D01*
X134642857Y-72347619D01*
X134785714Y-72347619D01*
X134880952Y-72300000D01*
X134928571Y-72252380D01*
X134976190Y-72157142D01*
X134976190Y-71776190D01*
X134928571Y-72776190D02*
X134928571Y-73109523D01*
X135452380Y-73252380D02*
X135452380Y-72776190D01*
X134452380Y-72776190D01*
X134452380Y-73252380D01*
X135404761Y-73633333D02*
X135452380Y-73776190D01*
X135452380Y-74014285D01*
X135404761Y-74109523D01*
X135357142Y-74157142D01*
X135261904Y-74204761D01*
X135166666Y-74204761D01*
X135071428Y-74157142D01*
X135023809Y-74109523D01*
X134976190Y-74014285D01*
X134928571Y-73823809D01*
X134880952Y-73728571D01*
X134833333Y-73680952D01*
X134738095Y-73633333D01*
X134642857Y-73633333D01*
X134547619Y-73680952D01*
X134500000Y-73728571D01*
X134452380Y-73823809D01*
X134452380Y-74061904D01*
X134500000Y-74204761D01*
X134928571Y-74633333D02*
X134928571Y-74966666D01*
X135452380Y-75109523D02*
X135452380Y-74633333D01*
X134452380Y-74633333D01*
X134452380Y-75109523D01*
X134452380Y-75395238D02*
X134452380Y-75966666D01*
X135452380Y-75680952D02*
X134452380Y-75680952D01*
X134928571Y-63242857D02*
X134976190Y-63385714D01*
X135023809Y-63433333D01*
X135119047Y-63480952D01*
X135261904Y-63480952D01*
X135357142Y-63433333D01*
X135404761Y-63385714D01*
X135452380Y-63290476D01*
X135452380Y-62909523D01*
X134452380Y-62909523D01*
X134452380Y-63242857D01*
X134500000Y-63338095D01*
X134547619Y-63385714D01*
X134642857Y-63433333D01*
X134738095Y-63433333D01*
X134833333Y-63385714D01*
X134880952Y-63338095D01*
X134928571Y-63242857D01*
X134928571Y-62909523D01*
X134452380Y-64100000D02*
X134452380Y-64290476D01*
X134500000Y-64385714D01*
X134595238Y-64480952D01*
X134785714Y-64528571D01*
X135119047Y-64528571D01*
X135309523Y-64480952D01*
X135404761Y-64385714D01*
X135452380Y-64290476D01*
X135452380Y-64100000D01*
X135404761Y-64004761D01*
X135309523Y-63909523D01*
X135119047Y-63861904D01*
X134785714Y-63861904D01*
X134595238Y-63909523D01*
X134500000Y-64004761D01*
X134452380Y-64100000D01*
X134452380Y-65147619D02*
X134452380Y-65338095D01*
X134500000Y-65433333D01*
X134595238Y-65528571D01*
X134785714Y-65576190D01*
X135119047Y-65576190D01*
X135309523Y-65528571D01*
X135404761Y-65433333D01*
X135452380Y-65338095D01*
X135452380Y-65147619D01*
X135404761Y-65052380D01*
X135309523Y-64957142D01*
X135119047Y-64909523D01*
X134785714Y-64909523D01*
X134595238Y-64957142D01*
X134500000Y-65052380D01*
X134452380Y-65147619D01*
X134452380Y-65861904D02*
X134452380Y-66433333D01*
X135452380Y-66147619D02*
X134452380Y-66147619D01*
X62957142Y-70328571D02*
X62814285Y-70376190D01*
X62766666Y-70423809D01*
X62719047Y-70519047D01*
X62719047Y-70661904D01*
X62766666Y-70757142D01*
X62814285Y-70804761D01*
X62909523Y-70852380D01*
X63290476Y-70852380D01*
X63290476Y-69852380D01*
X62957142Y-69852380D01*
X62861904Y-69900000D01*
X62814285Y-69947619D01*
X62766666Y-70042857D01*
X62766666Y-70138095D01*
X62814285Y-70233333D01*
X62861904Y-70280952D01*
X62957142Y-70328571D01*
X63290476Y-70328571D01*
X62338095Y-70566666D02*
X61861904Y-70566666D01*
X62433333Y-70852380D02*
X62100000Y-69852380D01*
X61766666Y-70852380D01*
X61576190Y-69852380D02*
X61004761Y-69852380D01*
X61290476Y-70852380D02*
X61290476Y-69852380D01*
X60671428Y-70471428D02*
X59909523Y-70471428D01*
X60290476Y-70852380D02*
X60290476Y-70090476D01*
X67957142Y-70328571D02*
X67814285Y-70376190D01*
X67766666Y-70423809D01*
X67719047Y-70519047D01*
X67719047Y-70661904D01*
X67766666Y-70757142D01*
X67814285Y-70804761D01*
X67909523Y-70852380D01*
X68290476Y-70852380D01*
X68290476Y-69852380D01*
X67957142Y-69852380D01*
X67861904Y-69900000D01*
X67814285Y-69947619D01*
X67766666Y-70042857D01*
X67766666Y-70138095D01*
X67814285Y-70233333D01*
X67861904Y-70280952D01*
X67957142Y-70328571D01*
X68290476Y-70328571D01*
X67338095Y-70566666D02*
X66861904Y-70566666D01*
X67433333Y-70852380D02*
X67100000Y-69852380D01*
X66766666Y-70852380D01*
X66576190Y-69852380D02*
X66004761Y-69852380D01*
X66290476Y-70852380D02*
X66290476Y-69852380D01*
X65671428Y-70471428D02*
X64909523Y-70471428D01*
D11*
X76000000Y-66400000D02*
X75750000Y-66900000D01*
X76000000Y-67400000D02*
X76000000Y-66400000D01*
X75750000Y-66900000D02*
X76000000Y-67400000D01*
X54250000Y-66900000D02*
X54500000Y-67400000D01*
X54500000Y-66400000D02*
X54250000Y-66900000D01*
X54500000Y-67400000D02*
X54500000Y-66400000D01*
D12*
X69350000Y-81400000D02*
X69350000Y-177900000D01*
X69350000Y-81400000D02*
X139350000Y-81400000D01*
D11*
%TO.C,R45*%
X86162258Y-57477500D02*
X85687742Y-57477500D01*
X86162258Y-58522500D02*
X85687742Y-58522500D01*
%TO.C,R47*%
X86162258Y-64977500D02*
X85687742Y-64977500D01*
X86162258Y-66022500D02*
X85687742Y-66022500D01*
%TO.C,R46*%
X86162258Y-55977500D02*
X85687742Y-55977500D01*
X86162258Y-57022500D02*
X85687742Y-57022500D01*
%TO.C,R44*%
X86162258Y-58977500D02*
X85687742Y-58977500D01*
X86162258Y-60022500D02*
X85687742Y-60022500D01*
%TO.C,R43*%
X86162258Y-60477500D02*
X85687742Y-60477500D01*
X86162258Y-61522500D02*
X85687742Y-61522500D01*
%TO.C,R42*%
X86162258Y-61977500D02*
X85687742Y-61977500D01*
X86162258Y-63022500D02*
X85687742Y-63022500D01*
%TO.C,R41*%
X86162258Y-63477500D02*
X85687742Y-63477500D01*
X86162258Y-64522500D02*
X85687742Y-64522500D01*
%TO.C,JP1*%
X70000000Y-114900000D02*
X69700000Y-115200000D01*
X70300000Y-115200000D02*
X69700000Y-115200000D01*
X70000000Y-114900000D02*
X70300000Y-115200000D01*
X70750000Y-114700000D02*
X70750000Y-112700000D01*
X66650000Y-114700000D02*
X70750000Y-114700000D01*
X66650000Y-112700000D02*
X66650000Y-114700000D01*
X70750000Y-112700000D02*
X66650000Y-112700000D01*
%TO.C,U3*%
X132420000Y-42255000D02*
X132800000Y-42255000D01*
X132420000Y-35835000D02*
X132420000Y-42255000D01*
X114180000Y-35835000D02*
X114180000Y-42255000D01*
X132420000Y-35835000D02*
X114180000Y-35835000D01*
X114180000Y-61580000D02*
X115180000Y-61580000D01*
X114180000Y-60800000D02*
X114180000Y-61580000D01*
X132420000Y-61580000D02*
X131420000Y-61580000D01*
X132420000Y-60800000D02*
X132420000Y-61580000D01*
%TO.C,R40*%
X76637258Y-43122500D02*
X76162742Y-43122500D01*
X76637258Y-42077500D02*
X76162742Y-42077500D01*
%TO.C,R39*%
X76637258Y-47922500D02*
X76162742Y-47922500D01*
X76637258Y-46877500D02*
X76162742Y-46877500D01*
%TO.C,R38*%
X76612258Y-49522500D02*
X76137742Y-49522500D01*
X76612258Y-48477500D02*
X76137742Y-48477500D01*
%TO.C,R37*%
X76637258Y-44722500D02*
X76162742Y-44722500D01*
X76637258Y-43677500D02*
X76162742Y-43677500D01*
%TO.C,R36*%
X76662258Y-51122500D02*
X76187742Y-51122500D01*
X76662258Y-50077500D02*
X76187742Y-50077500D01*
%TO.C,R35*%
X76637258Y-46322500D02*
X76162742Y-46322500D01*
X76637258Y-45277500D02*
X76162742Y-45277500D01*
%TO.C,C32*%
X85510000Y-35484420D02*
X85510000Y-35765580D01*
X84490000Y-35484420D02*
X84490000Y-35765580D01*
%TO.C,C33*%
X87110000Y-35484420D02*
X87110000Y-35765580D01*
X86090000Y-35484420D02*
X86090000Y-35765580D01*
%TO.C,C31*%
X85510000Y-38684420D02*
X85510000Y-38965580D01*
X84490000Y-38684420D02*
X84490000Y-38965580D01*
D13*
%TO.C,U5*%
X89875000Y-45075000D02*
X92100000Y-45075000D01*
X97400000Y-45075000D02*
X99625000Y-45075000D01*
X89875000Y-31300000D02*
X89875000Y-30925000D01*
X89875000Y-30925000D02*
X99625000Y-30925000D01*
X99625000Y-30925000D02*
X99625000Y-31300000D01*
D14*
X88150000Y-44200000D02*
G75*
G03*
X88150000Y-44200000I-100000J0D01*
G01*
D11*
%TO.C,J23*%
X138904000Y-33255000D02*
X138269000Y-33255000D01*
X138904000Y-33890000D02*
X138904000Y-33255000D01*
%TO.C,R24*%
X103337258Y-42327500D02*
X102862742Y-42327500D01*
X103337258Y-43372500D02*
X102862742Y-43372500D01*
%TO.C,R23*%
X103337258Y-43827500D02*
X102862742Y-43827500D01*
X103337258Y-44872500D02*
X102862742Y-44872500D01*
%TO.C,R22*%
X103337258Y-40827500D02*
X102862742Y-40827500D01*
X103337258Y-41872500D02*
X102862742Y-41872500D01*
%TO.C,R25*%
X96372500Y-49562258D02*
X96372500Y-49087742D01*
X95327500Y-49562258D02*
X95327500Y-49087742D01*
%TO.C,J10*%
X64550000Y-74700000D02*
X67950000Y-74700000D01*
X67950000Y-74700000D02*
X67950000Y-71300000D01*
X67950000Y-71300000D02*
X64550000Y-71300000D01*
X64550000Y-71300000D02*
X64550000Y-74700000D01*
%TO.C,J9*%
X62950000Y-73000000D02*
G75*
G03*
X62950000Y-73000000I-1750000J0D01*
G01*
%TO.C,R17*%
X117872500Y-66437258D02*
X117872500Y-65962742D01*
X116827500Y-66437258D02*
X116827500Y-65962742D01*
%TO.C,J1*%
X68200000Y-31900000D02*
X68200000Y-30990000D01*
X68200000Y-34500000D02*
X68200000Y-33500000D01*
X68200000Y-35800000D02*
X68200000Y-35600000D01*
X66300000Y-35800000D02*
X68200000Y-35800000D01*
X61200000Y-35800000D02*
X63100000Y-35800000D01*
X61200000Y-35600000D02*
X61200000Y-35800000D01*
X61200000Y-33400000D02*
X61200000Y-34500000D01*
X61200000Y-30990000D02*
X61200000Y-31900000D01*
X61200000Y-30990000D02*
X68200000Y-30990000D01*
%TO.C,U7*%
X63200000Y-133160000D02*
X61250000Y-133160000D01*
X63200000Y-133160000D02*
X65150000Y-133160000D01*
X63200000Y-128040000D02*
X61250000Y-128040000D01*
X63200000Y-128040000D02*
X66650000Y-128040000D01*
%TO.C,U6*%
X83710000Y-76790000D02*
X84360000Y-76790000D01*
X81140000Y-79510000D02*
X81140000Y-79360000D01*
X81790000Y-79510000D02*
X81140000Y-79510000D01*
X84360000Y-79510000D02*
X84360000Y-79360000D01*
X83710000Y-79510000D02*
X84360000Y-79510000D01*
X81140000Y-76790000D02*
X81140000Y-76940000D01*
X81790000Y-76790000D02*
X81140000Y-76790000D01*
%TO.C,U4*%
X67050000Y-51760000D02*
X65100000Y-51760000D01*
X67050000Y-51760000D02*
X69000000Y-51760000D01*
X67050000Y-46640000D02*
X65100000Y-46640000D01*
X67050000Y-46640000D02*
X70500000Y-46640000D01*
%TO.C,U2*%
X71640000Y-65050000D02*
X71640000Y-63250000D01*
X74860000Y-63250000D02*
X74860000Y-65700000D01*
%TO.C,U1*%
X50390000Y-65050000D02*
X50390000Y-63250000D01*
X53610000Y-63250000D02*
X53610000Y-65700000D01*
%TO.C,SW2*%
X139650000Y-67450000D02*
X139650000Y-62250000D01*
X139350000Y-61050000D02*
X137150000Y-61050000D01*
X137150000Y-61050000D02*
X137150000Y-68650000D01*
X137150000Y-68650000D02*
X139350000Y-68650000D01*
%TO.C,SW1*%
X139650000Y-76700000D02*
X139650000Y-71500000D01*
X139350000Y-70300000D02*
X137150000Y-70300000D01*
X137150000Y-70300000D02*
X137150000Y-77900000D01*
X137150000Y-77900000D02*
X139350000Y-77900000D01*
%TO.C,R34*%
X86687258Y-77527500D02*
X86212742Y-77527500D01*
X86687258Y-78572500D02*
X86212742Y-78572500D01*
%TO.C,R33*%
X53872500Y-50637258D02*
X53872500Y-50162742D01*
X52827500Y-50637258D02*
X52827500Y-50162742D01*
%TO.C,R32*%
X79972500Y-50437258D02*
X79972500Y-49962742D01*
X78927500Y-50437258D02*
X78927500Y-49962742D01*
%TO.C,R31*%
X65212742Y-127372500D02*
X65687258Y-127372500D01*
X65212742Y-126327500D02*
X65687258Y-126327500D01*
%TO.C,R30*%
X63722500Y-126337258D02*
X63722500Y-125862742D01*
X62677500Y-126337258D02*
X62677500Y-125862742D01*
%TO.C,R29*%
X64687258Y-102577500D02*
X64212742Y-102577500D01*
X64687258Y-103622500D02*
X64212742Y-103622500D01*
%TO.C,R28*%
X64135436Y-105835000D02*
X64589564Y-105835000D01*
X64135436Y-104365000D02*
X64589564Y-104365000D01*
%TO.C,R27*%
X65812742Y-83372500D02*
X66287258Y-83372500D01*
X65812742Y-82327500D02*
X66287258Y-82327500D01*
%TO.C,R26*%
X88522500Y-49437258D02*
X88522500Y-48962742D01*
X87477500Y-49437258D02*
X87477500Y-48962742D01*
%TO.C,R21*%
X109112742Y-57722500D02*
X109587258Y-57722500D01*
X109112742Y-56677500D02*
X109587258Y-56677500D01*
%TO.C,R20*%
X109687258Y-50827500D02*
X109212742Y-50827500D01*
X109687258Y-51872500D02*
X109212742Y-51872500D01*
%TO.C,R19*%
X109687258Y-49327500D02*
X109212742Y-49327500D01*
X109687258Y-50372500D02*
X109212742Y-50372500D01*
%TO.C,R18*%
X70377500Y-38162742D02*
X70377500Y-38637258D01*
X71422500Y-38162742D02*
X71422500Y-38637258D01*
%TO.C,R16*%
X109587258Y-59677500D02*
X109112742Y-59677500D01*
X109587258Y-60722500D02*
X109112742Y-60722500D01*
%TO.C,R15*%
X136822500Y-54837258D02*
X136822500Y-54362742D01*
X135777500Y-54837258D02*
X135777500Y-54362742D01*
%TO.C,R14*%
X138312742Y-54372500D02*
X138787258Y-54372500D01*
X138312742Y-53327500D02*
X138787258Y-53327500D01*
%TO.C,R13*%
X77322500Y-68037258D02*
X77322500Y-67562742D01*
X76277500Y-68037258D02*
X76277500Y-67562742D01*
%TO.C,R12*%
X75772500Y-68037258D02*
X75772500Y-67562742D01*
X74727500Y-68037258D02*
X74727500Y-67562742D01*
%TO.C,R11*%
X55922500Y-68037258D02*
X55922500Y-67562742D01*
X54877500Y-68037258D02*
X54877500Y-67562742D01*
%TO.C,R10*%
X54272500Y-68037258D02*
X54272500Y-67562742D01*
X53227500Y-68037258D02*
X53227500Y-67562742D01*
%TO.C,R9*%
X135777500Y-51362742D02*
X135777500Y-51837258D01*
X136822500Y-51362742D02*
X136822500Y-51837258D01*
%TO.C,R8*%
X138312742Y-52872500D02*
X138787258Y-52872500D01*
X138312742Y-51827500D02*
X138787258Y-51827500D01*
%TO.C,R7*%
X135787258Y-47877500D02*
X135312742Y-47877500D01*
X135787258Y-48922500D02*
X135312742Y-48922500D01*
%TO.C,R6*%
X135312742Y-47322500D02*
X135787258Y-47322500D01*
X135312742Y-46277500D02*
X135787258Y-46277500D01*
%TO.C,R5*%
X63677500Y-39837742D02*
X63677500Y-40312258D01*
X64722500Y-39837742D02*
X64722500Y-40312258D01*
%TO.C,R4*%
X65227500Y-39837742D02*
X65227500Y-40312258D01*
X66272500Y-39837742D02*
X66272500Y-40312258D01*
%TO.C,R3*%
X77022500Y-64462258D02*
X77022500Y-63987742D01*
X75977500Y-64462258D02*
X75977500Y-63987742D01*
%TO.C,R2*%
X55772500Y-64562258D02*
X55772500Y-64087742D01*
X54727500Y-64562258D02*
X54727500Y-64087742D01*
%TO.C,R1*%
X139522500Y-44387258D02*
X139522500Y-43912742D01*
X138477500Y-44387258D02*
X138477500Y-43912742D01*
%TO.C,Q6*%
X49400000Y-50900000D02*
X49400000Y-51950000D01*
X49400000Y-51950000D02*
X51250000Y-51950000D01*
X49400000Y-48900000D02*
X49400000Y-49900000D01*
X49420000Y-48890000D02*
X51850000Y-48890000D01*
%TO.C,Q3*%
X83400000Y-49700000D02*
X83400000Y-48650000D01*
X83400000Y-48650000D02*
X81550000Y-48650000D01*
X83400000Y-51700000D02*
X83400000Y-50700000D01*
X83380000Y-51710000D02*
X80950000Y-51710000D01*
%TO.C,Q2*%
X61370000Y-99090000D02*
X62300000Y-99090000D01*
X64530000Y-99090000D02*
X63600000Y-99090000D01*
X64530000Y-99090000D02*
X64530000Y-101250000D01*
X61370000Y-99090000D02*
X61370000Y-100550000D01*
%TO.C,Q1*%
X66550000Y-86800000D02*
X67600000Y-86800000D01*
X67600000Y-86800000D02*
X67600000Y-84950000D01*
X64550000Y-86800000D02*
X65550000Y-86800000D01*
X64540000Y-86780000D02*
X64540000Y-84350000D01*
%TO.C,L3*%
X68310000Y-100198752D02*
X68310000Y-99676248D01*
X66090000Y-100198752D02*
X66090000Y-99676248D01*
%TO.C,L2*%
X70390000Y-68138748D02*
X70390000Y-68661252D01*
X72610000Y-68138748D02*
X72610000Y-68661252D01*
%TO.C,L1*%
X48890000Y-68226248D02*
X48890000Y-68748752D01*
X51110000Y-68226248D02*
X51110000Y-68748752D01*
%TO.C,J27*%
X50140000Y-34780000D02*
X49280000Y-34780000D01*
X39440000Y-46420000D02*
X39440000Y-36600000D01*
X40670000Y-46420000D02*
X39440000Y-46420000D01*
X46640000Y-46420000D02*
X42970000Y-46420000D01*
X51620000Y-46420000D02*
X48940000Y-46420000D01*
X51620000Y-45700000D02*
X51620000Y-46420000D01*
X51620000Y-42000000D02*
X51620000Y-44300000D01*
X51620000Y-36150000D02*
X51620000Y-40600000D01*
%TO.C,J2*%
X64950000Y-121360000D02*
X64950000Y-122850000D01*
X64950000Y-122850000D02*
X63610000Y-122850000D01*
X64950000Y-109040000D02*
X64950000Y-107550000D01*
X64950000Y-107550000D02*
X63610000Y-107550000D01*
X60890000Y-122850000D02*
X59150000Y-122850000D01*
X59150000Y-122850000D02*
X59150000Y-107550000D01*
X59150000Y-107550000D02*
X60890000Y-107550000D01*
X64950000Y-121360000D02*
X66150000Y-121360000D01*
%TO.C,D5*%
X63500000Y-97350000D02*
X63500000Y-95350000D01*
X63500000Y-95350000D02*
X67350000Y-95350000D01*
X63500000Y-97350000D02*
X67350000Y-97350000D01*
%TO.C,D4*%
X67900000Y-90350000D02*
X67900000Y-92350000D01*
X67900000Y-92350000D02*
X64050000Y-92350000D01*
X67900000Y-90350000D02*
X64050000Y-90350000D01*
%TO.C,D3*%
X64400000Y-92850000D02*
X64400000Y-94850000D01*
X64400000Y-94850000D02*
X60550000Y-94850000D01*
X64400000Y-92850000D02*
X60550000Y-92850000D01*
%TO.C,D2*%
X70215000Y-35387500D02*
X70215000Y-32902500D01*
X70215000Y-32902500D02*
X71585000Y-32902500D01*
X71585000Y-32902500D02*
X71585000Y-35387500D01*
%TO.C,D1*%
X64400000Y-43090000D02*
X66200000Y-43090000D01*
X66200000Y-46310000D02*
X63750000Y-46310000D01*
%TO.C,C30*%
X68315580Y-122440000D02*
X68034420Y-122440000D01*
X68315580Y-123460000D02*
X68034420Y-123460000D01*
%TO.C,C29*%
X68315580Y-119940000D02*
X68034420Y-119940000D01*
X68315580Y-120960000D02*
X68034420Y-120960000D01*
%TO.C,C28*%
X68315580Y-117440000D02*
X68034420Y-117440000D01*
X68315580Y-118460000D02*
X68034420Y-118460000D01*
%TO.C,C27*%
X68290580Y-116190000D02*
X68009420Y-116190000D01*
X68290580Y-117210000D02*
X68009420Y-117210000D01*
%TO.C,C26*%
X68034420Y-115960000D02*
X68315580Y-115960000D01*
X68034420Y-114940000D02*
X68315580Y-114940000D01*
%TO.C,C25*%
X67984420Y-112460000D02*
X68265580Y-112460000D01*
X67984420Y-111440000D02*
X68265580Y-111440000D01*
%TO.C,C24*%
X68034420Y-109960000D02*
X68315580Y-109960000D01*
X68034420Y-108940000D02*
X68315580Y-108940000D01*
%TO.C,C23*%
X68009420Y-108710000D02*
X68290580Y-108710000D01*
X68009420Y-107690000D02*
X68290580Y-107690000D01*
%TO.C,C22*%
X68315580Y-121190000D02*
X68034420Y-121190000D01*
X68315580Y-122210000D02*
X68034420Y-122210000D01*
%TO.C,C21*%
X68315580Y-118690000D02*
X68034420Y-118690000D01*
X68315580Y-119710000D02*
X68034420Y-119710000D01*
%TO.C,C20*%
X68009420Y-111210000D02*
X68290580Y-111210000D01*
X68009420Y-110190000D02*
X68290580Y-110190000D01*
%TO.C,C19*%
X44809420Y-50510000D02*
X45090580Y-50510000D01*
X44809420Y-49490000D02*
X45090580Y-49490000D01*
%TO.C,C18*%
X45140580Y-47890000D02*
X44859420Y-47890000D01*
X45140580Y-48910000D02*
X44859420Y-48910000D01*
%TO.C,C17*%
X56940000Y-128959420D02*
X56940000Y-129240580D01*
X57960000Y-128959420D02*
X57960000Y-129240580D01*
%TO.C,C16*%
X67815580Y-104590000D02*
X67534420Y-104590000D01*
X67815580Y-105610000D02*
X67534420Y-105610000D01*
%TO.C,C15*%
X81109420Y-75160000D02*
X81390580Y-75160000D01*
X81109420Y-74140000D02*
X81390580Y-74140000D01*
%TO.C,C14*%
X78990000Y-79259420D02*
X78990000Y-79540580D01*
X80010000Y-79259420D02*
X80010000Y-79540580D01*
%TO.C,C13*%
X66340580Y-93340000D02*
X66059420Y-93340000D01*
X66340580Y-94360000D02*
X66059420Y-94360000D01*
%TO.C,C12*%
X135310000Y-54740580D02*
X135310000Y-54459420D01*
X134290000Y-54740580D02*
X134290000Y-54459420D01*
%TO.C,C11*%
X74260000Y-67940580D02*
X74260000Y-67659420D01*
X73240000Y-67940580D02*
X73240000Y-67659420D01*
%TO.C,C10*%
X52710000Y-67940580D02*
X52710000Y-67659420D01*
X51690000Y-67940580D02*
X51690000Y-67659420D01*
%TO.C,C9*%
X61260000Y-47265580D02*
X61260000Y-46984420D01*
X60240000Y-47265580D02*
X60240000Y-46984420D01*
%TO.C,C8*%
X134290000Y-51459420D02*
X134290000Y-51740580D01*
X135310000Y-51459420D02*
X135310000Y-51740580D01*
%TO.C,C7*%
X69190580Y-52190000D02*
X68909420Y-52190000D01*
X69190580Y-53210000D02*
X68909420Y-53210000D01*
%TO.C,C6*%
X65190580Y-52190000D02*
X64909420Y-52190000D01*
X65190580Y-53210000D02*
X64909420Y-53210000D01*
%TO.C,C5*%
X134560000Y-44290580D02*
X134560000Y-44009420D01*
X133540000Y-44290580D02*
X133540000Y-44009420D01*
%TO.C,C4*%
X137910000Y-44265580D02*
X137910000Y-43984420D01*
X136890000Y-44265580D02*
X136890000Y-43984420D01*
%TO.C,C3*%
X136060000Y-44290580D02*
X136060000Y-44009420D01*
X135040000Y-44290580D02*
X135040000Y-44009420D01*
%TO.C,C2*%
X70090000Y-64009420D02*
X70090000Y-64290580D01*
X71110000Y-64009420D02*
X71110000Y-64290580D01*
%TO.C,C1*%
X48890000Y-64009420D02*
X48890000Y-64290580D01*
X49910000Y-64009420D02*
X49910000Y-64290580D01*
%TO.C,R45*%
D10*
X89392857Y-58452380D02*
X89726190Y-57976190D01*
X89964285Y-58452380D02*
X89964285Y-57452380D01*
X89583333Y-57452380D01*
X89488095Y-57500000D01*
X89440476Y-57547619D01*
X89392857Y-57642857D01*
X89392857Y-57785714D01*
X89440476Y-57880952D01*
X89488095Y-57928571D01*
X89583333Y-57976190D01*
X89964285Y-57976190D01*
X88535714Y-57785714D02*
X88535714Y-58452380D01*
X88773809Y-57404761D02*
X89011904Y-58119047D01*
X88392857Y-58119047D01*
X87535714Y-57452380D02*
X88011904Y-57452380D01*
X88059523Y-57928571D01*
X88011904Y-57880952D01*
X87916666Y-57833333D01*
X87678571Y-57833333D01*
X87583333Y-57880952D01*
X87535714Y-57928571D01*
X87488095Y-58023809D01*
X87488095Y-58261904D01*
X87535714Y-58357142D01*
X87583333Y-58404761D01*
X87678571Y-58452380D01*
X87916666Y-58452380D01*
X88011904Y-58404761D01*
X88059523Y-58357142D01*
%TO.C,R47*%
X89642857Y-65952380D02*
X89976190Y-65476190D01*
X90214285Y-65952380D02*
X90214285Y-64952380D01*
X89833333Y-64952380D01*
X89738095Y-65000000D01*
X89690476Y-65047619D01*
X89642857Y-65142857D01*
X89642857Y-65285714D01*
X89690476Y-65380952D01*
X89738095Y-65428571D01*
X89833333Y-65476190D01*
X90214285Y-65476190D01*
X88785714Y-65285714D02*
X88785714Y-65952380D01*
X89023809Y-64904761D02*
X89261904Y-65619047D01*
X88642857Y-65619047D01*
X88357142Y-64952380D02*
X87690476Y-64952380D01*
X88119047Y-65952380D01*
%TO.C,R46*%
X89442857Y-56902380D02*
X89776190Y-56426190D01*
X90014285Y-56902380D02*
X90014285Y-55902380D01*
X89633333Y-55902380D01*
X89538095Y-55950000D01*
X89490476Y-55997619D01*
X89442857Y-56092857D01*
X89442857Y-56235714D01*
X89490476Y-56330952D01*
X89538095Y-56378571D01*
X89633333Y-56426190D01*
X90014285Y-56426190D01*
X88585714Y-56235714D02*
X88585714Y-56902380D01*
X88823809Y-55854761D02*
X89061904Y-56569047D01*
X88442857Y-56569047D01*
X87633333Y-55902380D02*
X87823809Y-55902380D01*
X87919047Y-55950000D01*
X87966666Y-55997619D01*
X88061904Y-56140476D01*
X88109523Y-56330952D01*
X88109523Y-56711904D01*
X88061904Y-56807142D01*
X88014285Y-56854761D01*
X87919047Y-56902380D01*
X87728571Y-56902380D01*
X87633333Y-56854761D01*
X87585714Y-56807142D01*
X87538095Y-56711904D01*
X87538095Y-56473809D01*
X87585714Y-56378571D01*
X87633333Y-56330952D01*
X87728571Y-56283333D01*
X87919047Y-56283333D01*
X88014285Y-56330952D01*
X88061904Y-56378571D01*
X88109523Y-56473809D01*
%TO.C,R44*%
X89642857Y-59952380D02*
X89976190Y-59476190D01*
X90214285Y-59952380D02*
X90214285Y-58952380D01*
X89833333Y-58952380D01*
X89738095Y-59000000D01*
X89690476Y-59047619D01*
X89642857Y-59142857D01*
X89642857Y-59285714D01*
X89690476Y-59380952D01*
X89738095Y-59428571D01*
X89833333Y-59476190D01*
X90214285Y-59476190D01*
X88785714Y-59285714D02*
X88785714Y-59952380D01*
X89023809Y-58904761D02*
X89261904Y-59619047D01*
X88642857Y-59619047D01*
X87833333Y-59285714D02*
X87833333Y-59952380D01*
X88071428Y-58904761D02*
X88309523Y-59619047D01*
X87690476Y-59619047D01*
%TO.C,R43*%
X89642857Y-61452380D02*
X89976190Y-60976190D01*
X90214285Y-61452380D02*
X90214285Y-60452380D01*
X89833333Y-60452380D01*
X89738095Y-60500000D01*
X89690476Y-60547619D01*
X89642857Y-60642857D01*
X89642857Y-60785714D01*
X89690476Y-60880952D01*
X89738095Y-60928571D01*
X89833333Y-60976190D01*
X90214285Y-60976190D01*
X88785714Y-60785714D02*
X88785714Y-61452380D01*
X89023809Y-60404761D02*
X89261904Y-61119047D01*
X88642857Y-61119047D01*
X88357142Y-60452380D02*
X87738095Y-60452380D01*
X88071428Y-60833333D01*
X87928571Y-60833333D01*
X87833333Y-60880952D01*
X87785714Y-60928571D01*
X87738095Y-61023809D01*
X87738095Y-61261904D01*
X87785714Y-61357142D01*
X87833333Y-61404761D01*
X87928571Y-61452380D01*
X88214285Y-61452380D01*
X88309523Y-61404761D01*
X88357142Y-61357142D01*
%TO.C,R42*%
X89642857Y-62952380D02*
X89976190Y-62476190D01*
X90214285Y-62952380D02*
X90214285Y-61952380D01*
X89833333Y-61952380D01*
X89738095Y-62000000D01*
X89690476Y-62047619D01*
X89642857Y-62142857D01*
X89642857Y-62285714D01*
X89690476Y-62380952D01*
X89738095Y-62428571D01*
X89833333Y-62476190D01*
X90214285Y-62476190D01*
X88785714Y-62285714D02*
X88785714Y-62952380D01*
X89023809Y-61904761D02*
X89261904Y-62619047D01*
X88642857Y-62619047D01*
X88309523Y-62047619D02*
X88261904Y-62000000D01*
X88166666Y-61952380D01*
X87928571Y-61952380D01*
X87833333Y-62000000D01*
X87785714Y-62047619D01*
X87738095Y-62142857D01*
X87738095Y-62238095D01*
X87785714Y-62380952D01*
X88357142Y-62952380D01*
X87738095Y-62952380D01*
%TO.C,R41*%
X89642857Y-64452380D02*
X89976190Y-63976190D01*
X90214285Y-64452380D02*
X90214285Y-63452380D01*
X89833333Y-63452380D01*
X89738095Y-63500000D01*
X89690476Y-63547619D01*
X89642857Y-63642857D01*
X89642857Y-63785714D01*
X89690476Y-63880952D01*
X89738095Y-63928571D01*
X89833333Y-63976190D01*
X90214285Y-63976190D01*
X88785714Y-63785714D02*
X88785714Y-64452380D01*
X89023809Y-63404761D02*
X89261904Y-64119047D01*
X88642857Y-64119047D01*
X87738095Y-64452380D02*
X88309523Y-64452380D01*
X88023809Y-64452380D02*
X88023809Y-63452380D01*
X88119047Y-63595238D01*
X88214285Y-63690476D01*
X88309523Y-63738095D01*
%TO.C,JP1*%
X72633333Y-113252380D02*
X72633333Y-113966666D01*
X72680952Y-114109523D01*
X72776190Y-114204761D01*
X72919047Y-114252380D01*
X73014285Y-114252380D01*
X72157142Y-114252380D02*
X72157142Y-113252380D01*
X71776190Y-113252380D01*
X71680952Y-113300000D01*
X71633333Y-113347619D01*
X71585714Y-113442857D01*
X71585714Y-113585714D01*
X71633333Y-113680952D01*
X71680952Y-113728571D01*
X71776190Y-113776190D01*
X72157142Y-113776190D01*
X70633333Y-114252380D02*
X71204761Y-114252380D01*
X70919047Y-114252380D02*
X70919047Y-113252380D01*
X71014285Y-113395238D01*
X71109523Y-113490476D01*
X71204761Y-113538095D01*
%TO.C,U3*%
X133362380Y-59368095D02*
X134171904Y-59368095D01*
X134267142Y-59415714D01*
X134314761Y-59463333D01*
X134362380Y-59558571D01*
X134362380Y-59749047D01*
X134314761Y-59844285D01*
X134267142Y-59891904D01*
X134171904Y-59939523D01*
X133362380Y-59939523D01*
X133362380Y-60320476D02*
X133362380Y-60939523D01*
X133743333Y-60606190D01*
X133743333Y-60749047D01*
X133790952Y-60844285D01*
X133838571Y-60891904D01*
X133933809Y-60939523D01*
X134171904Y-60939523D01*
X134267142Y-60891904D01*
X134314761Y-60844285D01*
X134362380Y-60749047D01*
X134362380Y-60463333D01*
X134314761Y-60368095D01*
X134267142Y-60320476D01*
%TO.C,R40*%
X74442857Y-43252380D02*
X74776190Y-42776190D01*
X75014285Y-43252380D02*
X75014285Y-42252380D01*
X74633333Y-42252380D01*
X74538095Y-42300000D01*
X74490476Y-42347619D01*
X74442857Y-42442857D01*
X74442857Y-42585714D01*
X74490476Y-42680952D01*
X74538095Y-42728571D01*
X74633333Y-42776190D01*
X75014285Y-42776190D01*
X73585714Y-42585714D02*
X73585714Y-43252380D01*
X73823809Y-42204761D02*
X74061904Y-42919047D01*
X73442857Y-42919047D01*
X72871428Y-42252380D02*
X72776190Y-42252380D01*
X72680952Y-42300000D01*
X72633333Y-42347619D01*
X72585714Y-42442857D01*
X72538095Y-42633333D01*
X72538095Y-42871428D01*
X72585714Y-43061904D01*
X72633333Y-43157142D01*
X72680952Y-43204761D01*
X72776190Y-43252380D01*
X72871428Y-43252380D01*
X72966666Y-43204761D01*
X73014285Y-43157142D01*
X73061904Y-43061904D01*
X73109523Y-42871428D01*
X73109523Y-42633333D01*
X73061904Y-42442857D01*
X73014285Y-42347619D01*
X72966666Y-42300000D01*
X72871428Y-42252380D01*
%TO.C,R39*%
X74442857Y-47852380D02*
X74776190Y-47376190D01*
X75014285Y-47852380D02*
X75014285Y-46852380D01*
X74633333Y-46852380D01*
X74538095Y-46900000D01*
X74490476Y-46947619D01*
X74442857Y-47042857D01*
X74442857Y-47185714D01*
X74490476Y-47280952D01*
X74538095Y-47328571D01*
X74633333Y-47376190D01*
X75014285Y-47376190D01*
X74109523Y-46852380D02*
X73490476Y-46852380D01*
X73823809Y-47233333D01*
X73680952Y-47233333D01*
X73585714Y-47280952D01*
X73538095Y-47328571D01*
X73490476Y-47423809D01*
X73490476Y-47661904D01*
X73538095Y-47757142D01*
X73585714Y-47804761D01*
X73680952Y-47852380D01*
X73966666Y-47852380D01*
X74061904Y-47804761D01*
X74109523Y-47757142D01*
X73014285Y-47852380D02*
X72823809Y-47852380D01*
X72728571Y-47804761D01*
X72680952Y-47757142D01*
X72585714Y-47614285D01*
X72538095Y-47423809D01*
X72538095Y-47042857D01*
X72585714Y-46947619D01*
X72633333Y-46900000D01*
X72728571Y-46852380D01*
X72919047Y-46852380D01*
X73014285Y-46900000D01*
X73061904Y-46947619D01*
X73109523Y-47042857D01*
X73109523Y-47280952D01*
X73061904Y-47376190D01*
X73014285Y-47423809D01*
X72919047Y-47471428D01*
X72728571Y-47471428D01*
X72633333Y-47423809D01*
X72585714Y-47376190D01*
X72538095Y-47280952D01*
%TO.C,R38*%
X74242857Y-49652380D02*
X74576190Y-49176190D01*
X74814285Y-49652380D02*
X74814285Y-48652380D01*
X74433333Y-48652380D01*
X74338095Y-48700000D01*
X74290476Y-48747619D01*
X74242857Y-48842857D01*
X74242857Y-48985714D01*
X74290476Y-49080952D01*
X74338095Y-49128571D01*
X74433333Y-49176190D01*
X74814285Y-49176190D01*
X73909523Y-48652380D02*
X73290476Y-48652380D01*
X73623809Y-49033333D01*
X73480952Y-49033333D01*
X73385714Y-49080952D01*
X73338095Y-49128571D01*
X73290476Y-49223809D01*
X73290476Y-49461904D01*
X73338095Y-49557142D01*
X73385714Y-49604761D01*
X73480952Y-49652380D01*
X73766666Y-49652380D01*
X73861904Y-49604761D01*
X73909523Y-49557142D01*
X72719047Y-49080952D02*
X72814285Y-49033333D01*
X72861904Y-48985714D01*
X72909523Y-48890476D01*
X72909523Y-48842857D01*
X72861904Y-48747619D01*
X72814285Y-48700000D01*
X72719047Y-48652380D01*
X72528571Y-48652380D01*
X72433333Y-48700000D01*
X72385714Y-48747619D01*
X72338095Y-48842857D01*
X72338095Y-48890476D01*
X72385714Y-48985714D01*
X72433333Y-49033333D01*
X72528571Y-49080952D01*
X72719047Y-49080952D01*
X72814285Y-49128571D01*
X72861904Y-49176190D01*
X72909523Y-49271428D01*
X72909523Y-49461904D01*
X72861904Y-49557142D01*
X72814285Y-49604761D01*
X72719047Y-49652380D01*
X72528571Y-49652380D01*
X72433333Y-49604761D01*
X72385714Y-49557142D01*
X72338095Y-49461904D01*
X72338095Y-49271428D01*
X72385714Y-49176190D01*
X72433333Y-49128571D01*
X72528571Y-49080952D01*
%TO.C,R37*%
X74442857Y-44652380D02*
X74776190Y-44176190D01*
X75014285Y-44652380D02*
X75014285Y-43652380D01*
X74633333Y-43652380D01*
X74538095Y-43700000D01*
X74490476Y-43747619D01*
X74442857Y-43842857D01*
X74442857Y-43985714D01*
X74490476Y-44080952D01*
X74538095Y-44128571D01*
X74633333Y-44176190D01*
X75014285Y-44176190D01*
X74109523Y-43652380D02*
X73490476Y-43652380D01*
X73823809Y-44033333D01*
X73680952Y-44033333D01*
X73585714Y-44080952D01*
X73538095Y-44128571D01*
X73490476Y-44223809D01*
X73490476Y-44461904D01*
X73538095Y-44557142D01*
X73585714Y-44604761D01*
X73680952Y-44652380D01*
X73966666Y-44652380D01*
X74061904Y-44604761D01*
X74109523Y-44557142D01*
X73157142Y-43652380D02*
X72490476Y-43652380D01*
X72919047Y-44652380D01*
%TO.C,R36*%
X74442857Y-51052380D02*
X74776190Y-50576190D01*
X75014285Y-51052380D02*
X75014285Y-50052380D01*
X74633333Y-50052380D01*
X74538095Y-50100000D01*
X74490476Y-50147619D01*
X74442857Y-50242857D01*
X74442857Y-50385714D01*
X74490476Y-50480952D01*
X74538095Y-50528571D01*
X74633333Y-50576190D01*
X75014285Y-50576190D01*
X74109523Y-50052380D02*
X73490476Y-50052380D01*
X73823809Y-50433333D01*
X73680952Y-50433333D01*
X73585714Y-50480952D01*
X73538095Y-50528571D01*
X73490476Y-50623809D01*
X73490476Y-50861904D01*
X73538095Y-50957142D01*
X73585714Y-51004761D01*
X73680952Y-51052380D01*
X73966666Y-51052380D01*
X74061904Y-51004761D01*
X74109523Y-50957142D01*
X72633333Y-50052380D02*
X72823809Y-50052380D01*
X72919047Y-50100000D01*
X72966666Y-50147619D01*
X73061904Y-50290476D01*
X73109523Y-50480952D01*
X73109523Y-50861904D01*
X73061904Y-50957142D01*
X73014285Y-51004761D01*
X72919047Y-51052380D01*
X72728571Y-51052380D01*
X72633333Y-51004761D01*
X72585714Y-50957142D01*
X72538095Y-50861904D01*
X72538095Y-50623809D01*
X72585714Y-50528571D01*
X72633333Y-50480952D01*
X72728571Y-50433333D01*
X72919047Y-50433333D01*
X73014285Y-50480952D01*
X73061904Y-50528571D01*
X73109523Y-50623809D01*
%TO.C,R35*%
X74442857Y-46252380D02*
X74776190Y-45776190D01*
X75014285Y-46252380D02*
X75014285Y-45252380D01*
X74633333Y-45252380D01*
X74538095Y-45300000D01*
X74490476Y-45347619D01*
X74442857Y-45442857D01*
X74442857Y-45585714D01*
X74490476Y-45680952D01*
X74538095Y-45728571D01*
X74633333Y-45776190D01*
X75014285Y-45776190D01*
X74109523Y-45252380D02*
X73490476Y-45252380D01*
X73823809Y-45633333D01*
X73680952Y-45633333D01*
X73585714Y-45680952D01*
X73538095Y-45728571D01*
X73490476Y-45823809D01*
X73490476Y-46061904D01*
X73538095Y-46157142D01*
X73585714Y-46204761D01*
X73680952Y-46252380D01*
X73966666Y-46252380D01*
X74061904Y-46204761D01*
X74109523Y-46157142D01*
X72585714Y-45252380D02*
X73061904Y-45252380D01*
X73109523Y-45728571D01*
X73061904Y-45680952D01*
X72966666Y-45633333D01*
X72728571Y-45633333D01*
X72633333Y-45680952D01*
X72585714Y-45728571D01*
X72538095Y-45823809D01*
X72538095Y-46061904D01*
X72585714Y-46157142D01*
X72633333Y-46204761D01*
X72728571Y-46252380D01*
X72966666Y-46252380D01*
X73061904Y-46204761D01*
X73109523Y-46157142D01*
%TO.C,C32*%
X85357142Y-32157142D02*
X85404761Y-32109523D01*
X85452380Y-31966666D01*
X85452380Y-31871428D01*
X85404761Y-31728571D01*
X85309523Y-31633333D01*
X85214285Y-31585714D01*
X85023809Y-31538095D01*
X84880952Y-31538095D01*
X84690476Y-31585714D01*
X84595238Y-31633333D01*
X84500000Y-31728571D01*
X84452380Y-31871428D01*
X84452380Y-31966666D01*
X84500000Y-32109523D01*
X84547619Y-32157142D01*
X84452380Y-32490476D02*
X84452380Y-33109523D01*
X84833333Y-32776190D01*
X84833333Y-32919047D01*
X84880952Y-33014285D01*
X84928571Y-33061904D01*
X85023809Y-33109523D01*
X85261904Y-33109523D01*
X85357142Y-33061904D01*
X85404761Y-33014285D01*
X85452380Y-32919047D01*
X85452380Y-32633333D01*
X85404761Y-32538095D01*
X85357142Y-32490476D01*
X84547619Y-33490476D02*
X84500000Y-33538095D01*
X84452380Y-33633333D01*
X84452380Y-33871428D01*
X84500000Y-33966666D01*
X84547619Y-34014285D01*
X84642857Y-34061904D01*
X84738095Y-34061904D01*
X84880952Y-34014285D01*
X85452380Y-33442857D01*
X85452380Y-34061904D01*
%TO.C,C33*%
X86957142Y-32157142D02*
X87004761Y-32109523D01*
X87052380Y-31966666D01*
X87052380Y-31871428D01*
X87004761Y-31728571D01*
X86909523Y-31633333D01*
X86814285Y-31585714D01*
X86623809Y-31538095D01*
X86480952Y-31538095D01*
X86290476Y-31585714D01*
X86195238Y-31633333D01*
X86100000Y-31728571D01*
X86052380Y-31871428D01*
X86052380Y-31966666D01*
X86100000Y-32109523D01*
X86147619Y-32157142D01*
X86052380Y-32490476D02*
X86052380Y-33109523D01*
X86433333Y-32776190D01*
X86433333Y-32919047D01*
X86480952Y-33014285D01*
X86528571Y-33061904D01*
X86623809Y-33109523D01*
X86861904Y-33109523D01*
X86957142Y-33061904D01*
X87004761Y-33014285D01*
X87052380Y-32919047D01*
X87052380Y-32633333D01*
X87004761Y-32538095D01*
X86957142Y-32490476D01*
X86052380Y-33442857D02*
X86052380Y-34061904D01*
X86433333Y-33728571D01*
X86433333Y-33871428D01*
X86480952Y-33966666D01*
X86528571Y-34014285D01*
X86623809Y-34061904D01*
X86861904Y-34061904D01*
X86957142Y-34014285D01*
X87004761Y-33966666D01*
X87052380Y-33871428D01*
X87052380Y-33585714D01*
X87004761Y-33490476D01*
X86957142Y-33442857D01*
%TO.C,C31*%
X86557142Y-38182142D02*
X86604761Y-38134523D01*
X86652380Y-37991666D01*
X86652380Y-37896428D01*
X86604761Y-37753571D01*
X86509523Y-37658333D01*
X86414285Y-37610714D01*
X86223809Y-37563095D01*
X86080952Y-37563095D01*
X85890476Y-37610714D01*
X85795238Y-37658333D01*
X85700000Y-37753571D01*
X85652380Y-37896428D01*
X85652380Y-37991666D01*
X85700000Y-38134523D01*
X85747619Y-38182142D01*
X85652380Y-38515476D02*
X85652380Y-39134523D01*
X86033333Y-38801190D01*
X86033333Y-38944047D01*
X86080952Y-39039285D01*
X86128571Y-39086904D01*
X86223809Y-39134523D01*
X86461904Y-39134523D01*
X86557142Y-39086904D01*
X86604761Y-39039285D01*
X86652380Y-38944047D01*
X86652380Y-38658333D01*
X86604761Y-38563095D01*
X86557142Y-38515476D01*
X86652380Y-40086904D02*
X86652380Y-39515476D01*
X86652380Y-39801190D02*
X85652380Y-39801190D01*
X85795238Y-39705952D01*
X85890476Y-39610714D01*
X85938095Y-39515476D01*
%TO.C,U5*%
D15*
X102762834Y-34251712D02*
X102762834Y-35062224D01*
X102715157Y-35157578D01*
X102667480Y-35205255D01*
X102572125Y-35252932D01*
X102381417Y-35252932D01*
X102286062Y-35205255D01*
X102238385Y-35157578D01*
X102190708Y-35062224D01*
X102190708Y-34251712D01*
X101237165Y-34251712D02*
X101713937Y-34251712D01*
X101761614Y-34728484D01*
X101713937Y-34680807D01*
X101618582Y-34633130D01*
X101380197Y-34633130D01*
X101284842Y-34680807D01*
X101237165Y-34728484D01*
X101189488Y-34823838D01*
X101189488Y-35062224D01*
X101237165Y-35157578D01*
X101284842Y-35205255D01*
X101380197Y-35252932D01*
X101618582Y-35252932D01*
X101713937Y-35205255D01*
X101761614Y-35157578D01*
%TO.C,J23*%
D10*
X135452380Y-31390476D02*
X136166666Y-31390476D01*
X136309523Y-31342857D01*
X136404761Y-31247619D01*
X136452380Y-31104761D01*
X136452380Y-31009523D01*
X135547619Y-31819047D02*
X135500000Y-31866666D01*
X135452380Y-31961904D01*
X135452380Y-32200000D01*
X135500000Y-32295238D01*
X135547619Y-32342857D01*
X135642857Y-32390476D01*
X135738095Y-32390476D01*
X135880952Y-32342857D01*
X136452380Y-31771428D01*
X136452380Y-32390476D01*
X135452380Y-32723809D02*
X135452380Y-33342857D01*
X135833333Y-33009523D01*
X135833333Y-33152380D01*
X135880952Y-33247619D01*
X135928571Y-33295238D01*
X136023809Y-33342857D01*
X136261904Y-33342857D01*
X136357142Y-33295238D01*
X136404761Y-33247619D01*
X136452380Y-33152380D01*
X136452380Y-32866666D01*
X136404761Y-32771428D01*
X136357142Y-32723809D01*
%TO.C,R24*%
X106642857Y-43252380D02*
X106976190Y-42776190D01*
X107214285Y-43252380D02*
X107214285Y-42252380D01*
X106833333Y-42252380D01*
X106738095Y-42300000D01*
X106690476Y-42347619D01*
X106642857Y-42442857D01*
X106642857Y-42585714D01*
X106690476Y-42680952D01*
X106738095Y-42728571D01*
X106833333Y-42776190D01*
X107214285Y-42776190D01*
X106261904Y-42347619D02*
X106214285Y-42300000D01*
X106119047Y-42252380D01*
X105880952Y-42252380D01*
X105785714Y-42300000D01*
X105738095Y-42347619D01*
X105690476Y-42442857D01*
X105690476Y-42538095D01*
X105738095Y-42680952D01*
X106309523Y-43252380D01*
X105690476Y-43252380D01*
X104833333Y-42585714D02*
X104833333Y-43252380D01*
X105071428Y-42204761D02*
X105309523Y-42919047D01*
X104690476Y-42919047D01*
%TO.C,R23*%
X106642857Y-44852380D02*
X106976190Y-44376190D01*
X107214285Y-44852380D02*
X107214285Y-43852380D01*
X106833333Y-43852380D01*
X106738095Y-43900000D01*
X106690476Y-43947619D01*
X106642857Y-44042857D01*
X106642857Y-44185714D01*
X106690476Y-44280952D01*
X106738095Y-44328571D01*
X106833333Y-44376190D01*
X107214285Y-44376190D01*
X106261904Y-43947619D02*
X106214285Y-43900000D01*
X106119047Y-43852380D01*
X105880952Y-43852380D01*
X105785714Y-43900000D01*
X105738095Y-43947619D01*
X105690476Y-44042857D01*
X105690476Y-44138095D01*
X105738095Y-44280952D01*
X106309523Y-44852380D01*
X105690476Y-44852380D01*
X105357142Y-43852380D02*
X104738095Y-43852380D01*
X105071428Y-44233333D01*
X104928571Y-44233333D01*
X104833333Y-44280952D01*
X104785714Y-44328571D01*
X104738095Y-44423809D01*
X104738095Y-44661904D01*
X104785714Y-44757142D01*
X104833333Y-44804761D01*
X104928571Y-44852380D01*
X105214285Y-44852380D01*
X105309523Y-44804761D01*
X105357142Y-44757142D01*
%TO.C,R22*%
X106642857Y-41852380D02*
X106976190Y-41376190D01*
X107214285Y-41852380D02*
X107214285Y-40852380D01*
X106833333Y-40852380D01*
X106738095Y-40900000D01*
X106690476Y-40947619D01*
X106642857Y-41042857D01*
X106642857Y-41185714D01*
X106690476Y-41280952D01*
X106738095Y-41328571D01*
X106833333Y-41376190D01*
X107214285Y-41376190D01*
X106261904Y-40947619D02*
X106214285Y-40900000D01*
X106119047Y-40852380D01*
X105880952Y-40852380D01*
X105785714Y-40900000D01*
X105738095Y-40947619D01*
X105690476Y-41042857D01*
X105690476Y-41138095D01*
X105738095Y-41280952D01*
X106309523Y-41852380D01*
X105690476Y-41852380D01*
X105309523Y-40947619D02*
X105261904Y-40900000D01*
X105166666Y-40852380D01*
X104928571Y-40852380D01*
X104833333Y-40900000D01*
X104785714Y-40947619D01*
X104738095Y-41042857D01*
X104738095Y-41138095D01*
X104785714Y-41280952D01*
X105357142Y-41852380D01*
X104738095Y-41852380D01*
%TO.C,R25*%
X97732380Y-48682142D02*
X97256190Y-48348809D01*
X97732380Y-48110714D02*
X96732380Y-48110714D01*
X96732380Y-48491666D01*
X96780000Y-48586904D01*
X96827619Y-48634523D01*
X96922857Y-48682142D01*
X97065714Y-48682142D01*
X97160952Y-48634523D01*
X97208571Y-48586904D01*
X97256190Y-48491666D01*
X97256190Y-48110714D01*
X96827619Y-49063095D02*
X96780000Y-49110714D01*
X96732380Y-49205952D01*
X96732380Y-49444047D01*
X96780000Y-49539285D01*
X96827619Y-49586904D01*
X96922857Y-49634523D01*
X97018095Y-49634523D01*
X97160952Y-49586904D01*
X97732380Y-49015476D01*
X97732380Y-49634523D01*
X96732380Y-50539285D02*
X96732380Y-50063095D01*
X97208571Y-50015476D01*
X97160952Y-50063095D01*
X97113333Y-50158333D01*
X97113333Y-50396428D01*
X97160952Y-50491666D01*
X97208571Y-50539285D01*
X97303809Y-50586904D01*
X97541904Y-50586904D01*
X97637142Y-50539285D01*
X97684761Y-50491666D01*
X97732380Y-50396428D01*
X97732380Y-50158333D01*
X97684761Y-50063095D01*
X97637142Y-50015476D01*
%TO.C,J10*%
X67059523Y-74850380D02*
X67059523Y-75564666D01*
X67107142Y-75707523D01*
X67202380Y-75802761D01*
X67345238Y-75850380D01*
X67440476Y-75850380D01*
X66059523Y-75850380D02*
X66630952Y-75850380D01*
X66345238Y-75850380D02*
X66345238Y-74850380D01*
X66440476Y-74993238D01*
X66535714Y-75088476D01*
X66630952Y-75136095D01*
X65440476Y-74850380D02*
X65345238Y-74850380D01*
X65250000Y-74898000D01*
X65202380Y-74945619D01*
X65154761Y-75040857D01*
X65107142Y-75231333D01*
X65107142Y-75469428D01*
X65154761Y-75659904D01*
X65202380Y-75755142D01*
X65250000Y-75802761D01*
X65345238Y-75850380D01*
X65440476Y-75850380D01*
X65535714Y-75802761D01*
X65583333Y-75755142D01*
X65630952Y-75659904D01*
X65678571Y-75469428D01*
X65678571Y-75231333D01*
X65630952Y-75040857D01*
X65583333Y-74945619D01*
X65535714Y-74898000D01*
X65440476Y-74850380D01*
%TO.C,J9*%
X61533333Y-74850380D02*
X61533333Y-75564666D01*
X61580952Y-75707523D01*
X61676190Y-75802761D01*
X61819047Y-75850380D01*
X61914285Y-75850380D01*
X61009523Y-75850380D02*
X60819047Y-75850380D01*
X60723809Y-75802761D01*
X60676190Y-75755142D01*
X60580952Y-75612285D01*
X60533333Y-75421809D01*
X60533333Y-75040857D01*
X60580952Y-74945619D01*
X60628571Y-74898000D01*
X60723809Y-74850380D01*
X60914285Y-74850380D01*
X61009523Y-74898000D01*
X61057142Y-74945619D01*
X61104761Y-75040857D01*
X61104761Y-75278952D01*
X61057142Y-75374190D01*
X61009523Y-75421809D01*
X60914285Y-75469428D01*
X60723809Y-75469428D01*
X60628571Y-75421809D01*
X60580952Y-75374190D01*
X60533333Y-75278952D01*
%TO.C,R17*%
X119232380Y-65757142D02*
X118756190Y-65423809D01*
X119232380Y-65185714D02*
X118232380Y-65185714D01*
X118232380Y-65566666D01*
X118280000Y-65661904D01*
X118327619Y-65709523D01*
X118422857Y-65757142D01*
X118565714Y-65757142D01*
X118660952Y-65709523D01*
X118708571Y-65661904D01*
X118756190Y-65566666D01*
X118756190Y-65185714D01*
X119232380Y-66709523D02*
X119232380Y-66138095D01*
X119232380Y-66423809D02*
X118232380Y-66423809D01*
X118375238Y-66328571D01*
X118470476Y-66233333D01*
X118518095Y-66138095D01*
X118232380Y-67042857D02*
X118232380Y-67709523D01*
X119232380Y-67280952D01*
%TO.C,J1*%
X65033333Y-36852380D02*
X65033333Y-37566666D01*
X65080952Y-37709523D01*
X65176190Y-37804761D01*
X65319047Y-37852380D01*
X65414285Y-37852380D01*
X64033333Y-37852380D02*
X64604761Y-37852380D01*
X64319047Y-37852380D02*
X64319047Y-36852380D01*
X64414285Y-36995238D01*
X64509523Y-37090476D01*
X64604761Y-37138095D01*
%TO.C,U7*%
X60761904Y-127052380D02*
X60761904Y-127861904D01*
X60714285Y-127957142D01*
X60666666Y-128004761D01*
X60571428Y-128052380D01*
X60380952Y-128052380D01*
X60285714Y-128004761D01*
X60238095Y-127957142D01*
X60190476Y-127861904D01*
X60190476Y-127052380D01*
X59809523Y-127052380D02*
X59142857Y-127052380D01*
X59571428Y-128052380D01*
%TO.C,U6*%
X84561904Y-75652380D02*
X84561904Y-76461904D01*
X84514285Y-76557142D01*
X84466666Y-76604761D01*
X84371428Y-76652380D01*
X84180952Y-76652380D01*
X84085714Y-76604761D01*
X84038095Y-76557142D01*
X83990476Y-76461904D01*
X83990476Y-75652380D01*
X83085714Y-75652380D02*
X83276190Y-75652380D01*
X83371428Y-75700000D01*
X83419047Y-75747619D01*
X83514285Y-75890476D01*
X83561904Y-76080952D01*
X83561904Y-76461904D01*
X83514285Y-76557142D01*
X83466666Y-76604761D01*
X83371428Y-76652380D01*
X83180952Y-76652380D01*
X83085714Y-76604761D01*
X83038095Y-76557142D01*
X82990476Y-76461904D01*
X82990476Y-76223809D01*
X83038095Y-76128571D01*
X83085714Y-76080952D01*
X83180952Y-76033333D01*
X83371428Y-76033333D01*
X83466666Y-76080952D01*
X83514285Y-76128571D01*
X83561904Y-76223809D01*
%TO.C,U4*%
X69361904Y-45452380D02*
X69361904Y-46261904D01*
X69314285Y-46357142D01*
X69266666Y-46404761D01*
X69171428Y-46452380D01*
X68980952Y-46452380D01*
X68885714Y-46404761D01*
X68838095Y-46357142D01*
X68790476Y-46261904D01*
X68790476Y-45452380D01*
X67885714Y-45785714D02*
X67885714Y-46452380D01*
X68123809Y-45404761D02*
X68361904Y-46119047D01*
X67742857Y-46119047D01*
%TO.C,U2*%
X74702380Y-61388095D02*
X75511904Y-61388095D01*
X75607142Y-61435714D01*
X75654761Y-61483333D01*
X75702380Y-61578571D01*
X75702380Y-61769047D01*
X75654761Y-61864285D01*
X75607142Y-61911904D01*
X75511904Y-61959523D01*
X74702380Y-61959523D01*
X74797619Y-62388095D02*
X74750000Y-62435714D01*
X74702380Y-62530952D01*
X74702380Y-62769047D01*
X74750000Y-62864285D01*
X74797619Y-62911904D01*
X74892857Y-62959523D01*
X74988095Y-62959523D01*
X75130952Y-62911904D01*
X75702380Y-62340476D01*
X75702380Y-62959523D01*
%TO.C,U1*%
X53452380Y-61388095D02*
X54261904Y-61388095D01*
X54357142Y-61435714D01*
X54404761Y-61483333D01*
X54452380Y-61578571D01*
X54452380Y-61769047D01*
X54404761Y-61864285D01*
X54357142Y-61911904D01*
X54261904Y-61959523D01*
X53452380Y-61959523D01*
X54452380Y-62959523D02*
X54452380Y-62388095D01*
X54452380Y-62673809D02*
X53452380Y-62673809D01*
X53595238Y-62578571D01*
X53690476Y-62483333D01*
X53738095Y-62388095D01*
%TO.C,SW2*%
X136804761Y-62466666D02*
X136852380Y-62609523D01*
X136852380Y-62847619D01*
X136804761Y-62942857D01*
X136757142Y-62990476D01*
X136661904Y-63038095D01*
X136566666Y-63038095D01*
X136471428Y-62990476D01*
X136423809Y-62942857D01*
X136376190Y-62847619D01*
X136328571Y-62657142D01*
X136280952Y-62561904D01*
X136233333Y-62514285D01*
X136138095Y-62466666D01*
X136042857Y-62466666D01*
X135947619Y-62514285D01*
X135900000Y-62561904D01*
X135852380Y-62657142D01*
X135852380Y-62895238D01*
X135900000Y-63038095D01*
X135852380Y-63371428D02*
X136852380Y-63609523D01*
X136138095Y-63800000D01*
X136852380Y-63990476D01*
X135852380Y-64228571D01*
X135947619Y-64561904D02*
X135900000Y-64609523D01*
X135852380Y-64704761D01*
X135852380Y-64942857D01*
X135900000Y-65038095D01*
X135947619Y-65085714D01*
X136042857Y-65133333D01*
X136138095Y-65133333D01*
X136280952Y-65085714D01*
X136852380Y-64514285D01*
X136852380Y-65133333D01*
%TO.C,SW1*%
X136804761Y-72466666D02*
X136852380Y-72609523D01*
X136852380Y-72847619D01*
X136804761Y-72942857D01*
X136757142Y-72990476D01*
X136661904Y-73038095D01*
X136566666Y-73038095D01*
X136471428Y-72990476D01*
X136423809Y-72942857D01*
X136376190Y-72847619D01*
X136328571Y-72657142D01*
X136280952Y-72561904D01*
X136233333Y-72514285D01*
X136138095Y-72466666D01*
X136042857Y-72466666D01*
X135947619Y-72514285D01*
X135900000Y-72561904D01*
X135852380Y-72657142D01*
X135852380Y-72895238D01*
X135900000Y-73038095D01*
X135852380Y-73371428D02*
X136852380Y-73609523D01*
X136138095Y-73800000D01*
X136852380Y-73990476D01*
X135852380Y-74228571D01*
X136852380Y-75133333D02*
X136852380Y-74561904D01*
X136852380Y-74847619D02*
X135852380Y-74847619D01*
X135995238Y-74752380D01*
X136090476Y-74657142D01*
X136138095Y-74561904D01*
%TO.C,R34*%
X87092857Y-77252380D02*
X87426190Y-76776190D01*
X87664285Y-77252380D02*
X87664285Y-76252380D01*
X87283333Y-76252380D01*
X87188095Y-76300000D01*
X87140476Y-76347619D01*
X87092857Y-76442857D01*
X87092857Y-76585714D01*
X87140476Y-76680952D01*
X87188095Y-76728571D01*
X87283333Y-76776190D01*
X87664285Y-76776190D01*
X86759523Y-76252380D02*
X86140476Y-76252380D01*
X86473809Y-76633333D01*
X86330952Y-76633333D01*
X86235714Y-76680952D01*
X86188095Y-76728571D01*
X86140476Y-76823809D01*
X86140476Y-77061904D01*
X86188095Y-77157142D01*
X86235714Y-77204761D01*
X86330952Y-77252380D01*
X86616666Y-77252380D01*
X86711904Y-77204761D01*
X86759523Y-77157142D01*
X85283333Y-76585714D02*
X85283333Y-77252380D01*
X85521428Y-76204761D02*
X85759523Y-76919047D01*
X85140476Y-76919047D01*
%TO.C,R33*%
X55232380Y-49757142D02*
X54756190Y-49423809D01*
X55232380Y-49185714D02*
X54232380Y-49185714D01*
X54232380Y-49566666D01*
X54280000Y-49661904D01*
X54327619Y-49709523D01*
X54422857Y-49757142D01*
X54565714Y-49757142D01*
X54660952Y-49709523D01*
X54708571Y-49661904D01*
X54756190Y-49566666D01*
X54756190Y-49185714D01*
X54232380Y-50090476D02*
X54232380Y-50709523D01*
X54613333Y-50376190D01*
X54613333Y-50519047D01*
X54660952Y-50614285D01*
X54708571Y-50661904D01*
X54803809Y-50709523D01*
X55041904Y-50709523D01*
X55137142Y-50661904D01*
X55184761Y-50614285D01*
X55232380Y-50519047D01*
X55232380Y-50233333D01*
X55184761Y-50138095D01*
X55137142Y-50090476D01*
X54232380Y-51042857D02*
X54232380Y-51661904D01*
X54613333Y-51328571D01*
X54613333Y-51471428D01*
X54660952Y-51566666D01*
X54708571Y-51614285D01*
X54803809Y-51661904D01*
X55041904Y-51661904D01*
X55137142Y-51614285D01*
X55184761Y-51566666D01*
X55232380Y-51471428D01*
X55232380Y-51185714D01*
X55184761Y-51090476D01*
X55137142Y-51042857D01*
%TO.C,R32*%
X80052380Y-52357142D02*
X79576190Y-52023809D01*
X80052380Y-51785714D02*
X79052380Y-51785714D01*
X79052380Y-52166666D01*
X79100000Y-52261904D01*
X79147619Y-52309523D01*
X79242857Y-52357142D01*
X79385714Y-52357142D01*
X79480952Y-52309523D01*
X79528571Y-52261904D01*
X79576190Y-52166666D01*
X79576190Y-51785714D01*
X79052380Y-52690476D02*
X79052380Y-53309523D01*
X79433333Y-52976190D01*
X79433333Y-53119047D01*
X79480952Y-53214285D01*
X79528571Y-53261904D01*
X79623809Y-53309523D01*
X79861904Y-53309523D01*
X79957142Y-53261904D01*
X80004761Y-53214285D01*
X80052380Y-53119047D01*
X80052380Y-52833333D01*
X80004761Y-52738095D01*
X79957142Y-52690476D01*
X79147619Y-53690476D02*
X79100000Y-53738095D01*
X79052380Y-53833333D01*
X79052380Y-54071428D01*
X79100000Y-54166666D01*
X79147619Y-54214285D01*
X79242857Y-54261904D01*
X79338095Y-54261904D01*
X79480952Y-54214285D01*
X80052380Y-53642857D01*
X80052380Y-54261904D01*
%TO.C,R31*%
X66442857Y-126052380D02*
X66776190Y-125576190D01*
X67014285Y-126052380D02*
X67014285Y-125052380D01*
X66633333Y-125052380D01*
X66538095Y-125100000D01*
X66490476Y-125147619D01*
X66442857Y-125242857D01*
X66442857Y-125385714D01*
X66490476Y-125480952D01*
X66538095Y-125528571D01*
X66633333Y-125576190D01*
X67014285Y-125576190D01*
X66109523Y-125052380D02*
X65490476Y-125052380D01*
X65823809Y-125433333D01*
X65680952Y-125433333D01*
X65585714Y-125480952D01*
X65538095Y-125528571D01*
X65490476Y-125623809D01*
X65490476Y-125861904D01*
X65538095Y-125957142D01*
X65585714Y-126004761D01*
X65680952Y-126052380D01*
X65966666Y-126052380D01*
X66061904Y-126004761D01*
X66109523Y-125957142D01*
X64538095Y-126052380D02*
X65109523Y-126052380D01*
X64823809Y-126052380D02*
X64823809Y-125052380D01*
X64919047Y-125195238D01*
X65014285Y-125290476D01*
X65109523Y-125338095D01*
%TO.C,R30*%
X62452380Y-125557142D02*
X61976190Y-125223809D01*
X62452380Y-124985714D02*
X61452380Y-124985714D01*
X61452380Y-125366666D01*
X61500000Y-125461904D01*
X61547619Y-125509523D01*
X61642857Y-125557142D01*
X61785714Y-125557142D01*
X61880952Y-125509523D01*
X61928571Y-125461904D01*
X61976190Y-125366666D01*
X61976190Y-124985714D01*
X61452380Y-125890476D02*
X61452380Y-126509523D01*
X61833333Y-126176190D01*
X61833333Y-126319047D01*
X61880952Y-126414285D01*
X61928571Y-126461904D01*
X62023809Y-126509523D01*
X62261904Y-126509523D01*
X62357142Y-126461904D01*
X62404761Y-126414285D01*
X62452380Y-126319047D01*
X62452380Y-126033333D01*
X62404761Y-125938095D01*
X62357142Y-125890476D01*
X61452380Y-127128571D02*
X61452380Y-127223809D01*
X61500000Y-127319047D01*
X61547619Y-127366666D01*
X61642857Y-127414285D01*
X61833333Y-127461904D01*
X62071428Y-127461904D01*
X62261904Y-127414285D01*
X62357142Y-127366666D01*
X62404761Y-127319047D01*
X62452380Y-127223809D01*
X62452380Y-127128571D01*
X62404761Y-127033333D01*
X62357142Y-126985714D01*
X62261904Y-126938095D01*
X62071428Y-126890476D01*
X61833333Y-126890476D01*
X61642857Y-126938095D01*
X61547619Y-126985714D01*
X61500000Y-127033333D01*
X61452380Y-127128571D01*
%TO.C,R29*%
X62442857Y-103652380D02*
X62776190Y-103176190D01*
X63014285Y-103652380D02*
X63014285Y-102652380D01*
X62633333Y-102652380D01*
X62538095Y-102700000D01*
X62490476Y-102747619D01*
X62442857Y-102842857D01*
X62442857Y-102985714D01*
X62490476Y-103080952D01*
X62538095Y-103128571D01*
X62633333Y-103176190D01*
X63014285Y-103176190D01*
X62061904Y-102747619D02*
X62014285Y-102700000D01*
X61919047Y-102652380D01*
X61680952Y-102652380D01*
X61585714Y-102700000D01*
X61538095Y-102747619D01*
X61490476Y-102842857D01*
X61490476Y-102938095D01*
X61538095Y-103080952D01*
X62109523Y-103652380D01*
X61490476Y-103652380D01*
X61014285Y-103652380D02*
X60823809Y-103652380D01*
X60728571Y-103604761D01*
X60680952Y-103557142D01*
X60585714Y-103414285D01*
X60538095Y-103223809D01*
X60538095Y-102842857D01*
X60585714Y-102747619D01*
X60633333Y-102700000D01*
X60728571Y-102652380D01*
X60919047Y-102652380D01*
X61014285Y-102700000D01*
X61061904Y-102747619D01*
X61109523Y-102842857D01*
X61109523Y-103080952D01*
X61061904Y-103176190D01*
X61014285Y-103223809D01*
X60919047Y-103271428D01*
X60728571Y-103271428D01*
X60633333Y-103223809D01*
X60585714Y-103176190D01*
X60538095Y-103080952D01*
%TO.C,R28*%
X65005357Y-107202380D02*
X65338690Y-106726190D01*
X65576785Y-107202380D02*
X65576785Y-106202380D01*
X65195833Y-106202380D01*
X65100595Y-106250000D01*
X65052976Y-106297619D01*
X65005357Y-106392857D01*
X65005357Y-106535714D01*
X65052976Y-106630952D01*
X65100595Y-106678571D01*
X65195833Y-106726190D01*
X65576785Y-106726190D01*
X64624404Y-106297619D02*
X64576785Y-106250000D01*
X64481547Y-106202380D01*
X64243452Y-106202380D01*
X64148214Y-106250000D01*
X64100595Y-106297619D01*
X64052976Y-106392857D01*
X64052976Y-106488095D01*
X64100595Y-106630952D01*
X64672023Y-107202380D01*
X64052976Y-107202380D01*
X63481547Y-106630952D02*
X63576785Y-106583333D01*
X63624404Y-106535714D01*
X63672023Y-106440476D01*
X63672023Y-106392857D01*
X63624404Y-106297619D01*
X63576785Y-106250000D01*
X63481547Y-106202380D01*
X63291071Y-106202380D01*
X63195833Y-106250000D01*
X63148214Y-106297619D01*
X63100595Y-106392857D01*
X63100595Y-106440476D01*
X63148214Y-106535714D01*
X63195833Y-106583333D01*
X63291071Y-106630952D01*
X63481547Y-106630952D01*
X63576785Y-106678571D01*
X63624404Y-106726190D01*
X63672023Y-106821428D01*
X63672023Y-107011904D01*
X63624404Y-107107142D01*
X63576785Y-107154761D01*
X63481547Y-107202380D01*
X63291071Y-107202380D01*
X63195833Y-107154761D01*
X63148214Y-107107142D01*
X63100595Y-107011904D01*
X63100595Y-106821428D01*
X63148214Y-106726190D01*
X63195833Y-106678571D01*
X63291071Y-106630952D01*
%TO.C,R27*%
X65842857Y-82052380D02*
X66176190Y-81576190D01*
X66414285Y-82052380D02*
X66414285Y-81052380D01*
X66033333Y-81052380D01*
X65938095Y-81100000D01*
X65890476Y-81147619D01*
X65842857Y-81242857D01*
X65842857Y-81385714D01*
X65890476Y-81480952D01*
X65938095Y-81528571D01*
X66033333Y-81576190D01*
X66414285Y-81576190D01*
X65461904Y-81147619D02*
X65414285Y-81100000D01*
X65319047Y-81052380D01*
X65080952Y-81052380D01*
X64985714Y-81100000D01*
X64938095Y-81147619D01*
X64890476Y-81242857D01*
X64890476Y-81338095D01*
X64938095Y-81480952D01*
X65509523Y-82052380D01*
X64890476Y-82052380D01*
X64557142Y-81052380D02*
X63890476Y-81052380D01*
X64319047Y-82052380D01*
%TO.C,R26*%
X89882380Y-48557142D02*
X89406190Y-48223809D01*
X89882380Y-47985714D02*
X88882380Y-47985714D01*
X88882380Y-48366666D01*
X88930000Y-48461904D01*
X88977619Y-48509523D01*
X89072857Y-48557142D01*
X89215714Y-48557142D01*
X89310952Y-48509523D01*
X89358571Y-48461904D01*
X89406190Y-48366666D01*
X89406190Y-47985714D01*
X88977619Y-48938095D02*
X88930000Y-48985714D01*
X88882380Y-49080952D01*
X88882380Y-49319047D01*
X88930000Y-49414285D01*
X88977619Y-49461904D01*
X89072857Y-49509523D01*
X89168095Y-49509523D01*
X89310952Y-49461904D01*
X89882380Y-48890476D01*
X89882380Y-49509523D01*
X88882380Y-50366666D02*
X88882380Y-50176190D01*
X88930000Y-50080952D01*
X88977619Y-50033333D01*
X89120476Y-49938095D01*
X89310952Y-49890476D01*
X89691904Y-49890476D01*
X89787142Y-49938095D01*
X89834761Y-49985714D01*
X89882380Y-50080952D01*
X89882380Y-50271428D01*
X89834761Y-50366666D01*
X89787142Y-50414285D01*
X89691904Y-50461904D01*
X89453809Y-50461904D01*
X89358571Y-50414285D01*
X89310952Y-50366666D01*
X89263333Y-50271428D01*
X89263333Y-50080952D01*
X89310952Y-49985714D01*
X89358571Y-49938095D01*
X89453809Y-49890476D01*
%TO.C,R21*%
X112642857Y-57452380D02*
X112976190Y-56976190D01*
X113214285Y-57452380D02*
X113214285Y-56452380D01*
X112833333Y-56452380D01*
X112738095Y-56500000D01*
X112690476Y-56547619D01*
X112642857Y-56642857D01*
X112642857Y-56785714D01*
X112690476Y-56880952D01*
X112738095Y-56928571D01*
X112833333Y-56976190D01*
X113214285Y-56976190D01*
X112261904Y-56547619D02*
X112214285Y-56500000D01*
X112119047Y-56452380D01*
X111880952Y-56452380D01*
X111785714Y-56500000D01*
X111738095Y-56547619D01*
X111690476Y-56642857D01*
X111690476Y-56738095D01*
X111738095Y-56880952D01*
X112309523Y-57452380D01*
X111690476Y-57452380D01*
X110738095Y-57452380D02*
X111309523Y-57452380D01*
X111023809Y-57452380D02*
X111023809Y-56452380D01*
X111119047Y-56595238D01*
X111214285Y-56690476D01*
X111309523Y-56738095D01*
%TO.C,R20*%
X112842857Y-51852380D02*
X113176190Y-51376190D01*
X113414285Y-51852380D02*
X113414285Y-50852380D01*
X113033333Y-50852380D01*
X112938095Y-50900000D01*
X112890476Y-50947619D01*
X112842857Y-51042857D01*
X112842857Y-51185714D01*
X112890476Y-51280952D01*
X112938095Y-51328571D01*
X113033333Y-51376190D01*
X113414285Y-51376190D01*
X112461904Y-50947619D02*
X112414285Y-50900000D01*
X112319047Y-50852380D01*
X112080952Y-50852380D01*
X111985714Y-50900000D01*
X111938095Y-50947619D01*
X111890476Y-51042857D01*
X111890476Y-51138095D01*
X111938095Y-51280952D01*
X112509523Y-51852380D01*
X111890476Y-51852380D01*
X111271428Y-50852380D02*
X111176190Y-50852380D01*
X111080952Y-50900000D01*
X111033333Y-50947619D01*
X110985714Y-51042857D01*
X110938095Y-51233333D01*
X110938095Y-51471428D01*
X110985714Y-51661904D01*
X111033333Y-51757142D01*
X111080952Y-51804761D01*
X111176190Y-51852380D01*
X111271428Y-51852380D01*
X111366666Y-51804761D01*
X111414285Y-51757142D01*
X111461904Y-51661904D01*
X111509523Y-51471428D01*
X111509523Y-51233333D01*
X111461904Y-51042857D01*
X111414285Y-50947619D01*
X111366666Y-50900000D01*
X111271428Y-50852380D01*
%TO.C,R19*%
X112842857Y-50452380D02*
X113176190Y-49976190D01*
X113414285Y-50452380D02*
X113414285Y-49452380D01*
X113033333Y-49452380D01*
X112938095Y-49500000D01*
X112890476Y-49547619D01*
X112842857Y-49642857D01*
X112842857Y-49785714D01*
X112890476Y-49880952D01*
X112938095Y-49928571D01*
X113033333Y-49976190D01*
X113414285Y-49976190D01*
X111890476Y-50452380D02*
X112461904Y-50452380D01*
X112176190Y-50452380D02*
X112176190Y-49452380D01*
X112271428Y-49595238D01*
X112366666Y-49690476D01*
X112461904Y-49738095D01*
X111414285Y-50452380D02*
X111223809Y-50452380D01*
X111128571Y-50404761D01*
X111080952Y-50357142D01*
X110985714Y-50214285D01*
X110938095Y-50023809D01*
X110938095Y-49642857D01*
X110985714Y-49547619D01*
X111033333Y-49500000D01*
X111128571Y-49452380D01*
X111319047Y-49452380D01*
X111414285Y-49500000D01*
X111461904Y-49547619D01*
X111509523Y-49642857D01*
X111509523Y-49880952D01*
X111461904Y-49976190D01*
X111414285Y-50023809D01*
X111319047Y-50071428D01*
X111128571Y-50071428D01*
X111033333Y-50023809D01*
X110985714Y-49976190D01*
X110938095Y-49880952D01*
%TO.C,R18*%
X72652380Y-37757142D02*
X72176190Y-37423809D01*
X72652380Y-37185714D02*
X71652380Y-37185714D01*
X71652380Y-37566666D01*
X71700000Y-37661904D01*
X71747619Y-37709523D01*
X71842857Y-37757142D01*
X71985714Y-37757142D01*
X72080952Y-37709523D01*
X72128571Y-37661904D01*
X72176190Y-37566666D01*
X72176190Y-37185714D01*
X72652380Y-38709523D02*
X72652380Y-38138095D01*
X72652380Y-38423809D02*
X71652380Y-38423809D01*
X71795238Y-38328571D01*
X71890476Y-38233333D01*
X71938095Y-38138095D01*
X72080952Y-39280952D02*
X72033333Y-39185714D01*
X71985714Y-39138095D01*
X71890476Y-39090476D01*
X71842857Y-39090476D01*
X71747619Y-39138095D01*
X71700000Y-39185714D01*
X71652380Y-39280952D01*
X71652380Y-39471428D01*
X71700000Y-39566666D01*
X71747619Y-39614285D01*
X71842857Y-39661904D01*
X71890476Y-39661904D01*
X71985714Y-39614285D01*
X72033333Y-39566666D01*
X72080952Y-39471428D01*
X72080952Y-39280952D01*
X72128571Y-39185714D01*
X72176190Y-39138095D01*
X72271428Y-39090476D01*
X72461904Y-39090476D01*
X72557142Y-39138095D01*
X72604761Y-39185714D01*
X72652380Y-39280952D01*
X72652380Y-39471428D01*
X72604761Y-39566666D01*
X72557142Y-39614285D01*
X72461904Y-39661904D01*
X72271428Y-39661904D01*
X72176190Y-39614285D01*
X72128571Y-39566666D01*
X72080952Y-39471428D01*
%TO.C,R16*%
X112842857Y-60652380D02*
X113176190Y-60176190D01*
X113414285Y-60652380D02*
X113414285Y-59652380D01*
X113033333Y-59652380D01*
X112938095Y-59700000D01*
X112890476Y-59747619D01*
X112842857Y-59842857D01*
X112842857Y-59985714D01*
X112890476Y-60080952D01*
X112938095Y-60128571D01*
X113033333Y-60176190D01*
X113414285Y-60176190D01*
X111890476Y-60652380D02*
X112461904Y-60652380D01*
X112176190Y-60652380D02*
X112176190Y-59652380D01*
X112271428Y-59795238D01*
X112366666Y-59890476D01*
X112461904Y-59938095D01*
X111033333Y-59652380D02*
X111223809Y-59652380D01*
X111319047Y-59700000D01*
X111366666Y-59747619D01*
X111461904Y-59890476D01*
X111509523Y-60080952D01*
X111509523Y-60461904D01*
X111461904Y-60557142D01*
X111414285Y-60604761D01*
X111319047Y-60652380D01*
X111128571Y-60652380D01*
X111033333Y-60604761D01*
X110985714Y-60557142D01*
X110938095Y-60461904D01*
X110938095Y-60223809D01*
X110985714Y-60128571D01*
X111033333Y-60080952D01*
X111128571Y-60033333D01*
X111319047Y-60033333D01*
X111414285Y-60080952D01*
X111461904Y-60128571D01*
X111509523Y-60223809D01*
%TO.C,R15*%
X136852380Y-56957142D02*
X136376190Y-56623809D01*
X136852380Y-56385714D02*
X135852380Y-56385714D01*
X135852380Y-56766666D01*
X135900000Y-56861904D01*
X135947619Y-56909523D01*
X136042857Y-56957142D01*
X136185714Y-56957142D01*
X136280952Y-56909523D01*
X136328571Y-56861904D01*
X136376190Y-56766666D01*
X136376190Y-56385714D01*
X136852380Y-57909523D02*
X136852380Y-57338095D01*
X136852380Y-57623809D02*
X135852380Y-57623809D01*
X135995238Y-57528571D01*
X136090476Y-57433333D01*
X136138095Y-57338095D01*
X135852380Y-58814285D02*
X135852380Y-58338095D01*
X136328571Y-58290476D01*
X136280952Y-58338095D01*
X136233333Y-58433333D01*
X136233333Y-58671428D01*
X136280952Y-58766666D01*
X136328571Y-58814285D01*
X136423809Y-58861904D01*
X136661904Y-58861904D01*
X136757142Y-58814285D01*
X136804761Y-58766666D01*
X136852380Y-58671428D01*
X136852380Y-58433333D01*
X136804761Y-58338095D01*
X136757142Y-58290476D01*
%TO.C,R14*%
X139652380Y-55157142D02*
X139176190Y-54823809D01*
X139652380Y-54585714D02*
X138652380Y-54585714D01*
X138652380Y-54966666D01*
X138700000Y-55061904D01*
X138747619Y-55109523D01*
X138842857Y-55157142D01*
X138985714Y-55157142D01*
X139080952Y-55109523D01*
X139128571Y-55061904D01*
X139176190Y-54966666D01*
X139176190Y-54585714D01*
X139652380Y-56109523D02*
X139652380Y-55538095D01*
X139652380Y-55823809D02*
X138652380Y-55823809D01*
X138795238Y-55728571D01*
X138890476Y-55633333D01*
X138938095Y-55538095D01*
X138985714Y-56966666D02*
X139652380Y-56966666D01*
X138604761Y-56728571D02*
X139319047Y-56490476D01*
X139319047Y-57109523D01*
%TO.C,R13*%
X77852380Y-69757142D02*
X77376190Y-69423809D01*
X77852380Y-69185714D02*
X76852380Y-69185714D01*
X76852380Y-69566666D01*
X76900000Y-69661904D01*
X76947619Y-69709523D01*
X77042857Y-69757142D01*
X77185714Y-69757142D01*
X77280952Y-69709523D01*
X77328571Y-69661904D01*
X77376190Y-69566666D01*
X77376190Y-69185714D01*
X77852380Y-70709523D02*
X77852380Y-70138095D01*
X77852380Y-70423809D02*
X76852380Y-70423809D01*
X76995238Y-70328571D01*
X77090476Y-70233333D01*
X77138095Y-70138095D01*
X76852380Y-71042857D02*
X76852380Y-71661904D01*
X77233333Y-71328571D01*
X77233333Y-71471428D01*
X77280952Y-71566666D01*
X77328571Y-71614285D01*
X77423809Y-71661904D01*
X77661904Y-71661904D01*
X77757142Y-71614285D01*
X77804761Y-71566666D01*
X77852380Y-71471428D01*
X77852380Y-71185714D01*
X77804761Y-71090476D01*
X77757142Y-71042857D01*
%TO.C,R12*%
X75702380Y-69657142D02*
X75226190Y-69323809D01*
X75702380Y-69085714D02*
X74702380Y-69085714D01*
X74702380Y-69466666D01*
X74750000Y-69561904D01*
X74797619Y-69609523D01*
X74892857Y-69657142D01*
X75035714Y-69657142D01*
X75130952Y-69609523D01*
X75178571Y-69561904D01*
X75226190Y-69466666D01*
X75226190Y-69085714D01*
X75702380Y-70609523D02*
X75702380Y-70038095D01*
X75702380Y-70323809D02*
X74702380Y-70323809D01*
X74845238Y-70228571D01*
X74940476Y-70133333D01*
X74988095Y-70038095D01*
X74797619Y-70990476D02*
X74750000Y-71038095D01*
X74702380Y-71133333D01*
X74702380Y-71371428D01*
X74750000Y-71466666D01*
X74797619Y-71514285D01*
X74892857Y-71561904D01*
X74988095Y-71561904D01*
X75130952Y-71514285D01*
X75702380Y-70942857D01*
X75702380Y-71561904D01*
%TO.C,R11*%
X57052380Y-67357142D02*
X56576190Y-67023809D01*
X57052380Y-66785714D02*
X56052380Y-66785714D01*
X56052380Y-67166666D01*
X56100000Y-67261904D01*
X56147619Y-67309523D01*
X56242857Y-67357142D01*
X56385714Y-67357142D01*
X56480952Y-67309523D01*
X56528571Y-67261904D01*
X56576190Y-67166666D01*
X56576190Y-66785714D01*
X57052380Y-68309523D02*
X57052380Y-67738095D01*
X57052380Y-68023809D02*
X56052380Y-68023809D01*
X56195238Y-67928571D01*
X56290476Y-67833333D01*
X56338095Y-67738095D01*
X57052380Y-69261904D02*
X57052380Y-68690476D01*
X57052380Y-68976190D02*
X56052380Y-68976190D01*
X56195238Y-68880952D01*
X56290476Y-68785714D01*
X56338095Y-68690476D01*
%TO.C,R10*%
X54202380Y-69832142D02*
X53726190Y-69498809D01*
X54202380Y-69260714D02*
X53202380Y-69260714D01*
X53202380Y-69641666D01*
X53250000Y-69736904D01*
X53297619Y-69784523D01*
X53392857Y-69832142D01*
X53535714Y-69832142D01*
X53630952Y-69784523D01*
X53678571Y-69736904D01*
X53726190Y-69641666D01*
X53726190Y-69260714D01*
X54202380Y-70784523D02*
X54202380Y-70213095D01*
X54202380Y-70498809D02*
X53202380Y-70498809D01*
X53345238Y-70403571D01*
X53440476Y-70308333D01*
X53488095Y-70213095D01*
X53202380Y-71403571D02*
X53202380Y-71498809D01*
X53250000Y-71594047D01*
X53297619Y-71641666D01*
X53392857Y-71689285D01*
X53583333Y-71736904D01*
X53821428Y-71736904D01*
X54011904Y-71689285D01*
X54107142Y-71641666D01*
X54154761Y-71594047D01*
X54202380Y-71498809D01*
X54202380Y-71403571D01*
X54154761Y-71308333D01*
X54107142Y-71260714D01*
X54011904Y-71213095D01*
X53821428Y-71165476D01*
X53583333Y-71165476D01*
X53392857Y-71213095D01*
X53297619Y-71260714D01*
X53250000Y-71308333D01*
X53202380Y-71403571D01*
%TO.C,R9*%
X138252380Y-50233333D02*
X137776190Y-49900000D01*
X138252380Y-49661904D02*
X137252380Y-49661904D01*
X137252380Y-50042857D01*
X137300000Y-50138095D01*
X137347619Y-50185714D01*
X137442857Y-50233333D01*
X137585714Y-50233333D01*
X137680952Y-50185714D01*
X137728571Y-50138095D01*
X137776190Y-50042857D01*
X137776190Y-49661904D01*
X138252380Y-50709523D02*
X138252380Y-50900000D01*
X138204761Y-50995238D01*
X138157142Y-51042857D01*
X138014285Y-51138095D01*
X137823809Y-51185714D01*
X137442857Y-51185714D01*
X137347619Y-51138095D01*
X137300000Y-51090476D01*
X137252380Y-50995238D01*
X137252380Y-50804761D01*
X137300000Y-50709523D01*
X137347619Y-50661904D01*
X137442857Y-50614285D01*
X137680952Y-50614285D01*
X137776190Y-50661904D01*
X137823809Y-50709523D01*
X137871428Y-50804761D01*
X137871428Y-50995238D01*
X137823809Y-51090476D01*
X137776190Y-51138095D01*
X137680952Y-51185714D01*
%TO.C,R8*%
X139652380Y-50233333D02*
X139176190Y-49900000D01*
X139652380Y-49661904D02*
X138652380Y-49661904D01*
X138652380Y-50042857D01*
X138700000Y-50138095D01*
X138747619Y-50185714D01*
X138842857Y-50233333D01*
X138985714Y-50233333D01*
X139080952Y-50185714D01*
X139128571Y-50138095D01*
X139176190Y-50042857D01*
X139176190Y-49661904D01*
X139080952Y-50804761D02*
X139033333Y-50709523D01*
X138985714Y-50661904D01*
X138890476Y-50614285D01*
X138842857Y-50614285D01*
X138747619Y-50661904D01*
X138700000Y-50709523D01*
X138652380Y-50804761D01*
X138652380Y-50995238D01*
X138700000Y-51090476D01*
X138747619Y-51138095D01*
X138842857Y-51185714D01*
X138890476Y-51185714D01*
X138985714Y-51138095D01*
X139033333Y-51090476D01*
X139080952Y-50995238D01*
X139080952Y-50804761D01*
X139128571Y-50709523D01*
X139176190Y-50661904D01*
X139271428Y-50614285D01*
X139461904Y-50614285D01*
X139557142Y-50661904D01*
X139604761Y-50709523D01*
X139652380Y-50804761D01*
X139652380Y-50995238D01*
X139604761Y-51090476D01*
X139557142Y-51138095D01*
X139461904Y-51185714D01*
X139271428Y-51185714D01*
X139176190Y-51138095D01*
X139128571Y-51090476D01*
X139080952Y-50995238D01*
%TO.C,R7*%
X134252380Y-48633333D02*
X133776190Y-48300000D01*
X134252380Y-48061904D02*
X133252380Y-48061904D01*
X133252380Y-48442857D01*
X133300000Y-48538095D01*
X133347619Y-48585714D01*
X133442857Y-48633333D01*
X133585714Y-48633333D01*
X133680952Y-48585714D01*
X133728571Y-48538095D01*
X133776190Y-48442857D01*
X133776190Y-48061904D01*
X133252380Y-48966666D02*
X133252380Y-49633333D01*
X134252380Y-49204761D01*
%TO.C,R6*%
X134252380Y-46633333D02*
X133776190Y-46300000D01*
X134252380Y-46061904D02*
X133252380Y-46061904D01*
X133252380Y-46442857D01*
X133300000Y-46538095D01*
X133347619Y-46585714D01*
X133442857Y-46633333D01*
X133585714Y-46633333D01*
X133680952Y-46585714D01*
X133728571Y-46538095D01*
X133776190Y-46442857D01*
X133776190Y-46061904D01*
X133252380Y-47490476D02*
X133252380Y-47300000D01*
X133300000Y-47204761D01*
X133347619Y-47157142D01*
X133490476Y-47061904D01*
X133680952Y-47014285D01*
X134061904Y-47014285D01*
X134157142Y-47061904D01*
X134204761Y-47109523D01*
X134252380Y-47204761D01*
X134252380Y-47395238D01*
X134204761Y-47490476D01*
X134157142Y-47538095D01*
X134061904Y-47585714D01*
X133823809Y-47585714D01*
X133728571Y-47538095D01*
X133680952Y-47490476D01*
X133633333Y-47395238D01*
X133633333Y-47204761D01*
X133680952Y-47109523D01*
X133728571Y-47061904D01*
X133823809Y-47014285D01*
%TO.C,R5*%
X63222380Y-39908333D02*
X62746190Y-39575000D01*
X63222380Y-39336904D02*
X62222380Y-39336904D01*
X62222380Y-39717857D01*
X62270000Y-39813095D01*
X62317619Y-39860714D01*
X62412857Y-39908333D01*
X62555714Y-39908333D01*
X62650952Y-39860714D01*
X62698571Y-39813095D01*
X62746190Y-39717857D01*
X62746190Y-39336904D01*
X62222380Y-40813095D02*
X62222380Y-40336904D01*
X62698571Y-40289285D01*
X62650952Y-40336904D01*
X62603333Y-40432142D01*
X62603333Y-40670238D01*
X62650952Y-40765476D01*
X62698571Y-40813095D01*
X62793809Y-40860714D01*
X63031904Y-40860714D01*
X63127142Y-40813095D01*
X63174761Y-40765476D01*
X63222380Y-40670238D01*
X63222380Y-40432142D01*
X63174761Y-40336904D01*
X63127142Y-40289285D01*
%TO.C,R4*%
X67452380Y-39833333D02*
X66976190Y-39500000D01*
X67452380Y-39261904D02*
X66452380Y-39261904D01*
X66452380Y-39642857D01*
X66500000Y-39738095D01*
X66547619Y-39785714D01*
X66642857Y-39833333D01*
X66785714Y-39833333D01*
X66880952Y-39785714D01*
X66928571Y-39738095D01*
X66976190Y-39642857D01*
X66976190Y-39261904D01*
X66785714Y-40690476D02*
X67452380Y-40690476D01*
X66404761Y-40452380D02*
X67119047Y-40214285D01*
X67119047Y-40833333D01*
%TO.C,R3*%
X76952380Y-61983333D02*
X76476190Y-61650000D01*
X76952380Y-61411904D02*
X75952380Y-61411904D01*
X75952380Y-61792857D01*
X76000000Y-61888095D01*
X76047619Y-61935714D01*
X76142857Y-61983333D01*
X76285714Y-61983333D01*
X76380952Y-61935714D01*
X76428571Y-61888095D01*
X76476190Y-61792857D01*
X76476190Y-61411904D01*
X75952380Y-62316666D02*
X75952380Y-62935714D01*
X76333333Y-62602380D01*
X76333333Y-62745238D01*
X76380952Y-62840476D01*
X76428571Y-62888095D01*
X76523809Y-62935714D01*
X76761904Y-62935714D01*
X76857142Y-62888095D01*
X76904761Y-62840476D01*
X76952380Y-62745238D01*
X76952380Y-62459523D01*
X76904761Y-62364285D01*
X76857142Y-62316666D01*
%TO.C,R2*%
X55702380Y-61983333D02*
X55226190Y-61650000D01*
X55702380Y-61411904D02*
X54702380Y-61411904D01*
X54702380Y-61792857D01*
X54750000Y-61888095D01*
X54797619Y-61935714D01*
X54892857Y-61983333D01*
X55035714Y-61983333D01*
X55130952Y-61935714D01*
X55178571Y-61888095D01*
X55226190Y-61792857D01*
X55226190Y-61411904D01*
X54797619Y-62364285D02*
X54750000Y-62411904D01*
X54702380Y-62507142D01*
X54702380Y-62745238D01*
X54750000Y-62840476D01*
X54797619Y-62888095D01*
X54892857Y-62935714D01*
X54988095Y-62935714D01*
X55130952Y-62888095D01*
X55702380Y-62316666D01*
X55702380Y-62935714D01*
%TO.C,R1*%
X139852380Y-42033333D02*
X139376190Y-41700000D01*
X139852380Y-41461904D02*
X138852380Y-41461904D01*
X138852380Y-41842857D01*
X138900000Y-41938095D01*
X138947619Y-41985714D01*
X139042857Y-42033333D01*
X139185714Y-42033333D01*
X139280952Y-41985714D01*
X139328571Y-41938095D01*
X139376190Y-41842857D01*
X139376190Y-41461904D01*
X139852380Y-42985714D02*
X139852380Y-42414285D01*
X139852380Y-42700000D02*
X138852380Y-42700000D01*
X138995238Y-42604761D01*
X139090476Y-42509523D01*
X139138095Y-42414285D01*
%TO.C,Q6*%
X50445238Y-48497619D02*
X50540476Y-48450000D01*
X50635714Y-48354761D01*
X50778571Y-48211904D01*
X50873809Y-48164285D01*
X50969047Y-48164285D01*
X50921428Y-48402380D02*
X51016666Y-48354761D01*
X51111904Y-48259523D01*
X51159523Y-48069047D01*
X51159523Y-47735714D01*
X51111904Y-47545238D01*
X51016666Y-47450000D01*
X50921428Y-47402380D01*
X50730952Y-47402380D01*
X50635714Y-47450000D01*
X50540476Y-47545238D01*
X50492857Y-47735714D01*
X50492857Y-48069047D01*
X50540476Y-48259523D01*
X50635714Y-48354761D01*
X50730952Y-48402380D01*
X50921428Y-48402380D01*
X49635714Y-47402380D02*
X49826190Y-47402380D01*
X49921428Y-47450000D01*
X49969047Y-47497619D01*
X50064285Y-47640476D01*
X50111904Y-47830952D01*
X50111904Y-48211904D01*
X50064285Y-48307142D01*
X50016666Y-48354761D01*
X49921428Y-48402380D01*
X49730952Y-48402380D01*
X49635714Y-48354761D01*
X49588095Y-48307142D01*
X49540476Y-48211904D01*
X49540476Y-47973809D01*
X49588095Y-47878571D01*
X49635714Y-47830952D01*
X49730952Y-47783333D01*
X49921428Y-47783333D01*
X50016666Y-47830952D01*
X50064285Y-47878571D01*
X50111904Y-47973809D01*
%TO.C,Q3*%
X81547619Y-47704761D02*
X81500000Y-47609523D01*
X81404761Y-47514285D01*
X81261904Y-47371428D01*
X81214285Y-47276190D01*
X81214285Y-47180952D01*
X81452380Y-47228571D02*
X81404761Y-47133333D01*
X81309523Y-47038095D01*
X81119047Y-46990476D01*
X80785714Y-46990476D01*
X80595238Y-47038095D01*
X80500000Y-47133333D01*
X80452380Y-47228571D01*
X80452380Y-47419047D01*
X80500000Y-47514285D01*
X80595238Y-47609523D01*
X80785714Y-47657142D01*
X81119047Y-47657142D01*
X81309523Y-47609523D01*
X81404761Y-47514285D01*
X81452380Y-47419047D01*
X81452380Y-47228571D01*
X80452380Y-47990476D02*
X80452380Y-48609523D01*
X80833333Y-48276190D01*
X80833333Y-48419047D01*
X80880952Y-48514285D01*
X80928571Y-48561904D01*
X81023809Y-48609523D01*
X81261904Y-48609523D01*
X81357142Y-48561904D01*
X81404761Y-48514285D01*
X81452380Y-48419047D01*
X81452380Y-48133333D01*
X81404761Y-48038095D01*
X81357142Y-47990476D01*
%TO.C,Q2*%
X61495238Y-98947619D02*
X61590476Y-98900000D01*
X61685714Y-98804761D01*
X61828571Y-98661904D01*
X61923809Y-98614285D01*
X62019047Y-98614285D01*
X61971428Y-98852380D02*
X62066666Y-98804761D01*
X62161904Y-98709523D01*
X62209523Y-98519047D01*
X62209523Y-98185714D01*
X62161904Y-97995238D01*
X62066666Y-97900000D01*
X61971428Y-97852380D01*
X61780952Y-97852380D01*
X61685714Y-97900000D01*
X61590476Y-97995238D01*
X61542857Y-98185714D01*
X61542857Y-98519047D01*
X61590476Y-98709523D01*
X61685714Y-98804761D01*
X61780952Y-98852380D01*
X61971428Y-98852380D01*
X61161904Y-97947619D02*
X61114285Y-97900000D01*
X61019047Y-97852380D01*
X60780952Y-97852380D01*
X60685714Y-97900000D01*
X60638095Y-97947619D01*
X60590476Y-98042857D01*
X60590476Y-98138095D01*
X60638095Y-98280952D01*
X61209523Y-98852380D01*
X60590476Y-98852380D01*
%TO.C,Q1*%
X64147619Y-85754761D02*
X64100000Y-85659523D01*
X64004761Y-85564285D01*
X63861904Y-85421428D01*
X63814285Y-85326190D01*
X63814285Y-85230952D01*
X64052380Y-85278571D02*
X64004761Y-85183333D01*
X63909523Y-85088095D01*
X63719047Y-85040476D01*
X63385714Y-85040476D01*
X63195238Y-85088095D01*
X63100000Y-85183333D01*
X63052380Y-85278571D01*
X63052380Y-85469047D01*
X63100000Y-85564285D01*
X63195238Y-85659523D01*
X63385714Y-85707142D01*
X63719047Y-85707142D01*
X63909523Y-85659523D01*
X64004761Y-85564285D01*
X64052380Y-85469047D01*
X64052380Y-85278571D01*
X64052380Y-86659523D02*
X64052380Y-86088095D01*
X64052380Y-86373809D02*
X63052380Y-86373809D01*
X63195238Y-86278571D01*
X63290476Y-86183333D01*
X63338095Y-86088095D01*
%TO.C,L3*%
X69652380Y-99833333D02*
X69652380Y-99357142D01*
X68652380Y-99357142D01*
X68652380Y-100071428D02*
X68652380Y-100690476D01*
X69033333Y-100357142D01*
X69033333Y-100500000D01*
X69080952Y-100595238D01*
X69128571Y-100642857D01*
X69223809Y-100690476D01*
X69461904Y-100690476D01*
X69557142Y-100642857D01*
X69604761Y-100595238D01*
X69652380Y-100500000D01*
X69652380Y-100214285D01*
X69604761Y-100119047D01*
X69557142Y-100071428D01*
%TO.C,L2*%
X71952380Y-70983333D02*
X71952380Y-70507142D01*
X70952380Y-70507142D01*
X71047619Y-71269047D02*
X71000000Y-71316666D01*
X70952380Y-71411904D01*
X70952380Y-71650000D01*
X71000000Y-71745238D01*
X71047619Y-71792857D01*
X71142857Y-71840476D01*
X71238095Y-71840476D01*
X71380952Y-71792857D01*
X71952380Y-71221428D01*
X71952380Y-71840476D01*
%TO.C,L1*%
X50452380Y-71233333D02*
X50452380Y-70757142D01*
X49452380Y-70757142D01*
X50452380Y-72090476D02*
X50452380Y-71519047D01*
X50452380Y-71804761D02*
X49452380Y-71804761D01*
X49595238Y-71709523D01*
X49690476Y-71614285D01*
X49738095Y-71519047D01*
%TO.C,J27*%
X46359523Y-32872380D02*
X46359523Y-33586666D01*
X46407142Y-33729523D01*
X46502380Y-33824761D01*
X46645238Y-33872380D01*
X46740476Y-33872380D01*
X45930952Y-32967619D02*
X45883333Y-32920000D01*
X45788095Y-32872380D01*
X45550000Y-32872380D01*
X45454761Y-32920000D01*
X45407142Y-32967619D01*
X45359523Y-33062857D01*
X45359523Y-33158095D01*
X45407142Y-33300952D01*
X45978571Y-33872380D01*
X45359523Y-33872380D01*
X45026190Y-32872380D02*
X44359523Y-32872380D01*
X44788095Y-33872380D01*
%TO.C,J2*%
X57852380Y-114066666D02*
X58566666Y-114066666D01*
X58709523Y-114019047D01*
X58804761Y-113923809D01*
X58852380Y-113780952D01*
X58852380Y-113685714D01*
X57947619Y-114495238D02*
X57900000Y-114542857D01*
X57852380Y-114638095D01*
X57852380Y-114876190D01*
X57900000Y-114971428D01*
X57947619Y-115019047D01*
X58042857Y-115066666D01*
X58138095Y-115066666D01*
X58280952Y-115019047D01*
X58852380Y-114447619D01*
X58852380Y-115066666D01*
%TO.C,D5*%
X63138095Y-96852380D02*
X63138095Y-95852380D01*
X62900000Y-95852380D01*
X62757142Y-95900000D01*
X62661904Y-95995238D01*
X62614285Y-96090476D01*
X62566666Y-96280952D01*
X62566666Y-96423809D01*
X62614285Y-96614285D01*
X62661904Y-96709523D01*
X62757142Y-96804761D01*
X62900000Y-96852380D01*
X63138095Y-96852380D01*
X61661904Y-95852380D02*
X62138095Y-95852380D01*
X62185714Y-96328571D01*
X62138095Y-96280952D01*
X62042857Y-96233333D01*
X61804761Y-96233333D01*
X61709523Y-96280952D01*
X61661904Y-96328571D01*
X61614285Y-96423809D01*
X61614285Y-96661904D01*
X61661904Y-96757142D01*
X61709523Y-96804761D01*
X61804761Y-96852380D01*
X62042857Y-96852380D01*
X62138095Y-96804761D01*
X62185714Y-96757142D01*
%TO.C,D4*%
X66565095Y-89897380D02*
X66565095Y-88897380D01*
X66327000Y-88897380D01*
X66184142Y-88945000D01*
X66088904Y-89040238D01*
X66041285Y-89135476D01*
X65993666Y-89325952D01*
X65993666Y-89468809D01*
X66041285Y-89659285D01*
X66088904Y-89754523D01*
X66184142Y-89849761D01*
X66327000Y-89897380D01*
X66565095Y-89897380D01*
X65136523Y-89230714D02*
X65136523Y-89897380D01*
X65374619Y-88849761D02*
X65612714Y-89564047D01*
X64993666Y-89564047D01*
%TO.C,D3*%
X62738095Y-92652380D02*
X62738095Y-91652380D01*
X62500000Y-91652380D01*
X62357142Y-91700000D01*
X62261904Y-91795238D01*
X62214285Y-91890476D01*
X62166666Y-92080952D01*
X62166666Y-92223809D01*
X62214285Y-92414285D01*
X62261904Y-92509523D01*
X62357142Y-92604761D01*
X62500000Y-92652380D01*
X62738095Y-92652380D01*
X61833333Y-91652380D02*
X61214285Y-91652380D01*
X61547619Y-92033333D01*
X61404761Y-92033333D01*
X61309523Y-92080952D01*
X61261904Y-92128571D01*
X61214285Y-92223809D01*
X61214285Y-92461904D01*
X61261904Y-92557142D01*
X61309523Y-92604761D01*
X61404761Y-92652380D01*
X61690476Y-92652380D01*
X61785714Y-92604761D01*
X61833333Y-92557142D01*
%TO.C,D2*%
X72852380Y-33849404D02*
X71852380Y-33849404D01*
X71852380Y-34087500D01*
X71900000Y-34230357D01*
X71995238Y-34325595D01*
X72090476Y-34373214D01*
X72280952Y-34420833D01*
X72423809Y-34420833D01*
X72614285Y-34373214D01*
X72709523Y-34325595D01*
X72804761Y-34230357D01*
X72852380Y-34087500D01*
X72852380Y-33849404D01*
X71947619Y-34801785D02*
X71900000Y-34849404D01*
X71852380Y-34944642D01*
X71852380Y-35182738D01*
X71900000Y-35277976D01*
X71947619Y-35325595D01*
X72042857Y-35373214D01*
X72138095Y-35373214D01*
X72280952Y-35325595D01*
X72852380Y-34754166D01*
X72852380Y-35373214D01*
%TO.C,D1*%
X63338095Y-44052380D02*
X63338095Y-43052380D01*
X63100000Y-43052380D01*
X62957142Y-43100000D01*
X62861904Y-43195238D01*
X62814285Y-43290476D01*
X62766666Y-43480952D01*
X62766666Y-43623809D01*
X62814285Y-43814285D01*
X62861904Y-43909523D01*
X62957142Y-44004761D01*
X63100000Y-44052380D01*
X63338095Y-44052380D01*
X61814285Y-44052380D02*
X62385714Y-44052380D01*
X62100000Y-44052380D02*
X62100000Y-43052380D01*
X62195238Y-43195238D01*
X62290476Y-43290476D01*
X62385714Y-43338095D01*
%TO.C,C30*%
X71442857Y-123157142D02*
X71490476Y-123204761D01*
X71633333Y-123252380D01*
X71728571Y-123252380D01*
X71871428Y-123204761D01*
X71966666Y-123109523D01*
X72014285Y-123014285D01*
X72061904Y-122823809D01*
X72061904Y-122680952D01*
X72014285Y-122490476D01*
X71966666Y-122395238D01*
X71871428Y-122300000D01*
X71728571Y-122252380D01*
X71633333Y-122252380D01*
X71490476Y-122300000D01*
X71442857Y-122347619D01*
X71109523Y-122252380D02*
X70490476Y-122252380D01*
X70823809Y-122633333D01*
X70680952Y-122633333D01*
X70585714Y-122680952D01*
X70538095Y-122728571D01*
X70490476Y-122823809D01*
X70490476Y-123061904D01*
X70538095Y-123157142D01*
X70585714Y-123204761D01*
X70680952Y-123252380D01*
X70966666Y-123252380D01*
X71061904Y-123204761D01*
X71109523Y-123157142D01*
X69871428Y-122252380D02*
X69776190Y-122252380D01*
X69680952Y-122300000D01*
X69633333Y-122347619D01*
X69585714Y-122442857D01*
X69538095Y-122633333D01*
X69538095Y-122871428D01*
X69585714Y-123061904D01*
X69633333Y-123157142D01*
X69680952Y-123204761D01*
X69776190Y-123252380D01*
X69871428Y-123252380D01*
X69966666Y-123204761D01*
X70014285Y-123157142D01*
X70061904Y-123061904D01*
X70109523Y-122871428D01*
X70109523Y-122633333D01*
X70061904Y-122442857D01*
X70014285Y-122347619D01*
X69966666Y-122300000D01*
X69871428Y-122252380D01*
%TO.C,C29*%
X71442857Y-120757142D02*
X71490476Y-120804761D01*
X71633333Y-120852380D01*
X71728571Y-120852380D01*
X71871428Y-120804761D01*
X71966666Y-120709523D01*
X72014285Y-120614285D01*
X72061904Y-120423809D01*
X72061904Y-120280952D01*
X72014285Y-120090476D01*
X71966666Y-119995238D01*
X71871428Y-119900000D01*
X71728571Y-119852380D01*
X71633333Y-119852380D01*
X71490476Y-119900000D01*
X71442857Y-119947619D01*
X71061904Y-119947619D02*
X71014285Y-119900000D01*
X70919047Y-119852380D01*
X70680952Y-119852380D01*
X70585714Y-119900000D01*
X70538095Y-119947619D01*
X70490476Y-120042857D01*
X70490476Y-120138095D01*
X70538095Y-120280952D01*
X71109523Y-120852380D01*
X70490476Y-120852380D01*
X70014285Y-120852380D02*
X69823809Y-120852380D01*
X69728571Y-120804761D01*
X69680952Y-120757142D01*
X69585714Y-120614285D01*
X69538095Y-120423809D01*
X69538095Y-120042857D01*
X69585714Y-119947619D01*
X69633333Y-119900000D01*
X69728571Y-119852380D01*
X69919047Y-119852380D01*
X70014285Y-119900000D01*
X70061904Y-119947619D01*
X70109523Y-120042857D01*
X70109523Y-120280952D01*
X70061904Y-120376190D01*
X70014285Y-120423809D01*
X69919047Y-120471428D01*
X69728571Y-120471428D01*
X69633333Y-120423809D01*
X69585714Y-120376190D01*
X69538095Y-120280952D01*
%TO.C,C28*%
X71442857Y-118357142D02*
X71490476Y-118404761D01*
X71633333Y-118452380D01*
X71728571Y-118452380D01*
X71871428Y-118404761D01*
X71966666Y-118309523D01*
X72014285Y-118214285D01*
X72061904Y-118023809D01*
X72061904Y-117880952D01*
X72014285Y-117690476D01*
X71966666Y-117595238D01*
X71871428Y-117500000D01*
X71728571Y-117452380D01*
X71633333Y-117452380D01*
X71490476Y-117500000D01*
X71442857Y-117547619D01*
X71061904Y-117547619D02*
X71014285Y-117500000D01*
X70919047Y-117452380D01*
X70680952Y-117452380D01*
X70585714Y-117500000D01*
X70538095Y-117547619D01*
X70490476Y-117642857D01*
X70490476Y-117738095D01*
X70538095Y-117880952D01*
X71109523Y-118452380D01*
X70490476Y-118452380D01*
X69919047Y-117880952D02*
X70014285Y-117833333D01*
X70061904Y-117785714D01*
X70109523Y-117690476D01*
X70109523Y-117642857D01*
X70061904Y-117547619D01*
X70014285Y-117500000D01*
X69919047Y-117452380D01*
X69728571Y-117452380D01*
X69633333Y-117500000D01*
X69585714Y-117547619D01*
X69538095Y-117642857D01*
X69538095Y-117690476D01*
X69585714Y-117785714D01*
X69633333Y-117833333D01*
X69728571Y-117880952D01*
X69919047Y-117880952D01*
X70014285Y-117928571D01*
X70061904Y-117976190D01*
X70109523Y-118071428D01*
X70109523Y-118261904D01*
X70061904Y-118357142D01*
X70014285Y-118404761D01*
X69919047Y-118452380D01*
X69728571Y-118452380D01*
X69633333Y-118404761D01*
X69585714Y-118357142D01*
X69538095Y-118261904D01*
X69538095Y-118071428D01*
X69585714Y-117976190D01*
X69633333Y-117928571D01*
X69728571Y-117880952D01*
%TO.C,C27*%
X71442857Y-117157142D02*
X71490476Y-117204761D01*
X71633333Y-117252380D01*
X71728571Y-117252380D01*
X71871428Y-117204761D01*
X71966666Y-117109523D01*
X72014285Y-117014285D01*
X72061904Y-116823809D01*
X72061904Y-116680952D01*
X72014285Y-116490476D01*
X71966666Y-116395238D01*
X71871428Y-116300000D01*
X71728571Y-116252380D01*
X71633333Y-116252380D01*
X71490476Y-116300000D01*
X71442857Y-116347619D01*
X71061904Y-116347619D02*
X71014285Y-116300000D01*
X70919047Y-116252380D01*
X70680952Y-116252380D01*
X70585714Y-116300000D01*
X70538095Y-116347619D01*
X70490476Y-116442857D01*
X70490476Y-116538095D01*
X70538095Y-116680952D01*
X71109523Y-117252380D01*
X70490476Y-117252380D01*
X70157142Y-116252380D02*
X69490476Y-116252380D01*
X69919047Y-117252380D01*
%TO.C,C26*%
X72442857Y-115957142D02*
X72490476Y-116004761D01*
X72633333Y-116052380D01*
X72728571Y-116052380D01*
X72871428Y-116004761D01*
X72966666Y-115909523D01*
X73014285Y-115814285D01*
X73061904Y-115623809D01*
X73061904Y-115480952D01*
X73014285Y-115290476D01*
X72966666Y-115195238D01*
X72871428Y-115100000D01*
X72728571Y-115052380D01*
X72633333Y-115052380D01*
X72490476Y-115100000D01*
X72442857Y-115147619D01*
X72061904Y-115147619D02*
X72014285Y-115100000D01*
X71919047Y-115052380D01*
X71680952Y-115052380D01*
X71585714Y-115100000D01*
X71538095Y-115147619D01*
X71490476Y-115242857D01*
X71490476Y-115338095D01*
X71538095Y-115480952D01*
X72109523Y-116052380D01*
X71490476Y-116052380D01*
X70633333Y-115052380D02*
X70823809Y-115052380D01*
X70919047Y-115100000D01*
X70966666Y-115147619D01*
X71061904Y-115290476D01*
X71109523Y-115480952D01*
X71109523Y-115861904D01*
X71061904Y-115957142D01*
X71014285Y-116004761D01*
X70919047Y-116052380D01*
X70728571Y-116052380D01*
X70633333Y-116004761D01*
X70585714Y-115957142D01*
X70538095Y-115861904D01*
X70538095Y-115623809D01*
X70585714Y-115528571D01*
X70633333Y-115480952D01*
X70728571Y-115433333D01*
X70919047Y-115433333D01*
X71014285Y-115480952D01*
X71061904Y-115528571D01*
X71109523Y-115623809D01*
%TO.C,C25*%
X71442857Y-112357142D02*
X71490476Y-112404761D01*
X71633333Y-112452380D01*
X71728571Y-112452380D01*
X71871428Y-112404761D01*
X71966666Y-112309523D01*
X72014285Y-112214285D01*
X72061904Y-112023809D01*
X72061904Y-111880952D01*
X72014285Y-111690476D01*
X71966666Y-111595238D01*
X71871428Y-111500000D01*
X71728571Y-111452380D01*
X71633333Y-111452380D01*
X71490476Y-111500000D01*
X71442857Y-111547619D01*
X71061904Y-111547619D02*
X71014285Y-111500000D01*
X70919047Y-111452380D01*
X70680952Y-111452380D01*
X70585714Y-111500000D01*
X70538095Y-111547619D01*
X70490476Y-111642857D01*
X70490476Y-111738095D01*
X70538095Y-111880952D01*
X71109523Y-112452380D01*
X70490476Y-112452380D01*
X69585714Y-111452380D02*
X70061904Y-111452380D01*
X70109523Y-111928571D01*
X70061904Y-111880952D01*
X69966666Y-111833333D01*
X69728571Y-111833333D01*
X69633333Y-111880952D01*
X69585714Y-111928571D01*
X69538095Y-112023809D01*
X69538095Y-112261904D01*
X69585714Y-112357142D01*
X69633333Y-112404761D01*
X69728571Y-112452380D01*
X69966666Y-112452380D01*
X70061904Y-112404761D01*
X70109523Y-112357142D01*
%TO.C,C24*%
X71442857Y-109957142D02*
X71490476Y-110004761D01*
X71633333Y-110052380D01*
X71728571Y-110052380D01*
X71871428Y-110004761D01*
X71966666Y-109909523D01*
X72014285Y-109814285D01*
X72061904Y-109623809D01*
X72061904Y-109480952D01*
X72014285Y-109290476D01*
X71966666Y-109195238D01*
X71871428Y-109100000D01*
X71728571Y-109052380D01*
X71633333Y-109052380D01*
X71490476Y-109100000D01*
X71442857Y-109147619D01*
X71061904Y-109147619D02*
X71014285Y-109100000D01*
X70919047Y-109052380D01*
X70680952Y-109052380D01*
X70585714Y-109100000D01*
X70538095Y-109147619D01*
X70490476Y-109242857D01*
X70490476Y-109338095D01*
X70538095Y-109480952D01*
X71109523Y-110052380D01*
X70490476Y-110052380D01*
X69633333Y-109385714D02*
X69633333Y-110052380D01*
X69871428Y-109004761D02*
X70109523Y-109719047D01*
X69490476Y-109719047D01*
%TO.C,C23*%
X71442857Y-108757142D02*
X71490476Y-108804761D01*
X71633333Y-108852380D01*
X71728571Y-108852380D01*
X71871428Y-108804761D01*
X71966666Y-108709523D01*
X72014285Y-108614285D01*
X72061904Y-108423809D01*
X72061904Y-108280952D01*
X72014285Y-108090476D01*
X71966666Y-107995238D01*
X71871428Y-107900000D01*
X71728571Y-107852380D01*
X71633333Y-107852380D01*
X71490476Y-107900000D01*
X71442857Y-107947619D01*
X71061904Y-107947619D02*
X71014285Y-107900000D01*
X70919047Y-107852380D01*
X70680952Y-107852380D01*
X70585714Y-107900000D01*
X70538095Y-107947619D01*
X70490476Y-108042857D01*
X70490476Y-108138095D01*
X70538095Y-108280952D01*
X71109523Y-108852380D01*
X70490476Y-108852380D01*
X70157142Y-107852380D02*
X69538095Y-107852380D01*
X69871428Y-108233333D01*
X69728571Y-108233333D01*
X69633333Y-108280952D01*
X69585714Y-108328571D01*
X69538095Y-108423809D01*
X69538095Y-108661904D01*
X69585714Y-108757142D01*
X69633333Y-108804761D01*
X69728571Y-108852380D01*
X70014285Y-108852380D01*
X70109523Y-108804761D01*
X70157142Y-108757142D01*
%TO.C,C22*%
X71442857Y-121957142D02*
X71490476Y-122004761D01*
X71633333Y-122052380D01*
X71728571Y-122052380D01*
X71871428Y-122004761D01*
X71966666Y-121909523D01*
X72014285Y-121814285D01*
X72061904Y-121623809D01*
X72061904Y-121480952D01*
X72014285Y-121290476D01*
X71966666Y-121195238D01*
X71871428Y-121100000D01*
X71728571Y-121052380D01*
X71633333Y-121052380D01*
X71490476Y-121100000D01*
X71442857Y-121147619D01*
X71061904Y-121147619D02*
X71014285Y-121100000D01*
X70919047Y-121052380D01*
X70680952Y-121052380D01*
X70585714Y-121100000D01*
X70538095Y-121147619D01*
X70490476Y-121242857D01*
X70490476Y-121338095D01*
X70538095Y-121480952D01*
X71109523Y-122052380D01*
X70490476Y-122052380D01*
X70109523Y-121147619D02*
X70061904Y-121100000D01*
X69966666Y-121052380D01*
X69728571Y-121052380D01*
X69633333Y-121100000D01*
X69585714Y-121147619D01*
X69538095Y-121242857D01*
X69538095Y-121338095D01*
X69585714Y-121480952D01*
X70157142Y-122052380D01*
X69538095Y-122052380D01*
%TO.C,C21*%
X71442857Y-119557142D02*
X71490476Y-119604761D01*
X71633333Y-119652380D01*
X71728571Y-119652380D01*
X71871428Y-119604761D01*
X71966666Y-119509523D01*
X72014285Y-119414285D01*
X72061904Y-119223809D01*
X72061904Y-119080952D01*
X72014285Y-118890476D01*
X71966666Y-118795238D01*
X71871428Y-118700000D01*
X71728571Y-118652380D01*
X71633333Y-118652380D01*
X71490476Y-118700000D01*
X71442857Y-118747619D01*
X71061904Y-118747619D02*
X71014285Y-118700000D01*
X70919047Y-118652380D01*
X70680952Y-118652380D01*
X70585714Y-118700000D01*
X70538095Y-118747619D01*
X70490476Y-118842857D01*
X70490476Y-118938095D01*
X70538095Y-119080952D01*
X71109523Y-119652380D01*
X70490476Y-119652380D01*
X69538095Y-119652380D02*
X70109523Y-119652380D01*
X69823809Y-119652380D02*
X69823809Y-118652380D01*
X69919047Y-118795238D01*
X70014285Y-118890476D01*
X70109523Y-118938095D01*
%TO.C,C20*%
X71442857Y-111157142D02*
X71490476Y-111204761D01*
X71633333Y-111252380D01*
X71728571Y-111252380D01*
X71871428Y-111204761D01*
X71966666Y-111109523D01*
X72014285Y-111014285D01*
X72061904Y-110823809D01*
X72061904Y-110680952D01*
X72014285Y-110490476D01*
X71966666Y-110395238D01*
X71871428Y-110300000D01*
X71728571Y-110252380D01*
X71633333Y-110252380D01*
X71490476Y-110300000D01*
X71442857Y-110347619D01*
X71061904Y-110347619D02*
X71014285Y-110300000D01*
X70919047Y-110252380D01*
X70680952Y-110252380D01*
X70585714Y-110300000D01*
X70538095Y-110347619D01*
X70490476Y-110442857D01*
X70490476Y-110538095D01*
X70538095Y-110680952D01*
X71109523Y-111252380D01*
X70490476Y-111252380D01*
X69871428Y-110252380D02*
X69776190Y-110252380D01*
X69680952Y-110300000D01*
X69633333Y-110347619D01*
X69585714Y-110442857D01*
X69538095Y-110633333D01*
X69538095Y-110871428D01*
X69585714Y-111061904D01*
X69633333Y-111157142D01*
X69680952Y-111204761D01*
X69776190Y-111252380D01*
X69871428Y-111252380D01*
X69966666Y-111204761D01*
X70014285Y-111157142D01*
X70061904Y-111061904D01*
X70109523Y-110871428D01*
X70109523Y-110633333D01*
X70061904Y-110442857D01*
X70014285Y-110347619D01*
X69966666Y-110300000D01*
X69871428Y-110252380D01*
%TO.C,C19*%
X45592857Y-51787142D02*
X45640476Y-51834761D01*
X45783333Y-51882380D01*
X45878571Y-51882380D01*
X46021428Y-51834761D01*
X46116666Y-51739523D01*
X46164285Y-51644285D01*
X46211904Y-51453809D01*
X46211904Y-51310952D01*
X46164285Y-51120476D01*
X46116666Y-51025238D01*
X46021428Y-50930000D01*
X45878571Y-50882380D01*
X45783333Y-50882380D01*
X45640476Y-50930000D01*
X45592857Y-50977619D01*
X44640476Y-51882380D02*
X45211904Y-51882380D01*
X44926190Y-51882380D02*
X44926190Y-50882380D01*
X45021428Y-51025238D01*
X45116666Y-51120476D01*
X45211904Y-51168095D01*
X44164285Y-51882380D02*
X43973809Y-51882380D01*
X43878571Y-51834761D01*
X43830952Y-51787142D01*
X43735714Y-51644285D01*
X43688095Y-51453809D01*
X43688095Y-51072857D01*
X43735714Y-50977619D01*
X43783333Y-50930000D01*
X43878571Y-50882380D01*
X44069047Y-50882380D01*
X44164285Y-50930000D01*
X44211904Y-50977619D01*
X44259523Y-51072857D01*
X44259523Y-51310952D01*
X44211904Y-51406190D01*
X44164285Y-51453809D01*
X44069047Y-51501428D01*
X43878571Y-51501428D01*
X43783333Y-51453809D01*
X43735714Y-51406190D01*
X43688095Y-51310952D01*
%TO.C,C18*%
X45642857Y-47557142D02*
X45690476Y-47604761D01*
X45833333Y-47652380D01*
X45928571Y-47652380D01*
X46071428Y-47604761D01*
X46166666Y-47509523D01*
X46214285Y-47414285D01*
X46261904Y-47223809D01*
X46261904Y-47080952D01*
X46214285Y-46890476D01*
X46166666Y-46795238D01*
X46071428Y-46700000D01*
X45928571Y-46652380D01*
X45833333Y-46652380D01*
X45690476Y-46700000D01*
X45642857Y-46747619D01*
X44690476Y-47652380D02*
X45261904Y-47652380D01*
X44976190Y-47652380D02*
X44976190Y-46652380D01*
X45071428Y-46795238D01*
X45166666Y-46890476D01*
X45261904Y-46938095D01*
X44119047Y-47080952D02*
X44214285Y-47033333D01*
X44261904Y-46985714D01*
X44309523Y-46890476D01*
X44309523Y-46842857D01*
X44261904Y-46747619D01*
X44214285Y-46700000D01*
X44119047Y-46652380D01*
X43928571Y-46652380D01*
X43833333Y-46700000D01*
X43785714Y-46747619D01*
X43738095Y-46842857D01*
X43738095Y-46890476D01*
X43785714Y-46985714D01*
X43833333Y-47033333D01*
X43928571Y-47080952D01*
X44119047Y-47080952D01*
X44214285Y-47128571D01*
X44261904Y-47176190D01*
X44309523Y-47271428D01*
X44309523Y-47461904D01*
X44261904Y-47557142D01*
X44214285Y-47604761D01*
X44119047Y-47652380D01*
X43928571Y-47652380D01*
X43833333Y-47604761D01*
X43785714Y-47557142D01*
X43738095Y-47461904D01*
X43738095Y-47271428D01*
X43785714Y-47176190D01*
X43833333Y-47128571D01*
X43928571Y-47080952D01*
%TO.C,C17*%
X56557142Y-128557142D02*
X56604761Y-128509523D01*
X56652380Y-128366666D01*
X56652380Y-128271428D01*
X56604761Y-128128571D01*
X56509523Y-128033333D01*
X56414285Y-127985714D01*
X56223809Y-127938095D01*
X56080952Y-127938095D01*
X55890476Y-127985714D01*
X55795238Y-128033333D01*
X55700000Y-128128571D01*
X55652380Y-128271428D01*
X55652380Y-128366666D01*
X55700000Y-128509523D01*
X55747619Y-128557142D01*
X56652380Y-129509523D02*
X56652380Y-128938095D01*
X56652380Y-129223809D02*
X55652380Y-129223809D01*
X55795238Y-129128571D01*
X55890476Y-129033333D01*
X55938095Y-128938095D01*
X55652380Y-129842857D02*
X55652380Y-130509523D01*
X56652380Y-130080952D01*
%TO.C,C16*%
X68317857Y-104027142D02*
X68365476Y-104074761D01*
X68508333Y-104122380D01*
X68603571Y-104122380D01*
X68746428Y-104074761D01*
X68841666Y-103979523D01*
X68889285Y-103884285D01*
X68936904Y-103693809D01*
X68936904Y-103550952D01*
X68889285Y-103360476D01*
X68841666Y-103265238D01*
X68746428Y-103170000D01*
X68603571Y-103122380D01*
X68508333Y-103122380D01*
X68365476Y-103170000D01*
X68317857Y-103217619D01*
X67365476Y-104122380D02*
X67936904Y-104122380D01*
X67651190Y-104122380D02*
X67651190Y-103122380D01*
X67746428Y-103265238D01*
X67841666Y-103360476D01*
X67936904Y-103408095D01*
X66508333Y-103122380D02*
X66698809Y-103122380D01*
X66794047Y-103170000D01*
X66841666Y-103217619D01*
X66936904Y-103360476D01*
X66984523Y-103550952D01*
X66984523Y-103931904D01*
X66936904Y-104027142D01*
X66889285Y-104074761D01*
X66794047Y-104122380D01*
X66603571Y-104122380D01*
X66508333Y-104074761D01*
X66460714Y-104027142D01*
X66413095Y-103931904D01*
X66413095Y-103693809D01*
X66460714Y-103598571D01*
X66508333Y-103550952D01*
X66603571Y-103503333D01*
X66794047Y-103503333D01*
X66889285Y-103550952D01*
X66936904Y-103598571D01*
X66984523Y-103693809D01*
%TO.C,C15*%
X80442857Y-73757142D02*
X80490476Y-73804761D01*
X80633333Y-73852380D01*
X80728571Y-73852380D01*
X80871428Y-73804761D01*
X80966666Y-73709523D01*
X81014285Y-73614285D01*
X81061904Y-73423809D01*
X81061904Y-73280952D01*
X81014285Y-73090476D01*
X80966666Y-72995238D01*
X80871428Y-72900000D01*
X80728571Y-72852380D01*
X80633333Y-72852380D01*
X80490476Y-72900000D01*
X80442857Y-72947619D01*
X79490476Y-73852380D02*
X80061904Y-73852380D01*
X79776190Y-73852380D02*
X79776190Y-72852380D01*
X79871428Y-72995238D01*
X79966666Y-73090476D01*
X80061904Y-73138095D01*
X78585714Y-72852380D02*
X79061904Y-72852380D01*
X79109523Y-73328571D01*
X79061904Y-73280952D01*
X78966666Y-73233333D01*
X78728571Y-73233333D01*
X78633333Y-73280952D01*
X78585714Y-73328571D01*
X78538095Y-73423809D01*
X78538095Y-73661904D01*
X78585714Y-73757142D01*
X78633333Y-73804761D01*
X78728571Y-73852380D01*
X78966666Y-73852380D01*
X79061904Y-73804761D01*
X79109523Y-73757142D01*
%TO.C,C14*%
X78757142Y-76957142D02*
X78804761Y-76909523D01*
X78852380Y-76766666D01*
X78852380Y-76671428D01*
X78804761Y-76528571D01*
X78709523Y-76433333D01*
X78614285Y-76385714D01*
X78423809Y-76338095D01*
X78280952Y-76338095D01*
X78090476Y-76385714D01*
X77995238Y-76433333D01*
X77900000Y-76528571D01*
X77852380Y-76671428D01*
X77852380Y-76766666D01*
X77900000Y-76909523D01*
X77947619Y-76957142D01*
X78852380Y-77909523D02*
X78852380Y-77338095D01*
X78852380Y-77623809D02*
X77852380Y-77623809D01*
X77995238Y-77528571D01*
X78090476Y-77433333D01*
X78138095Y-77338095D01*
X78185714Y-78766666D02*
X78852380Y-78766666D01*
X77804761Y-78528571D02*
X78519047Y-78290476D01*
X78519047Y-78909523D01*
%TO.C,C13*%
X68357142Y-93157142D02*
X68404761Y-93109523D01*
X68452380Y-92966666D01*
X68452380Y-92871428D01*
X68404761Y-92728571D01*
X68309523Y-92633333D01*
X68214285Y-92585714D01*
X68023809Y-92538095D01*
X67880952Y-92538095D01*
X67690476Y-92585714D01*
X67595238Y-92633333D01*
X67500000Y-92728571D01*
X67452380Y-92871428D01*
X67452380Y-92966666D01*
X67500000Y-93109523D01*
X67547619Y-93157142D01*
X68452380Y-94109523D02*
X68452380Y-93538095D01*
X68452380Y-93823809D02*
X67452380Y-93823809D01*
X67595238Y-93728571D01*
X67690476Y-93633333D01*
X67738095Y-93538095D01*
X67452380Y-94442857D02*
X67452380Y-95061904D01*
X67833333Y-94728571D01*
X67833333Y-94871428D01*
X67880952Y-94966666D01*
X67928571Y-95014285D01*
X68023809Y-95061904D01*
X68261904Y-95061904D01*
X68357142Y-95014285D01*
X68404761Y-94966666D01*
X68452380Y-94871428D01*
X68452380Y-94585714D01*
X68404761Y-94490476D01*
X68357142Y-94442857D01*
%TO.C,C12*%
X135157142Y-56957142D02*
X135204761Y-56909523D01*
X135252380Y-56766666D01*
X135252380Y-56671428D01*
X135204761Y-56528571D01*
X135109523Y-56433333D01*
X135014285Y-56385714D01*
X134823809Y-56338095D01*
X134680952Y-56338095D01*
X134490476Y-56385714D01*
X134395238Y-56433333D01*
X134300000Y-56528571D01*
X134252380Y-56671428D01*
X134252380Y-56766666D01*
X134300000Y-56909523D01*
X134347619Y-56957142D01*
X135252380Y-57909523D02*
X135252380Y-57338095D01*
X135252380Y-57623809D02*
X134252380Y-57623809D01*
X134395238Y-57528571D01*
X134490476Y-57433333D01*
X134538095Y-57338095D01*
X134347619Y-58290476D02*
X134300000Y-58338095D01*
X134252380Y-58433333D01*
X134252380Y-58671428D01*
X134300000Y-58766666D01*
X134347619Y-58814285D01*
X134442857Y-58861904D01*
X134538095Y-58861904D01*
X134680952Y-58814285D01*
X135252380Y-58242857D01*
X135252380Y-58861904D01*
%TO.C,C11*%
X74107142Y-69657142D02*
X74154761Y-69609523D01*
X74202380Y-69466666D01*
X74202380Y-69371428D01*
X74154761Y-69228571D01*
X74059523Y-69133333D01*
X73964285Y-69085714D01*
X73773809Y-69038095D01*
X73630952Y-69038095D01*
X73440476Y-69085714D01*
X73345238Y-69133333D01*
X73250000Y-69228571D01*
X73202380Y-69371428D01*
X73202380Y-69466666D01*
X73250000Y-69609523D01*
X73297619Y-69657142D01*
X74202380Y-70609523D02*
X74202380Y-70038095D01*
X74202380Y-70323809D02*
X73202380Y-70323809D01*
X73345238Y-70228571D01*
X73440476Y-70133333D01*
X73488095Y-70038095D01*
X74202380Y-71561904D02*
X74202380Y-70990476D01*
X74202380Y-71276190D02*
X73202380Y-71276190D01*
X73345238Y-71180952D01*
X73440476Y-71085714D01*
X73488095Y-70990476D01*
%TO.C,C10*%
X52557142Y-69882142D02*
X52604761Y-69834523D01*
X52652380Y-69691666D01*
X52652380Y-69596428D01*
X52604761Y-69453571D01*
X52509523Y-69358333D01*
X52414285Y-69310714D01*
X52223809Y-69263095D01*
X52080952Y-69263095D01*
X51890476Y-69310714D01*
X51795238Y-69358333D01*
X51700000Y-69453571D01*
X51652380Y-69596428D01*
X51652380Y-69691666D01*
X51700000Y-69834523D01*
X51747619Y-69882142D01*
X52652380Y-70834523D02*
X52652380Y-70263095D01*
X52652380Y-70548809D02*
X51652380Y-70548809D01*
X51795238Y-70453571D01*
X51890476Y-70358333D01*
X51938095Y-70263095D01*
X51652380Y-71453571D02*
X51652380Y-71548809D01*
X51700000Y-71644047D01*
X51747619Y-71691666D01*
X51842857Y-71739285D01*
X52033333Y-71786904D01*
X52271428Y-71786904D01*
X52461904Y-71739285D01*
X52557142Y-71691666D01*
X52604761Y-71644047D01*
X52652380Y-71548809D01*
X52652380Y-71453571D01*
X52604761Y-71358333D01*
X52557142Y-71310714D01*
X52461904Y-71263095D01*
X52271428Y-71215476D01*
X52033333Y-71215476D01*
X51842857Y-71263095D01*
X51747619Y-71310714D01*
X51700000Y-71358333D01*
X51652380Y-71453571D01*
%TO.C,C9*%
X62537142Y-46958333D02*
X62584761Y-46910714D01*
X62632380Y-46767857D01*
X62632380Y-46672619D01*
X62584761Y-46529761D01*
X62489523Y-46434523D01*
X62394285Y-46386904D01*
X62203809Y-46339285D01*
X62060952Y-46339285D01*
X61870476Y-46386904D01*
X61775238Y-46434523D01*
X61680000Y-46529761D01*
X61632380Y-46672619D01*
X61632380Y-46767857D01*
X61680000Y-46910714D01*
X61727619Y-46958333D01*
X62632380Y-47434523D02*
X62632380Y-47625000D01*
X62584761Y-47720238D01*
X62537142Y-47767857D01*
X62394285Y-47863095D01*
X62203809Y-47910714D01*
X61822857Y-47910714D01*
X61727619Y-47863095D01*
X61680000Y-47815476D01*
X61632380Y-47720238D01*
X61632380Y-47529761D01*
X61680000Y-47434523D01*
X61727619Y-47386904D01*
X61822857Y-47339285D01*
X62060952Y-47339285D01*
X62156190Y-47386904D01*
X62203809Y-47434523D01*
X62251428Y-47529761D01*
X62251428Y-47720238D01*
X62203809Y-47815476D01*
X62156190Y-47863095D01*
X62060952Y-47910714D01*
%TO.C,C8*%
X133957142Y-51433333D02*
X134004761Y-51385714D01*
X134052380Y-51242857D01*
X134052380Y-51147619D01*
X134004761Y-51004761D01*
X133909523Y-50909523D01*
X133814285Y-50861904D01*
X133623809Y-50814285D01*
X133480952Y-50814285D01*
X133290476Y-50861904D01*
X133195238Y-50909523D01*
X133100000Y-51004761D01*
X133052380Y-51147619D01*
X133052380Y-51242857D01*
X133100000Y-51385714D01*
X133147619Y-51433333D01*
X133480952Y-52004761D02*
X133433333Y-51909523D01*
X133385714Y-51861904D01*
X133290476Y-51814285D01*
X133242857Y-51814285D01*
X133147619Y-51861904D01*
X133100000Y-51909523D01*
X133052380Y-52004761D01*
X133052380Y-52195238D01*
X133100000Y-52290476D01*
X133147619Y-52338095D01*
X133242857Y-52385714D01*
X133290476Y-52385714D01*
X133385714Y-52338095D01*
X133433333Y-52290476D01*
X133480952Y-52195238D01*
X133480952Y-52004761D01*
X133528571Y-51909523D01*
X133576190Y-51861904D01*
X133671428Y-51814285D01*
X133861904Y-51814285D01*
X133957142Y-51861904D01*
X134004761Y-51909523D01*
X134052380Y-52004761D01*
X134052380Y-52195238D01*
X134004761Y-52290476D01*
X133957142Y-52338095D01*
X133861904Y-52385714D01*
X133671428Y-52385714D01*
X133576190Y-52338095D01*
X133528571Y-52290476D01*
X133480952Y-52195238D01*
%TO.C,C7*%
X69216666Y-54357142D02*
X69264285Y-54404761D01*
X69407142Y-54452380D01*
X69502380Y-54452380D01*
X69645238Y-54404761D01*
X69740476Y-54309523D01*
X69788095Y-54214285D01*
X69835714Y-54023809D01*
X69835714Y-53880952D01*
X69788095Y-53690476D01*
X69740476Y-53595238D01*
X69645238Y-53500000D01*
X69502380Y-53452380D01*
X69407142Y-53452380D01*
X69264285Y-53500000D01*
X69216666Y-53547619D01*
X68883333Y-53452380D02*
X68216666Y-53452380D01*
X68645238Y-54452380D01*
%TO.C,C6*%
X65366666Y-54357142D02*
X65414285Y-54404761D01*
X65557142Y-54452380D01*
X65652380Y-54452380D01*
X65795238Y-54404761D01*
X65890476Y-54309523D01*
X65938095Y-54214285D01*
X65985714Y-54023809D01*
X65985714Y-53880952D01*
X65938095Y-53690476D01*
X65890476Y-53595238D01*
X65795238Y-53500000D01*
X65652380Y-53452380D01*
X65557142Y-53452380D01*
X65414285Y-53500000D01*
X65366666Y-53547619D01*
X64509523Y-53452380D02*
X64700000Y-53452380D01*
X64795238Y-53500000D01*
X64842857Y-53547619D01*
X64938095Y-53690476D01*
X64985714Y-53880952D01*
X64985714Y-54261904D01*
X64938095Y-54357142D01*
X64890476Y-54404761D01*
X64795238Y-54452380D01*
X64604761Y-54452380D01*
X64509523Y-54404761D01*
X64461904Y-54357142D01*
X64414285Y-54261904D01*
X64414285Y-54023809D01*
X64461904Y-53928571D01*
X64509523Y-53880952D01*
X64604761Y-53833333D01*
X64795238Y-53833333D01*
X64890476Y-53880952D01*
X64938095Y-53928571D01*
X64985714Y-54023809D01*
%TO.C,C5*%
X134557142Y-41833333D02*
X134604761Y-41785714D01*
X134652380Y-41642857D01*
X134652380Y-41547619D01*
X134604761Y-41404761D01*
X134509523Y-41309523D01*
X134414285Y-41261904D01*
X134223809Y-41214285D01*
X134080952Y-41214285D01*
X133890476Y-41261904D01*
X133795238Y-41309523D01*
X133700000Y-41404761D01*
X133652380Y-41547619D01*
X133652380Y-41642857D01*
X133700000Y-41785714D01*
X133747619Y-41833333D01*
X133652380Y-42738095D02*
X133652380Y-42261904D01*
X134128571Y-42214285D01*
X134080952Y-42261904D01*
X134033333Y-42357142D01*
X134033333Y-42595238D01*
X134080952Y-42690476D01*
X134128571Y-42738095D01*
X134223809Y-42785714D01*
X134461904Y-42785714D01*
X134557142Y-42738095D01*
X134604761Y-42690476D01*
X134652380Y-42595238D01*
X134652380Y-42357142D01*
X134604761Y-42261904D01*
X134557142Y-42214285D01*
%TO.C,C4*%
X137957142Y-41833333D02*
X138004761Y-41785714D01*
X138052380Y-41642857D01*
X138052380Y-41547619D01*
X138004761Y-41404761D01*
X137909523Y-41309523D01*
X137814285Y-41261904D01*
X137623809Y-41214285D01*
X137480952Y-41214285D01*
X137290476Y-41261904D01*
X137195238Y-41309523D01*
X137100000Y-41404761D01*
X137052380Y-41547619D01*
X137052380Y-41642857D01*
X137100000Y-41785714D01*
X137147619Y-41833333D01*
X137385714Y-42690476D02*
X138052380Y-42690476D01*
X137004761Y-42452380D02*
X137719047Y-42214285D01*
X137719047Y-42833333D01*
%TO.C,C3*%
X135957142Y-41833333D02*
X136004761Y-41785714D01*
X136052380Y-41642857D01*
X136052380Y-41547619D01*
X136004761Y-41404761D01*
X135909523Y-41309523D01*
X135814285Y-41261904D01*
X135623809Y-41214285D01*
X135480952Y-41214285D01*
X135290476Y-41261904D01*
X135195238Y-41309523D01*
X135100000Y-41404761D01*
X135052380Y-41547619D01*
X135052380Y-41642857D01*
X135100000Y-41785714D01*
X135147619Y-41833333D01*
X135052380Y-42166666D02*
X135052380Y-42785714D01*
X135433333Y-42452380D01*
X135433333Y-42595238D01*
X135480952Y-42690476D01*
X135528571Y-42738095D01*
X135623809Y-42785714D01*
X135861904Y-42785714D01*
X135957142Y-42738095D01*
X136004761Y-42690476D01*
X136052380Y-42595238D01*
X136052380Y-42309523D01*
X136004761Y-42214285D01*
X135957142Y-42166666D01*
%TO.C,C2*%
X71207142Y-61733333D02*
X71254761Y-61685714D01*
X71302380Y-61542857D01*
X71302380Y-61447619D01*
X71254761Y-61304761D01*
X71159523Y-61209523D01*
X71064285Y-61161904D01*
X70873809Y-61114285D01*
X70730952Y-61114285D01*
X70540476Y-61161904D01*
X70445238Y-61209523D01*
X70350000Y-61304761D01*
X70302380Y-61447619D01*
X70302380Y-61542857D01*
X70350000Y-61685714D01*
X70397619Y-61733333D01*
X70397619Y-62114285D02*
X70350000Y-62161904D01*
X70302380Y-62257142D01*
X70302380Y-62495238D01*
X70350000Y-62590476D01*
X70397619Y-62638095D01*
X70492857Y-62685714D01*
X70588095Y-62685714D01*
X70730952Y-62638095D01*
X71302380Y-62066666D01*
X71302380Y-62685714D01*
%TO.C,C1*%
X49757142Y-61733333D02*
X49804761Y-61685714D01*
X49852380Y-61542857D01*
X49852380Y-61447619D01*
X49804761Y-61304761D01*
X49709523Y-61209523D01*
X49614285Y-61161904D01*
X49423809Y-61114285D01*
X49280952Y-61114285D01*
X49090476Y-61161904D01*
X48995238Y-61209523D01*
X48900000Y-61304761D01*
X48852380Y-61447619D01*
X48852380Y-61542857D01*
X48900000Y-61685714D01*
X48947619Y-61733333D01*
X49852380Y-62685714D02*
X49852380Y-62114285D01*
X49852380Y-62400000D02*
X48852380Y-62400000D01*
X48995238Y-62304761D01*
X49090476Y-62209523D01*
X49138095Y-62114285D01*
%TD*%
M02*
