%TF.GenerationSoftware,KiCad,Pcbnew,(5.1.8)-1*%
%TF.CreationDate,2021-02-03T00:49:59+01:00*%
%TF.ProjectId,Navi_2_0,4e617669-5f32-45f3-902e-6b696361645f,rev?*%
%TF.SameCoordinates,Original*%
%TF.FileFunction,Copper,L4,Bot*%
%TF.FilePolarity,Positive*%
%FSLAX46Y46*%
G04 Gerber Fmt 4.6, Leading zero omitted, Abs format (unit mm)*
G04 Created by KiCad (PCBNEW (5.1.8)-1) date 2021-02-03 00:49:59*
%MOMM*%
%LPD*%
G01*
G04 APERTURE LIST*
%TA.AperFunction,EtchedComponent*%
%ADD10C,0.100000*%
%TD*%
%TA.AperFunction,SMDPad,CuDef*%
%ADD11R,1.000000X1.500000*%
%TD*%
%TA.AperFunction,SMDPad,CuDef*%
%ADD12R,2.000000X0.900000*%
%TD*%
%TA.AperFunction,SMDPad,CuDef*%
%ADD13R,0.900000X2.000000*%
%TD*%
%TA.AperFunction,SMDPad,CuDef*%
%ADD14R,5.000000X5.000000*%
%TD*%
%TA.AperFunction,SMDPad,CuDef*%
%ADD15R,0.700000X2.150000*%
%TD*%
%TA.AperFunction,SMDPad,CuDef*%
%ADD16R,2.150000X0.700000*%
%TD*%
%TA.AperFunction,ConnectorPad*%
%ADD17C,0.787400*%
%TD*%
%TA.AperFunction,SMDPad,CuDef*%
%ADD18R,3.000000X3.000000*%
%TD*%
%TA.AperFunction,SMDPad,CuDef*%
%ADD19C,3.000000*%
%TD*%
%TA.AperFunction,SMDPad,CuDef*%
%ADD20R,1.650000X0.900000*%
%TD*%
%TA.AperFunction,SMDPad,CuDef*%
%ADD21R,1.690000X1.300000*%
%TD*%
%TA.AperFunction,SMDPad,CuDef*%
%ADD22R,0.400000X1.850000*%
%TD*%
%TA.AperFunction,SMDPad,CuDef*%
%ADD23C,0.100000*%
%TD*%
%TA.AperFunction,SMDPad,CuDef*%
%ADD24R,0.650000X1.060000*%
%TD*%
%TA.AperFunction,WasherPad*%
%ADD25C,1.000000*%
%TD*%
%TA.AperFunction,SMDPad,CuDef*%
%ADD26R,1.000000X0.900000*%
%TD*%
%TA.AperFunction,SMDPad,CuDef*%
%ADD27R,0.800000X1.450000*%
%TD*%
%TA.AperFunction,SMDPad,CuDef*%
%ADD28R,1.220000X0.650000*%
%TD*%
%TA.AperFunction,SMDPad,CuDef*%
%ADD29R,0.800000X0.900000*%
%TD*%
%TA.AperFunction,SMDPad,CuDef*%
%ADD30R,0.650000X1.220000*%
%TD*%
%TA.AperFunction,SMDPad,CuDef*%
%ADD31R,1.900000X1.350000*%
%TD*%
%TA.AperFunction,SMDPad,CuDef*%
%ADD32R,1.200000X1.000000*%
%TD*%
%TA.AperFunction,SMDPad,CuDef*%
%ADD33R,1.550000X1.350000*%
%TD*%
%TA.AperFunction,SMDPad,CuDef*%
%ADD34R,1.170000X1.800000*%
%TD*%
%TA.AperFunction,SMDPad,CuDef*%
%ADD35R,0.850000X1.100000*%
%TD*%
%TA.AperFunction,SMDPad,CuDef*%
%ADD36R,0.750000X1.100000*%
%TD*%
%TA.AperFunction,SMDPad,CuDef*%
%ADD37R,1.300000X0.300000*%
%TD*%
%TA.AperFunction,SMDPad,CuDef*%
%ADD38R,2.200000X1.800000*%
%TD*%
%TA.AperFunction,SMDPad,CuDef*%
%ADD39R,1.100000X1.100000*%
%TD*%
%TA.AperFunction,SMDPad,CuDef*%
%ADD40R,1.060000X0.650000*%
%TD*%
%TA.AperFunction,ViaPad*%
%ADD41C,0.800000*%
%TD*%
%TA.AperFunction,Conductor*%
%ADD42C,0.500000*%
%TD*%
%TA.AperFunction,Conductor*%
%ADD43C,0.200000*%
%TD*%
%TA.AperFunction,Conductor*%
%ADD44C,0.250000*%
%TD*%
%TA.AperFunction,Conductor*%
%ADD45C,0.254000*%
%TD*%
%TA.AperFunction,Conductor*%
%ADD46C,0.100000*%
%TD*%
G04 APERTURE END LIST*
D10*
%TO.C,JP1*%
G36*
X69600000Y-113100000D02*
G01*
X69100000Y-113100000D01*
X69100000Y-113500000D01*
X69600000Y-113500000D01*
X69600000Y-113100000D01*
G37*
G36*
X69600000Y-113900000D02*
G01*
X69100000Y-113900000D01*
X69100000Y-114300000D01*
X69600000Y-114300000D01*
X69600000Y-113900000D01*
G37*
%TD*%
%TO.P,R45,2*%
%TO.N,Net-(J27-Pad7)*%
%TA.AperFunction,SMDPad,CuDef*%
G36*
G01*
X85500000Y-57725000D02*
X85500000Y-58275000D01*
G75*
G02*
X85300000Y-58475000I-200000J0D01*
G01*
X84900000Y-58475000D01*
G75*
G02*
X84700000Y-58275000I0J200000D01*
G01*
X84700000Y-57725000D01*
G75*
G02*
X84900000Y-57525000I200000J0D01*
G01*
X85300000Y-57525000D01*
G75*
G02*
X85500000Y-57725000I0J-200000D01*
G01*
G37*
%TD.AperFunction*%
%TO.P,R45,1*%
%TO.N,SD_DAT0*%
%TA.AperFunction,SMDPad,CuDef*%
G36*
G01*
X87150000Y-57725000D02*
X87150000Y-58275000D01*
G75*
G02*
X86950000Y-58475000I-200000J0D01*
G01*
X86550000Y-58475000D01*
G75*
G02*
X86350000Y-58275000I0J200000D01*
G01*
X86350000Y-57725000D01*
G75*
G02*
X86550000Y-57525000I200000J0D01*
G01*
X86950000Y-57525000D01*
G75*
G02*
X87150000Y-57725000I0J-200000D01*
G01*
G37*
%TD.AperFunction*%
%TD*%
%TO.P,R47,2*%
%TO.N,Net-(J27-Pad10)*%
%TA.AperFunction,SMDPad,CuDef*%
G36*
G01*
X85500000Y-65225000D02*
X85500000Y-65775000D01*
G75*
G02*
X85300000Y-65975000I-200000J0D01*
G01*
X84900000Y-65975000D01*
G75*
G02*
X84700000Y-65775000I0J200000D01*
G01*
X84700000Y-65225000D01*
G75*
G02*
X84900000Y-65025000I200000J0D01*
G01*
X85300000Y-65025000D01*
G75*
G02*
X85500000Y-65225000I0J-200000D01*
G01*
G37*
%TD.AperFunction*%
%TO.P,R47,1*%
%TO.N,SD_nDET*%
%TA.AperFunction,SMDPad,CuDef*%
G36*
G01*
X87150000Y-65225000D02*
X87150000Y-65775000D01*
G75*
G02*
X86950000Y-65975000I-200000J0D01*
G01*
X86550000Y-65975000D01*
G75*
G02*
X86350000Y-65775000I0J200000D01*
G01*
X86350000Y-65225000D01*
G75*
G02*
X86550000Y-65025000I200000J0D01*
G01*
X86950000Y-65025000D01*
G75*
G02*
X87150000Y-65225000I0J-200000D01*
G01*
G37*
%TD.AperFunction*%
%TD*%
%TO.P,R46,2*%
%TO.N,Net-(J27-Pad8)*%
%TA.AperFunction,SMDPad,CuDef*%
G36*
G01*
X85500000Y-56225000D02*
X85500000Y-56775000D01*
G75*
G02*
X85300000Y-56975000I-200000J0D01*
G01*
X84900000Y-56975000D01*
G75*
G02*
X84700000Y-56775000I0J200000D01*
G01*
X84700000Y-56225000D01*
G75*
G02*
X84900000Y-56025000I200000J0D01*
G01*
X85300000Y-56025000D01*
G75*
G02*
X85500000Y-56225000I0J-200000D01*
G01*
G37*
%TD.AperFunction*%
%TO.P,R46,1*%
%TO.N,SD_DAT1*%
%TA.AperFunction,SMDPad,CuDef*%
G36*
G01*
X87150000Y-56225000D02*
X87150000Y-56775000D01*
G75*
G02*
X86950000Y-56975000I-200000J0D01*
G01*
X86550000Y-56975000D01*
G75*
G02*
X86350000Y-56775000I0J200000D01*
G01*
X86350000Y-56225000D01*
G75*
G02*
X86550000Y-56025000I200000J0D01*
G01*
X86950000Y-56025000D01*
G75*
G02*
X87150000Y-56225000I0J-200000D01*
G01*
G37*
%TD.AperFunction*%
%TD*%
%TO.P,R44,2*%
%TO.N,Net-(J27-Pad5)*%
%TA.AperFunction,SMDPad,CuDef*%
G36*
G01*
X85500000Y-59225000D02*
X85500000Y-59775000D01*
G75*
G02*
X85300000Y-59975000I-200000J0D01*
G01*
X84900000Y-59975000D01*
G75*
G02*
X84700000Y-59775000I0J200000D01*
G01*
X84700000Y-59225000D01*
G75*
G02*
X84900000Y-59025000I200000J0D01*
G01*
X85300000Y-59025000D01*
G75*
G02*
X85500000Y-59225000I0J-200000D01*
G01*
G37*
%TD.AperFunction*%
%TO.P,R44,1*%
%TO.N,SD_CLK*%
%TA.AperFunction,SMDPad,CuDef*%
G36*
G01*
X87150000Y-59225000D02*
X87150000Y-59775000D01*
G75*
G02*
X86950000Y-59975000I-200000J0D01*
G01*
X86550000Y-59975000D01*
G75*
G02*
X86350000Y-59775000I0J200000D01*
G01*
X86350000Y-59225000D01*
G75*
G02*
X86550000Y-59025000I200000J0D01*
G01*
X86950000Y-59025000D01*
G75*
G02*
X87150000Y-59225000I0J-200000D01*
G01*
G37*
%TD.AperFunction*%
%TD*%
%TO.P,R43,2*%
%TO.N,Net-(J27-Pad3)*%
%TA.AperFunction,SMDPad,CuDef*%
G36*
G01*
X85500000Y-60725000D02*
X85500000Y-61275000D01*
G75*
G02*
X85300000Y-61475000I-200000J0D01*
G01*
X84900000Y-61475000D01*
G75*
G02*
X84700000Y-61275000I0J200000D01*
G01*
X84700000Y-60725000D01*
G75*
G02*
X84900000Y-60525000I200000J0D01*
G01*
X85300000Y-60525000D01*
G75*
G02*
X85500000Y-60725000I0J-200000D01*
G01*
G37*
%TD.AperFunction*%
%TO.P,R43,1*%
%TO.N,SD_nCS*%
%TA.AperFunction,SMDPad,CuDef*%
G36*
G01*
X87150000Y-60725000D02*
X87150000Y-61275000D01*
G75*
G02*
X86950000Y-61475000I-200000J0D01*
G01*
X86550000Y-61475000D01*
G75*
G02*
X86350000Y-61275000I0J200000D01*
G01*
X86350000Y-60725000D01*
G75*
G02*
X86550000Y-60525000I200000J0D01*
G01*
X86950000Y-60525000D01*
G75*
G02*
X87150000Y-60725000I0J-200000D01*
G01*
G37*
%TD.AperFunction*%
%TD*%
%TO.P,R42,2*%
%TO.N,Net-(J27-Pad2)*%
%TA.AperFunction,SMDPad,CuDef*%
G36*
G01*
X85500000Y-62225000D02*
X85500000Y-62775000D01*
G75*
G02*
X85300000Y-62975000I-200000J0D01*
G01*
X84900000Y-62975000D01*
G75*
G02*
X84700000Y-62775000I0J200000D01*
G01*
X84700000Y-62225000D01*
G75*
G02*
X84900000Y-62025000I200000J0D01*
G01*
X85300000Y-62025000D01*
G75*
G02*
X85500000Y-62225000I0J-200000D01*
G01*
G37*
%TD.AperFunction*%
%TO.P,R42,1*%
%TO.N,SD_DAT3*%
%TA.AperFunction,SMDPad,CuDef*%
G36*
G01*
X87150000Y-62225000D02*
X87150000Y-62775000D01*
G75*
G02*
X86950000Y-62975000I-200000J0D01*
G01*
X86550000Y-62975000D01*
G75*
G02*
X86350000Y-62775000I0J200000D01*
G01*
X86350000Y-62225000D01*
G75*
G02*
X86550000Y-62025000I200000J0D01*
G01*
X86950000Y-62025000D01*
G75*
G02*
X87150000Y-62225000I0J-200000D01*
G01*
G37*
%TD.AperFunction*%
%TD*%
%TO.P,R41,2*%
%TO.N,Net-(J27-Pad1)*%
%TA.AperFunction,SMDPad,CuDef*%
G36*
G01*
X85500000Y-63725000D02*
X85500000Y-64275000D01*
G75*
G02*
X85300000Y-64475000I-200000J0D01*
G01*
X84900000Y-64475000D01*
G75*
G02*
X84700000Y-64275000I0J200000D01*
G01*
X84700000Y-63725000D01*
G75*
G02*
X84900000Y-63525000I200000J0D01*
G01*
X85300000Y-63525000D01*
G75*
G02*
X85500000Y-63725000I0J-200000D01*
G01*
G37*
%TD.AperFunction*%
%TO.P,R41,1*%
%TO.N,SD_DAT2*%
%TA.AperFunction,SMDPad,CuDef*%
G36*
G01*
X87150000Y-63725000D02*
X87150000Y-64275000D01*
G75*
G02*
X86950000Y-64475000I-200000J0D01*
G01*
X86550000Y-64475000D01*
G75*
G02*
X86350000Y-64275000I0J200000D01*
G01*
X86350000Y-63725000D01*
G75*
G02*
X86550000Y-63525000I200000J0D01*
G01*
X86950000Y-63525000D01*
G75*
G02*
X87150000Y-63725000I0J-200000D01*
G01*
G37*
%TD.AperFunction*%
%TD*%
D11*
%TO.P,JP1,2*%
%TO.N,Net-(J2-Pad17)*%
X68700000Y-113700000D03*
%TO.P,JP1,3*%
%TO.N,+3V3*%
X67400000Y-113700000D03*
%TO.P,JP1,1*%
%TO.N,GND*%
X70000000Y-113700000D03*
%TD*%
D12*
%TO.P,U3,38*%
%TO.N,GND*%
X114800000Y-43445000D03*
%TO.P,U3,37*%
%TO.N,EINK_EEPROM_~EN*%
X114800000Y-44715000D03*
%TO.P,U3,36*%
%TO.N,G_INT2*%
X114800000Y-45985000D03*
%TO.P,U3,35*%
%TO.N,Net-(R19-Pad1)*%
X114800000Y-47255000D03*
%TO.P,U3,34*%
%TO.N,Net-(R20-Pad1)*%
X114800000Y-48525000D03*
%TO.P,U3,33*%
%TO.N,G_INT1*%
X114800000Y-49795000D03*
%TO.P,U3,32*%
%TO.N,N/C*%
X114800000Y-51065000D03*
%TO.P,U3,31*%
%TO.N,EINK_SPI_MISO*%
X114800000Y-52335000D03*
%TO.P,U3,30*%
%TO.N,EINK_SPI_CLK*%
X114800000Y-53605000D03*
%TO.P,U3,29*%
%TO.N,EINK_~CS*%
X114800000Y-54875000D03*
%TO.P,U3,28*%
%TO.N,EINK_SPI_MOSI*%
X114800000Y-56145000D03*
%TO.P,U3,27*%
%TO.N,SD_VCC_nEN*%
X114800000Y-57415000D03*
%TO.P,U3,26*%
%TO.N,I2C_CLK*%
X114800000Y-58685000D03*
%TO.P,U3,25*%
%TO.N,I2C_DAT*%
X114800000Y-59955000D03*
D13*
%TO.P,U3,24*%
%TO.N,Net-(R17-Pad2)*%
X117585000Y-60955000D03*
%TO.P,U3,23*%
%TO.N,JTAG_TDO*%
X118855000Y-60955000D03*
%TO.P,U3,22*%
%TO.N,SD_DAT1*%
X120125000Y-60955000D03*
%TO.P,U3,21*%
%TO.N,SD_DAT0*%
X121395000Y-60955000D03*
%TO.P,U3,20*%
%TO.N,SD_CLK*%
X122665000Y-60955000D03*
%TO.P,U3,19*%
%TO.N,SD_nCS*%
X123935000Y-60955000D03*
%TO.P,U3,18*%
%TO.N,SD_DAT3*%
X125205000Y-60955000D03*
%TO.P,U3,17*%
%TO.N,SD_DAT2*%
X126475000Y-60955000D03*
%TO.P,U3,16*%
%TO.N,JTAG_TCK*%
X127745000Y-60955000D03*
%TO.P,U3,15*%
%TO.N,GND*%
X129015000Y-60955000D03*
D12*
%TO.P,U3,14*%
%TO.N,Net-(R36-Pad1)*%
X131800000Y-59955000D03*
%TO.P,U3,13*%
%TO.N,JTAG_TMS*%
X131800000Y-58685000D03*
%TO.P,U3,12*%
%TO.N,Net-(R40-Pad1)*%
X131800000Y-57415000D03*
%TO.P,U3,11*%
%TO.N,EINK_VCC_~EN*%
X131800000Y-56145000D03*
%TO.P,U3,10*%
%TO.N,EINK_DC*%
X131800000Y-54875000D03*
%TO.P,U3,9*%
%TO.N,Net-(R18-Pad2)*%
X131800000Y-53605000D03*
%TO.P,U3,8*%
%TO.N,GPS_VCC_nEN*%
X131800000Y-52335000D03*
%TO.P,U3,7*%
%TO.N,VIN_ADC*%
X131800000Y-51065000D03*
%TO.P,U3,6*%
%TO.N,VBAT_ADC*%
X131800000Y-49795000D03*
%TO.P,U3,5*%
%TO.N,EINK_STATE*%
X131800000Y-48525000D03*
%TO.P,U3,4*%
%TO.N,SD_nDET*%
X131800000Y-47255000D03*
%TO.P,U3,3*%
%TO.N,ESP_~RST*%
X131800000Y-45985000D03*
%TO.P,U3,2*%
%TO.N,+3V3*%
X131800000Y-44715000D03*
%TO.P,U3,1*%
%TO.N,GND*%
X131800000Y-43445000D03*
D14*
%TO.P,U3,39*%
X124300000Y-50945000D03*
%TD*%
%TO.P,R40,2*%
%TO.N,Net-(J8-Pad1)*%
%TA.AperFunction,SMDPad,CuDef*%
G36*
G01*
X75975000Y-42325000D02*
X75975000Y-42875000D01*
G75*
G02*
X75775000Y-43075000I-200000J0D01*
G01*
X75375000Y-43075000D01*
G75*
G02*
X75175000Y-42875000I0J200000D01*
G01*
X75175000Y-42325000D01*
G75*
G02*
X75375000Y-42125000I200000J0D01*
G01*
X75775000Y-42125000D01*
G75*
G02*
X75975000Y-42325000I0J-200000D01*
G01*
G37*
%TD.AperFunction*%
%TO.P,R40,1*%
%TO.N,Net-(R40-Pad1)*%
%TA.AperFunction,SMDPad,CuDef*%
G36*
G01*
X77625000Y-42325000D02*
X77625000Y-42875000D01*
G75*
G02*
X77425000Y-43075000I-200000J0D01*
G01*
X77025000Y-43075000D01*
G75*
G02*
X76825000Y-42875000I0J200000D01*
G01*
X76825000Y-42325000D01*
G75*
G02*
X77025000Y-42125000I200000J0D01*
G01*
X77425000Y-42125000D01*
G75*
G02*
X77625000Y-42325000I0J-200000D01*
G01*
G37*
%TD.AperFunction*%
%TD*%
%TO.P,R39,2*%
%TO.N,Net-(J7-Pad1)*%
%TA.AperFunction,SMDPad,CuDef*%
G36*
G01*
X75975000Y-47125000D02*
X75975000Y-47675000D01*
G75*
G02*
X75775000Y-47875000I-200000J0D01*
G01*
X75375000Y-47875000D01*
G75*
G02*
X75175000Y-47675000I0J200000D01*
G01*
X75175000Y-47125000D01*
G75*
G02*
X75375000Y-46925000I200000J0D01*
G01*
X75775000Y-46925000D01*
G75*
G02*
X75975000Y-47125000I0J-200000D01*
G01*
G37*
%TD.AperFunction*%
%TO.P,R39,1*%
%TO.N,JTAG_TDO*%
%TA.AperFunction,SMDPad,CuDef*%
G36*
G01*
X77625000Y-47125000D02*
X77625000Y-47675000D01*
G75*
G02*
X77425000Y-47875000I-200000J0D01*
G01*
X77025000Y-47875000D01*
G75*
G02*
X76825000Y-47675000I0J200000D01*
G01*
X76825000Y-47125000D01*
G75*
G02*
X77025000Y-46925000I200000J0D01*
G01*
X77425000Y-46925000D01*
G75*
G02*
X77625000Y-47125000I0J-200000D01*
G01*
G37*
%TD.AperFunction*%
%TD*%
%TO.P,R38,2*%
%TO.N,Net-(J6-Pad1)*%
%TA.AperFunction,SMDPad,CuDef*%
G36*
G01*
X75950000Y-48725000D02*
X75950000Y-49275000D01*
G75*
G02*
X75750000Y-49475000I-200000J0D01*
G01*
X75350000Y-49475000D01*
G75*
G02*
X75150000Y-49275000I0J200000D01*
G01*
X75150000Y-48725000D01*
G75*
G02*
X75350000Y-48525000I200000J0D01*
G01*
X75750000Y-48525000D01*
G75*
G02*
X75950000Y-48725000I0J-200000D01*
G01*
G37*
%TD.AperFunction*%
%TO.P,R38,1*%
%TO.N,JTAG_TMS*%
%TA.AperFunction,SMDPad,CuDef*%
G36*
G01*
X77600000Y-48725000D02*
X77600000Y-49275000D01*
G75*
G02*
X77400000Y-49475000I-200000J0D01*
G01*
X77000000Y-49475000D01*
G75*
G02*
X76800000Y-49275000I0J200000D01*
G01*
X76800000Y-48725000D01*
G75*
G02*
X77000000Y-48525000I200000J0D01*
G01*
X77400000Y-48525000D01*
G75*
G02*
X77600000Y-48725000I0J-200000D01*
G01*
G37*
%TD.AperFunction*%
%TD*%
%TO.P,R37,2*%
%TO.N,Net-(J5-Pad1)*%
%TA.AperFunction,SMDPad,CuDef*%
G36*
G01*
X75975000Y-43925000D02*
X75975000Y-44475000D01*
G75*
G02*
X75775000Y-44675000I-200000J0D01*
G01*
X75375000Y-44675000D01*
G75*
G02*
X75175000Y-44475000I0J200000D01*
G01*
X75175000Y-43925000D01*
G75*
G02*
X75375000Y-43725000I200000J0D01*
G01*
X75775000Y-43725000D01*
G75*
G02*
X75975000Y-43925000I0J-200000D01*
G01*
G37*
%TD.AperFunction*%
%TO.P,R37,1*%
%TO.N,JTAG_TCK*%
%TA.AperFunction,SMDPad,CuDef*%
G36*
G01*
X77625000Y-43925000D02*
X77625000Y-44475000D01*
G75*
G02*
X77425000Y-44675000I-200000J0D01*
G01*
X77025000Y-44675000D01*
G75*
G02*
X76825000Y-44475000I0J200000D01*
G01*
X76825000Y-43925000D01*
G75*
G02*
X77025000Y-43725000I200000J0D01*
G01*
X77425000Y-43725000D01*
G75*
G02*
X77625000Y-43925000I0J-200000D01*
G01*
G37*
%TD.AperFunction*%
%TD*%
%TO.P,R36,2*%
%TO.N,Net-(J4-Pad1)*%
%TA.AperFunction,SMDPad,CuDef*%
G36*
G01*
X76000000Y-50325000D02*
X76000000Y-50875000D01*
G75*
G02*
X75800000Y-51075000I-200000J0D01*
G01*
X75400000Y-51075000D01*
G75*
G02*
X75200000Y-50875000I0J200000D01*
G01*
X75200000Y-50325000D01*
G75*
G02*
X75400000Y-50125000I200000J0D01*
G01*
X75800000Y-50125000D01*
G75*
G02*
X76000000Y-50325000I0J-200000D01*
G01*
G37*
%TD.AperFunction*%
%TO.P,R36,1*%
%TO.N,Net-(R36-Pad1)*%
%TA.AperFunction,SMDPad,CuDef*%
G36*
G01*
X77650000Y-50325000D02*
X77650000Y-50875000D01*
G75*
G02*
X77450000Y-51075000I-200000J0D01*
G01*
X77050000Y-51075000D01*
G75*
G02*
X76850000Y-50875000I0J200000D01*
G01*
X76850000Y-50325000D01*
G75*
G02*
X77050000Y-50125000I200000J0D01*
G01*
X77450000Y-50125000D01*
G75*
G02*
X77650000Y-50325000I0J-200000D01*
G01*
G37*
%TD.AperFunction*%
%TD*%
%TO.P,R35,2*%
%TO.N,Net-(J3-Pad1)*%
%TA.AperFunction,SMDPad,CuDef*%
G36*
G01*
X75975000Y-45525000D02*
X75975000Y-46075000D01*
G75*
G02*
X75775000Y-46275000I-200000J0D01*
G01*
X75375000Y-46275000D01*
G75*
G02*
X75175000Y-46075000I0J200000D01*
G01*
X75175000Y-45525000D01*
G75*
G02*
X75375000Y-45325000I200000J0D01*
G01*
X75775000Y-45325000D01*
G75*
G02*
X75975000Y-45525000I0J-200000D01*
G01*
G37*
%TD.AperFunction*%
%TO.P,R35,1*%
%TO.N,Net-(R17-Pad2)*%
%TA.AperFunction,SMDPad,CuDef*%
G36*
G01*
X77625000Y-45525000D02*
X77625000Y-46075000D01*
G75*
G02*
X77425000Y-46275000I-200000J0D01*
G01*
X77025000Y-46275000D01*
G75*
G02*
X76825000Y-46075000I0J200000D01*
G01*
X76825000Y-45525000D01*
G75*
G02*
X77025000Y-45325000I200000J0D01*
G01*
X77425000Y-45325000D01*
G75*
G02*
X77625000Y-45525000I0J-200000D01*
G01*
G37*
%TD.AperFunction*%
%TD*%
%TO.P,C32,2*%
%TO.N,GPS_SUPPLY*%
%TA.AperFunction,SMDPad,CuDef*%
G36*
G01*
X84750000Y-35950000D02*
X85250000Y-35950000D01*
G75*
G02*
X85475000Y-36175000I0J-225000D01*
G01*
X85475000Y-36625000D01*
G75*
G02*
X85250000Y-36850000I-225000J0D01*
G01*
X84750000Y-36850000D01*
G75*
G02*
X84525000Y-36625000I0J225000D01*
G01*
X84525000Y-36175000D01*
G75*
G02*
X84750000Y-35950000I225000J0D01*
G01*
G37*
%TD.AperFunction*%
%TO.P,C32,1*%
%TO.N,GND*%
%TA.AperFunction,SMDPad,CuDef*%
G36*
G01*
X84750000Y-34400000D02*
X85250000Y-34400000D01*
G75*
G02*
X85475000Y-34625000I0J-225000D01*
G01*
X85475000Y-35075000D01*
G75*
G02*
X85250000Y-35300000I-225000J0D01*
G01*
X84750000Y-35300000D01*
G75*
G02*
X84525000Y-35075000I0J225000D01*
G01*
X84525000Y-34625000D01*
G75*
G02*
X84750000Y-34400000I225000J0D01*
G01*
G37*
%TD.AperFunction*%
%TD*%
%TO.P,C33,2*%
%TO.N,GPS_SUPPLY*%
%TA.AperFunction,SMDPad,CuDef*%
G36*
G01*
X86350000Y-35950000D02*
X86850000Y-35950000D01*
G75*
G02*
X87075000Y-36175000I0J-225000D01*
G01*
X87075000Y-36625000D01*
G75*
G02*
X86850000Y-36850000I-225000J0D01*
G01*
X86350000Y-36850000D01*
G75*
G02*
X86125000Y-36625000I0J225000D01*
G01*
X86125000Y-36175000D01*
G75*
G02*
X86350000Y-35950000I225000J0D01*
G01*
G37*
%TD.AperFunction*%
%TO.P,C33,1*%
%TO.N,GND*%
%TA.AperFunction,SMDPad,CuDef*%
G36*
G01*
X86350000Y-34400000D02*
X86850000Y-34400000D01*
G75*
G02*
X87075000Y-34625000I0J-225000D01*
G01*
X87075000Y-35075000D01*
G75*
G02*
X86850000Y-35300000I-225000J0D01*
G01*
X86350000Y-35300000D01*
G75*
G02*
X86125000Y-35075000I0J225000D01*
G01*
X86125000Y-34625000D01*
G75*
G02*
X86350000Y-34400000I225000J0D01*
G01*
G37*
%TD.AperFunction*%
%TD*%
%TO.P,C31,2*%
%TO.N,GND*%
%TA.AperFunction,SMDPad,CuDef*%
G36*
G01*
X84750000Y-39150000D02*
X85250000Y-39150000D01*
G75*
G02*
X85475000Y-39375000I0J-225000D01*
G01*
X85475000Y-39825000D01*
G75*
G02*
X85250000Y-40050000I-225000J0D01*
G01*
X84750000Y-40050000D01*
G75*
G02*
X84525000Y-39825000I0J225000D01*
G01*
X84525000Y-39375000D01*
G75*
G02*
X84750000Y-39150000I225000J0D01*
G01*
G37*
%TD.AperFunction*%
%TO.P,C31,1*%
%TO.N,+BATT*%
%TA.AperFunction,SMDPad,CuDef*%
G36*
G01*
X84750000Y-37600000D02*
X85250000Y-37600000D01*
G75*
G02*
X85475000Y-37825000I0J-225000D01*
G01*
X85475000Y-38275000D01*
G75*
G02*
X85250000Y-38500000I-225000J0D01*
G01*
X84750000Y-38500000D01*
G75*
G02*
X84525000Y-38275000I0J225000D01*
G01*
X84525000Y-37825000D01*
G75*
G02*
X84750000Y-37600000I225000J0D01*
G01*
G37*
%TD.AperFunction*%
%TD*%
D15*
%TO.P,U5,31*%
%TO.N,GND*%
X92750000Y-45000000D03*
%TO.P,U5,30*%
%TO.N,N/C*%
X93750000Y-45000000D03*
%TO.P,U5,29*%
X94750000Y-45000000D03*
%TO.P,U5,28*%
%TO.N,Net-(R25-Pad2)*%
X95750000Y-45000000D03*
%TO.P,U5,27*%
%TO.N,GND*%
X96750000Y-45000000D03*
D16*
%TO.P,U5,26*%
%TO.N,Net-(R23-Pad2)*%
X99550000Y-44200000D03*
%TO.P,U5,25*%
%TO.N,Net-(R24-Pad2)*%
X99550000Y-43200000D03*
%TO.P,U5,24*%
%TO.N,N/C*%
X99550000Y-42200000D03*
%TO.P,U5,23*%
%TO.N,Net-(R22-Pad2)*%
X99550000Y-41200000D03*
%TO.P,U5,22*%
%TO.N,GND*%
X99550000Y-40200000D03*
%TO.P,U5,21*%
X99550000Y-39200000D03*
%TO.P,U5,20*%
%TO.N,N/C*%
X99550000Y-38200000D03*
%TO.P,U5,19*%
%TO.N,GND*%
X99550000Y-37200000D03*
%TO.P,U5,18*%
X99550000Y-36200000D03*
%TO.P,U5,17*%
%TO.N,Net-(U5-Pad16)*%
X99550000Y-35200000D03*
%TO.P,U5,16*%
X99550000Y-34200000D03*
%TO.P,U5,15*%
%TO.N,GND*%
X99550000Y-33200000D03*
%TO.P,U5,14*%
X99550000Y-32050000D03*
%TO.P,U5,13*%
X89950000Y-32050000D03*
%TO.P,U5,12*%
X89950000Y-33200000D03*
%TO.P,U5,11*%
X89950000Y-34200000D03*
%TO.P,U5,10*%
X89950000Y-35200000D03*
%TO.P,U5,9*%
%TO.N,GPS_SUPPLY*%
X89950000Y-36200000D03*
%TO.P,U5,8*%
%TO.N,+BATT*%
X89950000Y-37200000D03*
%TO.P,U5,7*%
%TO.N,Net-(R26-Pad2)*%
X89950000Y-38200000D03*
%TO.P,U5,6*%
%TO.N,I2C_CLK*%
X89950000Y-39200000D03*
%TO.P,U5,5*%
%TO.N,GND*%
X89950000Y-40200000D03*
%TO.P,U5,4*%
X89950000Y-41200000D03*
%TO.P,U5,3*%
%TO.N,I2C_DAT*%
X89950000Y-42200000D03*
%TO.P,U5,2*%
%TO.N,N/C*%
X89950000Y-43200000D03*
%TO.P,U5,1*%
X89950000Y-44200000D03*
%TD*%
D17*
%TO.P,J23,6*%
%TO.N,JTAG_TDO*%
X136999000Y-36430000D03*
%TO.P,J23,5*%
%TO.N,GND*%
X138269000Y-36430000D03*
%TO.P,J23,4*%
%TO.N,JTAG_TCK*%
X136999000Y-35160000D03*
%TO.P,J23,3*%
%TO.N,ESP_~RST*%
X138269000Y-35160000D03*
%TO.P,J23,2*%
%TO.N,JTAG_TMS*%
X136999000Y-33890000D03*
%TO.P,J23,1*%
%TO.N,+3V3*%
X138269000Y-33890000D03*
%TD*%
%TO.P,R24,2*%
%TO.N,Net-(R24-Pad2)*%
%TA.AperFunction,SMDPad,CuDef*%
G36*
G01*
X102675000Y-42575000D02*
X102675000Y-43125000D01*
G75*
G02*
X102475000Y-43325000I-200000J0D01*
G01*
X102075000Y-43325000D01*
G75*
G02*
X101875000Y-43125000I0J200000D01*
G01*
X101875000Y-42575000D01*
G75*
G02*
X102075000Y-42375000I200000J0D01*
G01*
X102475000Y-42375000D01*
G75*
G02*
X102675000Y-42575000I0J-200000D01*
G01*
G37*
%TD.AperFunction*%
%TO.P,R24,1*%
%TO.N,UART1_TX*%
%TA.AperFunction,SMDPad,CuDef*%
G36*
G01*
X104325000Y-42575000D02*
X104325000Y-43125000D01*
G75*
G02*
X104125000Y-43325000I-200000J0D01*
G01*
X103725000Y-43325000D01*
G75*
G02*
X103525000Y-43125000I0J200000D01*
G01*
X103525000Y-42575000D01*
G75*
G02*
X103725000Y-42375000I200000J0D01*
G01*
X104125000Y-42375000D01*
G75*
G02*
X104325000Y-42575000I0J-200000D01*
G01*
G37*
%TD.AperFunction*%
%TD*%
%TO.P,R23,2*%
%TO.N,Net-(R23-Pad2)*%
%TA.AperFunction,SMDPad,CuDef*%
G36*
G01*
X102675000Y-44075000D02*
X102675000Y-44625000D01*
G75*
G02*
X102475000Y-44825000I-200000J0D01*
G01*
X102075000Y-44825000D01*
G75*
G02*
X101875000Y-44625000I0J200000D01*
G01*
X101875000Y-44075000D01*
G75*
G02*
X102075000Y-43875000I200000J0D01*
G01*
X102475000Y-43875000D01*
G75*
G02*
X102675000Y-44075000I0J-200000D01*
G01*
G37*
%TD.AperFunction*%
%TO.P,R23,1*%
%TO.N,UART1_RX*%
%TA.AperFunction,SMDPad,CuDef*%
G36*
G01*
X104325000Y-44075000D02*
X104325000Y-44625000D01*
G75*
G02*
X104125000Y-44825000I-200000J0D01*
G01*
X103725000Y-44825000D01*
G75*
G02*
X103525000Y-44625000I0J200000D01*
G01*
X103525000Y-44075000D01*
G75*
G02*
X103725000Y-43875000I200000J0D01*
G01*
X104125000Y-43875000D01*
G75*
G02*
X104325000Y-44075000I0J-200000D01*
G01*
G37*
%TD.AperFunction*%
%TD*%
%TO.P,R22,2*%
%TO.N,Net-(R22-Pad2)*%
%TA.AperFunction,SMDPad,CuDef*%
G36*
G01*
X102675000Y-41075000D02*
X102675000Y-41625000D01*
G75*
G02*
X102475000Y-41825000I-200000J0D01*
G01*
X102075000Y-41825000D01*
G75*
G02*
X101875000Y-41625000I0J200000D01*
G01*
X101875000Y-41075000D01*
G75*
G02*
X102075000Y-40875000I200000J0D01*
G01*
X102475000Y-40875000D01*
G75*
G02*
X102675000Y-41075000I0J-200000D01*
G01*
G37*
%TD.AperFunction*%
%TO.P,R22,1*%
%TO.N,GPS_SUPPLY*%
%TA.AperFunction,SMDPad,CuDef*%
G36*
G01*
X104325000Y-41075000D02*
X104325000Y-41625000D01*
G75*
G02*
X104125000Y-41825000I-200000J0D01*
G01*
X103725000Y-41825000D01*
G75*
G02*
X103525000Y-41625000I0J200000D01*
G01*
X103525000Y-41075000D01*
G75*
G02*
X103725000Y-40875000I200000J0D01*
G01*
X104125000Y-40875000D01*
G75*
G02*
X104325000Y-41075000I0J-200000D01*
G01*
G37*
%TD.AperFunction*%
%TD*%
%TO.P,R25,2*%
%TO.N,Net-(R25-Pad2)*%
%TA.AperFunction,SMDPad,CuDef*%
G36*
G01*
X96125000Y-48900000D02*
X95575000Y-48900000D01*
G75*
G02*
X95375000Y-48700000I0J200000D01*
G01*
X95375000Y-48300000D01*
G75*
G02*
X95575000Y-48100000I200000J0D01*
G01*
X96125000Y-48100000D01*
G75*
G02*
X96325000Y-48300000I0J-200000D01*
G01*
X96325000Y-48700000D01*
G75*
G02*
X96125000Y-48900000I-200000J0D01*
G01*
G37*
%TD.AperFunction*%
%TO.P,R25,1*%
%TO.N,EINK_EEPROM_~EN*%
%TA.AperFunction,SMDPad,CuDef*%
G36*
G01*
X96125000Y-50550000D02*
X95575000Y-50550000D01*
G75*
G02*
X95375000Y-50350000I0J200000D01*
G01*
X95375000Y-49950000D01*
G75*
G02*
X95575000Y-49750000I200000J0D01*
G01*
X96125000Y-49750000D01*
G75*
G02*
X96325000Y-49950000I0J-200000D01*
G01*
X96325000Y-50350000D01*
G75*
G02*
X96125000Y-50550000I-200000J0D01*
G01*
G37*
%TD.AperFunction*%
%TD*%
D18*
%TO.P,J10,1*%
%TO.N,GND*%
X66250000Y-73000000D03*
%TD*%
D19*
%TO.P,J9,1*%
%TO.N,+BATT*%
X61200000Y-73000000D03*
%TD*%
%TO.P,R17,2*%
%TO.N,Net-(R17-Pad2)*%
%TA.AperFunction,SMDPad,CuDef*%
G36*
G01*
X117625000Y-65775000D02*
X117075000Y-65775000D01*
G75*
G02*
X116875000Y-65575000I0J200000D01*
G01*
X116875000Y-65175000D01*
G75*
G02*
X117075000Y-64975000I200000J0D01*
G01*
X117625000Y-64975000D01*
G75*
G02*
X117825000Y-65175000I0J-200000D01*
G01*
X117825000Y-65575000D01*
G75*
G02*
X117625000Y-65775000I-200000J0D01*
G01*
G37*
%TD.AperFunction*%
%TO.P,R17,1*%
%TO.N,GND*%
%TA.AperFunction,SMDPad,CuDef*%
G36*
G01*
X117625000Y-67425000D02*
X117075000Y-67425000D01*
G75*
G02*
X116875000Y-67225000I0J200000D01*
G01*
X116875000Y-66825000D01*
G75*
G02*
X117075000Y-66625000I200000J0D01*
G01*
X117625000Y-66625000D01*
G75*
G02*
X117825000Y-66825000I0J-200000D01*
G01*
X117825000Y-67225000D01*
G75*
G02*
X117625000Y-67425000I-200000J0D01*
G01*
G37*
%TD.AperFunction*%
%TD*%
D20*
%TO.P,J1,6*%
%TO.N,GND*%
X60675000Y-35050000D03*
X68725000Y-35050000D03*
D21*
X68815000Y-32690000D03*
X60585000Y-32690000D03*
D22*
%TO.P,J1,5*%
X66000000Y-35525000D03*
%TO.P,J1,4*%
%TO.N,N/C*%
X65350000Y-35525000D03*
%TO.P,J1,3*%
%TO.N,Net-(J1-Pad3)*%
X64700000Y-35525000D03*
%TO.P,J1,2*%
%TO.N,Net-(J1-Pad2)*%
X64050000Y-35525000D03*
%TO.P,J1,1*%
%TO.N,+5V*%
X63400000Y-35525000D03*
%TD*%
%TO.P,U7,8*%
%TO.N,EINK_VCC*%
%TA.AperFunction,SMDPad,CuDef*%
G36*
G01*
X61700000Y-128545000D02*
X61700000Y-128845000D01*
G75*
G02*
X61550000Y-128995000I-150000J0D01*
G01*
X59900000Y-128995000D01*
G75*
G02*
X59750000Y-128845000I0J150000D01*
G01*
X59750000Y-128545000D01*
G75*
G02*
X59900000Y-128395000I150000J0D01*
G01*
X61550000Y-128395000D01*
G75*
G02*
X61700000Y-128545000I0J-150000D01*
G01*
G37*
%TD.AperFunction*%
%TO.P,U7,7*%
%TO.N,GND*%
%TA.AperFunction,SMDPad,CuDef*%
G36*
G01*
X61700000Y-129815000D02*
X61700000Y-130115000D01*
G75*
G02*
X61550000Y-130265000I-150000J0D01*
G01*
X59900000Y-130265000D01*
G75*
G02*
X59750000Y-130115000I0J150000D01*
G01*
X59750000Y-129815000D01*
G75*
G02*
X59900000Y-129665000I150000J0D01*
G01*
X61550000Y-129665000D01*
G75*
G02*
X61700000Y-129815000I0J-150000D01*
G01*
G37*
%TD.AperFunction*%
%TO.P,U7,6*%
%TA.AperFunction,SMDPad,CuDef*%
G36*
G01*
X61700000Y-131085000D02*
X61700000Y-131385000D01*
G75*
G02*
X61550000Y-131535000I-150000J0D01*
G01*
X59900000Y-131535000D01*
G75*
G02*
X59750000Y-131385000I0J150000D01*
G01*
X59750000Y-131085000D01*
G75*
G02*
X59900000Y-130935000I150000J0D01*
G01*
X61550000Y-130935000D01*
G75*
G02*
X61700000Y-131085000I0J-150000D01*
G01*
G37*
%TD.AperFunction*%
%TO.P,U7,5*%
%TA.AperFunction,SMDPad,CuDef*%
G36*
G01*
X61700000Y-132355000D02*
X61700000Y-132655000D01*
G75*
G02*
X61550000Y-132805000I-150000J0D01*
G01*
X59900000Y-132805000D01*
G75*
G02*
X59750000Y-132655000I0J150000D01*
G01*
X59750000Y-132355000D01*
G75*
G02*
X59900000Y-132205000I150000J0D01*
G01*
X61550000Y-132205000D01*
G75*
G02*
X61700000Y-132355000I0J-150000D01*
G01*
G37*
%TD.AperFunction*%
%TO.P,U7,4*%
%TA.AperFunction,SMDPad,CuDef*%
G36*
G01*
X66650000Y-132355000D02*
X66650000Y-132655000D01*
G75*
G02*
X66500000Y-132805000I-150000J0D01*
G01*
X64850000Y-132805000D01*
G75*
G02*
X64700000Y-132655000I0J150000D01*
G01*
X64700000Y-132355000D01*
G75*
G02*
X64850000Y-132205000I150000J0D01*
G01*
X66500000Y-132205000D01*
G75*
G02*
X66650000Y-132355000I0J-150000D01*
G01*
G37*
%TD.AperFunction*%
%TO.P,U7,3*%
%TO.N,N/C*%
%TA.AperFunction,SMDPad,CuDef*%
G36*
G01*
X66650000Y-131085000D02*
X66650000Y-131385000D01*
G75*
G02*
X66500000Y-131535000I-150000J0D01*
G01*
X64850000Y-131535000D01*
G75*
G02*
X64700000Y-131385000I0J150000D01*
G01*
X64700000Y-131085000D01*
G75*
G02*
X64850000Y-130935000I150000J0D01*
G01*
X66500000Y-130935000D01*
G75*
G02*
X66650000Y-131085000I0J-150000D01*
G01*
G37*
%TD.AperFunction*%
%TO.P,U7,2*%
%TO.N,Net-(J2-Pad19)*%
%TA.AperFunction,SMDPad,CuDef*%
G36*
G01*
X66650000Y-129815000D02*
X66650000Y-130115000D01*
G75*
G02*
X66500000Y-130265000I-150000J0D01*
G01*
X64850000Y-130265000D01*
G75*
G02*
X64700000Y-130115000I0J150000D01*
G01*
X64700000Y-129815000D01*
G75*
G02*
X64850000Y-129665000I150000J0D01*
G01*
X66500000Y-129665000D01*
G75*
G02*
X66650000Y-129815000I0J-150000D01*
G01*
G37*
%TD.AperFunction*%
%TO.P,U7,1*%
%TO.N,Net-(J2-Pad18)*%
%TA.AperFunction,SMDPad,CuDef*%
G36*
G01*
X66650000Y-128545000D02*
X66650000Y-128845000D01*
G75*
G02*
X66500000Y-128995000I-150000J0D01*
G01*
X64850000Y-128995000D01*
G75*
G02*
X64700000Y-128845000I0J150000D01*
G01*
X64700000Y-128545000D01*
G75*
G02*
X64850000Y-128395000I150000J0D01*
G01*
X66500000Y-128395000D01*
G75*
G02*
X66650000Y-128545000I0J-150000D01*
G01*
G37*
%TD.AperFunction*%
%TD*%
%TA.AperFunction,SMDPad,CuDef*%
D23*
%TO.P,U6,14*%
%TO.N,I2C_DAT*%
G36*
X83135368Y-77548559D02*
G01*
X83121299Y-77544291D01*
X83108332Y-77537360D01*
X83096967Y-77528033D01*
X83087640Y-77516668D01*
X83080709Y-77503701D01*
X83076441Y-77489632D01*
X83075000Y-77475000D01*
X83075000Y-77000000D01*
X83076441Y-76985368D01*
X83080709Y-76971299D01*
X83087640Y-76958332D01*
X83096967Y-76946967D01*
X83108332Y-76937640D01*
X83121299Y-76930709D01*
X83135368Y-76926441D01*
X83150000Y-76925000D01*
X83375000Y-76925000D01*
X83389632Y-76926441D01*
X83403701Y-76930709D01*
X83416668Y-76937640D01*
X83428033Y-76946967D01*
X83437360Y-76958332D01*
X83444291Y-76971299D01*
X83448559Y-76985368D01*
X83450000Y-77000000D01*
X83450000Y-77268934D01*
X83448559Y-77283566D01*
X83444291Y-77297635D01*
X83437360Y-77310602D01*
X83428033Y-77321967D01*
X83221967Y-77528033D01*
X83210602Y-77537360D01*
X83197635Y-77544291D01*
X83183566Y-77548559D01*
X83168934Y-77550000D01*
X83150000Y-77550000D01*
X83135368Y-77548559D01*
G37*
%TD.AperFunction*%
%TO.P,U6,13*%
%TO.N,I2C_CLK*%
%TA.AperFunction,SMDPad,CuDef*%
G36*
G01*
X82925000Y-77012500D02*
X82925000Y-77462500D01*
G75*
G02*
X82837500Y-77550000I-87500J0D01*
G01*
X82662500Y-77550000D01*
G75*
G02*
X82575000Y-77462500I0J87500D01*
G01*
X82575000Y-77012500D01*
G75*
G02*
X82662500Y-76925000I87500J0D01*
G01*
X82837500Y-76925000D01*
G75*
G02*
X82925000Y-77012500I0J-87500D01*
G01*
G37*
%TD.AperFunction*%
%TA.AperFunction,SMDPad,CuDef*%
%TO.P,U6,12*%
%TO.N,+3V3*%
G36*
X82316434Y-77548559D02*
G01*
X82302365Y-77544291D01*
X82289398Y-77537360D01*
X82278033Y-77528033D01*
X82071967Y-77321967D01*
X82062640Y-77310602D01*
X82055709Y-77297635D01*
X82051441Y-77283566D01*
X82050000Y-77268934D01*
X82050000Y-77000000D01*
X82051441Y-76985368D01*
X82055709Y-76971299D01*
X82062640Y-76958332D01*
X82071967Y-76946967D01*
X82083332Y-76937640D01*
X82096299Y-76930709D01*
X82110368Y-76926441D01*
X82125000Y-76925000D01*
X82350000Y-76925000D01*
X82364632Y-76926441D01*
X82378701Y-76930709D01*
X82391668Y-76937640D01*
X82403033Y-76946967D01*
X82412360Y-76958332D01*
X82419291Y-76971299D01*
X82423559Y-76985368D01*
X82425000Y-77000000D01*
X82425000Y-77475000D01*
X82423559Y-77489632D01*
X82419291Y-77503701D01*
X82412360Y-77516668D01*
X82403033Y-77528033D01*
X82391668Y-77537360D01*
X82378701Y-77544291D01*
X82364632Y-77548559D01*
X82350000Y-77550000D01*
X82331066Y-77550000D01*
X82316434Y-77548559D01*
G37*
%TD.AperFunction*%
%TA.AperFunction,SMDPad,CuDef*%
%TO.P,U6,11*%
%TO.N,N/C*%
G36*
X81335368Y-77573559D02*
G01*
X81321299Y-77569291D01*
X81308332Y-77562360D01*
X81296967Y-77553033D01*
X81287640Y-77541668D01*
X81280709Y-77528701D01*
X81276441Y-77514632D01*
X81275000Y-77500000D01*
X81275000Y-77275000D01*
X81276441Y-77260368D01*
X81280709Y-77246299D01*
X81287640Y-77233332D01*
X81296967Y-77221967D01*
X81308332Y-77212640D01*
X81321299Y-77205709D01*
X81335368Y-77201441D01*
X81350000Y-77200000D01*
X81618934Y-77200000D01*
X81633566Y-77201441D01*
X81647635Y-77205709D01*
X81660602Y-77212640D01*
X81671967Y-77221967D01*
X81878033Y-77428033D01*
X81887360Y-77439398D01*
X81894291Y-77452365D01*
X81898559Y-77466434D01*
X81900000Y-77481066D01*
X81900000Y-77500000D01*
X81898559Y-77514632D01*
X81894291Y-77528701D01*
X81887360Y-77541668D01*
X81878033Y-77553033D01*
X81866668Y-77562360D01*
X81853701Y-77569291D01*
X81839632Y-77573559D01*
X81825000Y-77575000D01*
X81350000Y-77575000D01*
X81335368Y-77573559D01*
G37*
%TD.AperFunction*%
%TO.P,U6,10*%
%TA.AperFunction,SMDPad,CuDef*%
G36*
G01*
X81900000Y-77812500D02*
X81900000Y-77987500D01*
G75*
G02*
X81812500Y-78075000I-87500J0D01*
G01*
X81362500Y-78075000D01*
G75*
G02*
X81275000Y-77987500I0J87500D01*
G01*
X81275000Y-77812500D01*
G75*
G02*
X81362500Y-77725000I87500J0D01*
G01*
X81812500Y-77725000D01*
G75*
G02*
X81900000Y-77812500I0J-87500D01*
G01*
G37*
%TD.AperFunction*%
%TO.P,U6,9*%
%TO.N,G_INT2*%
%TA.AperFunction,SMDPad,CuDef*%
G36*
G01*
X81900000Y-78312500D02*
X81900000Y-78487500D01*
G75*
G02*
X81812500Y-78575000I-87500J0D01*
G01*
X81362500Y-78575000D01*
G75*
G02*
X81275000Y-78487500I0J87500D01*
G01*
X81275000Y-78312500D01*
G75*
G02*
X81362500Y-78225000I87500J0D01*
G01*
X81812500Y-78225000D01*
G75*
G02*
X81900000Y-78312500I0J-87500D01*
G01*
G37*
%TD.AperFunction*%
%TA.AperFunction,SMDPad,CuDef*%
%TO.P,U6,8*%
%TO.N,+3V3*%
G36*
X81335368Y-79098559D02*
G01*
X81321299Y-79094291D01*
X81308332Y-79087360D01*
X81296967Y-79078033D01*
X81287640Y-79066668D01*
X81280709Y-79053701D01*
X81276441Y-79039632D01*
X81275000Y-79025000D01*
X81275000Y-78800000D01*
X81276441Y-78785368D01*
X81280709Y-78771299D01*
X81287640Y-78758332D01*
X81296967Y-78746967D01*
X81308332Y-78737640D01*
X81321299Y-78730709D01*
X81335368Y-78726441D01*
X81350000Y-78725000D01*
X81825000Y-78725000D01*
X81839632Y-78726441D01*
X81853701Y-78730709D01*
X81866668Y-78737640D01*
X81878033Y-78746967D01*
X81887360Y-78758332D01*
X81894291Y-78771299D01*
X81898559Y-78785368D01*
X81900000Y-78800000D01*
X81900000Y-78818934D01*
X81898559Y-78833566D01*
X81894291Y-78847635D01*
X81887360Y-78860602D01*
X81878033Y-78871967D01*
X81671967Y-79078033D01*
X81660602Y-79087360D01*
X81647635Y-79094291D01*
X81633566Y-79098559D01*
X81618934Y-79100000D01*
X81350000Y-79100000D01*
X81335368Y-79098559D01*
G37*
%TD.AperFunction*%
%TA.AperFunction,SMDPad,CuDef*%
%TO.P,U6,7*%
%TO.N,GND*%
G36*
X82110368Y-79373559D02*
G01*
X82096299Y-79369291D01*
X82083332Y-79362360D01*
X82071967Y-79353033D01*
X82062640Y-79341668D01*
X82055709Y-79328701D01*
X82051441Y-79314632D01*
X82050000Y-79300000D01*
X82050000Y-79031066D01*
X82051441Y-79016434D01*
X82055709Y-79002365D01*
X82062640Y-78989398D01*
X82071967Y-78978033D01*
X82278033Y-78771967D01*
X82289398Y-78762640D01*
X82302365Y-78755709D01*
X82316434Y-78751441D01*
X82331066Y-78750000D01*
X82350000Y-78750000D01*
X82364632Y-78751441D01*
X82378701Y-78755709D01*
X82391668Y-78762640D01*
X82403033Y-78771967D01*
X82412360Y-78783332D01*
X82419291Y-78796299D01*
X82423559Y-78810368D01*
X82425000Y-78825000D01*
X82425000Y-79300000D01*
X82423559Y-79314632D01*
X82419291Y-79328701D01*
X82412360Y-79341668D01*
X82403033Y-79353033D01*
X82391668Y-79362360D01*
X82378701Y-79369291D01*
X82364632Y-79373559D01*
X82350000Y-79375000D01*
X82125000Y-79375000D01*
X82110368Y-79373559D01*
G37*
%TD.AperFunction*%
%TO.P,U6,6*%
%TA.AperFunction,SMDPad,CuDef*%
G36*
G01*
X82925000Y-78837500D02*
X82925000Y-79287500D01*
G75*
G02*
X82837500Y-79375000I-87500J0D01*
G01*
X82662500Y-79375000D01*
G75*
G02*
X82575000Y-79287500I0J87500D01*
G01*
X82575000Y-78837500D01*
G75*
G02*
X82662500Y-78750000I87500J0D01*
G01*
X82837500Y-78750000D01*
G75*
G02*
X82925000Y-78837500I0J-87500D01*
G01*
G37*
%TD.AperFunction*%
%TA.AperFunction,SMDPad,CuDef*%
%TO.P,U6,5*%
%TO.N,+3V3*%
G36*
X83135368Y-79373559D02*
G01*
X83121299Y-79369291D01*
X83108332Y-79362360D01*
X83096967Y-79353033D01*
X83087640Y-79341668D01*
X83080709Y-79328701D01*
X83076441Y-79314632D01*
X83075000Y-79300000D01*
X83075000Y-78825000D01*
X83076441Y-78810368D01*
X83080709Y-78796299D01*
X83087640Y-78783332D01*
X83096967Y-78771967D01*
X83108332Y-78762640D01*
X83121299Y-78755709D01*
X83135368Y-78751441D01*
X83150000Y-78750000D01*
X83168934Y-78750000D01*
X83183566Y-78751441D01*
X83197635Y-78755709D01*
X83210602Y-78762640D01*
X83221967Y-78771967D01*
X83428033Y-78978033D01*
X83437360Y-78989398D01*
X83444291Y-79002365D01*
X83448559Y-79016434D01*
X83450000Y-79031066D01*
X83450000Y-79300000D01*
X83448559Y-79314632D01*
X83444291Y-79328701D01*
X83437360Y-79341668D01*
X83428033Y-79353033D01*
X83416668Y-79362360D01*
X83403701Y-79369291D01*
X83389632Y-79373559D01*
X83375000Y-79375000D01*
X83150000Y-79375000D01*
X83135368Y-79373559D01*
G37*
%TD.AperFunction*%
%TA.AperFunction,SMDPad,CuDef*%
%TO.P,U6,4*%
%TO.N,G_INT1*%
G36*
X83866434Y-79098559D02*
G01*
X83852365Y-79094291D01*
X83839398Y-79087360D01*
X83828033Y-79078033D01*
X83621967Y-78871967D01*
X83612640Y-78860602D01*
X83605709Y-78847635D01*
X83601441Y-78833566D01*
X83600000Y-78818934D01*
X83600000Y-78800000D01*
X83601441Y-78785368D01*
X83605709Y-78771299D01*
X83612640Y-78758332D01*
X83621967Y-78746967D01*
X83633332Y-78737640D01*
X83646299Y-78730709D01*
X83660368Y-78726441D01*
X83675000Y-78725000D01*
X84150000Y-78725000D01*
X84164632Y-78726441D01*
X84178701Y-78730709D01*
X84191668Y-78737640D01*
X84203033Y-78746967D01*
X84212360Y-78758332D01*
X84219291Y-78771299D01*
X84223559Y-78785368D01*
X84225000Y-78800000D01*
X84225000Y-79025000D01*
X84223559Y-79039632D01*
X84219291Y-79053701D01*
X84212360Y-79066668D01*
X84203033Y-79078033D01*
X84191668Y-79087360D01*
X84178701Y-79094291D01*
X84164632Y-79098559D01*
X84150000Y-79100000D01*
X83881066Y-79100000D01*
X83866434Y-79098559D01*
G37*
%TD.AperFunction*%
%TO.P,U6,3*%
%TO.N,Net-(R34-Pad2)*%
%TA.AperFunction,SMDPad,CuDef*%
G36*
G01*
X84225000Y-78312500D02*
X84225000Y-78487500D01*
G75*
G02*
X84137500Y-78575000I-87500J0D01*
G01*
X83687500Y-78575000D01*
G75*
G02*
X83600000Y-78487500I0J87500D01*
G01*
X83600000Y-78312500D01*
G75*
G02*
X83687500Y-78225000I87500J0D01*
G01*
X84137500Y-78225000D01*
G75*
G02*
X84225000Y-78312500I0J-87500D01*
G01*
G37*
%TD.AperFunction*%
%TO.P,U6,2*%
%TA.AperFunction,SMDPad,CuDef*%
G36*
G01*
X84225000Y-77812500D02*
X84225000Y-77987500D01*
G75*
G02*
X84137500Y-78075000I-87500J0D01*
G01*
X83687500Y-78075000D01*
G75*
G02*
X83600000Y-77987500I0J87500D01*
G01*
X83600000Y-77812500D01*
G75*
G02*
X83687500Y-77725000I87500J0D01*
G01*
X84137500Y-77725000D01*
G75*
G02*
X84225000Y-77812500I0J-87500D01*
G01*
G37*
%TD.AperFunction*%
%TA.AperFunction,SMDPad,CuDef*%
%TO.P,U6,1*%
G36*
X83660368Y-77573559D02*
G01*
X83646299Y-77569291D01*
X83633332Y-77562360D01*
X83621967Y-77553033D01*
X83612640Y-77541668D01*
X83605709Y-77528701D01*
X83601441Y-77514632D01*
X83600000Y-77500000D01*
X83600000Y-77481066D01*
X83601441Y-77466434D01*
X83605709Y-77452365D01*
X83612640Y-77439398D01*
X83621967Y-77428033D01*
X83828033Y-77221967D01*
X83839398Y-77212640D01*
X83852365Y-77205709D01*
X83866434Y-77201441D01*
X83881066Y-77200000D01*
X84150000Y-77200000D01*
X84164632Y-77201441D01*
X84178701Y-77205709D01*
X84191668Y-77212640D01*
X84203033Y-77221967D01*
X84212360Y-77233332D01*
X84219291Y-77246299D01*
X84223559Y-77260368D01*
X84225000Y-77275000D01*
X84225000Y-77500000D01*
X84223559Y-77514632D01*
X84219291Y-77528701D01*
X84212360Y-77541668D01*
X84203033Y-77553033D01*
X84191668Y-77562360D01*
X84178701Y-77569291D01*
X84164632Y-77573559D01*
X84150000Y-77575000D01*
X83675000Y-77575000D01*
X83660368Y-77573559D01*
G37*
%TD.AperFunction*%
%TD*%
%TO.P,U4,8*%
%TO.N,Net-(C9-Pad1)*%
%TA.AperFunction,SMDPad,CuDef*%
G36*
G01*
X65550000Y-47145000D02*
X65550000Y-47445000D01*
G75*
G02*
X65400000Y-47595000I-150000J0D01*
G01*
X63750000Y-47595000D01*
G75*
G02*
X63600000Y-47445000I0J150000D01*
G01*
X63600000Y-47145000D01*
G75*
G02*
X63750000Y-46995000I150000J0D01*
G01*
X65400000Y-46995000D01*
G75*
G02*
X65550000Y-47145000I0J-150000D01*
G01*
G37*
%TD.AperFunction*%
%TO.P,U4,7*%
%TO.N,UART1_RX*%
%TA.AperFunction,SMDPad,CuDef*%
G36*
G01*
X65550000Y-48415000D02*
X65550000Y-48715000D01*
G75*
G02*
X65400000Y-48865000I-150000J0D01*
G01*
X63750000Y-48865000D01*
G75*
G02*
X63600000Y-48715000I0J150000D01*
G01*
X63600000Y-48415000D01*
G75*
G02*
X63750000Y-48265000I150000J0D01*
G01*
X65400000Y-48265000D01*
G75*
G02*
X65550000Y-48415000I0J-150000D01*
G01*
G37*
%TD.AperFunction*%
%TO.P,U4,6*%
%TO.N,UART1_TX*%
%TA.AperFunction,SMDPad,CuDef*%
G36*
G01*
X65550000Y-49685000D02*
X65550000Y-49985000D01*
G75*
G02*
X65400000Y-50135000I-150000J0D01*
G01*
X63750000Y-50135000D01*
G75*
G02*
X63600000Y-49985000I0J150000D01*
G01*
X63600000Y-49685000D01*
G75*
G02*
X63750000Y-49535000I150000J0D01*
G01*
X65400000Y-49535000D01*
G75*
G02*
X65550000Y-49685000I0J-150000D01*
G01*
G37*
%TD.AperFunction*%
%TO.P,U4,5*%
%TO.N,+5V*%
%TA.AperFunction,SMDPad,CuDef*%
G36*
G01*
X65550000Y-50955000D02*
X65550000Y-51255000D01*
G75*
G02*
X65400000Y-51405000I-150000J0D01*
G01*
X63750000Y-51405000D01*
G75*
G02*
X63600000Y-51255000I0J150000D01*
G01*
X63600000Y-50955000D01*
G75*
G02*
X63750000Y-50805000I150000J0D01*
G01*
X65400000Y-50805000D01*
G75*
G02*
X65550000Y-50955000I0J-150000D01*
G01*
G37*
%TD.AperFunction*%
%TO.P,U4,4*%
%TO.N,N/C*%
%TA.AperFunction,SMDPad,CuDef*%
G36*
G01*
X70500000Y-50955000D02*
X70500000Y-51255000D01*
G75*
G02*
X70350000Y-51405000I-150000J0D01*
G01*
X68700000Y-51405000D01*
G75*
G02*
X68550000Y-51255000I0J150000D01*
G01*
X68550000Y-50955000D01*
G75*
G02*
X68700000Y-50805000I150000J0D01*
G01*
X70350000Y-50805000D01*
G75*
G02*
X70500000Y-50955000I0J-150000D01*
G01*
G37*
%TD.AperFunction*%
%TO.P,U4,3*%
%TO.N,GND*%
%TA.AperFunction,SMDPad,CuDef*%
G36*
G01*
X70500000Y-49685000D02*
X70500000Y-49985000D01*
G75*
G02*
X70350000Y-50135000I-150000J0D01*
G01*
X68700000Y-50135000D01*
G75*
G02*
X68550000Y-49985000I0J150000D01*
G01*
X68550000Y-49685000D01*
G75*
G02*
X68700000Y-49535000I150000J0D01*
G01*
X70350000Y-49535000D01*
G75*
G02*
X70500000Y-49685000I0J-150000D01*
G01*
G37*
%TD.AperFunction*%
%TO.P,U4,2*%
%TO.N,/USB_D-*%
%TA.AperFunction,SMDPad,CuDef*%
G36*
G01*
X70500000Y-48415000D02*
X70500000Y-48715000D01*
G75*
G02*
X70350000Y-48865000I-150000J0D01*
G01*
X68700000Y-48865000D01*
G75*
G02*
X68550000Y-48715000I0J150000D01*
G01*
X68550000Y-48415000D01*
G75*
G02*
X68700000Y-48265000I150000J0D01*
G01*
X70350000Y-48265000D01*
G75*
G02*
X70500000Y-48415000I0J-150000D01*
G01*
G37*
%TD.AperFunction*%
%TO.P,U4,1*%
%TO.N,/USB_D+*%
%TA.AperFunction,SMDPad,CuDef*%
G36*
G01*
X70500000Y-47145000D02*
X70500000Y-47445000D01*
G75*
G02*
X70350000Y-47595000I-150000J0D01*
G01*
X68700000Y-47595000D01*
G75*
G02*
X68550000Y-47445000I0J150000D01*
G01*
X68550000Y-47145000D01*
G75*
G02*
X68700000Y-46995000I150000J0D01*
G01*
X70350000Y-46995000D01*
G75*
G02*
X70500000Y-47145000I0J-150000D01*
G01*
G37*
%TD.AperFunction*%
%TD*%
D24*
%TO.P,U2,5*%
%TO.N,N/C*%
X73250000Y-63050000D03*
%TO.P,U2,6*%
%TO.N,Net-(R12-Pad2)*%
X74200000Y-63050000D03*
%TO.P,U2,4*%
%TO.N,+BATT*%
X72300000Y-63050000D03*
%TO.P,U2,3*%
%TO.N,Net-(L2-Pad1)*%
X72300000Y-65250000D03*
%TO.P,U2,2*%
%TO.N,GND*%
X73250000Y-65250000D03*
%TO.P,U2,1*%
%TO.N,Net-(R3-Pad1)*%
X74200000Y-65250000D03*
%TD*%
%TO.P,U1,5*%
%TO.N,N/C*%
X52000000Y-63050000D03*
%TO.P,U1,6*%
%TO.N,Net-(R10-Pad2)*%
X52950000Y-63050000D03*
%TO.P,U1,4*%
%TO.N,+5V*%
X51050000Y-63050000D03*
%TO.P,U1,3*%
%TO.N,Net-(L1-Pad1)*%
X51050000Y-65250000D03*
%TO.P,U1,2*%
%TO.N,GND*%
X52000000Y-65250000D03*
%TO.P,U1,1*%
%TO.N,Net-(R2-Pad1)*%
X52950000Y-65250000D03*
%TD*%
D25*
%TO.P,SW2,*%
%TO.N,*%
X138850000Y-63700000D03*
X138850000Y-66000000D03*
D26*
%TO.P,SW2,1*%
%TO.N,GND*%
X137800000Y-66950000D03*
%TO.P,SW2,2*%
%TO.N,I2C_DAT*%
X137800000Y-62750000D03*
D27*
%TO.P,SW2,PAD*%
%TO.N,N/C*%
X139850000Y-61480000D03*
X139850000Y-68225000D03*
%TD*%
D25*
%TO.P,SW1,*%
%TO.N,*%
X138850000Y-72950000D03*
X138850000Y-75250000D03*
D26*
%TO.P,SW1,1*%
%TO.N,GND*%
X137800000Y-76200000D03*
%TO.P,SW1,2*%
%TO.N,ESP_~RST*%
X137800000Y-72000000D03*
D27*
%TO.P,SW1,PAD*%
%TO.N,N/C*%
X139850000Y-70730000D03*
X139850000Y-77475000D03*
%TD*%
%TO.P,R34,2*%
%TO.N,Net-(R34-Pad2)*%
%TA.AperFunction,SMDPad,CuDef*%
G36*
G01*
X86025000Y-77775000D02*
X86025000Y-78325000D01*
G75*
G02*
X85825000Y-78525000I-200000J0D01*
G01*
X85425000Y-78525000D01*
G75*
G02*
X85225000Y-78325000I0J200000D01*
G01*
X85225000Y-77775000D01*
G75*
G02*
X85425000Y-77575000I200000J0D01*
G01*
X85825000Y-77575000D01*
G75*
G02*
X86025000Y-77775000I0J-200000D01*
G01*
G37*
%TD.AperFunction*%
%TO.P,R34,1*%
%TO.N,GND*%
%TA.AperFunction,SMDPad,CuDef*%
G36*
G01*
X87675000Y-77775000D02*
X87675000Y-78325000D01*
G75*
G02*
X87475000Y-78525000I-200000J0D01*
G01*
X87075000Y-78525000D01*
G75*
G02*
X86875000Y-78325000I0J200000D01*
G01*
X86875000Y-77775000D01*
G75*
G02*
X87075000Y-77575000I200000J0D01*
G01*
X87475000Y-77575000D01*
G75*
G02*
X87675000Y-77775000I0J-200000D01*
G01*
G37*
%TD.AperFunction*%
%TD*%
%TO.P,R33,2*%
%TO.N,SD_VCC_nEN*%
%TA.AperFunction,SMDPad,CuDef*%
G36*
G01*
X53625000Y-49975000D02*
X53075000Y-49975000D01*
G75*
G02*
X52875000Y-49775000I0J200000D01*
G01*
X52875000Y-49375000D01*
G75*
G02*
X53075000Y-49175000I200000J0D01*
G01*
X53625000Y-49175000D01*
G75*
G02*
X53825000Y-49375000I0J-200000D01*
G01*
X53825000Y-49775000D01*
G75*
G02*
X53625000Y-49975000I-200000J0D01*
G01*
G37*
%TD.AperFunction*%
%TO.P,R33,1*%
%TO.N,+3V3*%
%TA.AperFunction,SMDPad,CuDef*%
G36*
G01*
X53625000Y-51625000D02*
X53075000Y-51625000D01*
G75*
G02*
X52875000Y-51425000I0J200000D01*
G01*
X52875000Y-51025000D01*
G75*
G02*
X53075000Y-50825000I200000J0D01*
G01*
X53625000Y-50825000D01*
G75*
G02*
X53825000Y-51025000I0J-200000D01*
G01*
X53825000Y-51425000D01*
G75*
G02*
X53625000Y-51625000I-200000J0D01*
G01*
G37*
%TD.AperFunction*%
%TD*%
%TO.P,R32,2*%
%TO.N,+3V3*%
%TA.AperFunction,SMDPad,CuDef*%
G36*
G01*
X79725000Y-49775000D02*
X79175000Y-49775000D01*
G75*
G02*
X78975000Y-49575000I0J200000D01*
G01*
X78975000Y-49175000D01*
G75*
G02*
X79175000Y-48975000I200000J0D01*
G01*
X79725000Y-48975000D01*
G75*
G02*
X79925000Y-49175000I0J-200000D01*
G01*
X79925000Y-49575000D01*
G75*
G02*
X79725000Y-49775000I-200000J0D01*
G01*
G37*
%TD.AperFunction*%
%TO.P,R32,1*%
%TO.N,GPS_VCC_nEN*%
%TA.AperFunction,SMDPad,CuDef*%
G36*
G01*
X79725000Y-51425000D02*
X79175000Y-51425000D01*
G75*
G02*
X78975000Y-51225000I0J200000D01*
G01*
X78975000Y-50825000D01*
G75*
G02*
X79175000Y-50625000I200000J0D01*
G01*
X79725000Y-50625000D01*
G75*
G02*
X79925000Y-50825000I0J-200000D01*
G01*
X79925000Y-51225000D01*
G75*
G02*
X79725000Y-51425000I-200000J0D01*
G01*
G37*
%TD.AperFunction*%
%TD*%
%TO.P,R31,2*%
%TO.N,EINK_VCC*%
%TA.AperFunction,SMDPad,CuDef*%
G36*
G01*
X65875000Y-127125000D02*
X65875000Y-126575000D01*
G75*
G02*
X66075000Y-126375000I200000J0D01*
G01*
X66475000Y-126375000D01*
G75*
G02*
X66675000Y-126575000I0J-200000D01*
G01*
X66675000Y-127125000D01*
G75*
G02*
X66475000Y-127325000I-200000J0D01*
G01*
X66075000Y-127325000D01*
G75*
G02*
X65875000Y-127125000I0J200000D01*
G01*
G37*
%TD.AperFunction*%
%TO.P,R31,1*%
%TO.N,Net-(J2-Pad18)*%
%TA.AperFunction,SMDPad,CuDef*%
G36*
G01*
X64225000Y-127125000D02*
X64225000Y-126575000D01*
G75*
G02*
X64425000Y-126375000I200000J0D01*
G01*
X64825000Y-126375000D01*
G75*
G02*
X65025000Y-126575000I0J-200000D01*
G01*
X65025000Y-127125000D01*
G75*
G02*
X64825000Y-127325000I-200000J0D01*
G01*
X64425000Y-127325000D01*
G75*
G02*
X64225000Y-127125000I0J200000D01*
G01*
G37*
%TD.AperFunction*%
%TD*%
%TO.P,R30,2*%
%TO.N,EINK_VCC*%
%TA.AperFunction,SMDPad,CuDef*%
G36*
G01*
X63475000Y-125675000D02*
X62925000Y-125675000D01*
G75*
G02*
X62725000Y-125475000I0J200000D01*
G01*
X62725000Y-125075000D01*
G75*
G02*
X62925000Y-124875000I200000J0D01*
G01*
X63475000Y-124875000D01*
G75*
G02*
X63675000Y-125075000I0J-200000D01*
G01*
X63675000Y-125475000D01*
G75*
G02*
X63475000Y-125675000I-200000J0D01*
G01*
G37*
%TD.AperFunction*%
%TO.P,R30,1*%
%TO.N,Net-(J2-Pad19)*%
%TA.AperFunction,SMDPad,CuDef*%
G36*
G01*
X63475000Y-127325000D02*
X62925000Y-127325000D01*
G75*
G02*
X62725000Y-127125000I0J200000D01*
G01*
X62725000Y-126725000D01*
G75*
G02*
X62925000Y-126525000I200000J0D01*
G01*
X63475000Y-126525000D01*
G75*
G02*
X63675000Y-126725000I0J-200000D01*
G01*
X63675000Y-127125000D01*
G75*
G02*
X63475000Y-127325000I-200000J0D01*
G01*
G37*
%TD.AperFunction*%
%TD*%
%TO.P,R29,2*%
%TO.N,/GDR*%
%TA.AperFunction,SMDPad,CuDef*%
G36*
G01*
X64025000Y-102825000D02*
X64025000Y-103375000D01*
G75*
G02*
X63825000Y-103575000I-200000J0D01*
G01*
X63425000Y-103575000D01*
G75*
G02*
X63225000Y-103375000I0J200000D01*
G01*
X63225000Y-102825000D01*
G75*
G02*
X63425000Y-102625000I200000J0D01*
G01*
X63825000Y-102625000D01*
G75*
G02*
X64025000Y-102825000I0J-200000D01*
G01*
G37*
%TD.AperFunction*%
%TO.P,R29,1*%
%TO.N,GND*%
%TA.AperFunction,SMDPad,CuDef*%
G36*
G01*
X65675000Y-102825000D02*
X65675000Y-103375000D01*
G75*
G02*
X65475000Y-103575000I-200000J0D01*
G01*
X65075000Y-103575000D01*
G75*
G02*
X64875000Y-103375000I0J200000D01*
G01*
X64875000Y-102825000D01*
G75*
G02*
X65075000Y-102625000I200000J0D01*
G01*
X65475000Y-102625000D01*
G75*
G02*
X65675000Y-102825000I0J-200000D01*
G01*
G37*
%TD.AperFunction*%
%TD*%
%TO.P,R28,2*%
%TO.N,GND*%
%TA.AperFunction,SMDPad,CuDef*%
G36*
G01*
X64762500Y-105550002D02*
X64762500Y-104649998D01*
G75*
G02*
X65012498Y-104400000I249998J0D01*
G01*
X65537502Y-104400000D01*
G75*
G02*
X65787500Y-104649998I0J-249998D01*
G01*
X65787500Y-105550002D01*
G75*
G02*
X65537502Y-105800000I-249998J0D01*
G01*
X65012498Y-105800000D01*
G75*
G02*
X64762500Y-105550002I0J249998D01*
G01*
G37*
%TD.AperFunction*%
%TO.P,R28,1*%
%TO.N,/RESE*%
%TA.AperFunction,SMDPad,CuDef*%
G36*
G01*
X62937500Y-105550002D02*
X62937500Y-104649998D01*
G75*
G02*
X63187498Y-104400000I249998J0D01*
G01*
X63712502Y-104400000D01*
G75*
G02*
X63962500Y-104649998I0J-249998D01*
G01*
X63962500Y-105550002D01*
G75*
G02*
X63712502Y-105800000I-249998J0D01*
G01*
X63187498Y-105800000D01*
G75*
G02*
X62937500Y-105550002I0J249998D01*
G01*
G37*
%TD.AperFunction*%
%TD*%
%TO.P,R27,2*%
%TO.N,+3V3*%
%TA.AperFunction,SMDPad,CuDef*%
G36*
G01*
X66475000Y-83125000D02*
X66475000Y-82575000D01*
G75*
G02*
X66675000Y-82375000I200000J0D01*
G01*
X67075000Y-82375000D01*
G75*
G02*
X67275000Y-82575000I0J-200000D01*
G01*
X67275000Y-83125000D01*
G75*
G02*
X67075000Y-83325000I-200000J0D01*
G01*
X66675000Y-83325000D01*
G75*
G02*
X66475000Y-83125000I0J200000D01*
G01*
G37*
%TD.AperFunction*%
%TO.P,R27,1*%
%TO.N,EINK_VCC_~EN*%
%TA.AperFunction,SMDPad,CuDef*%
G36*
G01*
X64825000Y-83125000D02*
X64825000Y-82575000D01*
G75*
G02*
X65025000Y-82375000I200000J0D01*
G01*
X65425000Y-82375000D01*
G75*
G02*
X65625000Y-82575000I0J-200000D01*
G01*
X65625000Y-83125000D01*
G75*
G02*
X65425000Y-83325000I-200000J0D01*
G01*
X65025000Y-83325000D01*
G75*
G02*
X64825000Y-83125000I0J200000D01*
G01*
G37*
%TD.AperFunction*%
%TD*%
%TO.P,R26,2*%
%TO.N,Net-(R26-Pad2)*%
%TA.AperFunction,SMDPad,CuDef*%
G36*
G01*
X88275000Y-48775000D02*
X87725000Y-48775000D01*
G75*
G02*
X87525000Y-48575000I0J200000D01*
G01*
X87525000Y-48175000D01*
G75*
G02*
X87725000Y-47975000I200000J0D01*
G01*
X88275000Y-47975000D01*
G75*
G02*
X88475000Y-48175000I0J-200000D01*
G01*
X88475000Y-48575000D01*
G75*
G02*
X88275000Y-48775000I-200000J0D01*
G01*
G37*
%TD.AperFunction*%
%TO.P,R26,1*%
%TO.N,EINK_EEPROM_~EN*%
%TA.AperFunction,SMDPad,CuDef*%
G36*
G01*
X88275000Y-50425000D02*
X87725000Y-50425000D01*
G75*
G02*
X87525000Y-50225000I0J200000D01*
G01*
X87525000Y-49825000D01*
G75*
G02*
X87725000Y-49625000I200000J0D01*
G01*
X88275000Y-49625000D01*
G75*
G02*
X88475000Y-49825000I0J-200000D01*
G01*
X88475000Y-50225000D01*
G75*
G02*
X88275000Y-50425000I-200000J0D01*
G01*
G37*
%TD.AperFunction*%
%TD*%
%TO.P,R21,2*%
%TO.N,I2C_CLK*%
%TA.AperFunction,SMDPad,CuDef*%
G36*
G01*
X109775000Y-57475000D02*
X109775000Y-56925000D01*
G75*
G02*
X109975000Y-56725000I200000J0D01*
G01*
X110375000Y-56725000D01*
G75*
G02*
X110575000Y-56925000I0J-200000D01*
G01*
X110575000Y-57475000D01*
G75*
G02*
X110375000Y-57675000I-200000J0D01*
G01*
X109975000Y-57675000D01*
G75*
G02*
X109775000Y-57475000I0J200000D01*
G01*
G37*
%TD.AperFunction*%
%TO.P,R21,1*%
%TO.N,+3V3*%
%TA.AperFunction,SMDPad,CuDef*%
G36*
G01*
X108125000Y-57475000D02*
X108125000Y-56925000D01*
G75*
G02*
X108325000Y-56725000I200000J0D01*
G01*
X108725000Y-56725000D01*
G75*
G02*
X108925000Y-56925000I0J-200000D01*
G01*
X108925000Y-57475000D01*
G75*
G02*
X108725000Y-57675000I-200000J0D01*
G01*
X108325000Y-57675000D01*
G75*
G02*
X108125000Y-57475000I0J200000D01*
G01*
G37*
%TD.AperFunction*%
%TD*%
%TO.P,R20,2*%
%TO.N,UART1_TX*%
%TA.AperFunction,SMDPad,CuDef*%
G36*
G01*
X109025000Y-51075000D02*
X109025000Y-51625000D01*
G75*
G02*
X108825000Y-51825000I-200000J0D01*
G01*
X108425000Y-51825000D01*
G75*
G02*
X108225000Y-51625000I0J200000D01*
G01*
X108225000Y-51075000D01*
G75*
G02*
X108425000Y-50875000I200000J0D01*
G01*
X108825000Y-50875000D01*
G75*
G02*
X109025000Y-51075000I0J-200000D01*
G01*
G37*
%TD.AperFunction*%
%TO.P,R20,1*%
%TO.N,Net-(R20-Pad1)*%
%TA.AperFunction,SMDPad,CuDef*%
G36*
G01*
X110675000Y-51075000D02*
X110675000Y-51625000D01*
G75*
G02*
X110475000Y-51825000I-200000J0D01*
G01*
X110075000Y-51825000D01*
G75*
G02*
X109875000Y-51625000I0J200000D01*
G01*
X109875000Y-51075000D01*
G75*
G02*
X110075000Y-50875000I200000J0D01*
G01*
X110475000Y-50875000D01*
G75*
G02*
X110675000Y-51075000I0J-200000D01*
G01*
G37*
%TD.AperFunction*%
%TD*%
%TO.P,R19,2*%
%TO.N,UART1_RX*%
%TA.AperFunction,SMDPad,CuDef*%
G36*
G01*
X109025000Y-49575000D02*
X109025000Y-50125000D01*
G75*
G02*
X108825000Y-50325000I-200000J0D01*
G01*
X108425000Y-50325000D01*
G75*
G02*
X108225000Y-50125000I0J200000D01*
G01*
X108225000Y-49575000D01*
G75*
G02*
X108425000Y-49375000I200000J0D01*
G01*
X108825000Y-49375000D01*
G75*
G02*
X109025000Y-49575000I0J-200000D01*
G01*
G37*
%TD.AperFunction*%
%TO.P,R19,1*%
%TO.N,Net-(R19-Pad1)*%
%TA.AperFunction,SMDPad,CuDef*%
G36*
G01*
X110675000Y-49575000D02*
X110675000Y-50125000D01*
G75*
G02*
X110475000Y-50325000I-200000J0D01*
G01*
X110075000Y-50325000D01*
G75*
G02*
X109875000Y-50125000I0J200000D01*
G01*
X109875000Y-49575000D01*
G75*
G02*
X110075000Y-49375000I200000J0D01*
G01*
X110475000Y-49375000D01*
G75*
G02*
X110675000Y-49575000I0J-200000D01*
G01*
G37*
%TD.AperFunction*%
%TD*%
%TO.P,R18,2*%
%TO.N,Net-(R18-Pad2)*%
%TA.AperFunction,SMDPad,CuDef*%
G36*
G01*
X70625000Y-38825000D02*
X71175000Y-38825000D01*
G75*
G02*
X71375000Y-39025000I0J-200000D01*
G01*
X71375000Y-39425000D01*
G75*
G02*
X71175000Y-39625000I-200000J0D01*
G01*
X70625000Y-39625000D01*
G75*
G02*
X70425000Y-39425000I0J200000D01*
G01*
X70425000Y-39025000D01*
G75*
G02*
X70625000Y-38825000I200000J0D01*
G01*
G37*
%TD.AperFunction*%
%TO.P,R18,1*%
%TO.N,Net-(D2-Pad2)*%
%TA.AperFunction,SMDPad,CuDef*%
G36*
G01*
X70625000Y-37175000D02*
X71175000Y-37175000D01*
G75*
G02*
X71375000Y-37375000I0J-200000D01*
G01*
X71375000Y-37775000D01*
G75*
G02*
X71175000Y-37975000I-200000J0D01*
G01*
X70625000Y-37975000D01*
G75*
G02*
X70425000Y-37775000I0J200000D01*
G01*
X70425000Y-37375000D01*
G75*
G02*
X70625000Y-37175000I200000J0D01*
G01*
G37*
%TD.AperFunction*%
%TD*%
%TO.P,R16,2*%
%TO.N,+3V3*%
%TA.AperFunction,SMDPad,CuDef*%
G36*
G01*
X108925000Y-59925000D02*
X108925000Y-60475000D01*
G75*
G02*
X108725000Y-60675000I-200000J0D01*
G01*
X108325000Y-60675000D01*
G75*
G02*
X108125000Y-60475000I0J200000D01*
G01*
X108125000Y-59925000D01*
G75*
G02*
X108325000Y-59725000I200000J0D01*
G01*
X108725000Y-59725000D01*
G75*
G02*
X108925000Y-59925000I0J-200000D01*
G01*
G37*
%TD.AperFunction*%
%TO.P,R16,1*%
%TO.N,I2C_DAT*%
%TA.AperFunction,SMDPad,CuDef*%
G36*
G01*
X110575000Y-59925000D02*
X110575000Y-60475000D01*
G75*
G02*
X110375000Y-60675000I-200000J0D01*
G01*
X109975000Y-60675000D01*
G75*
G02*
X109775000Y-60475000I0J200000D01*
G01*
X109775000Y-59925000D01*
G75*
G02*
X109975000Y-59725000I200000J0D01*
G01*
X110375000Y-59725000D01*
G75*
G02*
X110575000Y-59925000I0J-200000D01*
G01*
G37*
%TD.AperFunction*%
%TD*%
%TO.P,R15,2*%
%TO.N,VIN_ADC*%
%TA.AperFunction,SMDPad,CuDef*%
G36*
G01*
X136575000Y-54175000D02*
X136025000Y-54175000D01*
G75*
G02*
X135825000Y-53975000I0J200000D01*
G01*
X135825000Y-53575000D01*
G75*
G02*
X136025000Y-53375000I200000J0D01*
G01*
X136575000Y-53375000D01*
G75*
G02*
X136775000Y-53575000I0J-200000D01*
G01*
X136775000Y-53975000D01*
G75*
G02*
X136575000Y-54175000I-200000J0D01*
G01*
G37*
%TD.AperFunction*%
%TO.P,R15,1*%
%TO.N,GND*%
%TA.AperFunction,SMDPad,CuDef*%
G36*
G01*
X136575000Y-55825000D02*
X136025000Y-55825000D01*
G75*
G02*
X135825000Y-55625000I0J200000D01*
G01*
X135825000Y-55225000D01*
G75*
G02*
X136025000Y-55025000I200000J0D01*
G01*
X136575000Y-55025000D01*
G75*
G02*
X136775000Y-55225000I0J-200000D01*
G01*
X136775000Y-55625000D01*
G75*
G02*
X136575000Y-55825000I-200000J0D01*
G01*
G37*
%TD.AperFunction*%
%TD*%
%TO.P,R14,2*%
%TO.N,+5V*%
%TA.AperFunction,SMDPad,CuDef*%
G36*
G01*
X138975000Y-54125000D02*
X138975000Y-53575000D01*
G75*
G02*
X139175000Y-53375000I200000J0D01*
G01*
X139575000Y-53375000D01*
G75*
G02*
X139775000Y-53575000I0J-200000D01*
G01*
X139775000Y-54125000D01*
G75*
G02*
X139575000Y-54325000I-200000J0D01*
G01*
X139175000Y-54325000D01*
G75*
G02*
X138975000Y-54125000I0J200000D01*
G01*
G37*
%TD.AperFunction*%
%TO.P,R14,1*%
%TO.N,VIN_ADC*%
%TA.AperFunction,SMDPad,CuDef*%
G36*
G01*
X137325000Y-54125000D02*
X137325000Y-53575000D01*
G75*
G02*
X137525000Y-53375000I200000J0D01*
G01*
X137925000Y-53375000D01*
G75*
G02*
X138125000Y-53575000I0J-200000D01*
G01*
X138125000Y-54125000D01*
G75*
G02*
X137925000Y-54325000I-200000J0D01*
G01*
X137525000Y-54325000D01*
G75*
G02*
X137325000Y-54125000I0J200000D01*
G01*
G37*
%TD.AperFunction*%
%TD*%
%TO.P,R13,2*%
%TO.N,Net-(R12-Pad2)*%
%TA.AperFunction,SMDPad,CuDef*%
G36*
G01*
X77075000Y-67375000D02*
X76525000Y-67375000D01*
G75*
G02*
X76325000Y-67175000I0J200000D01*
G01*
X76325000Y-66775000D01*
G75*
G02*
X76525000Y-66575000I200000J0D01*
G01*
X77075000Y-66575000D01*
G75*
G02*
X77275000Y-66775000I0J-200000D01*
G01*
X77275000Y-67175000D01*
G75*
G02*
X77075000Y-67375000I-200000J0D01*
G01*
G37*
%TD.AperFunction*%
%TO.P,R13,1*%
%TO.N,GND*%
%TA.AperFunction,SMDPad,CuDef*%
G36*
G01*
X77075000Y-69025000D02*
X76525000Y-69025000D01*
G75*
G02*
X76325000Y-68825000I0J200000D01*
G01*
X76325000Y-68425000D01*
G75*
G02*
X76525000Y-68225000I200000J0D01*
G01*
X77075000Y-68225000D01*
G75*
G02*
X77275000Y-68425000I0J-200000D01*
G01*
X77275000Y-68825000D01*
G75*
G02*
X77075000Y-69025000I-200000J0D01*
G01*
G37*
%TD.AperFunction*%
%TD*%
%TO.P,R12,2*%
%TO.N,Net-(R12-Pad2)*%
%TA.AperFunction,SMDPad,CuDef*%
G36*
G01*
X75525000Y-67375000D02*
X74975000Y-67375000D01*
G75*
G02*
X74775000Y-67175000I0J200000D01*
G01*
X74775000Y-66775000D01*
G75*
G02*
X74975000Y-66575000I200000J0D01*
G01*
X75525000Y-66575000D01*
G75*
G02*
X75725000Y-66775000I0J-200000D01*
G01*
X75725000Y-67175000D01*
G75*
G02*
X75525000Y-67375000I-200000J0D01*
G01*
G37*
%TD.AperFunction*%
%TO.P,R12,1*%
%TO.N,+3V3*%
%TA.AperFunction,SMDPad,CuDef*%
G36*
G01*
X75525000Y-69025000D02*
X74975000Y-69025000D01*
G75*
G02*
X74775000Y-68825000I0J200000D01*
G01*
X74775000Y-68425000D01*
G75*
G02*
X74975000Y-68225000I200000J0D01*
G01*
X75525000Y-68225000D01*
G75*
G02*
X75725000Y-68425000I0J-200000D01*
G01*
X75725000Y-68825000D01*
G75*
G02*
X75525000Y-69025000I-200000J0D01*
G01*
G37*
%TD.AperFunction*%
%TD*%
%TO.P,R11,2*%
%TO.N,Net-(R10-Pad2)*%
%TA.AperFunction,SMDPad,CuDef*%
G36*
G01*
X55675000Y-67375000D02*
X55125000Y-67375000D01*
G75*
G02*
X54925000Y-67175000I0J200000D01*
G01*
X54925000Y-66775000D01*
G75*
G02*
X55125000Y-66575000I200000J0D01*
G01*
X55675000Y-66575000D01*
G75*
G02*
X55875000Y-66775000I0J-200000D01*
G01*
X55875000Y-67175000D01*
G75*
G02*
X55675000Y-67375000I-200000J0D01*
G01*
G37*
%TD.AperFunction*%
%TO.P,R11,1*%
%TO.N,GND*%
%TA.AperFunction,SMDPad,CuDef*%
G36*
G01*
X55675000Y-69025000D02*
X55125000Y-69025000D01*
G75*
G02*
X54925000Y-68825000I0J200000D01*
G01*
X54925000Y-68425000D01*
G75*
G02*
X55125000Y-68225000I200000J0D01*
G01*
X55675000Y-68225000D01*
G75*
G02*
X55875000Y-68425000I0J-200000D01*
G01*
X55875000Y-68825000D01*
G75*
G02*
X55675000Y-69025000I-200000J0D01*
G01*
G37*
%TD.AperFunction*%
%TD*%
%TO.P,R10,2*%
%TO.N,Net-(R10-Pad2)*%
%TA.AperFunction,SMDPad,CuDef*%
G36*
G01*
X54025000Y-67375000D02*
X53475000Y-67375000D01*
G75*
G02*
X53275000Y-67175000I0J200000D01*
G01*
X53275000Y-66775000D01*
G75*
G02*
X53475000Y-66575000I200000J0D01*
G01*
X54025000Y-66575000D01*
G75*
G02*
X54225000Y-66775000I0J-200000D01*
G01*
X54225000Y-67175000D01*
G75*
G02*
X54025000Y-67375000I-200000J0D01*
G01*
G37*
%TD.AperFunction*%
%TO.P,R10,1*%
%TO.N,+BATT*%
%TA.AperFunction,SMDPad,CuDef*%
G36*
G01*
X54025000Y-69025000D02*
X53475000Y-69025000D01*
G75*
G02*
X53275000Y-68825000I0J200000D01*
G01*
X53275000Y-68425000D01*
G75*
G02*
X53475000Y-68225000I200000J0D01*
G01*
X54025000Y-68225000D01*
G75*
G02*
X54225000Y-68425000I0J-200000D01*
G01*
X54225000Y-68825000D01*
G75*
G02*
X54025000Y-69025000I-200000J0D01*
G01*
G37*
%TD.AperFunction*%
%TD*%
%TO.P,R9,2*%
%TO.N,VBAT_ADC*%
%TA.AperFunction,SMDPad,CuDef*%
G36*
G01*
X136025000Y-52025000D02*
X136575000Y-52025000D01*
G75*
G02*
X136775000Y-52225000I0J-200000D01*
G01*
X136775000Y-52625000D01*
G75*
G02*
X136575000Y-52825000I-200000J0D01*
G01*
X136025000Y-52825000D01*
G75*
G02*
X135825000Y-52625000I0J200000D01*
G01*
X135825000Y-52225000D01*
G75*
G02*
X136025000Y-52025000I200000J0D01*
G01*
G37*
%TD.AperFunction*%
%TO.P,R9,1*%
%TO.N,GND*%
%TA.AperFunction,SMDPad,CuDef*%
G36*
G01*
X136025000Y-50375000D02*
X136575000Y-50375000D01*
G75*
G02*
X136775000Y-50575000I0J-200000D01*
G01*
X136775000Y-50975000D01*
G75*
G02*
X136575000Y-51175000I-200000J0D01*
G01*
X136025000Y-51175000D01*
G75*
G02*
X135825000Y-50975000I0J200000D01*
G01*
X135825000Y-50575000D01*
G75*
G02*
X136025000Y-50375000I200000J0D01*
G01*
G37*
%TD.AperFunction*%
%TD*%
%TO.P,R8,2*%
%TO.N,+BATT*%
%TA.AperFunction,SMDPad,CuDef*%
G36*
G01*
X138975000Y-52625000D02*
X138975000Y-52075000D01*
G75*
G02*
X139175000Y-51875000I200000J0D01*
G01*
X139575000Y-51875000D01*
G75*
G02*
X139775000Y-52075000I0J-200000D01*
G01*
X139775000Y-52625000D01*
G75*
G02*
X139575000Y-52825000I-200000J0D01*
G01*
X139175000Y-52825000D01*
G75*
G02*
X138975000Y-52625000I0J200000D01*
G01*
G37*
%TD.AperFunction*%
%TO.P,R8,1*%
%TO.N,VBAT_ADC*%
%TA.AperFunction,SMDPad,CuDef*%
G36*
G01*
X137325000Y-52625000D02*
X137325000Y-52075000D01*
G75*
G02*
X137525000Y-51875000I200000J0D01*
G01*
X137925000Y-51875000D01*
G75*
G02*
X138125000Y-52075000I0J-200000D01*
G01*
X138125000Y-52625000D01*
G75*
G02*
X137925000Y-52825000I-200000J0D01*
G01*
X137525000Y-52825000D01*
G75*
G02*
X137325000Y-52625000I0J200000D01*
G01*
G37*
%TD.AperFunction*%
%TD*%
%TO.P,R7,2*%
%TO.N,EINK_STATE*%
%TA.AperFunction,SMDPad,CuDef*%
G36*
G01*
X135125000Y-48125000D02*
X135125000Y-48675000D01*
G75*
G02*
X134925000Y-48875000I-200000J0D01*
G01*
X134525000Y-48875000D01*
G75*
G02*
X134325000Y-48675000I0J200000D01*
G01*
X134325000Y-48125000D01*
G75*
G02*
X134525000Y-47925000I200000J0D01*
G01*
X134925000Y-47925000D01*
G75*
G02*
X135125000Y-48125000I0J-200000D01*
G01*
G37*
%TD.AperFunction*%
%TO.P,R7,1*%
%TO.N,+3V3*%
%TA.AperFunction,SMDPad,CuDef*%
G36*
G01*
X136775000Y-48125000D02*
X136775000Y-48675000D01*
G75*
G02*
X136575000Y-48875000I-200000J0D01*
G01*
X136175000Y-48875000D01*
G75*
G02*
X135975000Y-48675000I0J200000D01*
G01*
X135975000Y-48125000D01*
G75*
G02*
X136175000Y-47925000I200000J0D01*
G01*
X136575000Y-47925000D01*
G75*
G02*
X136775000Y-48125000I0J-200000D01*
G01*
G37*
%TD.AperFunction*%
%TD*%
%TO.P,R6,2*%
%TO.N,+3V3*%
%TA.AperFunction,SMDPad,CuDef*%
G36*
G01*
X135975000Y-47075000D02*
X135975000Y-46525000D01*
G75*
G02*
X136175000Y-46325000I200000J0D01*
G01*
X136575000Y-46325000D01*
G75*
G02*
X136775000Y-46525000I0J-200000D01*
G01*
X136775000Y-47075000D01*
G75*
G02*
X136575000Y-47275000I-200000J0D01*
G01*
X136175000Y-47275000D01*
G75*
G02*
X135975000Y-47075000I0J200000D01*
G01*
G37*
%TD.AperFunction*%
%TO.P,R6,1*%
%TO.N,SD_nDET*%
%TA.AperFunction,SMDPad,CuDef*%
G36*
G01*
X134325000Y-47075000D02*
X134325000Y-46525000D01*
G75*
G02*
X134525000Y-46325000I200000J0D01*
G01*
X134925000Y-46325000D01*
G75*
G02*
X135125000Y-46525000I0J-200000D01*
G01*
X135125000Y-47075000D01*
G75*
G02*
X134925000Y-47275000I-200000J0D01*
G01*
X134525000Y-47275000D01*
G75*
G02*
X134325000Y-47075000I0J200000D01*
G01*
G37*
%TD.AperFunction*%
%TD*%
%TO.P,R5,2*%
%TO.N,/USB_D-*%
%TA.AperFunction,SMDPad,CuDef*%
G36*
G01*
X63925000Y-40500000D02*
X64475000Y-40500000D01*
G75*
G02*
X64675000Y-40700000I0J-200000D01*
G01*
X64675000Y-41100000D01*
G75*
G02*
X64475000Y-41300000I-200000J0D01*
G01*
X63925000Y-41300000D01*
G75*
G02*
X63725000Y-41100000I0J200000D01*
G01*
X63725000Y-40700000D01*
G75*
G02*
X63925000Y-40500000I200000J0D01*
G01*
G37*
%TD.AperFunction*%
%TO.P,R5,1*%
%TO.N,Net-(J1-Pad2)*%
%TA.AperFunction,SMDPad,CuDef*%
G36*
G01*
X63925000Y-38850000D02*
X64475000Y-38850000D01*
G75*
G02*
X64675000Y-39050000I0J-200000D01*
G01*
X64675000Y-39450000D01*
G75*
G02*
X64475000Y-39650000I-200000J0D01*
G01*
X63925000Y-39650000D01*
G75*
G02*
X63725000Y-39450000I0J200000D01*
G01*
X63725000Y-39050000D01*
G75*
G02*
X63925000Y-38850000I200000J0D01*
G01*
G37*
%TD.AperFunction*%
%TD*%
%TO.P,R4,2*%
%TO.N,/USB_D+*%
%TA.AperFunction,SMDPad,CuDef*%
G36*
G01*
X65475000Y-40500000D02*
X66025000Y-40500000D01*
G75*
G02*
X66225000Y-40700000I0J-200000D01*
G01*
X66225000Y-41100000D01*
G75*
G02*
X66025000Y-41300000I-200000J0D01*
G01*
X65475000Y-41300000D01*
G75*
G02*
X65275000Y-41100000I0J200000D01*
G01*
X65275000Y-40700000D01*
G75*
G02*
X65475000Y-40500000I200000J0D01*
G01*
G37*
%TD.AperFunction*%
%TO.P,R4,1*%
%TO.N,Net-(J1-Pad3)*%
%TA.AperFunction,SMDPad,CuDef*%
G36*
G01*
X65475000Y-38850000D02*
X66025000Y-38850000D01*
G75*
G02*
X66225000Y-39050000I0J-200000D01*
G01*
X66225000Y-39450000D01*
G75*
G02*
X66025000Y-39650000I-200000J0D01*
G01*
X65475000Y-39650000D01*
G75*
G02*
X65275000Y-39450000I0J200000D01*
G01*
X65275000Y-39050000D01*
G75*
G02*
X65475000Y-38850000I200000J0D01*
G01*
G37*
%TD.AperFunction*%
%TD*%
%TO.P,R3,2*%
%TO.N,+BATT*%
%TA.AperFunction,SMDPad,CuDef*%
G36*
G01*
X76775000Y-63800000D02*
X76225000Y-63800000D01*
G75*
G02*
X76025000Y-63600000I0J200000D01*
G01*
X76025000Y-63200000D01*
G75*
G02*
X76225000Y-63000000I200000J0D01*
G01*
X76775000Y-63000000D01*
G75*
G02*
X76975000Y-63200000I0J-200000D01*
G01*
X76975000Y-63600000D01*
G75*
G02*
X76775000Y-63800000I-200000J0D01*
G01*
G37*
%TD.AperFunction*%
%TO.P,R3,1*%
%TO.N,Net-(R3-Pad1)*%
%TA.AperFunction,SMDPad,CuDef*%
G36*
G01*
X76775000Y-65450000D02*
X76225000Y-65450000D01*
G75*
G02*
X76025000Y-65250000I0J200000D01*
G01*
X76025000Y-64850000D01*
G75*
G02*
X76225000Y-64650000I200000J0D01*
G01*
X76775000Y-64650000D01*
G75*
G02*
X76975000Y-64850000I0J-200000D01*
G01*
X76975000Y-65250000D01*
G75*
G02*
X76775000Y-65450000I-200000J0D01*
G01*
G37*
%TD.AperFunction*%
%TD*%
%TO.P,R2,2*%
%TO.N,+5V*%
%TA.AperFunction,SMDPad,CuDef*%
G36*
G01*
X55525000Y-63900000D02*
X54975000Y-63900000D01*
G75*
G02*
X54775000Y-63700000I0J200000D01*
G01*
X54775000Y-63300000D01*
G75*
G02*
X54975000Y-63100000I200000J0D01*
G01*
X55525000Y-63100000D01*
G75*
G02*
X55725000Y-63300000I0J-200000D01*
G01*
X55725000Y-63700000D01*
G75*
G02*
X55525000Y-63900000I-200000J0D01*
G01*
G37*
%TD.AperFunction*%
%TO.P,R2,1*%
%TO.N,Net-(R2-Pad1)*%
%TA.AperFunction,SMDPad,CuDef*%
G36*
G01*
X55525000Y-65550000D02*
X54975000Y-65550000D01*
G75*
G02*
X54775000Y-65350000I0J200000D01*
G01*
X54775000Y-64950000D01*
G75*
G02*
X54975000Y-64750000I200000J0D01*
G01*
X55525000Y-64750000D01*
G75*
G02*
X55725000Y-64950000I0J-200000D01*
G01*
X55725000Y-65350000D01*
G75*
G02*
X55525000Y-65550000I-200000J0D01*
G01*
G37*
%TD.AperFunction*%
%TD*%
%TO.P,R1,2*%
%TO.N,+3V3*%
%TA.AperFunction,SMDPad,CuDef*%
G36*
G01*
X139275000Y-43725000D02*
X138725000Y-43725000D01*
G75*
G02*
X138525000Y-43525000I0J200000D01*
G01*
X138525000Y-43125000D01*
G75*
G02*
X138725000Y-42925000I200000J0D01*
G01*
X139275000Y-42925000D01*
G75*
G02*
X139475000Y-43125000I0J-200000D01*
G01*
X139475000Y-43525000D01*
G75*
G02*
X139275000Y-43725000I-200000J0D01*
G01*
G37*
%TD.AperFunction*%
%TO.P,R1,1*%
%TO.N,ESP_~RST*%
%TA.AperFunction,SMDPad,CuDef*%
G36*
G01*
X139275000Y-45375000D02*
X138725000Y-45375000D01*
G75*
G02*
X138525000Y-45175000I0J200000D01*
G01*
X138525000Y-44775000D01*
G75*
G02*
X138725000Y-44575000I200000J0D01*
G01*
X139275000Y-44575000D01*
G75*
G02*
X139475000Y-44775000I0J-200000D01*
G01*
X139475000Y-45175000D01*
G75*
G02*
X139275000Y-45375000I-200000J0D01*
G01*
G37*
%TD.AperFunction*%
%TD*%
D28*
%TO.P,Q6,3*%
%TO.N,Net-(C18-Pad1)*%
X49040000Y-50400000D03*
%TO.P,Q6,2*%
%TO.N,+3V3*%
X51660000Y-51350000D03*
%TO.P,Q6,1*%
%TO.N,SD_VCC_nEN*%
X51660000Y-49450000D03*
%TD*%
%TO.P,Q3,3*%
%TO.N,GPS_SUPPLY*%
X83760000Y-50200000D03*
%TO.P,Q3,2*%
%TO.N,+3V3*%
X81140000Y-49250000D03*
%TO.P,Q3,1*%
%TO.N,GPS_VCC_nEN*%
X81140000Y-51150000D03*
%TD*%
D29*
%TO.P,Q2,3*%
%TO.N,Net-(C13-Pad1)*%
X62950000Y-98850000D03*
%TO.P,Q2,2*%
%TO.N,/RESE*%
X62000000Y-100850000D03*
%TO.P,Q2,1*%
%TO.N,/GDR*%
X63900000Y-100850000D03*
%TD*%
D30*
%TO.P,Q1,3*%
%TO.N,EINK_VCC*%
X66050000Y-87160000D03*
%TO.P,Q1,2*%
%TO.N,+3V3*%
X67000000Y-84540000D03*
%TO.P,Q1,1*%
%TO.N,EINK_VCC_~EN*%
X65100000Y-84540000D03*
%TD*%
%TO.P,L3,2*%
%TO.N,Net-(C13-Pad1)*%
%TA.AperFunction,SMDPad,CuDef*%
G36*
G01*
X68050000Y-99487500D02*
X66350000Y-99487500D01*
G75*
G02*
X66100000Y-99237500I0J250000D01*
G01*
X66100000Y-98312500D01*
G75*
G02*
X66350000Y-98062500I250000J0D01*
G01*
X68050000Y-98062500D01*
G75*
G02*
X68300000Y-98312500I0J-250000D01*
G01*
X68300000Y-99237500D01*
G75*
G02*
X68050000Y-99487500I-250000J0D01*
G01*
G37*
%TD.AperFunction*%
%TO.P,L3,1*%
%TO.N,EINK_VCC*%
%TA.AperFunction,SMDPad,CuDef*%
G36*
G01*
X68050000Y-101812500D02*
X66350000Y-101812500D01*
G75*
G02*
X66100000Y-101562500I0J250000D01*
G01*
X66100000Y-100637500D01*
G75*
G02*
X66350000Y-100387500I250000J0D01*
G01*
X68050000Y-100387500D01*
G75*
G02*
X68300000Y-100637500I0J-250000D01*
G01*
X68300000Y-101562500D01*
G75*
G02*
X68050000Y-101812500I-250000J0D01*
G01*
G37*
%TD.AperFunction*%
%TD*%
%TO.P,L2,2*%
%TO.N,+3V3*%
%TA.AperFunction,SMDPad,CuDef*%
G36*
G01*
X70650000Y-68850000D02*
X72350000Y-68850000D01*
G75*
G02*
X72600000Y-69100000I0J-250000D01*
G01*
X72600000Y-70025000D01*
G75*
G02*
X72350000Y-70275000I-250000J0D01*
G01*
X70650000Y-70275000D01*
G75*
G02*
X70400000Y-70025000I0J250000D01*
G01*
X70400000Y-69100000D01*
G75*
G02*
X70650000Y-68850000I250000J0D01*
G01*
G37*
%TD.AperFunction*%
%TO.P,L2,1*%
%TO.N,Net-(L2-Pad1)*%
%TA.AperFunction,SMDPad,CuDef*%
G36*
G01*
X70650000Y-66525000D02*
X72350000Y-66525000D01*
G75*
G02*
X72600000Y-66775000I0J-250000D01*
G01*
X72600000Y-67700000D01*
G75*
G02*
X72350000Y-67950000I-250000J0D01*
G01*
X70650000Y-67950000D01*
G75*
G02*
X70400000Y-67700000I0J250000D01*
G01*
X70400000Y-66775000D01*
G75*
G02*
X70650000Y-66525000I250000J0D01*
G01*
G37*
%TD.AperFunction*%
%TD*%
%TO.P,L1,2*%
%TO.N,+BATT*%
%TA.AperFunction,SMDPad,CuDef*%
G36*
G01*
X49150000Y-68937500D02*
X50850000Y-68937500D01*
G75*
G02*
X51100000Y-69187500I0J-250000D01*
G01*
X51100000Y-70112500D01*
G75*
G02*
X50850000Y-70362500I-250000J0D01*
G01*
X49150000Y-70362500D01*
G75*
G02*
X48900000Y-70112500I0J250000D01*
G01*
X48900000Y-69187500D01*
G75*
G02*
X49150000Y-68937500I250000J0D01*
G01*
G37*
%TD.AperFunction*%
%TO.P,L1,1*%
%TO.N,Net-(L1-Pad1)*%
%TA.AperFunction,SMDPad,CuDef*%
G36*
G01*
X49150000Y-66612500D02*
X50850000Y-66612500D01*
G75*
G02*
X51100000Y-66862500I0J-250000D01*
G01*
X51100000Y-67787500D01*
G75*
G02*
X50850000Y-68037500I-250000J0D01*
G01*
X49150000Y-68037500D01*
G75*
G02*
X48900000Y-67787500I0J250000D01*
G01*
X48900000Y-66862500D01*
G75*
G02*
X49150000Y-66612500I250000J0D01*
G01*
G37*
%TD.AperFunction*%
%TD*%
D31*
%TO.P,J27,11*%
%TO.N,GND*%
X41820000Y-45975000D03*
X47790000Y-45975000D03*
D32*
%TO.P,J27,9*%
X51290000Y-41300000D03*
%TO.P,J27,10*%
%TO.N,Net-(J27-Pad10)*%
X51290000Y-45000000D03*
D33*
%TO.P,J27,11*%
%TO.N,GND*%
X51115000Y-35275000D03*
D34*
X39795000Y-35500000D03*
D35*
%TO.P,J27,7*%
%TO.N,Net-(J27-Pad7)*%
X42055000Y-35150000D03*
%TO.P,J27,6*%
%TO.N,GND*%
X43155000Y-35150000D03*
%TO.P,J27,5*%
%TO.N,Net-(J27-Pad5)*%
X44255000Y-35150000D03*
%TO.P,J27,4*%
%TO.N,Net-(C18-Pad1)*%
X45355000Y-35150000D03*
%TO.P,J27,3*%
%TO.N,Net-(J27-Pad3)*%
X46455000Y-35150000D03*
%TO.P,J27,2*%
%TO.N,Net-(J27-Pad2)*%
X47555000Y-35150000D03*
D36*
%TO.P,J27,8*%
%TO.N,Net-(J27-Pad8)*%
X41005000Y-35150000D03*
D35*
%TO.P,J27,1*%
%TO.N,Net-(J27-Pad1)*%
X48655000Y-35150000D03*
%TD*%
D37*
%TO.P,J2,24*%
%TO.N,EINK_EEPROM_~EN*%
X65500000Y-109450000D03*
%TO.P,J2,23*%
%TO.N,/GDR*%
X65500000Y-109950000D03*
%TO.P,J2,22*%
%TO.N,/RESE*%
X65500000Y-110450000D03*
%TO.P,J2,21*%
%TO.N,Net-(C23-Pad1)*%
X65500000Y-110950000D03*
%TO.P,J2,20*%
%TO.N,Net-(C20-Pad1)*%
X65500000Y-111450000D03*
%TO.P,J2,19*%
%TO.N,Net-(J2-Pad19)*%
X65500000Y-111950000D03*
%TO.P,J2,18*%
%TO.N,Net-(J2-Pad18)*%
X65500000Y-112450000D03*
%TO.P,J2,17*%
%TO.N,Net-(J2-Pad17)*%
X65500000Y-112950000D03*
%TO.P,J2,16*%
%TO.N,EINK_STATE*%
X65500000Y-113450000D03*
%TO.P,J2,15*%
%TO.N,EINK_VCC*%
X65500000Y-113950000D03*
%TO.P,J2,14*%
%TO.N,EINK_DC*%
X65500000Y-114450000D03*
%TO.P,J2,13*%
%TO.N,EINK_~CS*%
X65500000Y-114950000D03*
%TO.P,J2,12*%
%TO.N,EINK_SPI_CLK*%
X65500000Y-115450000D03*
%TO.P,J2,11*%
%TO.N,EINK_SPI_MOSI*%
X65500000Y-115950000D03*
%TO.P,J2,10*%
%TO.N,EINK_VCC*%
X65500000Y-116450000D03*
%TO.P,J2,9*%
X65500000Y-116950000D03*
%TO.P,J2,8*%
%TO.N,GND*%
X65500000Y-117450000D03*
%TO.P,J2,7*%
%TO.N,Net-(C27-Pad2)*%
X65500000Y-117950000D03*
%TO.P,J2,6*%
%TO.N,EINK_SPI_MISO*%
X65500000Y-118450000D03*
%TO.P,J2,5*%
%TO.N,Net-(C28-Pad2)*%
X65500000Y-118950000D03*
%TO.P,J2,4*%
%TO.N,/PREVGH*%
X65500000Y-119450000D03*
%TO.P,J2,3*%
%TO.N,Net-(C29-Pad2)*%
X65500000Y-119950000D03*
%TO.P,J2,2*%
%TO.N,/PREVGL*%
X65500000Y-120450000D03*
%TO.P,J2,1*%
%TO.N,Net-(C30-Pad2)*%
X65500000Y-120950000D03*
D38*
%TO.P,J2,MP*%
%TO.N,N/C*%
X62250000Y-122850000D03*
X62250000Y-107550000D03*
%TD*%
D39*
%TO.P,D5,2*%
%TO.N,Net-(C13-Pad1)*%
X67100000Y-96350000D03*
%TO.P,D5,1*%
%TO.N,/PREVGH*%
X64300000Y-96350000D03*
%TD*%
%TO.P,D4,2*%
%TO.N,Net-(C13-Pad2)*%
X64300000Y-91350000D03*
%TO.P,D4,1*%
%TO.N,GND*%
X67100000Y-91350000D03*
%TD*%
%TO.P,D3,2*%
%TO.N,/PREVGL*%
X60800000Y-93850000D03*
%TO.P,D3,1*%
%TO.N,Net-(C13-Pad2)*%
X63600000Y-93850000D03*
%TD*%
%TO.P,D2,2*%
%TO.N,Net-(D2-Pad2)*%
%TA.AperFunction,SMDPad,CuDef*%
G36*
G01*
X70687500Y-34787500D02*
X71112500Y-34787500D01*
G75*
G02*
X71325000Y-35000000I0J-212500D01*
G01*
X71325000Y-35800000D01*
G75*
G02*
X71112500Y-36012500I-212500J0D01*
G01*
X70687500Y-36012500D01*
G75*
G02*
X70475000Y-35800000I0J212500D01*
G01*
X70475000Y-35000000D01*
G75*
G02*
X70687500Y-34787500I212500J0D01*
G01*
G37*
%TD.AperFunction*%
%TO.P,D2,1*%
%TO.N,GND*%
%TA.AperFunction,SMDPad,CuDef*%
G36*
G01*
X70687500Y-33162500D02*
X71112500Y-33162500D01*
G75*
G02*
X71325000Y-33375000I0J-212500D01*
G01*
X71325000Y-34175000D01*
G75*
G02*
X71112500Y-34387500I-212500J0D01*
G01*
X70687500Y-34387500D01*
G75*
G02*
X70475000Y-34175000I0J212500D01*
G01*
X70475000Y-33375000D01*
G75*
G02*
X70687500Y-33162500I212500J0D01*
G01*
G37*
%TD.AperFunction*%
%TD*%
D40*
%TO.P,D1,5*%
%TO.N,/USB_D-*%
X66400000Y-44700000D03*
%TO.P,D1,6*%
%TO.N,N/C*%
X66400000Y-45650000D03*
%TO.P,D1,4*%
%TO.N,/USB_D+*%
X66400000Y-43750000D03*
%TO.P,D1,3*%
%TO.N,N/C*%
X64200000Y-43750000D03*
%TO.P,D1,2*%
%TO.N,GND*%
X64200000Y-44700000D03*
%TO.P,D1,1*%
%TO.N,+5V*%
X64200000Y-45650000D03*
%TD*%
%TO.P,C30,2*%
%TO.N,Net-(C30-Pad2)*%
%TA.AperFunction,SMDPad,CuDef*%
G36*
G01*
X67850000Y-122700000D02*
X67850000Y-123200000D01*
G75*
G02*
X67625000Y-123425000I-225000J0D01*
G01*
X67175000Y-123425000D01*
G75*
G02*
X66950000Y-123200000I0J225000D01*
G01*
X66950000Y-122700000D01*
G75*
G02*
X67175000Y-122475000I225000J0D01*
G01*
X67625000Y-122475000D01*
G75*
G02*
X67850000Y-122700000I0J-225000D01*
G01*
G37*
%TD.AperFunction*%
%TO.P,C30,1*%
%TO.N,GND*%
%TA.AperFunction,SMDPad,CuDef*%
G36*
G01*
X69400000Y-122700000D02*
X69400000Y-123200000D01*
G75*
G02*
X69175000Y-123425000I-225000J0D01*
G01*
X68725000Y-123425000D01*
G75*
G02*
X68500000Y-123200000I0J225000D01*
G01*
X68500000Y-122700000D01*
G75*
G02*
X68725000Y-122475000I225000J0D01*
G01*
X69175000Y-122475000D01*
G75*
G02*
X69400000Y-122700000I0J-225000D01*
G01*
G37*
%TD.AperFunction*%
%TD*%
%TO.P,C29,2*%
%TO.N,Net-(C29-Pad2)*%
%TA.AperFunction,SMDPad,CuDef*%
G36*
G01*
X67850000Y-120200000D02*
X67850000Y-120700000D01*
G75*
G02*
X67625000Y-120925000I-225000J0D01*
G01*
X67175000Y-120925000D01*
G75*
G02*
X66950000Y-120700000I0J225000D01*
G01*
X66950000Y-120200000D01*
G75*
G02*
X67175000Y-119975000I225000J0D01*
G01*
X67625000Y-119975000D01*
G75*
G02*
X67850000Y-120200000I0J-225000D01*
G01*
G37*
%TD.AperFunction*%
%TO.P,C29,1*%
%TO.N,GND*%
%TA.AperFunction,SMDPad,CuDef*%
G36*
G01*
X69400000Y-120200000D02*
X69400000Y-120700000D01*
G75*
G02*
X69175000Y-120925000I-225000J0D01*
G01*
X68725000Y-120925000D01*
G75*
G02*
X68500000Y-120700000I0J225000D01*
G01*
X68500000Y-120200000D01*
G75*
G02*
X68725000Y-119975000I225000J0D01*
G01*
X69175000Y-119975000D01*
G75*
G02*
X69400000Y-120200000I0J-225000D01*
G01*
G37*
%TD.AperFunction*%
%TD*%
%TO.P,C28,2*%
%TO.N,Net-(C28-Pad2)*%
%TA.AperFunction,SMDPad,CuDef*%
G36*
G01*
X67850000Y-117700000D02*
X67850000Y-118200000D01*
G75*
G02*
X67625000Y-118425000I-225000J0D01*
G01*
X67175000Y-118425000D01*
G75*
G02*
X66950000Y-118200000I0J225000D01*
G01*
X66950000Y-117700000D01*
G75*
G02*
X67175000Y-117475000I225000J0D01*
G01*
X67625000Y-117475000D01*
G75*
G02*
X67850000Y-117700000I0J-225000D01*
G01*
G37*
%TD.AperFunction*%
%TO.P,C28,1*%
%TO.N,GND*%
%TA.AperFunction,SMDPad,CuDef*%
G36*
G01*
X69400000Y-117700000D02*
X69400000Y-118200000D01*
G75*
G02*
X69175000Y-118425000I-225000J0D01*
G01*
X68725000Y-118425000D01*
G75*
G02*
X68500000Y-118200000I0J225000D01*
G01*
X68500000Y-117700000D01*
G75*
G02*
X68725000Y-117475000I225000J0D01*
G01*
X69175000Y-117475000D01*
G75*
G02*
X69400000Y-117700000I0J-225000D01*
G01*
G37*
%TD.AperFunction*%
%TD*%
%TO.P,C27,2*%
%TO.N,Net-(C27-Pad2)*%
%TA.AperFunction,SMDPad,CuDef*%
G36*
G01*
X67825000Y-116450000D02*
X67825000Y-116950000D01*
G75*
G02*
X67600000Y-117175000I-225000J0D01*
G01*
X67150000Y-117175000D01*
G75*
G02*
X66925000Y-116950000I0J225000D01*
G01*
X66925000Y-116450000D01*
G75*
G02*
X67150000Y-116225000I225000J0D01*
G01*
X67600000Y-116225000D01*
G75*
G02*
X67825000Y-116450000I0J-225000D01*
G01*
G37*
%TD.AperFunction*%
%TO.P,C27,1*%
%TO.N,GND*%
%TA.AperFunction,SMDPad,CuDef*%
G36*
G01*
X69375000Y-116450000D02*
X69375000Y-116950000D01*
G75*
G02*
X69150000Y-117175000I-225000J0D01*
G01*
X68700000Y-117175000D01*
G75*
G02*
X68475000Y-116950000I0J225000D01*
G01*
X68475000Y-116450000D01*
G75*
G02*
X68700000Y-116225000I225000J0D01*
G01*
X69150000Y-116225000D01*
G75*
G02*
X69375000Y-116450000I0J-225000D01*
G01*
G37*
%TD.AperFunction*%
%TD*%
%TO.P,C26,2*%
%TO.N,GND*%
%TA.AperFunction,SMDPad,CuDef*%
G36*
G01*
X68500000Y-115700000D02*
X68500000Y-115200000D01*
G75*
G02*
X68725000Y-114975000I225000J0D01*
G01*
X69175000Y-114975000D01*
G75*
G02*
X69400000Y-115200000I0J-225000D01*
G01*
X69400000Y-115700000D01*
G75*
G02*
X69175000Y-115925000I-225000J0D01*
G01*
X68725000Y-115925000D01*
G75*
G02*
X68500000Y-115700000I0J225000D01*
G01*
G37*
%TD.AperFunction*%
%TO.P,C26,1*%
%TO.N,EINK_VCC*%
%TA.AperFunction,SMDPad,CuDef*%
G36*
G01*
X66950000Y-115700000D02*
X66950000Y-115200000D01*
G75*
G02*
X67175000Y-114975000I225000J0D01*
G01*
X67625000Y-114975000D01*
G75*
G02*
X67850000Y-115200000I0J-225000D01*
G01*
X67850000Y-115700000D01*
G75*
G02*
X67625000Y-115925000I-225000J0D01*
G01*
X67175000Y-115925000D01*
G75*
G02*
X66950000Y-115700000I0J225000D01*
G01*
G37*
%TD.AperFunction*%
%TD*%
%TO.P,C25,2*%
%TO.N,GND*%
%TA.AperFunction,SMDPad,CuDef*%
G36*
G01*
X68450000Y-112200000D02*
X68450000Y-111700000D01*
G75*
G02*
X68675000Y-111475000I225000J0D01*
G01*
X69125000Y-111475000D01*
G75*
G02*
X69350000Y-111700000I0J-225000D01*
G01*
X69350000Y-112200000D01*
G75*
G02*
X69125000Y-112425000I-225000J0D01*
G01*
X68675000Y-112425000D01*
G75*
G02*
X68450000Y-112200000I0J225000D01*
G01*
G37*
%TD.AperFunction*%
%TO.P,C25,1*%
%TO.N,Net-(C20-Pad1)*%
%TA.AperFunction,SMDPad,CuDef*%
G36*
G01*
X66900000Y-112200000D02*
X66900000Y-111700000D01*
G75*
G02*
X67125000Y-111475000I225000J0D01*
G01*
X67575000Y-111475000D01*
G75*
G02*
X67800000Y-111700000I0J-225000D01*
G01*
X67800000Y-112200000D01*
G75*
G02*
X67575000Y-112425000I-225000J0D01*
G01*
X67125000Y-112425000D01*
G75*
G02*
X66900000Y-112200000I0J225000D01*
G01*
G37*
%TD.AperFunction*%
%TD*%
%TO.P,C24,2*%
%TO.N,GND*%
%TA.AperFunction,SMDPad,CuDef*%
G36*
G01*
X68500000Y-109700000D02*
X68500000Y-109200000D01*
G75*
G02*
X68725000Y-108975000I225000J0D01*
G01*
X69175000Y-108975000D01*
G75*
G02*
X69400000Y-109200000I0J-225000D01*
G01*
X69400000Y-109700000D01*
G75*
G02*
X69175000Y-109925000I-225000J0D01*
G01*
X68725000Y-109925000D01*
G75*
G02*
X68500000Y-109700000I0J225000D01*
G01*
G37*
%TD.AperFunction*%
%TO.P,C24,1*%
%TO.N,Net-(C23-Pad1)*%
%TA.AperFunction,SMDPad,CuDef*%
G36*
G01*
X66950000Y-109700000D02*
X66950000Y-109200000D01*
G75*
G02*
X67175000Y-108975000I225000J0D01*
G01*
X67625000Y-108975000D01*
G75*
G02*
X67850000Y-109200000I0J-225000D01*
G01*
X67850000Y-109700000D01*
G75*
G02*
X67625000Y-109925000I-225000J0D01*
G01*
X67175000Y-109925000D01*
G75*
G02*
X66950000Y-109700000I0J225000D01*
G01*
G37*
%TD.AperFunction*%
%TD*%
%TO.P,C23,2*%
%TO.N,GND*%
%TA.AperFunction,SMDPad,CuDef*%
G36*
G01*
X68475000Y-108450000D02*
X68475000Y-107950000D01*
G75*
G02*
X68700000Y-107725000I225000J0D01*
G01*
X69150000Y-107725000D01*
G75*
G02*
X69375000Y-107950000I0J-225000D01*
G01*
X69375000Y-108450000D01*
G75*
G02*
X69150000Y-108675000I-225000J0D01*
G01*
X68700000Y-108675000D01*
G75*
G02*
X68475000Y-108450000I0J225000D01*
G01*
G37*
%TD.AperFunction*%
%TO.P,C23,1*%
%TO.N,Net-(C23-Pad1)*%
%TA.AperFunction,SMDPad,CuDef*%
G36*
G01*
X66925000Y-108450000D02*
X66925000Y-107950000D01*
G75*
G02*
X67150000Y-107725000I225000J0D01*
G01*
X67600000Y-107725000D01*
G75*
G02*
X67825000Y-107950000I0J-225000D01*
G01*
X67825000Y-108450000D01*
G75*
G02*
X67600000Y-108675000I-225000J0D01*
G01*
X67150000Y-108675000D01*
G75*
G02*
X66925000Y-108450000I0J225000D01*
G01*
G37*
%TD.AperFunction*%
%TD*%
%TO.P,C22,2*%
%TO.N,/PREVGL*%
%TA.AperFunction,SMDPad,CuDef*%
G36*
G01*
X67850000Y-121450000D02*
X67850000Y-121950000D01*
G75*
G02*
X67625000Y-122175000I-225000J0D01*
G01*
X67175000Y-122175000D01*
G75*
G02*
X66950000Y-121950000I0J225000D01*
G01*
X66950000Y-121450000D01*
G75*
G02*
X67175000Y-121225000I225000J0D01*
G01*
X67625000Y-121225000D01*
G75*
G02*
X67850000Y-121450000I0J-225000D01*
G01*
G37*
%TD.AperFunction*%
%TO.P,C22,1*%
%TO.N,GND*%
%TA.AperFunction,SMDPad,CuDef*%
G36*
G01*
X69400000Y-121450000D02*
X69400000Y-121950000D01*
G75*
G02*
X69175000Y-122175000I-225000J0D01*
G01*
X68725000Y-122175000D01*
G75*
G02*
X68500000Y-121950000I0J225000D01*
G01*
X68500000Y-121450000D01*
G75*
G02*
X68725000Y-121225000I225000J0D01*
G01*
X69175000Y-121225000D01*
G75*
G02*
X69400000Y-121450000I0J-225000D01*
G01*
G37*
%TD.AperFunction*%
%TD*%
%TO.P,C21,2*%
%TO.N,/PREVGH*%
%TA.AperFunction,SMDPad,CuDef*%
G36*
G01*
X67850000Y-118950000D02*
X67850000Y-119450000D01*
G75*
G02*
X67625000Y-119675000I-225000J0D01*
G01*
X67175000Y-119675000D01*
G75*
G02*
X66950000Y-119450000I0J225000D01*
G01*
X66950000Y-118950000D01*
G75*
G02*
X67175000Y-118725000I225000J0D01*
G01*
X67625000Y-118725000D01*
G75*
G02*
X67850000Y-118950000I0J-225000D01*
G01*
G37*
%TD.AperFunction*%
%TO.P,C21,1*%
%TO.N,GND*%
%TA.AperFunction,SMDPad,CuDef*%
G36*
G01*
X69400000Y-118950000D02*
X69400000Y-119450000D01*
G75*
G02*
X69175000Y-119675000I-225000J0D01*
G01*
X68725000Y-119675000D01*
G75*
G02*
X68500000Y-119450000I0J225000D01*
G01*
X68500000Y-118950000D01*
G75*
G02*
X68725000Y-118725000I225000J0D01*
G01*
X69175000Y-118725000D01*
G75*
G02*
X69400000Y-118950000I0J-225000D01*
G01*
G37*
%TD.AperFunction*%
%TD*%
%TO.P,C20,2*%
%TO.N,GND*%
%TA.AperFunction,SMDPad,CuDef*%
G36*
G01*
X68475000Y-110950000D02*
X68475000Y-110450000D01*
G75*
G02*
X68700000Y-110225000I225000J0D01*
G01*
X69150000Y-110225000D01*
G75*
G02*
X69375000Y-110450000I0J-225000D01*
G01*
X69375000Y-110950000D01*
G75*
G02*
X69150000Y-111175000I-225000J0D01*
G01*
X68700000Y-111175000D01*
G75*
G02*
X68475000Y-110950000I0J225000D01*
G01*
G37*
%TD.AperFunction*%
%TO.P,C20,1*%
%TO.N,Net-(C20-Pad1)*%
%TA.AperFunction,SMDPad,CuDef*%
G36*
G01*
X66925000Y-110950000D02*
X66925000Y-110450000D01*
G75*
G02*
X67150000Y-110225000I225000J0D01*
G01*
X67600000Y-110225000D01*
G75*
G02*
X67825000Y-110450000I0J-225000D01*
G01*
X67825000Y-110950000D01*
G75*
G02*
X67600000Y-111175000I-225000J0D01*
G01*
X67150000Y-111175000D01*
G75*
G02*
X66925000Y-110950000I0J225000D01*
G01*
G37*
%TD.AperFunction*%
%TD*%
%TO.P,C19,2*%
%TO.N,Net-(C18-Pad1)*%
%TA.AperFunction,SMDPad,CuDef*%
G36*
G01*
X45275000Y-50250000D02*
X45275000Y-49750000D01*
G75*
G02*
X45500000Y-49525000I225000J0D01*
G01*
X45950000Y-49525000D01*
G75*
G02*
X46175000Y-49750000I0J-225000D01*
G01*
X46175000Y-50250000D01*
G75*
G02*
X45950000Y-50475000I-225000J0D01*
G01*
X45500000Y-50475000D01*
G75*
G02*
X45275000Y-50250000I0J225000D01*
G01*
G37*
%TD.AperFunction*%
%TO.P,C19,1*%
%TO.N,GND*%
%TA.AperFunction,SMDPad,CuDef*%
G36*
G01*
X43725000Y-50250000D02*
X43725000Y-49750000D01*
G75*
G02*
X43950000Y-49525000I225000J0D01*
G01*
X44400000Y-49525000D01*
G75*
G02*
X44625000Y-49750000I0J-225000D01*
G01*
X44625000Y-50250000D01*
G75*
G02*
X44400000Y-50475000I-225000J0D01*
G01*
X43950000Y-50475000D01*
G75*
G02*
X43725000Y-50250000I0J225000D01*
G01*
G37*
%TD.AperFunction*%
%TD*%
%TO.P,C18,2*%
%TO.N,GND*%
%TA.AperFunction,SMDPad,CuDef*%
G36*
G01*
X44675000Y-48150000D02*
X44675000Y-48650000D01*
G75*
G02*
X44450000Y-48875000I-225000J0D01*
G01*
X44000000Y-48875000D01*
G75*
G02*
X43775000Y-48650000I0J225000D01*
G01*
X43775000Y-48150000D01*
G75*
G02*
X44000000Y-47925000I225000J0D01*
G01*
X44450000Y-47925000D01*
G75*
G02*
X44675000Y-48150000I0J-225000D01*
G01*
G37*
%TD.AperFunction*%
%TO.P,C18,1*%
%TO.N,Net-(C18-Pad1)*%
%TA.AperFunction,SMDPad,CuDef*%
G36*
G01*
X46225000Y-48150000D02*
X46225000Y-48650000D01*
G75*
G02*
X46000000Y-48875000I-225000J0D01*
G01*
X45550000Y-48875000D01*
G75*
G02*
X45325000Y-48650000I0J225000D01*
G01*
X45325000Y-48150000D01*
G75*
G02*
X45550000Y-47925000I225000J0D01*
G01*
X46000000Y-47925000D01*
G75*
G02*
X46225000Y-48150000I0J-225000D01*
G01*
G37*
%TD.AperFunction*%
%TD*%
%TO.P,C17,2*%
%TO.N,GND*%
%TA.AperFunction,SMDPad,CuDef*%
G36*
G01*
X57200000Y-129425000D02*
X57700000Y-129425000D01*
G75*
G02*
X57925000Y-129650000I0J-225000D01*
G01*
X57925000Y-130100000D01*
G75*
G02*
X57700000Y-130325000I-225000J0D01*
G01*
X57200000Y-130325000D01*
G75*
G02*
X56975000Y-130100000I0J225000D01*
G01*
X56975000Y-129650000D01*
G75*
G02*
X57200000Y-129425000I225000J0D01*
G01*
G37*
%TD.AperFunction*%
%TO.P,C17,1*%
%TO.N,EINK_VCC*%
%TA.AperFunction,SMDPad,CuDef*%
G36*
G01*
X57200000Y-127875000D02*
X57700000Y-127875000D01*
G75*
G02*
X57925000Y-128100000I0J-225000D01*
G01*
X57925000Y-128550000D01*
G75*
G02*
X57700000Y-128775000I-225000J0D01*
G01*
X57200000Y-128775000D01*
G75*
G02*
X56975000Y-128550000I0J225000D01*
G01*
X56975000Y-128100000D01*
G75*
G02*
X57200000Y-127875000I225000J0D01*
G01*
G37*
%TD.AperFunction*%
%TD*%
%TO.P,C16,2*%
%TO.N,GND*%
%TA.AperFunction,SMDPad,CuDef*%
G36*
G01*
X67350000Y-104850000D02*
X67350000Y-105350000D01*
G75*
G02*
X67125000Y-105575000I-225000J0D01*
G01*
X66675000Y-105575000D01*
G75*
G02*
X66450000Y-105350000I0J225000D01*
G01*
X66450000Y-104850000D01*
G75*
G02*
X66675000Y-104625000I225000J0D01*
G01*
X67125000Y-104625000D01*
G75*
G02*
X67350000Y-104850000I0J-225000D01*
G01*
G37*
%TD.AperFunction*%
%TO.P,C16,1*%
%TO.N,EINK_VCC*%
%TA.AperFunction,SMDPad,CuDef*%
G36*
G01*
X68900000Y-104850000D02*
X68900000Y-105350000D01*
G75*
G02*
X68675000Y-105575000I-225000J0D01*
G01*
X68225000Y-105575000D01*
G75*
G02*
X68000000Y-105350000I0J225000D01*
G01*
X68000000Y-104850000D01*
G75*
G02*
X68225000Y-104625000I225000J0D01*
G01*
X68675000Y-104625000D01*
G75*
G02*
X68900000Y-104850000I0J-225000D01*
G01*
G37*
%TD.AperFunction*%
%TD*%
%TO.P,C15,2*%
%TO.N,+3V3*%
%TA.AperFunction,SMDPad,CuDef*%
G36*
G01*
X81575000Y-74900000D02*
X81575000Y-74400000D01*
G75*
G02*
X81800000Y-74175000I225000J0D01*
G01*
X82250000Y-74175000D01*
G75*
G02*
X82475000Y-74400000I0J-225000D01*
G01*
X82475000Y-74900000D01*
G75*
G02*
X82250000Y-75125000I-225000J0D01*
G01*
X81800000Y-75125000D01*
G75*
G02*
X81575000Y-74900000I0J225000D01*
G01*
G37*
%TD.AperFunction*%
%TO.P,C15,1*%
%TO.N,GND*%
%TA.AperFunction,SMDPad,CuDef*%
G36*
G01*
X80025000Y-74900000D02*
X80025000Y-74400000D01*
G75*
G02*
X80250000Y-74175000I225000J0D01*
G01*
X80700000Y-74175000D01*
G75*
G02*
X80925000Y-74400000I0J-225000D01*
G01*
X80925000Y-74900000D01*
G75*
G02*
X80700000Y-75125000I-225000J0D01*
G01*
X80250000Y-75125000D01*
G75*
G02*
X80025000Y-74900000I0J225000D01*
G01*
G37*
%TD.AperFunction*%
%TD*%
%TO.P,C14,2*%
%TO.N,GND*%
%TA.AperFunction,SMDPad,CuDef*%
G36*
G01*
X79250000Y-79725000D02*
X79750000Y-79725000D01*
G75*
G02*
X79975000Y-79950000I0J-225000D01*
G01*
X79975000Y-80400000D01*
G75*
G02*
X79750000Y-80625000I-225000J0D01*
G01*
X79250000Y-80625000D01*
G75*
G02*
X79025000Y-80400000I0J225000D01*
G01*
X79025000Y-79950000D01*
G75*
G02*
X79250000Y-79725000I225000J0D01*
G01*
G37*
%TD.AperFunction*%
%TO.P,C14,1*%
%TO.N,+3V3*%
%TA.AperFunction,SMDPad,CuDef*%
G36*
G01*
X79250000Y-78175000D02*
X79750000Y-78175000D01*
G75*
G02*
X79975000Y-78400000I0J-225000D01*
G01*
X79975000Y-78850000D01*
G75*
G02*
X79750000Y-79075000I-225000J0D01*
G01*
X79250000Y-79075000D01*
G75*
G02*
X79025000Y-78850000I0J225000D01*
G01*
X79025000Y-78400000D01*
G75*
G02*
X79250000Y-78175000I225000J0D01*
G01*
G37*
%TD.AperFunction*%
%TD*%
%TO.P,C13,2*%
%TO.N,Net-(C13-Pad2)*%
%TA.AperFunction,SMDPad,CuDef*%
G36*
G01*
X65875000Y-93600000D02*
X65875000Y-94100000D01*
G75*
G02*
X65650000Y-94325000I-225000J0D01*
G01*
X65200000Y-94325000D01*
G75*
G02*
X64975000Y-94100000I0J225000D01*
G01*
X64975000Y-93600000D01*
G75*
G02*
X65200000Y-93375000I225000J0D01*
G01*
X65650000Y-93375000D01*
G75*
G02*
X65875000Y-93600000I0J-225000D01*
G01*
G37*
%TD.AperFunction*%
%TO.P,C13,1*%
%TO.N,Net-(C13-Pad1)*%
%TA.AperFunction,SMDPad,CuDef*%
G36*
G01*
X67425000Y-93600000D02*
X67425000Y-94100000D01*
G75*
G02*
X67200000Y-94325000I-225000J0D01*
G01*
X66750000Y-94325000D01*
G75*
G02*
X66525000Y-94100000I0J225000D01*
G01*
X66525000Y-93600000D01*
G75*
G02*
X66750000Y-93375000I225000J0D01*
G01*
X67200000Y-93375000D01*
G75*
G02*
X67425000Y-93600000I0J-225000D01*
G01*
G37*
%TD.AperFunction*%
%TD*%
%TO.P,C12,2*%
%TO.N,VIN_ADC*%
%TA.AperFunction,SMDPad,CuDef*%
G36*
G01*
X135050000Y-54275000D02*
X134550000Y-54275000D01*
G75*
G02*
X134325000Y-54050000I0J225000D01*
G01*
X134325000Y-53600000D01*
G75*
G02*
X134550000Y-53375000I225000J0D01*
G01*
X135050000Y-53375000D01*
G75*
G02*
X135275000Y-53600000I0J-225000D01*
G01*
X135275000Y-54050000D01*
G75*
G02*
X135050000Y-54275000I-225000J0D01*
G01*
G37*
%TD.AperFunction*%
%TO.P,C12,1*%
%TO.N,GND*%
%TA.AperFunction,SMDPad,CuDef*%
G36*
G01*
X135050000Y-55825000D02*
X134550000Y-55825000D01*
G75*
G02*
X134325000Y-55600000I0J225000D01*
G01*
X134325000Y-55150000D01*
G75*
G02*
X134550000Y-54925000I225000J0D01*
G01*
X135050000Y-54925000D01*
G75*
G02*
X135275000Y-55150000I0J-225000D01*
G01*
X135275000Y-55600000D01*
G75*
G02*
X135050000Y-55825000I-225000J0D01*
G01*
G37*
%TD.AperFunction*%
%TD*%
%TO.P,C11,2*%
%TO.N,GND*%
%TA.AperFunction,SMDPad,CuDef*%
G36*
G01*
X74000000Y-67475000D02*
X73500000Y-67475000D01*
G75*
G02*
X73275000Y-67250000I0J225000D01*
G01*
X73275000Y-66800000D01*
G75*
G02*
X73500000Y-66575000I225000J0D01*
G01*
X74000000Y-66575000D01*
G75*
G02*
X74225000Y-66800000I0J-225000D01*
G01*
X74225000Y-67250000D01*
G75*
G02*
X74000000Y-67475000I-225000J0D01*
G01*
G37*
%TD.AperFunction*%
%TO.P,C11,1*%
%TO.N,+3V3*%
%TA.AperFunction,SMDPad,CuDef*%
G36*
G01*
X74000000Y-69025000D02*
X73500000Y-69025000D01*
G75*
G02*
X73275000Y-68800000I0J225000D01*
G01*
X73275000Y-68350000D01*
G75*
G02*
X73500000Y-68125000I225000J0D01*
G01*
X74000000Y-68125000D01*
G75*
G02*
X74225000Y-68350000I0J-225000D01*
G01*
X74225000Y-68800000D01*
G75*
G02*
X74000000Y-69025000I-225000J0D01*
G01*
G37*
%TD.AperFunction*%
%TD*%
%TO.P,C10,2*%
%TO.N,GND*%
%TA.AperFunction,SMDPad,CuDef*%
G36*
G01*
X52450000Y-67475000D02*
X51950000Y-67475000D01*
G75*
G02*
X51725000Y-67250000I0J225000D01*
G01*
X51725000Y-66800000D01*
G75*
G02*
X51950000Y-66575000I225000J0D01*
G01*
X52450000Y-66575000D01*
G75*
G02*
X52675000Y-66800000I0J-225000D01*
G01*
X52675000Y-67250000D01*
G75*
G02*
X52450000Y-67475000I-225000J0D01*
G01*
G37*
%TD.AperFunction*%
%TO.P,C10,1*%
%TO.N,+BATT*%
%TA.AperFunction,SMDPad,CuDef*%
G36*
G01*
X52450000Y-69025000D02*
X51950000Y-69025000D01*
G75*
G02*
X51725000Y-68800000I0J225000D01*
G01*
X51725000Y-68350000D01*
G75*
G02*
X51950000Y-68125000I225000J0D01*
G01*
X52450000Y-68125000D01*
G75*
G02*
X52675000Y-68350000I0J-225000D01*
G01*
X52675000Y-68800000D01*
G75*
G02*
X52450000Y-69025000I-225000J0D01*
G01*
G37*
%TD.AperFunction*%
%TD*%
%TO.P,C9,2*%
%TO.N,GND*%
%TA.AperFunction,SMDPad,CuDef*%
G36*
G01*
X61000000Y-46800000D02*
X60500000Y-46800000D01*
G75*
G02*
X60275000Y-46575000I0J225000D01*
G01*
X60275000Y-46125000D01*
G75*
G02*
X60500000Y-45900000I225000J0D01*
G01*
X61000000Y-45900000D01*
G75*
G02*
X61225000Y-46125000I0J-225000D01*
G01*
X61225000Y-46575000D01*
G75*
G02*
X61000000Y-46800000I-225000J0D01*
G01*
G37*
%TD.AperFunction*%
%TO.P,C9,1*%
%TO.N,Net-(C9-Pad1)*%
%TA.AperFunction,SMDPad,CuDef*%
G36*
G01*
X61000000Y-48350000D02*
X60500000Y-48350000D01*
G75*
G02*
X60275000Y-48125000I0J225000D01*
G01*
X60275000Y-47675000D01*
G75*
G02*
X60500000Y-47450000I225000J0D01*
G01*
X61000000Y-47450000D01*
G75*
G02*
X61225000Y-47675000I0J-225000D01*
G01*
X61225000Y-48125000D01*
G75*
G02*
X61000000Y-48350000I-225000J0D01*
G01*
G37*
%TD.AperFunction*%
%TD*%
%TO.P,C8,2*%
%TO.N,VBAT_ADC*%
%TA.AperFunction,SMDPad,CuDef*%
G36*
G01*
X134550000Y-51925000D02*
X135050000Y-51925000D01*
G75*
G02*
X135275000Y-52150000I0J-225000D01*
G01*
X135275000Y-52600000D01*
G75*
G02*
X135050000Y-52825000I-225000J0D01*
G01*
X134550000Y-52825000D01*
G75*
G02*
X134325000Y-52600000I0J225000D01*
G01*
X134325000Y-52150000D01*
G75*
G02*
X134550000Y-51925000I225000J0D01*
G01*
G37*
%TD.AperFunction*%
%TO.P,C8,1*%
%TO.N,GND*%
%TA.AperFunction,SMDPad,CuDef*%
G36*
G01*
X134550000Y-50375000D02*
X135050000Y-50375000D01*
G75*
G02*
X135275000Y-50600000I0J-225000D01*
G01*
X135275000Y-51050000D01*
G75*
G02*
X135050000Y-51275000I-225000J0D01*
G01*
X134550000Y-51275000D01*
G75*
G02*
X134325000Y-51050000I0J225000D01*
G01*
X134325000Y-50600000D01*
G75*
G02*
X134550000Y-50375000I225000J0D01*
G01*
G37*
%TD.AperFunction*%
%TD*%
%TO.P,C7,2*%
%TO.N,+5V*%
%TA.AperFunction,SMDPad,CuDef*%
G36*
G01*
X68725000Y-52450000D02*
X68725000Y-52950000D01*
G75*
G02*
X68500000Y-53175000I-225000J0D01*
G01*
X68050000Y-53175000D01*
G75*
G02*
X67825000Y-52950000I0J225000D01*
G01*
X67825000Y-52450000D01*
G75*
G02*
X68050000Y-52225000I225000J0D01*
G01*
X68500000Y-52225000D01*
G75*
G02*
X68725000Y-52450000I0J-225000D01*
G01*
G37*
%TD.AperFunction*%
%TO.P,C7,1*%
%TO.N,GND*%
%TA.AperFunction,SMDPad,CuDef*%
G36*
G01*
X70275000Y-52450000D02*
X70275000Y-52950000D01*
G75*
G02*
X70050000Y-53175000I-225000J0D01*
G01*
X69600000Y-53175000D01*
G75*
G02*
X69375000Y-52950000I0J225000D01*
G01*
X69375000Y-52450000D01*
G75*
G02*
X69600000Y-52225000I225000J0D01*
G01*
X70050000Y-52225000D01*
G75*
G02*
X70275000Y-52450000I0J-225000D01*
G01*
G37*
%TD.AperFunction*%
%TD*%
%TO.P,C6,2*%
%TO.N,+5V*%
%TA.AperFunction,SMDPad,CuDef*%
G36*
G01*
X64725000Y-52450000D02*
X64725000Y-52950000D01*
G75*
G02*
X64500000Y-53175000I-225000J0D01*
G01*
X64050000Y-53175000D01*
G75*
G02*
X63825000Y-52950000I0J225000D01*
G01*
X63825000Y-52450000D01*
G75*
G02*
X64050000Y-52225000I225000J0D01*
G01*
X64500000Y-52225000D01*
G75*
G02*
X64725000Y-52450000I0J-225000D01*
G01*
G37*
%TD.AperFunction*%
%TO.P,C6,1*%
%TO.N,GND*%
%TA.AperFunction,SMDPad,CuDef*%
G36*
G01*
X66275000Y-52450000D02*
X66275000Y-52950000D01*
G75*
G02*
X66050000Y-53175000I-225000J0D01*
G01*
X65600000Y-53175000D01*
G75*
G02*
X65375000Y-52950000I0J225000D01*
G01*
X65375000Y-52450000D01*
G75*
G02*
X65600000Y-52225000I225000J0D01*
G01*
X66050000Y-52225000D01*
G75*
G02*
X66275000Y-52450000I0J-225000D01*
G01*
G37*
%TD.AperFunction*%
%TD*%
%TO.P,C5,2*%
%TO.N,GND*%
%TA.AperFunction,SMDPad,CuDef*%
G36*
G01*
X134300000Y-43825000D02*
X133800000Y-43825000D01*
G75*
G02*
X133575000Y-43600000I0J225000D01*
G01*
X133575000Y-43150000D01*
G75*
G02*
X133800000Y-42925000I225000J0D01*
G01*
X134300000Y-42925000D01*
G75*
G02*
X134525000Y-43150000I0J-225000D01*
G01*
X134525000Y-43600000D01*
G75*
G02*
X134300000Y-43825000I-225000J0D01*
G01*
G37*
%TD.AperFunction*%
%TO.P,C5,1*%
%TO.N,+3V3*%
%TA.AperFunction,SMDPad,CuDef*%
G36*
G01*
X134300000Y-45375000D02*
X133800000Y-45375000D01*
G75*
G02*
X133575000Y-45150000I0J225000D01*
G01*
X133575000Y-44700000D01*
G75*
G02*
X133800000Y-44475000I225000J0D01*
G01*
X134300000Y-44475000D01*
G75*
G02*
X134525000Y-44700000I0J-225000D01*
G01*
X134525000Y-45150000D01*
G75*
G02*
X134300000Y-45375000I-225000J0D01*
G01*
G37*
%TD.AperFunction*%
%TD*%
%TO.P,C4,2*%
%TO.N,GND*%
%TA.AperFunction,SMDPad,CuDef*%
G36*
G01*
X137650000Y-43800000D02*
X137150000Y-43800000D01*
G75*
G02*
X136925000Y-43575000I0J225000D01*
G01*
X136925000Y-43125000D01*
G75*
G02*
X137150000Y-42900000I225000J0D01*
G01*
X137650000Y-42900000D01*
G75*
G02*
X137875000Y-43125000I0J-225000D01*
G01*
X137875000Y-43575000D01*
G75*
G02*
X137650000Y-43800000I-225000J0D01*
G01*
G37*
%TD.AperFunction*%
%TO.P,C4,1*%
%TO.N,ESP_~RST*%
%TA.AperFunction,SMDPad,CuDef*%
G36*
G01*
X137650000Y-45350000D02*
X137150000Y-45350000D01*
G75*
G02*
X136925000Y-45125000I0J225000D01*
G01*
X136925000Y-44675000D01*
G75*
G02*
X137150000Y-44450000I225000J0D01*
G01*
X137650000Y-44450000D01*
G75*
G02*
X137875000Y-44675000I0J-225000D01*
G01*
X137875000Y-45125000D01*
G75*
G02*
X137650000Y-45350000I-225000J0D01*
G01*
G37*
%TD.AperFunction*%
%TD*%
%TO.P,C3,2*%
%TO.N,GND*%
%TA.AperFunction,SMDPad,CuDef*%
G36*
G01*
X135800000Y-43825000D02*
X135300000Y-43825000D01*
G75*
G02*
X135075000Y-43600000I0J225000D01*
G01*
X135075000Y-43150000D01*
G75*
G02*
X135300000Y-42925000I225000J0D01*
G01*
X135800000Y-42925000D01*
G75*
G02*
X136025000Y-43150000I0J-225000D01*
G01*
X136025000Y-43600000D01*
G75*
G02*
X135800000Y-43825000I-225000J0D01*
G01*
G37*
%TD.AperFunction*%
%TO.P,C3,1*%
%TO.N,+3V3*%
%TA.AperFunction,SMDPad,CuDef*%
G36*
G01*
X135800000Y-45375000D02*
X135300000Y-45375000D01*
G75*
G02*
X135075000Y-45150000I0J225000D01*
G01*
X135075000Y-44700000D01*
G75*
G02*
X135300000Y-44475000I225000J0D01*
G01*
X135800000Y-44475000D01*
G75*
G02*
X136025000Y-44700000I0J-225000D01*
G01*
X136025000Y-45150000D01*
G75*
G02*
X135800000Y-45375000I-225000J0D01*
G01*
G37*
%TD.AperFunction*%
%TD*%
%TO.P,C2,2*%
%TO.N,GND*%
%TA.AperFunction,SMDPad,CuDef*%
G36*
G01*
X70350000Y-64475000D02*
X70850000Y-64475000D01*
G75*
G02*
X71075000Y-64700000I0J-225000D01*
G01*
X71075000Y-65150000D01*
G75*
G02*
X70850000Y-65375000I-225000J0D01*
G01*
X70350000Y-65375000D01*
G75*
G02*
X70125000Y-65150000I0J225000D01*
G01*
X70125000Y-64700000D01*
G75*
G02*
X70350000Y-64475000I225000J0D01*
G01*
G37*
%TD.AperFunction*%
%TO.P,C2,1*%
%TO.N,+BATT*%
%TA.AperFunction,SMDPad,CuDef*%
G36*
G01*
X70350000Y-62925000D02*
X70850000Y-62925000D01*
G75*
G02*
X71075000Y-63150000I0J-225000D01*
G01*
X71075000Y-63600000D01*
G75*
G02*
X70850000Y-63825000I-225000J0D01*
G01*
X70350000Y-63825000D01*
G75*
G02*
X70125000Y-63600000I0J225000D01*
G01*
X70125000Y-63150000D01*
G75*
G02*
X70350000Y-62925000I225000J0D01*
G01*
G37*
%TD.AperFunction*%
%TD*%
%TO.P,C1,2*%
%TO.N,GND*%
%TA.AperFunction,SMDPad,CuDef*%
G36*
G01*
X49150000Y-64475000D02*
X49650000Y-64475000D01*
G75*
G02*
X49875000Y-64700000I0J-225000D01*
G01*
X49875000Y-65150000D01*
G75*
G02*
X49650000Y-65375000I-225000J0D01*
G01*
X49150000Y-65375000D01*
G75*
G02*
X48925000Y-65150000I0J225000D01*
G01*
X48925000Y-64700000D01*
G75*
G02*
X49150000Y-64475000I225000J0D01*
G01*
G37*
%TD.AperFunction*%
%TO.P,C1,1*%
%TO.N,+5V*%
%TA.AperFunction,SMDPad,CuDef*%
G36*
G01*
X49150000Y-62925000D02*
X49650000Y-62925000D01*
G75*
G02*
X49875000Y-63150000I0J-225000D01*
G01*
X49875000Y-63600000D01*
G75*
G02*
X49650000Y-63825000I-225000J0D01*
G01*
X49150000Y-63825000D01*
G75*
G02*
X48925000Y-63600000I0J225000D01*
G01*
X48925000Y-63150000D01*
G75*
G02*
X49150000Y-62925000I225000J0D01*
G01*
G37*
%TD.AperFunction*%
%TD*%
D41*
%TO.N,GND*%
X124200000Y-51000000D03*
X52000000Y-64200000D03*
X53000000Y-64169998D03*
X51000000Y-64169998D03*
X73200000Y-64200000D03*
X72200000Y-64169998D03*
X74200000Y-64169998D03*
X77800000Y-68600000D03*
X79400000Y-74600000D03*
X80600000Y-80200000D03*
X82599998Y-80400000D03*
X88400000Y-78000000D03*
X85000000Y-40600000D03*
X83800000Y-34800000D03*
X101600000Y-37200000D03*
X101600000Y-36200000D03*
X101600000Y-39200000D03*
X101600000Y-40200000D03*
X101600000Y-33200000D03*
X101600000Y-32000000D03*
X87800000Y-41200000D03*
X87800000Y-40200000D03*
X92800000Y-47200000D03*
X96800000Y-47200000D03*
X117400000Y-68000000D03*
X65400000Y-106400000D03*
X67200000Y-90000000D03*
X71000000Y-113800000D03*
X63930354Y-117572599D03*
X45531302Y-34049998D03*
X44400000Y-36250002D03*
X113200000Y-43400000D03*
X130400000Y-63000000D03*
X137400000Y-42400000D03*
X138821846Y-38731079D03*
X60400000Y-53000000D03*
X58954997Y-53428182D03*
X54600000Y-32400000D03*
X71000000Y-32400000D03*
X60600000Y-31600000D03*
X68800000Y-31600000D03*
X67000000Y-52800010D03*
X71000000Y-52800010D03*
X62400000Y-53200000D03*
X45200000Y-39000000D03*
X45200000Y-45800000D03*
X44200000Y-51200000D03*
X74600000Y-56950032D03*
X73459970Y-57689101D03*
X68200000Y-71000000D03*
X64200000Y-71000000D03*
X64200000Y-75000000D03*
X68400000Y-73000000D03*
X68200000Y-75000000D03*
X66200000Y-75200000D03*
X66250000Y-70800000D03*
X64000000Y-73000000D03*
X56400000Y-68600000D03*
X62800000Y-44400000D03*
X61434314Y-45565686D03*
X87800000Y-32100000D03*
X87800000Y-33200000D03*
X87800000Y-35200000D03*
X87800000Y-34200000D03*
X137800000Y-68200000D03*
X137800000Y-77400000D03*
X137600000Y-50800000D03*
X136200000Y-56600000D03*
X70200000Y-107600000D03*
X70200000Y-108800000D03*
X70200000Y-110200000D03*
X70200000Y-123000000D03*
X70200000Y-121800000D03*
X70200000Y-120400000D03*
X70200000Y-119200000D03*
X70200000Y-117800000D03*
X56200000Y-129800000D03*
X108192882Y-67407126D03*
X93730836Y-58788426D03*
X123150022Y-62505002D03*
X121850010Y-62600000D03*
X92151913Y-58251126D03*
X109254617Y-69545383D03*
%TO.N,+BATT*%
X127250000Y-76400000D03*
X124150000Y-76400000D03*
X79169591Y-83121637D03*
X77659620Y-80140380D03*
X77800000Y-63200000D03*
X77800000Y-52000000D03*
%TO.N,+3V3*%
X81000000Y-79200000D03*
X80374438Y-77978091D03*
X70800000Y-115200000D03*
X136428311Y-44150000D03*
X107400000Y-58800000D03*
X109600000Y-58600000D03*
X139150000Y-40000000D03*
X139220290Y-35192051D03*
X79400000Y-48000000D03*
X79800000Y-61400000D03*
X51800000Y-53000000D03*
X53600000Y-53000000D03*
X67200000Y-81600000D03*
X82000000Y-73400000D03*
X76400000Y-69800000D03*
X76400000Y-70800000D03*
X76400000Y-71800000D03*
X137400000Y-48400000D03*
%TO.N,EINK_VCC*%
X62600000Y-110000000D03*
X69893940Y-104893940D03*
%TO.N,Net-(J3-Pad1)*%
X74600000Y-45600000D03*
%TO.N,Net-(J4-Pad1)*%
X74759627Y-50440373D03*
%TO.N,Net-(J8-Pad1)*%
X75600000Y-41200000D03*
%TO.N,I2C_DAT*%
X98800000Y-54952657D03*
X98728703Y-56252668D03*
X137800000Y-61600000D03*
X114367881Y-61367881D03*
X91535068Y-63535068D03*
%TO.N,I2C_CLK*%
X96950926Y-55936917D03*
X87800000Y-39200000D03*
X89774633Y-48825367D03*
X90863309Y-62863309D03*
%TO.N,EINK_SPI_MOSI*%
X64200000Y-116000000D03*
X127850010Y-66019691D03*
X73800000Y-116027361D03*
X127378537Y-58700012D03*
%TO.N,EINK_SPI_CLK*%
X62899999Y-115306048D03*
X127059627Y-65459627D03*
X74563108Y-115377351D03*
X127600000Y-57400000D03*
%TO.N,EINK_~CS*%
X63600000Y-114600000D03*
X128600000Y-65250010D03*
X74482722Y-116687977D03*
X128211527Y-58127019D03*
%TO.N,EINK_DC*%
X62459378Y-113859378D03*
X73800000Y-114700000D03*
%TO.N,EINK_STATE*%
X62400000Y-112800000D03*
X72000000Y-111049990D03*
X123000000Y-73200000D03*
X128550006Y-74005603D03*
%TO.N,EINK_VCC_~EN*%
X79400000Y-82200000D03*
X77600000Y-82200000D03*
%TO.N,SD_VCC_nEN*%
X63000000Y-54400000D03*
X58650000Y-55599996D03*
%TO.N,GPS_VCC_nEN*%
X82800000Y-51350000D03*
X129400000Y-52200000D03*
%TO.N,UART1_RX*%
X71849712Y-53224855D03*
X66000000Y-54000000D03*
X99805852Y-57149990D03*
X106307122Y-49707122D03*
X107413050Y-50482450D03*
%TO.N,UART1_TX*%
X64128064Y-54471936D03*
X72699420Y-53649710D03*
X100800000Y-57200000D03*
X106738021Y-48435220D03*
X107688146Y-49328429D03*
%TO.N,G_INT1*%
X100800000Y-66600000D03*
X105400000Y-53999998D03*
%TO.N,G_INT2*%
X101800000Y-67200000D03*
X104327737Y-53823595D03*
%TO.N,SD_nDET*%
X139250000Y-51000000D03*
X137800000Y-55200000D03*
X129200000Y-71400000D03*
X121400000Y-72400000D03*
%TO.N,+5V*%
X129600000Y-73000000D03*
X124150000Y-75400000D03*
X77600000Y-79000000D03*
X67407083Y-61192917D03*
X80600000Y-83250010D03*
X67407083Y-54792917D03*
%TO.N,ESP_~RST*%
X137800000Y-70800000D03*
X139200000Y-46200000D03*
%TO.N,EINK_SPI_MISO*%
X73749106Y-117650010D03*
X64010038Y-118519263D03*
X129300011Y-66000000D03*
X129105812Y-58447607D03*
%TO.N,EINK_EEPROM_~EN*%
X102800000Y-47000000D03*
X95807122Y-55392878D03*
X105284632Y-45965378D03*
X90600000Y-50400000D03*
X92800000Y-50600000D03*
X91000000Y-61500000D03*
%TO.N,JTAG_TCK*%
X78200000Y-44000000D03*
X128000000Y-49600000D03*
%TO.N,JTAG_TMS*%
X139400000Y-34000000D03*
X78400000Y-49000000D03*
X129200000Y-49600000D03*
%TO.N,JTAG_TDO*%
X121200000Y-56800000D03*
X138600000Y-42200000D03*
X78600000Y-46800000D03*
%TO.N,Net-(R18-Pad2)*%
X95093873Y-52306127D03*
X91800000Y-52600000D03*
X130000000Y-54600000D03*
X113059620Y-57859620D03*
%TO.N,Net-(R26-Pad2)*%
X87800000Y-38200000D03*
X86600000Y-48200000D03*
%TO.N,Net-(J2-Pad19)*%
X64200000Y-111724990D03*
X72995107Y-111880069D03*
%TO.N,Net-(J2-Pad18)*%
X63400000Y-112400000D03*
X63400000Y-112400000D03*
X72200000Y-112400000D03*
%TO.N,Net-(J5-Pad1)*%
X74600000Y-41800000D03*
%TO.N,Net-(J6-Pad1)*%
X74600000Y-49000000D03*
%TO.N,Net-(J7-Pad1)*%
X73800000Y-47400000D03*
%TO.N,Net-(R17-Pad2)*%
X78400000Y-45600000D03*
X116000000Y-65400000D03*
%TO.N,Net-(R36-Pad1)*%
X78200000Y-50600000D03*
X130000000Y-59600000D03*
X129600000Y-56557880D03*
X129043946Y-50537107D03*
%TO.N,Net-(R40-Pad1)*%
X78200000Y-42600000D03*
X129850000Y-48000000D03*
%TD*%
D42*
%TO.N,GND*%
X44175000Y-48650000D02*
X44225000Y-48600000D01*
X44175000Y-49900000D02*
X44175000Y-48650000D01*
X44225000Y-48380000D02*
X41820000Y-45975000D01*
X44225000Y-48600000D02*
X44225000Y-48380000D01*
X41820000Y-45975000D02*
X41775000Y-45975000D01*
X39795000Y-43995000D02*
X39795000Y-35500000D01*
X41775000Y-45975000D02*
X39795000Y-43995000D01*
X63100000Y-44700000D02*
X63000000Y-44600000D01*
X64200000Y-44700000D02*
X63100000Y-44700000D01*
X52000000Y-65250000D02*
X52000000Y-64200000D01*
X52969998Y-64200000D02*
X53000000Y-64169998D01*
X52000000Y-64200000D02*
X52969998Y-64200000D01*
X51030002Y-64200000D02*
X51000000Y-64169998D01*
X52000000Y-64200000D02*
X51030002Y-64200000D01*
X50255002Y-64169998D02*
X51000000Y-64169998D01*
X49500000Y-64925000D02*
X50255002Y-64169998D01*
X52000000Y-66825000D02*
X52200000Y-67025000D01*
X52000000Y-65250000D02*
X52000000Y-66825000D01*
X70750000Y-64925000D02*
X70875000Y-64925000D01*
X71600000Y-64200000D02*
X73200000Y-64200000D01*
X70875000Y-64925000D02*
X71600000Y-64200000D01*
X73250000Y-64250000D02*
X73200000Y-64200000D01*
X73250000Y-65250000D02*
X73250000Y-64250000D01*
X72230002Y-64200000D02*
X72200000Y-64169998D01*
X73200000Y-64200000D02*
X72230002Y-64200000D01*
X74169998Y-64200000D02*
X74200000Y-64169998D01*
X73200000Y-64200000D02*
X74169998Y-64200000D01*
X73250000Y-66525000D02*
X73250000Y-65250000D01*
X73750000Y-67025000D02*
X73250000Y-66525000D01*
D43*
X77775000Y-68625000D02*
X77800000Y-68600000D01*
X76800000Y-68625000D02*
X77775000Y-68625000D01*
X79450000Y-74650000D02*
X79400000Y-74600000D01*
X80475000Y-74650000D02*
X79450000Y-74650000D01*
X80575000Y-80175000D02*
X80600000Y-80200000D01*
X79500000Y-80175000D02*
X80575000Y-80175000D01*
X82750000Y-80249998D02*
X82599998Y-80400000D01*
X82750000Y-79062500D02*
X82750000Y-80249998D01*
X82250000Y-79062500D02*
X82250000Y-80050002D01*
X82250000Y-80050002D02*
X82599998Y-80400000D01*
X88350000Y-78050000D02*
X88400000Y-78000000D01*
X87275000Y-78050000D02*
X88350000Y-78050000D01*
X85000000Y-39600000D02*
X85000000Y-40600000D01*
D42*
X84950000Y-34800000D02*
X85000000Y-34850000D01*
X83800000Y-34800000D02*
X84950000Y-34800000D01*
X86600000Y-34850000D02*
X85000000Y-34850000D01*
X89950000Y-34200000D02*
X87800000Y-34200000D01*
X87800000Y-32100000D02*
X87800000Y-32100000D01*
X89950000Y-32050000D02*
X87850000Y-32050000D01*
X89950000Y-35200000D02*
X87800000Y-35200000D01*
X87750000Y-34850000D02*
X87800000Y-34800000D01*
X86600000Y-34850000D02*
X87750000Y-34850000D01*
X87800000Y-34800000D02*
X87800000Y-34200000D01*
X87800000Y-35200000D02*
X87800000Y-35200000D01*
X89950000Y-33200000D02*
X87800000Y-33200000D01*
X87800000Y-33200000D02*
X87800000Y-32100000D01*
X87800000Y-34200000D02*
X87800000Y-33200000D01*
X99550000Y-37200000D02*
X101600000Y-37200000D01*
X99550000Y-36200000D02*
X101600000Y-36200000D01*
X99550000Y-39200000D02*
X101600000Y-39200000D01*
X99550000Y-40200000D02*
X101600000Y-40200000D01*
X99550000Y-33200000D02*
X101600000Y-33200000D01*
X101550000Y-32050000D02*
X101600000Y-32000000D01*
X99550000Y-32050000D02*
X101550000Y-32050000D01*
X89950000Y-41200000D02*
X87800000Y-41200000D01*
X89950000Y-40200000D02*
X87800000Y-40200000D01*
X92750000Y-47150000D02*
X92800000Y-47200000D01*
X92750000Y-45000000D02*
X92750000Y-47150000D01*
X96750000Y-47150000D02*
X96800000Y-47200000D01*
X96750000Y-45000000D02*
X96750000Y-47150000D01*
D43*
X117350000Y-67950000D02*
X117400000Y-68000000D01*
X117350000Y-67025000D02*
X117350000Y-67950000D01*
D42*
X65275000Y-105100000D02*
X66900000Y-105100000D01*
X65275000Y-105100000D02*
X65275000Y-103100000D01*
X65275000Y-106275000D02*
X65400000Y-106400000D01*
X65275000Y-105100000D02*
X65275000Y-106275000D01*
X67100000Y-90100000D02*
X67200000Y-90000000D01*
X67100000Y-91350000D02*
X67100000Y-90100000D01*
D43*
X70900000Y-113700000D02*
X71000000Y-113800000D01*
X70000000Y-113700000D02*
X70900000Y-113700000D01*
D44*
X65500000Y-117450000D02*
X64052953Y-117450000D01*
X64052953Y-117450000D02*
X63930354Y-117572599D01*
D43*
X60635000Y-129875000D02*
X60725000Y-129965000D01*
X65675000Y-132505000D02*
X65675000Y-133925000D01*
X65675000Y-133925000D02*
X65600000Y-134000000D01*
X65600000Y-134000000D02*
X61000000Y-134000000D01*
X60725000Y-133725000D02*
X60725000Y-132505000D01*
X61000000Y-134000000D02*
X60725000Y-133725000D01*
X60725000Y-131235000D02*
X58635000Y-131235000D01*
X58525000Y-131125000D02*
X58525000Y-129875000D01*
X58635000Y-131235000D02*
X58525000Y-131125000D01*
X58525000Y-129875000D02*
X60635000Y-129875000D01*
X57450000Y-129875000D02*
X58525000Y-129875000D01*
X60725000Y-132505000D02*
X58505000Y-132505000D01*
X58525000Y-132485000D02*
X58525000Y-131125000D01*
X58505000Y-132505000D02*
X58525000Y-132485000D01*
X43505002Y-36250002D02*
X44400000Y-36250002D01*
X43155000Y-35900000D02*
X43505002Y-36250002D01*
X43155000Y-35150000D02*
X43155000Y-35900000D01*
D42*
X113245000Y-43445000D02*
X113200000Y-43400000D01*
X114800000Y-43445000D02*
X113245000Y-43445000D01*
X129600000Y-63000000D02*
X130400000Y-63000000D01*
X129015000Y-62415000D02*
X129600000Y-63000000D01*
X129015000Y-60955000D02*
X129015000Y-62415000D01*
X131895000Y-43350000D02*
X137400000Y-43350000D01*
X131800000Y-43445000D02*
X131895000Y-43350000D01*
X137400000Y-43350000D02*
X137400000Y-42400000D01*
D43*
X137875301Y-38028347D02*
X138578033Y-38731079D01*
X137875301Y-36823699D02*
X137875301Y-38028347D01*
X138578033Y-38731079D02*
X138821846Y-38731079D01*
X138269000Y-36430000D02*
X137875301Y-36823699D01*
X54199957Y-31999957D02*
X54600000Y-32400000D01*
X47820085Y-31999957D02*
X54199957Y-31999957D01*
X47420039Y-32400001D02*
X47820085Y-31999957D01*
X44999999Y-32400001D02*
X47420039Y-32400001D01*
X43155000Y-35150000D02*
X43155000Y-34245000D01*
X43155000Y-34245000D02*
X44999999Y-32400001D01*
X70900000Y-33775000D02*
X70900000Y-32500000D01*
X70900000Y-32500000D02*
X71000000Y-32400000D01*
D42*
X60675000Y-32780000D02*
X60585000Y-32690000D01*
X60675000Y-35050000D02*
X60675000Y-32780000D01*
X60585000Y-31615000D02*
X60600000Y-31600000D01*
X60585000Y-32690000D02*
X60585000Y-31615000D01*
X68725000Y-32780000D02*
X68815000Y-32690000D01*
X68725000Y-35050000D02*
X68725000Y-32780000D01*
X68815000Y-31615000D02*
X68800000Y-31600000D01*
X68815000Y-32690000D02*
X68815000Y-31615000D01*
X68250000Y-35525000D02*
X68725000Y-35050000D01*
X66000000Y-35525000D02*
X68250000Y-35525000D01*
X66899990Y-52700000D02*
X67000000Y-52800010D01*
X65825000Y-52700000D02*
X66899990Y-52700000D01*
X70899990Y-52700000D02*
X71000000Y-52800010D01*
X69825000Y-52700000D02*
X70899990Y-52700000D01*
X71000000Y-50335000D02*
X71000000Y-52800010D01*
X70500000Y-49835000D02*
X71000000Y-50335000D01*
X69525000Y-49835000D02*
X70500000Y-49835000D01*
X59874990Y-47225010D02*
X59874990Y-50109305D01*
X62400000Y-52634315D02*
X62400000Y-53200000D01*
X59874990Y-50109305D02*
X62400000Y-52634315D01*
X60750000Y-46350000D02*
X59874990Y-47225010D01*
X47390000Y-39000000D02*
X45200000Y-39000000D01*
X51115000Y-35275000D02*
X47390000Y-39000000D01*
X49690000Y-41300000D02*
X47390000Y-39000000D01*
X51290000Y-41300000D02*
X49690000Y-41300000D01*
X45375000Y-45975000D02*
X45200000Y-45800000D01*
X47790000Y-45975000D02*
X45375000Y-45975000D01*
X44175000Y-51175000D02*
X44200000Y-51200000D01*
X44175000Y-49900000D02*
X44175000Y-51175000D01*
D43*
X92151913Y-58251126D02*
X91989887Y-58089100D01*
D42*
X66250000Y-72950000D02*
X68200000Y-71000000D01*
X66250000Y-73000000D02*
X66250000Y-72950000D01*
X66200000Y-73000000D02*
X64200000Y-71000000D01*
X66250000Y-73000000D02*
X66200000Y-73000000D01*
X66200000Y-73000000D02*
X64200000Y-75000000D01*
X66250000Y-73000000D02*
X68400000Y-73000000D01*
X66250000Y-73050000D02*
X68200000Y-75000000D01*
X66250000Y-73000000D02*
X66250000Y-73050000D01*
X66250000Y-75150000D02*
X66200000Y-75200000D01*
X66250000Y-73000000D02*
X66250000Y-75150000D01*
X66250000Y-73000000D02*
X66250000Y-70800000D01*
X66250000Y-73000000D02*
X64000000Y-73000000D01*
D43*
X56175000Y-68625000D02*
X56200000Y-68600000D01*
X55200000Y-68625000D02*
X56175000Y-68625000D01*
D42*
X63100000Y-44700000D02*
X62800000Y-44400000D01*
X61434314Y-45665686D02*
X60750000Y-46350000D01*
X61434314Y-45565686D02*
X61434314Y-45665686D01*
X87800000Y-32100000D02*
X87850000Y-32050000D01*
X87800000Y-33200000D02*
X87800000Y-33200000D01*
X87800000Y-35200000D02*
X87800000Y-34800000D01*
X87800000Y-34200000D02*
X87800000Y-34200000D01*
D43*
X53242985Y-32699979D02*
X55199958Y-34656952D01*
X55199958Y-49673143D02*
X58954997Y-53428182D01*
X55199958Y-34656952D02*
X55199958Y-49673143D01*
X48110041Y-32699979D02*
X53242985Y-32699979D01*
X55899978Y-47997080D02*
X55899978Y-33699978D01*
X46760022Y-34049998D02*
X48110041Y-32699979D01*
X45531302Y-34049998D02*
X46760022Y-34049998D01*
X55899978Y-33699978D02*
X54600000Y-32400000D01*
X60400000Y-52497104D02*
X55899978Y-47997080D01*
X60400000Y-53000000D02*
X60400000Y-52497104D01*
D42*
X137800000Y-66950000D02*
X137800000Y-68200000D01*
X137800000Y-76200000D02*
X137800000Y-77400000D01*
D43*
X136250000Y-50825000D02*
X136300000Y-50775000D01*
X134800000Y-50825000D02*
X136250000Y-50825000D01*
X136250000Y-55375000D02*
X136300000Y-55425000D01*
X134800000Y-55375000D02*
X136250000Y-55375000D01*
X137575000Y-50775000D02*
X137600000Y-50800000D01*
X136300000Y-50775000D02*
X137575000Y-50775000D01*
X136300000Y-56500000D02*
X136200000Y-56600000D01*
X136300000Y-55425000D02*
X136300000Y-56500000D01*
X69600000Y-108200000D02*
X70200000Y-107600000D01*
X68925000Y-108200000D02*
X69600000Y-108200000D01*
X69550000Y-109450000D02*
X70200000Y-108800000D01*
X68950000Y-109450000D02*
X69550000Y-109450000D01*
X69700000Y-110700000D02*
X70200000Y-110200000D01*
X68925000Y-110700000D02*
X69700000Y-110700000D01*
X68900000Y-111950000D02*
X69850000Y-111950000D01*
X70200000Y-111600000D02*
X70200000Y-110200000D01*
X69850000Y-111950000D02*
X70200000Y-111600000D01*
X70150000Y-122950000D02*
X70200000Y-123000000D01*
X68950000Y-122950000D02*
X70150000Y-122950000D01*
X70100000Y-121700000D02*
X70200000Y-121800000D01*
X68950000Y-121700000D02*
X70100000Y-121700000D01*
X70150000Y-120450000D02*
X70200000Y-120400000D01*
X68950000Y-120450000D02*
X70150000Y-120450000D01*
X68950000Y-119200000D02*
X70200000Y-119200000D01*
X70050000Y-117950000D02*
X70200000Y-117800000D01*
X68950000Y-117950000D02*
X70050000Y-117950000D01*
X70200000Y-117000000D02*
X70200000Y-117800000D01*
X68950000Y-115450000D02*
X69850000Y-115450000D01*
X70200000Y-115800000D02*
X70200000Y-117000000D01*
X69850000Y-115450000D02*
X70200000Y-115800000D01*
X70200000Y-116700000D02*
X70200000Y-117000000D01*
X68925000Y-116700000D02*
X70200000Y-116700000D01*
X56275000Y-129875000D02*
X56200000Y-129800000D01*
X57450000Y-129875000D02*
X56275000Y-129875000D01*
X108874145Y-69545383D02*
X103278817Y-63950055D01*
X109254617Y-69545383D02*
X108874145Y-69545383D01*
X103278817Y-63950055D02*
X97478221Y-63950055D01*
X92151913Y-58623747D02*
X92151913Y-58251126D01*
X98192443Y-63250033D02*
X93730836Y-58788426D01*
X97478221Y-63950055D02*
X92151913Y-58623747D01*
X104035789Y-63250033D02*
X98192443Y-63250033D01*
X108192882Y-67407126D02*
X104035789Y-63250033D01*
X122750011Y-67144977D02*
X122750011Y-63156993D01*
X118905008Y-70000000D02*
X121850010Y-67054998D01*
X109254617Y-69545383D02*
X109765423Y-69545383D01*
X111210020Y-70000000D02*
X118905008Y-70000000D01*
X108192882Y-67407126D02*
X108617146Y-67407126D01*
X119194966Y-70700022D02*
X122750011Y-67144977D01*
X109765423Y-69545383D02*
X110920062Y-70700022D01*
X121850010Y-67054998D02*
X121850010Y-62600000D01*
X123150022Y-62756982D02*
X123150022Y-62505002D01*
X122750011Y-63156993D02*
X123150022Y-62756982D01*
X108617146Y-67407126D02*
X111210020Y-70000000D01*
X110920062Y-70700022D02*
X119194966Y-70700022D01*
X93405016Y-58462606D02*
X93730836Y-58788426D01*
X93405016Y-58089988D02*
X93405016Y-58462606D01*
X92565054Y-57250024D02*
X93405016Y-58089988D01*
X88949956Y-57250024D02*
X92565054Y-57250024D01*
X87424990Y-58774990D02*
X88949956Y-57250024D01*
X84014986Y-58774990D02*
X87424990Y-58774990D01*
X82190028Y-56950032D02*
X84014986Y-58774990D01*
X74600000Y-56950032D02*
X82190028Y-56950032D01*
X73170869Y-57400000D02*
X73459970Y-57689101D01*
X63058038Y-57400000D02*
X73170869Y-57400000D01*
X59086220Y-53428182D02*
X63058038Y-57400000D01*
X58954997Y-53428182D02*
X59086220Y-53428182D01*
X74300001Y-56650033D02*
X74600000Y-56950032D01*
X63298051Y-56650033D02*
X74300001Y-56650033D01*
X60400000Y-53751982D02*
X63298051Y-56650033D01*
X60400000Y-53000000D02*
X60400000Y-53751982D01*
X73859969Y-58089100D02*
X73459970Y-57689101D01*
X82339120Y-58089100D02*
X73859969Y-58089100D01*
X84525010Y-60274990D02*
X82339120Y-58089100D01*
X92151913Y-58251126D02*
X89503884Y-58251126D01*
X89503884Y-58251126D02*
X87480020Y-60274990D01*
X87480020Y-60274990D02*
X84525010Y-60274990D01*
D42*
%TO.N,+BATT*%
X50000000Y-69650000D02*
X51950000Y-69650000D01*
X52200000Y-69400000D02*
X52200000Y-68575000D01*
X51950000Y-69650000D02*
X52200000Y-69400000D01*
X52250000Y-68625000D02*
X52200000Y-68575000D01*
X53750000Y-68625000D02*
X52250000Y-68625000D01*
X53750000Y-69350000D02*
X57400000Y-73000000D01*
X57400000Y-73000000D02*
X61200000Y-73000000D01*
X53750000Y-68625000D02*
X53750000Y-69350000D01*
X71975000Y-63375000D02*
X72300000Y-63050000D01*
X70750000Y-63375000D02*
X71975000Y-63375000D01*
X70750000Y-63375000D02*
X65625000Y-63375000D01*
X61200000Y-67800000D02*
X61200000Y-73000000D01*
X65625000Y-63375000D02*
X61200000Y-67800000D01*
D43*
X72300000Y-62300000D02*
X72300000Y-63050000D01*
X72800000Y-61800000D02*
X72300000Y-62300000D01*
X75800000Y-61800000D02*
X72800000Y-61800000D01*
X76500000Y-62500000D02*
X75800000Y-61800000D01*
X76500000Y-63400000D02*
X76500000Y-62500000D01*
X85850000Y-37200000D02*
X85000000Y-38050000D01*
X89950000Y-37200000D02*
X85850000Y-37200000D01*
X76700000Y-63200000D02*
X76500000Y-63400000D01*
X77800000Y-63200000D02*
X76700000Y-63200000D01*
X136400000Y-67250000D02*
X127250000Y-76400000D01*
X136400000Y-61400000D02*
X136400000Y-67250000D01*
X140025010Y-57774990D02*
X136400000Y-61400000D01*
X139375000Y-52350000D02*
X140025010Y-53000010D01*
X140025010Y-53000010D02*
X140025010Y-57774990D01*
X116550000Y-84000000D02*
X80047954Y-84000000D01*
X124150000Y-76400000D02*
X116550000Y-84000000D01*
X80047954Y-84000000D02*
X79169591Y-83121637D01*
X85000000Y-38050000D02*
X85725010Y-38775010D01*
X85725010Y-38775010D02*
X85725010Y-49619992D01*
X85725010Y-49619992D02*
X83345002Y-52000000D01*
X83345002Y-52000000D02*
X77800000Y-52000000D01*
X61200000Y-74400000D02*
X61200000Y-73000000D01*
X63000000Y-76200000D02*
X61200000Y-74400000D01*
X73719240Y-76200000D02*
X63000000Y-76200000D01*
X77659620Y-80140380D02*
X73719240Y-76200000D01*
D42*
%TO.N,+3V3*%
X72762500Y-69562500D02*
X73750000Y-68575000D01*
X71500000Y-69562500D02*
X72762500Y-69562500D01*
X75200000Y-68575000D02*
X75250000Y-68625000D01*
X73750000Y-68575000D02*
X75200000Y-68575000D01*
X75250000Y-68625000D02*
X75250000Y-68650000D01*
X75250000Y-68650000D02*
X76400000Y-69800000D01*
D43*
X82250000Y-77772686D02*
X82250000Y-77237500D01*
X83250000Y-78772686D02*
X82250000Y-77772686D01*
X83250000Y-79062500D02*
X83250000Y-78772686D01*
X81300000Y-78900000D02*
X81000000Y-79200000D01*
X81587500Y-78900000D02*
X81300000Y-78900000D01*
X80146909Y-77978091D02*
X79500000Y-78625000D01*
X80374438Y-77978091D02*
X80146909Y-77978091D01*
D42*
X67000000Y-82975000D02*
X66875000Y-82850000D01*
X67000000Y-84540000D02*
X67000000Y-82975000D01*
D43*
X68024988Y-114724990D02*
X70324990Y-114724990D01*
X67400000Y-114100002D02*
X68024988Y-114724990D01*
X67400000Y-113700000D02*
X67400000Y-114100002D01*
X70324990Y-114724990D02*
X70800000Y-115200000D01*
X82025000Y-76925000D02*
X82025000Y-74650000D01*
X82250000Y-77150000D02*
X82025000Y-76925000D01*
X82250000Y-77237500D02*
X82250000Y-77150000D01*
D42*
X133840000Y-44715000D02*
X134050000Y-44925000D01*
X131800000Y-44715000D02*
X133840000Y-44715000D01*
X134050000Y-44925000D02*
X135550000Y-44925000D01*
X135653311Y-44925000D02*
X136428311Y-44150000D01*
X135550000Y-44925000D02*
X135653311Y-44925000D01*
X108525000Y-57525000D02*
X109600000Y-58600000D01*
X108525000Y-57200000D02*
X108525000Y-57525000D01*
X108525000Y-59925000D02*
X107400000Y-58800000D01*
X108525000Y-60200000D02*
X108525000Y-59925000D01*
D43*
X137975000Y-44150000D02*
X136428311Y-44150000D01*
X138800000Y-43325000D02*
X137975000Y-44150000D01*
X139250001Y-42874999D02*
X139250001Y-40050001D01*
X138800000Y-43325000D02*
X139250001Y-42874999D01*
X139200001Y-40050001D02*
X139150000Y-40000000D01*
X139250001Y-40050001D02*
X139200001Y-40050001D01*
X139220290Y-34841290D02*
X138269000Y-33890000D01*
X139220290Y-35192051D02*
X139220290Y-34841290D01*
X79450000Y-49375000D02*
X79450000Y-48250000D01*
X79400000Y-48200000D02*
X79400000Y-48000000D01*
X79450000Y-48250000D02*
X79400000Y-48200000D01*
D42*
X51660000Y-52860000D02*
X51800000Y-53000000D01*
X51660000Y-51350000D02*
X51660000Y-52860000D01*
X53350000Y-52750000D02*
X53600000Y-53000000D01*
X53350000Y-51225000D02*
X53350000Y-52750000D01*
D43*
X66875000Y-81925000D02*
X67200000Y-81600000D01*
X66875000Y-82850000D02*
X66875000Y-81925000D01*
X82025000Y-73425000D02*
X82000000Y-73400000D01*
X82025000Y-74650000D02*
X82025000Y-73425000D01*
D42*
X76400000Y-69800000D02*
X76400000Y-69800000D01*
X76400000Y-69800000D02*
X76400000Y-70800000D01*
X76400000Y-71600000D02*
X76400000Y-71600000D01*
X76400000Y-70800000D02*
X76400000Y-71800000D01*
D43*
X136375000Y-47150000D02*
X136375000Y-48400000D01*
X136375000Y-48400000D02*
X137400000Y-48400000D01*
X79575000Y-49250000D02*
X79450000Y-49375000D01*
X81140000Y-49250000D02*
X79575000Y-49250000D01*
%TO.N,VIN_ADC*%
X131800000Y-51065000D02*
X132865000Y-51065000D01*
X132865000Y-51065000D02*
X134000000Y-52200000D01*
X134000000Y-53025000D02*
X134800000Y-53825000D01*
X134000000Y-52200000D02*
X134000000Y-53025000D01*
X136250000Y-53825000D02*
X136300000Y-53775000D01*
X134800000Y-53825000D02*
X136250000Y-53825000D01*
X136375000Y-53850000D02*
X136300000Y-53775000D01*
X137725000Y-53850000D02*
X136375000Y-53850000D01*
%TO.N,VBAT_ADC*%
X131800000Y-49795000D02*
X133395000Y-49795000D01*
X133395000Y-49795000D02*
X134000000Y-50400000D01*
X134000000Y-51575000D02*
X134800000Y-52375000D01*
X134000000Y-50400000D02*
X134000000Y-51575000D01*
X136250000Y-52375000D02*
X136300000Y-52425000D01*
X134800000Y-52375000D02*
X136250000Y-52375000D01*
X136375000Y-52350000D02*
X136300000Y-52425000D01*
X137725000Y-52350000D02*
X136375000Y-52350000D01*
D44*
%TO.N,EINK_VCC*%
X63200000Y-125275000D02*
X62125000Y-125275000D01*
X60725000Y-126675000D02*
X60725000Y-128695000D01*
X62125000Y-125275000D02*
X60725000Y-126675000D01*
X57820000Y-128695000D02*
X57450000Y-128325000D01*
X60725000Y-128695000D02*
X57820000Y-128695000D01*
X66275000Y-126850000D02*
X66275000Y-126475000D01*
X65075000Y-125275000D02*
X63200000Y-125275000D01*
X66275000Y-126475000D02*
X65075000Y-125275000D01*
X65500000Y-116950000D02*
X66450000Y-116950000D01*
X66649990Y-116200010D02*
X67400000Y-115450000D01*
X66450000Y-116950000D02*
X66649990Y-116750010D01*
X66649980Y-116450000D02*
X66649990Y-116449990D01*
X66649990Y-116449990D02*
X66649990Y-116200010D01*
X65500000Y-116450000D02*
X66649980Y-116450000D01*
X66649990Y-116750010D02*
X66649990Y-116449990D01*
D42*
X68450000Y-102350000D02*
X67200000Y-101100000D01*
X68450000Y-105100000D02*
X68450000Y-102350000D01*
X68450000Y-105100000D02*
X69900000Y-105100000D01*
X69900000Y-105100000D02*
X70000000Y-105000000D01*
X70000000Y-105000000D02*
X70000000Y-89000000D01*
X68160000Y-87160000D02*
X66050000Y-87160000D01*
X70000000Y-89000000D02*
X68160000Y-87160000D01*
D43*
X67400000Y-115450000D02*
X66400000Y-114450000D01*
X66250002Y-113950000D02*
X65500000Y-113950000D01*
X66400001Y-114099999D02*
X66250002Y-113950000D01*
X66400000Y-114450000D02*
X66400001Y-114099999D01*
X66050000Y-87160000D02*
X61840000Y-87160000D01*
X58400000Y-90600000D02*
X58400000Y-94000000D01*
X61840000Y-87160000D02*
X58400000Y-90600000D01*
X58400000Y-94000000D02*
X56200000Y-96200000D01*
X56200000Y-96200000D02*
X56200000Y-120400000D01*
X57450000Y-121650000D02*
X57450000Y-128325000D01*
X56200000Y-120400000D02*
X57450000Y-121650000D01*
X65472598Y-116922598D02*
X63122598Y-116922598D01*
X65500000Y-116950000D02*
X65472598Y-116922598D01*
X61749999Y-115549999D02*
X61749999Y-110850001D01*
X63122598Y-116922598D02*
X61749999Y-115549999D01*
X61749999Y-110850001D02*
X62600000Y-110000000D01*
%TO.N,Net-(J3-Pad1)*%
X74800000Y-45800000D02*
X74600000Y-45600000D01*
X75575000Y-45800000D02*
X74800000Y-45800000D01*
%TO.N,Net-(J4-Pad1)*%
X75600000Y-50600000D02*
X74919254Y-50600000D01*
X74919254Y-50600000D02*
X74759627Y-50440373D01*
%TO.N,Net-(J8-Pad1)*%
X75600000Y-42575000D02*
X75575000Y-42600000D01*
X75600000Y-41200000D02*
X75600000Y-42575000D01*
%TO.N,I2C_DAT*%
X110420000Y-59955000D02*
X110175000Y-60200000D01*
X114800000Y-59955000D02*
X110420000Y-59955000D01*
X110175000Y-60200000D02*
X109775000Y-60200000D01*
X109775000Y-60200000D02*
X105827668Y-56252668D01*
X105827668Y-56252668D02*
X98728703Y-56252668D01*
X96821163Y-54952657D02*
X98800000Y-54952657D01*
X92487999Y-51250001D02*
X93118507Y-51250001D01*
X87950010Y-46081504D02*
X92149998Y-50281492D01*
X92149998Y-50281492D02*
X92149999Y-50912001D01*
X87950010Y-42924990D02*
X87950010Y-46081504D01*
X93118507Y-51250001D02*
X96821163Y-54952657D01*
X89950000Y-42200000D02*
X88675000Y-42200000D01*
X88675000Y-42200000D02*
X87950010Y-42924990D01*
X92149999Y-50912001D02*
X92487999Y-51250001D01*
D42*
X137800000Y-62750000D02*
X137800000Y-61600000D01*
D43*
X114367881Y-60387119D02*
X114800000Y-59955000D01*
X114367881Y-61367881D02*
X114367881Y-60387119D01*
X83250000Y-77237500D02*
X91535068Y-68952432D01*
X91535068Y-68952432D02*
X91535068Y-63535068D01*
%TO.N,I2C_CLK*%
X111660000Y-58685000D02*
X110175000Y-57200000D01*
X114800000Y-58685000D02*
X111660000Y-58685000D01*
X97000000Y-55800000D02*
X97000000Y-55887843D01*
X97000000Y-55887843D02*
X96950926Y-55936917D01*
X97197333Y-55602667D02*
X99040704Y-55602667D01*
X99040704Y-55602667D02*
X99238037Y-55800000D01*
X110175000Y-56725000D02*
X110175000Y-57200000D01*
X97000000Y-55800000D02*
X97197333Y-55602667D01*
X109250000Y-55800000D02*
X110175000Y-56725000D01*
X99238037Y-55800000D02*
X109250000Y-55800000D01*
X89950000Y-39200000D02*
X87800000Y-39200000D01*
X91799987Y-50656981D02*
X91799989Y-51056981D01*
X97000000Y-55626484D02*
X97000000Y-55800000D01*
X89968373Y-48825367D02*
X91799987Y-50656981D01*
X92973528Y-51600012D02*
X97000000Y-55626484D01*
X92343020Y-51600012D02*
X92973528Y-51600012D01*
X91799989Y-51056981D02*
X92343020Y-51600012D01*
X89774633Y-48825367D02*
X89968373Y-48825367D01*
X90863309Y-63428994D02*
X90863309Y-62863309D01*
X82750000Y-77237500D02*
X82750000Y-74500000D01*
X82750000Y-74500000D02*
X90863309Y-66386691D01*
X90863309Y-66386691D02*
X90863309Y-63428994D01*
%TO.N,EINK_SPI_MOSI*%
X64250000Y-115950000D02*
X64200000Y-116000000D01*
X65500000Y-115950000D02*
X64250000Y-115950000D01*
X73800000Y-116027361D02*
X88782659Y-116027361D01*
X127850010Y-68760010D02*
X127850010Y-66019691D01*
X125899980Y-70710040D02*
X127850010Y-68760010D01*
X125899978Y-78910042D02*
X125899980Y-70710040D01*
X88782659Y-116027361D02*
X125899978Y-78910042D01*
X114800000Y-56145000D02*
X124688006Y-56145000D01*
X127243018Y-58700012D02*
X127378537Y-58700012D01*
X124688006Y-56145000D02*
X127243018Y-58700012D01*
%TO.N,EINK_SPI_CLK*%
X62943950Y-115349999D02*
X62899999Y-115306048D01*
X64512001Y-115349999D02*
X62943950Y-115349999D01*
X64612002Y-115450000D02*
X64512001Y-115349999D01*
X65500000Y-115450000D02*
X64612002Y-115450000D01*
X127059627Y-69055403D02*
X125500022Y-70615008D01*
X88812627Y-115377351D02*
X74563108Y-115377351D01*
X125500022Y-70615008D02*
X125500022Y-78689958D01*
X127059627Y-65459627D02*
X127059627Y-69055403D01*
X125500022Y-78689958D02*
X88812627Y-115377351D01*
X116945000Y-55200000D02*
X125400000Y-55200000D01*
X114800000Y-53605000D02*
X115350000Y-53605000D01*
X115350000Y-53605000D02*
X116945000Y-55200000D01*
X125400000Y-55200000D02*
X127600000Y-57400000D01*
%TO.N,EINK_~CS*%
X63950000Y-114950000D02*
X63600000Y-114600000D01*
X65500000Y-114950000D02*
X63950000Y-114950000D01*
X128600000Y-68505010D02*
X128600000Y-65250010D01*
X126249990Y-70855020D02*
X128600000Y-68505010D01*
X126249989Y-79055021D02*
X126249990Y-70855020D01*
X88617033Y-116687977D02*
X126249989Y-79055021D01*
X74482722Y-116687977D02*
X88617033Y-116687977D01*
X124832986Y-55794990D02*
X127087998Y-58050002D01*
X116919990Y-55794990D02*
X124832986Y-55794990D01*
X114800000Y-54875000D02*
X116000000Y-54875000D01*
X128134510Y-58050002D02*
X128211527Y-58127019D01*
X127087998Y-58050002D02*
X128134510Y-58050002D01*
X116000000Y-54875000D02*
X116919990Y-55794990D01*
%TO.N,EINK_DC*%
X64149999Y-113949999D02*
X63250001Y-113949999D01*
X64650000Y-114450000D02*
X64149999Y-113949999D01*
X65500000Y-114450000D02*
X64650000Y-114450000D01*
X63159380Y-113859378D02*
X62459378Y-113859378D01*
X63250001Y-113949999D02*
X63159380Y-113859378D01*
X74805010Y-114700000D02*
X75055021Y-114950011D01*
X133000000Y-54875000D02*
X131800000Y-54875000D01*
X125150011Y-70299986D02*
X126400000Y-69049997D01*
X73800000Y-114700000D02*
X74805010Y-114700000D01*
X88744977Y-114950011D02*
X125150011Y-78544979D01*
X126400000Y-65200000D02*
X127000000Y-64600000D01*
X75055021Y-114950011D02*
X88744977Y-114950011D01*
X133800000Y-64600000D02*
X134400000Y-64000000D01*
X125150011Y-78544979D02*
X125150011Y-70299986D01*
X127000000Y-64600000D02*
X133800000Y-64600000D01*
X134400000Y-64000000D02*
X134400000Y-56275000D01*
X134400000Y-56275000D02*
X133000000Y-54875000D01*
X126400000Y-69049997D02*
X126400000Y-65200000D01*
%TO.N,EINK_STATE*%
X65500000Y-113450000D02*
X63050000Y-113450000D01*
X63050000Y-113450000D02*
X62400000Y-112800000D01*
X134600000Y-48525000D02*
X134725000Y-48400000D01*
X131800000Y-48525000D02*
X134600000Y-48525000D01*
X124800000Y-75000000D02*
X123000000Y-73200000D01*
X88600000Y-114600000D02*
X124800000Y-78400000D01*
X75200000Y-114600000D02*
X88600000Y-114600000D01*
X73800000Y-113200000D02*
X75200000Y-114600000D01*
X73800000Y-111600000D02*
X73800000Y-113200000D01*
X124800000Y-78400000D02*
X124800000Y-75000000D01*
X73249990Y-111049990D02*
X73800000Y-111600000D01*
X72000000Y-111049990D02*
X73249990Y-111049990D01*
X135800011Y-49950011D02*
X134725000Y-48875000D01*
X138350011Y-49950011D02*
X135800011Y-49950011D01*
X138600000Y-50200000D02*
X138350011Y-49950011D01*
X128550006Y-73049994D02*
X135699978Y-65900022D01*
X128550006Y-74005603D02*
X128550006Y-73049994D01*
X138600000Y-58200000D02*
X138600000Y-50200000D01*
X135699978Y-61100022D02*
X138600000Y-58200000D01*
X134725000Y-48875000D02*
X134725000Y-48400000D01*
X135699978Y-65900022D02*
X135699978Y-61100022D01*
%TO.N,SD_DAT0*%
X121200000Y-67200000D02*
X121200000Y-61800000D01*
X118849989Y-69550011D02*
X121200000Y-67200000D01*
X111255021Y-69550011D02*
X118849989Y-69550011D01*
X104605032Y-62900022D02*
X111255021Y-69550011D01*
X98804436Y-62900022D02*
X104605032Y-62900022D01*
X94042840Y-58138426D02*
X98804436Y-62900022D01*
X93948446Y-58138426D02*
X94042840Y-58138426D01*
X92710034Y-56900014D02*
X92855010Y-57044990D01*
X88804978Y-56900014D02*
X92710034Y-56900014D01*
X87704992Y-58000000D02*
X88804978Y-56900014D01*
X86750000Y-58000000D02*
X87704992Y-58000000D01*
X92855010Y-57044990D02*
X93948446Y-58138426D01*
%TO.N,Net-(J27-Pad5)*%
X59642870Y-53489842D02*
X63153072Y-57000044D01*
X44255000Y-35150000D02*
X44255000Y-34145000D01*
%TO.N,SD_CLK*%
X122400000Y-66999998D02*
X122400000Y-63012014D01*
%TO.N,Net-(J27-Pad5)*%
X53387964Y-32349968D02*
X55549967Y-34511971D01*
X55549967Y-34511971D02*
X55549967Y-48349967D01*
X47515030Y-32800000D02*
X47965063Y-32349968D01*
X63153072Y-57000044D02*
X73845090Y-57000044D01*
X73845090Y-57000044D02*
X73949998Y-57104952D01*
X44255000Y-34145000D02*
X45600000Y-32800000D01*
%TO.N,SD_CLK*%
X122500012Y-61119988D02*
X122665000Y-60955000D01*
%TO.N,Net-(J27-Pad5)*%
X73949998Y-57104952D02*
X73949998Y-57262034D01*
X55549967Y-48349967D02*
X59642870Y-52442870D01*
X47965063Y-32349968D02*
X53387964Y-32349968D01*
X73949998Y-57262034D02*
X74287998Y-57600034D01*
%TO.N,SD_CLK*%
X103423796Y-63600044D02*
X108719133Y-68895381D01*
X109610411Y-68895381D02*
X111065041Y-70350011D01*
X93055008Y-59031852D02*
X97623200Y-63600044D01*
X119049988Y-70350010D02*
X122400000Y-66999998D01*
X122400000Y-63012014D02*
X122500012Y-62912002D01*
X108719133Y-68895381D02*
X109610411Y-68895381D01*
%TO.N,Net-(J27-Pad5)*%
X45600000Y-32800000D02*
X47515030Y-32800000D01*
%TO.N,SD_CLK*%
X97623200Y-63600044D02*
X103423796Y-63600044D01*
X111065041Y-70350011D02*
X119049988Y-70350010D01*
X93055008Y-58234968D02*
X93055008Y-59031852D01*
%TO.N,Net-(J27-Pad5)*%
X59642870Y-52442870D02*
X59642870Y-53489842D01*
%TO.N,SD_CLK*%
X92420074Y-57600034D02*
X93055008Y-58234968D01*
X122500012Y-62912002D02*
X122500012Y-61119988D01*
X86750000Y-59500000D02*
X87700000Y-59500000D01*
X89599966Y-57600034D02*
X92420074Y-57600034D01*
X87700000Y-59500000D02*
X89599966Y-57600034D01*
%TO.N,SD_nCS*%
X123200000Y-63417026D02*
X123935000Y-62682026D01*
X119444955Y-71050030D02*
X123200000Y-67294985D01*
X97250065Y-64300065D02*
X103090046Y-64300066D01*
X123200000Y-67294985D02*
X123200000Y-63417026D01*
X91599989Y-58649989D02*
X97250065Y-64300065D01*
X109840010Y-71050030D02*
X119444955Y-71050030D01*
X123935000Y-62682026D02*
X123935000Y-60955000D01*
X89600011Y-58649989D02*
X91599989Y-58649989D01*
X86750000Y-61000000D02*
X87250000Y-61000000D01*
X87250000Y-61000000D02*
X89600011Y-58649989D01*
X103090046Y-64300066D02*
X109840010Y-71050030D01*
%TO.N,SD_DAT3*%
X125200000Y-62200000D02*
X125200000Y-61000000D01*
X123550011Y-63849989D02*
X125200000Y-62200000D01*
X119589934Y-71400041D02*
X123550011Y-67439964D01*
X109695031Y-71400041D02*
X119589934Y-71400041D01*
X102945066Y-64650076D02*
X109695031Y-71400041D01*
X89850000Y-59000000D02*
X91450000Y-59000000D01*
X87699969Y-61150031D02*
X89850000Y-59000000D01*
X123550011Y-67439964D02*
X123550011Y-63849989D01*
X87699969Y-62450000D02*
X87699969Y-61150031D01*
X91450000Y-59000000D02*
X97100076Y-64650076D01*
X87649969Y-62500000D02*
X87699969Y-62450000D01*
X97100076Y-64650076D02*
X102945066Y-64650076D01*
X86750000Y-62500000D02*
X87649969Y-62500000D01*
%TO.N,SD_DAT1*%
X94093425Y-57788415D02*
X94187819Y-57788415D01*
X104750011Y-62550011D02*
X111400000Y-69200000D01*
X118600000Y-69200000D02*
X120125000Y-67675000D01*
X120125000Y-67675000D02*
X120125000Y-60955000D01*
X98949415Y-62550011D02*
X104750011Y-62550011D01*
%TO.N,Net-(J27-Pad8)*%
X61749998Y-54112000D02*
X63430927Y-55792929D01*
X67574106Y-55792930D02*
X67731187Y-55950011D01*
X56600000Y-32743006D02*
X56600000Y-47707122D01*
X56600000Y-47707122D02*
X61749998Y-52857120D01*
%TO.N,SD_DAT1*%
X111400000Y-69200000D02*
X118600000Y-69200000D01*
%TO.N,Net-(J27-Pad8)*%
X63430927Y-55792929D02*
X67574106Y-55792930D01*
%TO.N,SD_DAT1*%
X94187819Y-57788415D02*
X98949415Y-62550011D01*
X92805010Y-56500000D02*
X92952505Y-56647495D01*
X86750000Y-56500000D02*
X92805010Y-56500000D01*
X92952505Y-56647495D02*
X94093425Y-57788415D01*
%TO.N,SD_DAT2*%
X123900022Y-64079978D02*
X126475000Y-61505000D01*
X123900022Y-67584943D02*
X123900022Y-64079978D01*
X109550052Y-71750052D02*
X119734914Y-71750051D01*
X102800086Y-65000086D02*
X109550052Y-71750052D01*
X91300000Y-59350000D02*
X96950086Y-65000086D01*
X88049979Y-61300021D02*
X90000000Y-59350000D01*
X88049979Y-63750000D02*
X88049979Y-61300021D01*
X119734914Y-71750051D02*
X123900022Y-67584943D01*
X96950086Y-65000086D02*
X102800086Y-65000086D01*
X90000000Y-59350000D02*
X91300000Y-59350000D01*
X87799979Y-64000000D02*
X88049979Y-63750000D01*
X126475000Y-61505000D02*
X126475000Y-60955000D01*
X86750000Y-64000000D02*
X87799979Y-64000000D01*
%TO.N,Net-(J27-Pad8)*%
X41005000Y-35150000D02*
X41005000Y-33195000D01*
X61749998Y-52857120D02*
X61749998Y-54112000D01*
X55082004Y-31225010D02*
X56600000Y-32743006D01*
X42974990Y-31225010D02*
X55082004Y-31225010D01*
X41005000Y-33195000D02*
X42974990Y-31225010D01*
D42*
%TO.N,EINK_VCC_~EN*%
X65100000Y-82975000D02*
X65225000Y-82850000D01*
X65100000Y-84540000D02*
X65100000Y-82975000D01*
D43*
X65225000Y-82850000D02*
X65225000Y-81775000D01*
X77600000Y-82200000D02*
X77600000Y-81000000D01*
X77600000Y-81000000D02*
X74000000Y-77400000D01*
X74000000Y-77400000D02*
X69600000Y-77400000D01*
X69600000Y-77400000D02*
X65225000Y-81775000D01*
X131800000Y-56145000D02*
X133000000Y-56145000D01*
X79965685Y-82200000D02*
X79400000Y-82200000D01*
X122200000Y-73800000D02*
X121200000Y-74800000D01*
X116200000Y-82200000D02*
X79965685Y-82200000D01*
X121200000Y-77200000D02*
X116200000Y-82200000D01*
X133800000Y-56945000D02*
X133800000Y-63400000D01*
X121200000Y-74800000D02*
X121200000Y-77200000D01*
X122200000Y-72200000D02*
X122200000Y-73800000D01*
X125800000Y-68600000D02*
X122200000Y-72200000D01*
X126905012Y-64200000D02*
X125800000Y-65305012D01*
X133000000Y-64200000D02*
X126905012Y-64200000D01*
X133800000Y-63400000D02*
X133000000Y-64200000D01*
X125800000Y-65305012D02*
X125800000Y-68600000D01*
X133000000Y-56145000D02*
X133800000Y-56945000D01*
%TO.N,SD_VCC_nEN*%
X53225000Y-49450000D02*
X53350000Y-49575000D01*
X51660000Y-49450000D02*
X53225000Y-49450000D01*
X64042918Y-55442918D02*
X63000000Y-54400000D01*
X67719084Y-55442918D02*
X64042918Y-55442918D01*
X67876166Y-55600000D02*
X67719084Y-55442918D01*
X92400000Y-55600000D02*
X67876166Y-55600000D01*
X94238404Y-57438404D02*
X92400000Y-55600000D01*
X94332798Y-57438404D02*
X94238404Y-57438404D01*
X95080860Y-58186466D02*
X94332798Y-57438404D01*
X95186466Y-58186466D02*
X95080860Y-58186466D01*
X114455002Y-62200000D02*
X99200000Y-62200000D01*
X116050001Y-60605001D02*
X114455002Y-62200000D01*
X116050001Y-57465001D02*
X116050001Y-60605001D01*
X116000000Y-57415000D02*
X116050001Y-57465001D01*
X114800000Y-57415000D02*
X116000000Y-57415000D01*
X99200000Y-62200000D02*
X95186466Y-58186466D01*
X57154364Y-53779364D02*
X57154364Y-54104360D01*
X53350000Y-49975000D02*
X57154364Y-53779364D01*
X57154364Y-54104360D02*
X58650000Y-55599996D01*
X53350000Y-49575000D02*
X53350000Y-49975000D01*
%TO.N,GPS_VCC_nEN*%
X81015000Y-51025000D02*
X81140000Y-51150000D01*
X79450000Y-51025000D02*
X81015000Y-51025000D01*
X82600000Y-51150000D02*
X82800000Y-51350000D01*
X81140000Y-51150000D02*
X82600000Y-51150000D01*
X129535000Y-52335000D02*
X129400000Y-52200000D01*
X131800000Y-52335000D02*
X129535000Y-52335000D01*
%TO.N,Net-(R2-Pad1)*%
X53050000Y-65150000D02*
X52950000Y-65250000D01*
X55250000Y-65150000D02*
X53050000Y-65150000D01*
%TO.N,UART1_RX*%
X65800010Y-48815010D02*
X65800010Y-51428242D01*
X64575000Y-48565000D02*
X65550000Y-48565000D01*
X65550000Y-48565000D02*
X65800010Y-48815010D01*
X65800010Y-51428242D02*
X65124990Y-52103262D01*
X65124990Y-52103262D02*
X65124990Y-53146758D01*
X65124990Y-53146758D02*
X65978232Y-54000000D01*
X65978232Y-54000000D02*
X66000000Y-54000000D01*
X92832699Y-53337709D02*
X96644980Y-57149990D01*
X72836568Y-52824856D02*
X73349421Y-53337709D01*
X73349421Y-53337709D02*
X92832699Y-53337709D01*
X72249711Y-52824856D02*
X72836568Y-52824856D01*
X71849712Y-53224855D02*
X72249711Y-52824856D01*
X96644980Y-57149990D02*
X99805852Y-57149990D01*
X108467550Y-50482450D02*
X107413050Y-50482450D01*
X103925000Y-44350000D02*
X103925000Y-47325000D01*
X108625000Y-49850000D02*
X108625000Y-50325000D01*
X108625000Y-50325000D02*
X108467550Y-50482450D01*
X103925000Y-47325000D02*
X106307122Y-49707122D01*
%TO.N,UART1_TX*%
X63349990Y-53693862D02*
X64128064Y-54471936D01*
X63349990Y-50085010D02*
X63349990Y-53693862D01*
X63600000Y-49835000D02*
X63349990Y-50085010D01*
X64575000Y-49835000D02*
X63600000Y-49835000D01*
X96800000Y-57800000D02*
X100200000Y-57800000D01*
X93000000Y-54000000D02*
X96800000Y-57800000D01*
X100200000Y-57800000D02*
X100800000Y-57200000D01*
X73049710Y-54000000D02*
X93000000Y-54000000D01*
X72699420Y-53649710D02*
X73049710Y-54000000D01*
X103925000Y-42850000D02*
X104600000Y-43525000D01*
X108625000Y-51350000D02*
X109275010Y-50699990D01*
X108814842Y-48928430D02*
X108088145Y-48928430D01*
X104600000Y-43525000D02*
X104600000Y-46297199D01*
X108088145Y-48928430D02*
X107688146Y-49328429D01*
X104600000Y-46297199D02*
X106738021Y-48435220D01*
X109275010Y-50699990D02*
X109275010Y-49388598D01*
X109275010Y-49388598D02*
X108814842Y-48928430D01*
%TO.N,Net-(R34-Pad2)*%
X85475000Y-77900000D02*
X85625000Y-78050000D01*
X83912500Y-77900000D02*
X85475000Y-77900000D01*
X83912500Y-77400000D02*
X84800000Y-77400000D01*
X84800000Y-77400000D02*
X84800000Y-78000000D01*
X84800000Y-78400000D02*
X83912500Y-78400000D01*
X84800000Y-78400000D02*
X84800000Y-78000000D01*
X84800000Y-77900000D02*
X84800000Y-78000000D01*
X83912500Y-77900000D02*
X84800000Y-77900000D01*
%TO.N,G_INT1*%
X83912500Y-78900000D02*
X88500000Y-78900000D01*
X88500000Y-78900000D02*
X100800000Y-66600000D01*
X105600002Y-54200000D02*
X105400000Y-53999998D01*
X109845000Y-54200000D02*
X105600002Y-54200000D01*
X114250000Y-49795000D02*
X109845000Y-54200000D01*
X114800000Y-49795000D02*
X114250000Y-49795000D01*
%TO.N,G_INT2*%
X79053242Y-79474990D02*
X78774990Y-79753242D01*
X78774990Y-80974990D02*
X79200000Y-81400000D01*
X87600000Y-81400000D02*
X101800000Y-67200000D01*
X78774990Y-79753242D02*
X78774990Y-80974990D01*
X81587500Y-78400000D02*
X80871768Y-78400000D01*
X80871768Y-78400000D02*
X79796778Y-79474990D01*
X79796778Y-79474990D02*
X79053242Y-79474990D01*
X79200000Y-81400000D02*
X87600000Y-81400000D01*
X110112322Y-45985000D02*
X107006508Y-49090814D01*
X114800000Y-45985000D02*
X110112322Y-45985000D01*
X104327737Y-52648509D02*
X104327737Y-53823595D01*
X107006508Y-49969738D02*
X104327737Y-52648509D01*
X107006508Y-49090814D02*
X107006508Y-49969738D01*
%TO.N,SD_nDET*%
X134620000Y-47255000D02*
X134725000Y-47150000D01*
X131800000Y-47255000D02*
X134620000Y-47255000D01*
X137800000Y-55200000D02*
X137800000Y-58505012D01*
X137800000Y-58505012D02*
X135349968Y-60955044D01*
X135349968Y-60955044D02*
X135349968Y-65755044D01*
X129705012Y-71400000D02*
X129200000Y-71400000D01*
X135349968Y-65755044D02*
X129705012Y-71400000D01*
X135375010Y-47450010D02*
X134725000Y-46800000D01*
X136000000Y-49400000D02*
X135375010Y-48775010D01*
X139000000Y-49600000D02*
X137200000Y-49600000D01*
X137000000Y-49400000D02*
X136000000Y-49400000D01*
X139250000Y-51000000D02*
X139250000Y-49850000D01*
X139250000Y-49850000D02*
X139000000Y-49600000D01*
X135375010Y-48775010D02*
X135375010Y-47450010D01*
X137200000Y-49600000D02*
X137000000Y-49400000D01*
X87950000Y-65500000D02*
X86750000Y-65500000D01*
X121400000Y-72400000D02*
X120800000Y-73000000D01*
X120800000Y-73000000D02*
X105200000Y-73000000D01*
X105200000Y-73000000D02*
X102400000Y-70200000D01*
X91650001Y-60887999D02*
X91262002Y-60500000D01*
X102400000Y-70200000D02*
X102450001Y-70149999D01*
X102450001Y-70149999D02*
X102450001Y-66650001D01*
X102450001Y-66650001D02*
X101749999Y-65949999D01*
X88399989Y-65050011D02*
X87950000Y-65500000D01*
X96549999Y-65949999D02*
X91650001Y-61050001D01*
X91650001Y-61050001D02*
X91650001Y-60887999D01*
X90124989Y-60500000D02*
X88399989Y-62225000D01*
X101749999Y-65949999D02*
X96549999Y-65949999D01*
X91262002Y-60500000D02*
X90124989Y-60500000D01*
X88399989Y-62225000D02*
X88399989Y-65050011D01*
D42*
%TO.N,+5V*%
X64275000Y-51405000D02*
X64575000Y-51105000D01*
X64275000Y-52700000D02*
X64275000Y-51405000D01*
X50725000Y-63375000D02*
X51050000Y-63050000D01*
X49500000Y-63375000D02*
X50725000Y-63375000D01*
X49500000Y-61900000D02*
X49500000Y-63375000D01*
X49600000Y-61800000D02*
X49500000Y-61900000D01*
X54000000Y-61800000D02*
X49600000Y-61800000D01*
D43*
X55250000Y-62050000D02*
X55200000Y-62000000D01*
X55250000Y-63500000D02*
X55250000Y-62050000D01*
D42*
X55200000Y-61800000D02*
X54000000Y-61800000D01*
X66800000Y-61800000D02*
X54000000Y-61800000D01*
X67407083Y-61192917D02*
X66800000Y-61800000D01*
D43*
X67864167Y-61650001D02*
X67407083Y-61192917D01*
X77000000Y-61400000D02*
X69562002Y-61400000D01*
X78450001Y-62850001D02*
X77000000Y-61400000D01*
X69562002Y-61400000D02*
X69312001Y-61650001D01*
X78450001Y-68912001D02*
X78450001Y-62850001D01*
X77600000Y-69762002D02*
X78450001Y-68912001D01*
X69312001Y-61650001D02*
X67864167Y-61650001D01*
X77600000Y-79000000D02*
X77600000Y-69762002D01*
X136049989Y-61255021D02*
X136049989Y-66550011D01*
X136049989Y-66550011D02*
X129999999Y-72600001D01*
X139375000Y-57930010D02*
X136049989Y-61255021D01*
X139375000Y-53850000D02*
X139375000Y-57930010D01*
X129999999Y-72600001D02*
X129600000Y-73000000D01*
X116299990Y-83250010D02*
X80600000Y-83250010D01*
X124150000Y-75400000D02*
X116299990Y-83250010D01*
D42*
X68275000Y-52700000D02*
X68275000Y-53925000D01*
X64275000Y-52700000D02*
X64275000Y-53487500D01*
X64275000Y-53487500D02*
X65587500Y-54800000D01*
X65587500Y-54800000D02*
X67400000Y-54800000D01*
X67400000Y-54800000D02*
X67407083Y-54792917D01*
X68275000Y-53925000D02*
X67407083Y-54792917D01*
X64850000Y-45650000D02*
X64200000Y-45650000D01*
X66600000Y-47400000D02*
X64850000Y-45650000D01*
X66600000Y-47499980D02*
X66600000Y-47400000D01*
X67400000Y-48299980D02*
X66600000Y-47499980D01*
X67400000Y-51000000D02*
X67400000Y-48299980D01*
X68275000Y-51875000D02*
X67400000Y-51000000D01*
X68275000Y-52700000D02*
X68275000Y-51875000D01*
X63400000Y-37600000D02*
X63400000Y-35525000D01*
X61800000Y-44800000D02*
X61800000Y-39200000D01*
X62650000Y-45650000D02*
X61800000Y-44800000D01*
X61800000Y-39200000D02*
X63400000Y-37600000D01*
X64200000Y-45650000D02*
X62650000Y-45650000D01*
D43*
%TO.N,ESP_~RST*%
X138725000Y-44900000D02*
X138800000Y-44975000D01*
X137400000Y-44900000D02*
X138725000Y-44900000D01*
X139395301Y-36286301D02*
X138269000Y-35160000D01*
X139800000Y-43800000D02*
X139800000Y-36691000D01*
X139800000Y-36691000D02*
X139395301Y-36286301D01*
X138800000Y-44800000D02*
X139800000Y-43800000D01*
X138800000Y-44975000D02*
X138800000Y-44800000D01*
D42*
X137800000Y-72000000D02*
X137800000Y-70800000D01*
D43*
X139200000Y-45375000D02*
X138800000Y-44975000D01*
X139200000Y-46200000D02*
X139200000Y-45375000D01*
X136500000Y-45800000D02*
X137400000Y-44900000D01*
X131985000Y-45800000D02*
X136500000Y-45800000D01*
X131800000Y-45985000D02*
X131985000Y-45800000D01*
%TO.N,Net-(C9-Pad1)*%
X61355000Y-47295000D02*
X60750000Y-47900000D01*
X64575000Y-47295000D02*
X61355000Y-47295000D01*
D42*
%TO.N,Net-(C13-Pad2)*%
X63600000Y-92050000D02*
X64300000Y-91350000D01*
X63600000Y-93850000D02*
X63600000Y-92050000D01*
X65425000Y-93850000D02*
X63600000Y-93850000D01*
%TO.N,Net-(C13-Pad1)*%
X66975000Y-96225000D02*
X67100000Y-96350000D01*
X66975000Y-93850000D02*
X66975000Y-96225000D01*
X67200000Y-96450000D02*
X67100000Y-96350000D01*
X67200000Y-98775000D02*
X67200000Y-96450000D01*
X67125000Y-98850000D02*
X67200000Y-98775000D01*
X62950000Y-98850000D02*
X67125000Y-98850000D01*
%TO.N,Net-(C18-Pad1)*%
X44400000Y-37910000D02*
X45355000Y-36955000D01*
X45775000Y-47575000D02*
X44400000Y-46200000D01*
X45775000Y-49850000D02*
X45775000Y-47575000D01*
X45355000Y-36955000D02*
X45355000Y-35150000D01*
X46225000Y-50400000D02*
X45725000Y-49900000D01*
X44400000Y-46200000D02*
X44400000Y-37910000D01*
X45725000Y-49900000D02*
X45775000Y-49850000D01*
X49040000Y-50400000D02*
X46225000Y-50400000D01*
D44*
%TO.N,Net-(C20-Pad1)*%
X66850000Y-111450000D02*
X67350000Y-111950000D01*
X65500000Y-111450000D02*
X66850000Y-111450000D01*
X67375000Y-111925000D02*
X67350000Y-111950000D01*
X67375000Y-110700000D02*
X67375000Y-111925000D01*
%TO.N,/PREVGH*%
X67150000Y-119450000D02*
X67400000Y-119200000D01*
X65500000Y-119450000D02*
X67150000Y-119450000D01*
D42*
X64300000Y-96350000D02*
X59050000Y-96350000D01*
X59050000Y-96350000D02*
X57600000Y-97800000D01*
X57600000Y-97800000D02*
X57600000Y-118200000D01*
X57600000Y-118200000D02*
X59000000Y-119600000D01*
X59000000Y-119600000D02*
X64200000Y-119600000D01*
D44*
X64350000Y-119450000D02*
X64200000Y-119600000D01*
X65500000Y-119450000D02*
X64350000Y-119450000D01*
%TO.N,/PREVGL*%
X66450000Y-120450000D02*
X66674990Y-120674990D01*
X65500000Y-120450000D02*
X66450000Y-120450000D01*
X66674990Y-120974990D02*
X67400000Y-121700000D01*
X66674990Y-120674990D02*
X66674990Y-120974990D01*
D42*
X59750000Y-93850000D02*
X56800000Y-96800000D01*
X60800000Y-93850000D02*
X59750000Y-93850000D01*
X56800000Y-96800000D02*
X56800000Y-113000000D01*
X56800000Y-118319252D02*
X58880748Y-120400000D01*
X56800000Y-113000000D02*
X56800000Y-118319252D01*
X58880748Y-120400000D02*
X64200000Y-120400000D01*
D44*
X64250000Y-120450000D02*
X64200000Y-120400000D01*
X65500000Y-120450000D02*
X64250000Y-120450000D01*
%TO.N,Net-(C23-Pad1)*%
X66649990Y-110200010D02*
X67400000Y-109450000D01*
X66649990Y-110700010D02*
X66649990Y-110200010D01*
X66400000Y-110950000D02*
X66649990Y-110700010D01*
X65500000Y-110950000D02*
X66400000Y-110950000D01*
X67400000Y-108225000D02*
X67375000Y-108200000D01*
X67400000Y-109450000D02*
X67400000Y-108225000D01*
%TO.N,Net-(C27-Pad2)*%
X67375000Y-116792876D02*
X67375000Y-116700000D01*
X66217876Y-117950000D02*
X67375000Y-116792876D01*
X65500000Y-117950000D02*
X66217876Y-117950000D01*
%TO.N,Net-(C28-Pad2)*%
X65500000Y-118950000D02*
X66524990Y-118950000D01*
X66674990Y-118675010D02*
X67400000Y-117950000D01*
X66674990Y-118800000D02*
X66674990Y-118675010D01*
X66524990Y-118950000D02*
X66674990Y-118800000D01*
%TO.N,Net-(C29-Pad2)*%
X66900000Y-119950000D02*
X67400000Y-120450000D01*
X65500000Y-119950000D02*
X66900000Y-119950000D01*
%TO.N,Net-(C30-Pad2)*%
X65500000Y-120950000D02*
X65500000Y-122100000D01*
X66350000Y-122950000D02*
X67400000Y-122950000D01*
X65500000Y-122100000D02*
X66350000Y-122950000D01*
D43*
%TO.N,/USB_D-*%
X65400000Y-41950000D02*
X64350000Y-40900000D01*
X65400000Y-44000000D02*
X65400000Y-41950000D01*
X66100000Y-44700000D02*
X65400000Y-44000000D01*
X66400000Y-44700000D02*
X66100000Y-44700000D01*
X68765000Y-48565000D02*
X69525000Y-48565000D01*
X67200000Y-47000000D02*
X68765000Y-48565000D01*
X67200000Y-44770000D02*
X67200000Y-47000000D01*
X67130000Y-44700000D02*
X67200000Y-44770000D01*
X66400000Y-44700000D02*
X67130000Y-44700000D01*
%TO.N,/USB_D+*%
X65750000Y-43350000D02*
X65750000Y-40900000D01*
X66150000Y-43750000D02*
X65750000Y-43350000D01*
X66400000Y-43750000D02*
X66150000Y-43750000D01*
X68295000Y-47295000D02*
X69525000Y-47295000D01*
X67600000Y-46600000D02*
X68295000Y-47295000D01*
X67600000Y-43800000D02*
X67600000Y-46600000D01*
X67550000Y-43750000D02*
X67600000Y-43800000D01*
X66400000Y-43750000D02*
X67550000Y-43750000D01*
%TO.N,Net-(D2-Pad2)*%
X70900000Y-35400000D02*
X70900000Y-37575000D01*
%TO.N,Net-(J1-Pad3)*%
X64700000Y-38200000D02*
X65750000Y-39250000D01*
X64700000Y-35525000D02*
X64700000Y-38200000D01*
%TO.N,Net-(J1-Pad2)*%
X64050000Y-38950000D02*
X64350000Y-39250000D01*
X64050000Y-35525000D02*
X64050000Y-38950000D01*
%TO.N,EINK_SPI_MISO*%
X64079301Y-118450000D02*
X64010038Y-118519263D01*
X65500000Y-118450000D02*
X64079301Y-118450000D01*
X126600000Y-71000000D02*
X129300011Y-68299989D01*
X126600000Y-79200000D02*
X126600000Y-71000000D01*
X129300011Y-68299989D02*
X129300011Y-66000000D01*
X73749106Y-117650010D02*
X88149990Y-117650010D01*
X88149990Y-117650010D02*
X126600000Y-79200000D01*
X114800000Y-52335000D02*
X115350000Y-52335000D01*
X125362004Y-54200000D02*
X128250002Y-57087998D01*
X128250002Y-57186333D02*
X129105812Y-58042143D01*
X116000000Y-52985000D02*
X116000000Y-53000000D01*
X116000000Y-53000000D02*
X117200000Y-54200000D01*
X115350000Y-52335000D02*
X116000000Y-52985000D01*
X117200000Y-54200000D02*
X125362004Y-54200000D01*
X128250002Y-57087998D02*
X128250002Y-57186333D01*
X129105812Y-58042143D02*
X129105812Y-58447607D01*
D44*
%TO.N,/RESE*%
X63625001Y-109370003D02*
X63625001Y-105275001D01*
X64704998Y-110450000D02*
X63625001Y-109370003D01*
X63625001Y-105275001D02*
X63450000Y-105100000D01*
X65500000Y-110450000D02*
X64704998Y-110450000D01*
D42*
X63450000Y-105100000D02*
X62500000Y-105100000D01*
X62000000Y-104600000D02*
X62000000Y-100850000D01*
X62500000Y-105100000D02*
X62000000Y-104600000D01*
D44*
%TO.N,/GDR*%
X65500000Y-109950000D02*
X64775011Y-109950000D01*
X64237510Y-103712510D02*
X63625000Y-103100000D01*
X64237510Y-109412499D02*
X64237510Y-103712510D01*
X64775011Y-109950000D02*
X64237510Y-109412499D01*
X63900000Y-102825000D02*
X63625000Y-103100000D01*
X63900000Y-100850000D02*
X63900000Y-102825000D01*
D43*
%TO.N,EINK_EEPROM_~EN*%
X101850000Y-50150000D02*
X95850000Y-50150000D01*
X102800000Y-49200000D02*
X101850000Y-50150000D01*
X102800000Y-47000000D02*
X102800000Y-49200000D01*
X114800000Y-44715000D02*
X106535010Y-44715000D01*
X106535010Y-44715000D02*
X105284632Y-45965378D01*
X90225000Y-50025000D02*
X90600000Y-50400000D01*
X88000000Y-50025000D02*
X90225000Y-50025000D01*
X95807122Y-55392878D02*
X92364267Y-51950023D01*
X92364267Y-51950023D02*
X92150023Y-51950023D01*
X95850000Y-50150000D02*
X93250000Y-50150000D01*
X93250000Y-50150000D02*
X92800000Y-50600000D01*
X92150023Y-51950023D02*
X90600000Y-50400000D01*
X89500000Y-63000000D02*
X91000000Y-61500000D01*
X66800000Y-106600000D02*
X69107120Y-106600000D01*
X83750000Y-72500000D02*
X89500000Y-66750000D01*
X65500000Y-107900000D02*
X66800000Y-106600000D01*
X78424980Y-97282140D02*
X78424980Y-74325020D01*
X78424980Y-74325020D02*
X80250000Y-72500000D01*
X89500000Y-66750000D02*
X89500000Y-63000000D01*
X69107120Y-106600000D02*
X78424980Y-97282140D01*
X65500000Y-109450000D02*
X65500000Y-107900000D01*
X80250000Y-72500000D02*
X83750000Y-72500000D01*
%TO.N,JTAG_TCK*%
X129850001Y-58450001D02*
X129881001Y-58481001D01*
X78000000Y-44200000D02*
X78200000Y-44000000D01*
X77225000Y-44200000D02*
X78000000Y-44200000D01*
X135872699Y-36286301D02*
X136999000Y-35160000D01*
X135872699Y-38057745D02*
X135872699Y-36286301D01*
X138000000Y-40185046D02*
X135872699Y-38057745D01*
X138000000Y-40800000D02*
X138000000Y-40185046D01*
X130944998Y-42400000D02*
X136400000Y-42400000D01*
X129200000Y-44144998D02*
X130944998Y-42400000D01*
X129200000Y-48200000D02*
X129200000Y-44144998D01*
X128000000Y-49400000D02*
X129200000Y-48200000D01*
X136400000Y-42400000D02*
X138000000Y-40800000D01*
X128000000Y-49600000D02*
X128000000Y-49400000D01*
X127050001Y-55393007D02*
X128600013Y-56943019D01*
X128000000Y-49600000D02*
X127050001Y-50549999D01*
X128402391Y-59097609D02*
X129417814Y-59097609D01*
X129850001Y-58665422D02*
X129850001Y-58450001D01*
X127745000Y-60955000D02*
X127745000Y-59755000D01*
X129417814Y-59097609D02*
X129850001Y-58665422D01*
X127050001Y-50549999D02*
X127050001Y-55393007D01*
X128600013Y-56943019D02*
X128600013Y-56979804D01*
X128600013Y-56979804D02*
X129850001Y-58229792D01*
X129850001Y-58229792D02*
X129850001Y-58450001D01*
X127745000Y-59755000D02*
X128402391Y-59097609D01*
%TO.N,JTAG_TMS*%
X139400000Y-33282954D02*
X139400000Y-34000000D01*
X137991745Y-31874699D02*
X139400000Y-33282954D01*
X137276255Y-31874699D02*
X137991745Y-31874699D01*
X136605301Y-32545653D02*
X137276255Y-31874699D01*
X136605301Y-33496301D02*
X136605301Y-32545653D01*
X136999000Y-33890000D02*
X136605301Y-33496301D01*
X78400000Y-49000000D02*
X77200000Y-49000000D01*
X128950024Y-56798040D02*
X127400012Y-55248028D01*
X127400012Y-55248028D02*
X127400012Y-51119337D01*
X127400012Y-51119337D02*
X128919349Y-49600000D01*
X130800199Y-58685000D02*
X128950024Y-56834825D01*
X128919349Y-49600000D02*
X129200000Y-49600000D01*
X131800000Y-58685000D02*
X130800199Y-58685000D01*
X128950024Y-56834825D02*
X128950024Y-56798040D01*
%TO.N,JTAG_TDO*%
X118855000Y-60955000D02*
X118855000Y-59145000D01*
X118855000Y-59145000D02*
X121200000Y-56800000D01*
X138400000Y-42000000D02*
X138600000Y-42200000D01*
X138400000Y-39400000D02*
X138400000Y-42000000D01*
X137392699Y-38392699D02*
X138400000Y-39400000D01*
X137392699Y-36823699D02*
X137392699Y-38392699D01*
X136999000Y-36430000D02*
X137392699Y-36823699D01*
X78000000Y-47400000D02*
X78600000Y-46800000D01*
X77225000Y-47400000D02*
X78000000Y-47400000D01*
D42*
%TO.N,Net-(L1-Pad1)*%
X51050000Y-65250000D02*
X50950000Y-65250000D01*
X50000000Y-66200000D02*
X50000000Y-67325000D01*
X50950000Y-65250000D02*
X50000000Y-66200000D01*
%TO.N,Net-(L2-Pad1)*%
X71500000Y-66050000D02*
X72300000Y-65250000D01*
X71500000Y-67237500D02*
X71500000Y-66050000D01*
%TO.N,GPS_SUPPLY*%
X83760000Y-40040000D02*
X83760000Y-50200000D01*
X86800000Y-36200000D02*
X86600000Y-36400000D01*
X89950000Y-36200000D02*
X86800000Y-36200000D01*
X86600000Y-36400000D02*
X85000000Y-36400000D01*
X85000000Y-36400000D02*
X84400000Y-36400000D01*
X83760000Y-37040000D02*
X83760000Y-40040000D01*
X84400000Y-36400000D02*
X83760000Y-37040000D01*
D43*
X91000000Y-36200000D02*
X89950000Y-36200000D01*
X91800000Y-37000000D02*
X91000000Y-36200000D01*
X93000000Y-49200000D02*
X91800000Y-48000000D01*
X91800000Y-48000000D02*
X91800000Y-37000000D01*
X98536412Y-49200000D02*
X93000000Y-49200000D01*
X102925010Y-44811402D02*
X98536412Y-49200000D01*
X102925010Y-41674990D02*
X102925010Y-44811402D01*
X103250000Y-41350000D02*
X102925010Y-41674990D01*
X103925000Y-41350000D02*
X103250000Y-41350000D01*
%TO.N,Net-(R3-Pad1)*%
X74400000Y-65050000D02*
X74200000Y-65250000D01*
X76500000Y-65050000D02*
X74400000Y-65050000D01*
%TO.N,Net-(R10-Pad2)*%
X53750000Y-66975000D02*
X55200000Y-66975000D01*
X53450000Y-63050000D02*
X52950000Y-63050000D01*
X54600000Y-64200000D02*
X53450000Y-63050000D01*
X55800000Y-64200000D02*
X54600000Y-64200000D01*
X56400000Y-64800000D02*
X55800000Y-64200000D01*
X56400000Y-66400000D02*
X56400000Y-64800000D01*
X55825000Y-66975000D02*
X56400000Y-66400000D01*
X55200000Y-66975000D02*
X55825000Y-66975000D01*
%TO.N,Net-(R12-Pad2)*%
X75250000Y-66975000D02*
X76800000Y-66975000D01*
X77000000Y-64200000D02*
X77575000Y-64775000D01*
X76000000Y-64200000D02*
X77000000Y-64200000D01*
X77575000Y-64775000D02*
X77575000Y-66200000D01*
X74850000Y-63050000D02*
X76000000Y-64200000D01*
X77575000Y-66200000D02*
X76800000Y-66975000D01*
X74200000Y-63050000D02*
X74850000Y-63050000D01*
%TO.N,Net-(R18-Pad2)*%
X91600000Y-52800000D02*
X91800000Y-52600000D01*
X76200000Y-52800000D02*
X91600000Y-52800000D01*
X70900000Y-47500000D02*
X76200000Y-52800000D01*
X70900000Y-39225000D02*
X70900000Y-47500000D01*
X130995000Y-53605000D02*
X130000000Y-54600000D01*
X131800000Y-53605000D02*
X130995000Y-53605000D01*
X98106127Y-52306127D02*
X96306127Y-52306127D01*
X101249990Y-55449990D02*
X98106127Y-52306127D01*
X110649990Y-55449990D02*
X101249990Y-55449990D01*
X113059620Y-57859620D02*
X110649990Y-55449990D01*
X96306127Y-52306127D02*
X96506127Y-52306127D01*
X95093873Y-52306127D02*
X96306127Y-52306127D01*
%TO.N,Net-(R19-Pad1)*%
X114800000Y-47255000D02*
X111145000Y-47255000D01*
X110275000Y-48125000D02*
X110275000Y-49850000D01*
X111145000Y-47255000D02*
X110275000Y-48125000D01*
%TO.N,Net-(R20-Pad1)*%
X114800000Y-48525000D02*
X112075000Y-48525000D01*
X114800000Y-48525000D02*
X111675000Y-48525000D01*
X111675000Y-48525000D02*
X111200000Y-49000000D01*
X111200000Y-50425000D02*
X110275000Y-51350000D01*
X111200000Y-49000000D02*
X111200000Y-50425000D01*
%TO.N,Net-(R22-Pad2)*%
X102125000Y-41200000D02*
X102275000Y-41350000D01*
X99550000Y-41200000D02*
X102125000Y-41200000D01*
%TO.N,Net-(R23-Pad2)*%
X102125000Y-44200000D02*
X102275000Y-44350000D01*
X99550000Y-44200000D02*
X102125000Y-44200000D01*
%TO.N,Net-(R24-Pad2)*%
X101925000Y-43200000D02*
X102275000Y-42850000D01*
X99550000Y-43200000D02*
X101925000Y-43200000D01*
%TO.N,Net-(R25-Pad2)*%
X95750000Y-48400000D02*
X95850000Y-48500000D01*
X95750000Y-45000000D02*
X95750000Y-48400000D01*
%TO.N,Net-(R26-Pad2)*%
X89950000Y-38200000D02*
X87800000Y-38200000D01*
X87825000Y-48200000D02*
X88000000Y-48375000D01*
X86600000Y-48200000D02*
X87825000Y-48200000D01*
D44*
%TO.N,Net-(J2-Pad19)*%
X63200000Y-126925000D02*
X63200000Y-128800000D01*
X64365000Y-129965000D02*
X65675000Y-129965000D01*
X63200000Y-128800000D02*
X64365000Y-129965000D01*
X65500000Y-111950000D02*
X64425010Y-111950000D01*
X64425010Y-111950000D02*
X64200000Y-111724990D01*
X72995107Y-125004893D02*
X72995107Y-111880069D01*
X68035000Y-129965000D02*
X72995107Y-125004893D01*
X65675000Y-129965000D02*
X68035000Y-129965000D01*
%TO.N,Net-(J2-Pad18)*%
X65675000Y-128695000D02*
X65095000Y-128695000D01*
X64625000Y-128225000D02*
X64625000Y-126850000D01*
X65095000Y-128695000D02*
X64625000Y-128225000D01*
X63450000Y-112450000D02*
X63400000Y-112400000D01*
X65500000Y-112450000D02*
X63450000Y-112450000D01*
X65675000Y-128695000D02*
X72200000Y-122170000D01*
X72200000Y-122170000D02*
X72200000Y-112400000D01*
D43*
%TO.N,Net-(J2-Pad17)*%
X66500001Y-112699999D02*
X66699999Y-112699999D01*
X66250000Y-112950000D02*
X65500000Y-112950000D01*
X66500001Y-112699999D02*
X66250000Y-112950000D01*
X68799998Y-113299998D02*
X68700000Y-113299998D01*
X69200000Y-113700000D02*
X68799998Y-113299998D01*
X68500000Y-113700000D02*
X68200000Y-113400000D01*
X68700000Y-113700000D02*
X68500000Y-113700000D01*
X68200000Y-112799998D02*
X68100001Y-112699999D01*
X68200000Y-113400000D02*
X68200000Y-112799998D01*
X68100001Y-112699999D02*
X66500001Y-112699999D01*
%TO.N,Net-(J5-Pad1)*%
X74600000Y-43225000D02*
X74600000Y-41800000D01*
X75575000Y-44200000D02*
X74600000Y-43225000D01*
%TO.N,Net-(J6-Pad1)*%
X75550000Y-49000000D02*
X74600000Y-49000000D01*
%TO.N,Net-(J7-Pad1)*%
X75575000Y-47400000D02*
X73800000Y-47400000D01*
%TO.N,Net-(R17-Pad2)*%
X117585000Y-65140000D02*
X117350000Y-65375000D01*
X117585000Y-60955000D02*
X117585000Y-65140000D01*
X78200000Y-45800000D02*
X78400000Y-45600000D01*
X77225000Y-45800000D02*
X78200000Y-45800000D01*
X116025000Y-65375000D02*
X116000000Y-65400000D01*
X117350000Y-65375000D02*
X116025000Y-65375000D01*
%TO.N,Net-(R36-Pad1)*%
X77250000Y-50600000D02*
X78200000Y-50600000D01*
X130355000Y-59955000D02*
X130000000Y-59600000D01*
X131800000Y-59955000D02*
X130355000Y-59955000D01*
X128715380Y-50484620D02*
X128991459Y-50484620D01*
X128991459Y-50484620D02*
X129043946Y-50537107D01*
X129600000Y-56557880D02*
X128000000Y-54957880D01*
X128000000Y-54957880D02*
X128000000Y-51581053D01*
X128000000Y-51581053D02*
X129043946Y-50537107D01*
%TO.N,Net-(R40-Pad1)*%
X77225000Y-42600000D02*
X78200000Y-42600000D01*
X129850000Y-50787998D02*
X129850000Y-48000000D01*
X128749999Y-51887999D02*
X129850000Y-50787998D01*
X128749999Y-54749999D02*
X128749999Y-51887999D01*
X130549999Y-56549999D02*
X128749999Y-54749999D01*
X130549999Y-57364999D02*
X130549999Y-56549999D01*
X130600000Y-57415000D02*
X130549999Y-57364999D01*
X131800000Y-57415000D02*
X130600000Y-57415000D01*
%TO.N,Net-(J27-Pad10)*%
X83750000Y-65500000D02*
X85100000Y-65500000D01*
X82500000Y-64250000D02*
X83750000Y-65500000D01*
X82500000Y-62150000D02*
X82500000Y-64250000D01*
X80400000Y-60050000D02*
X82500000Y-62150000D01*
X49900001Y-52700001D02*
X57250000Y-60050000D01*
X57250000Y-60050000D02*
X80400000Y-60050000D01*
X49900001Y-46299999D02*
X49900001Y-52700001D01*
X51200000Y-45000000D02*
X49900001Y-46299999D01*
X51290000Y-45000000D02*
X51200000Y-45000000D01*
%TO.N,Net-(J27-Pad7)*%
X82334984Y-56600000D02*
X83734984Y-58000000D01*
X42055000Y-35150000D02*
X42055000Y-32745000D01*
X83734984Y-58000000D02*
X85100000Y-58000000D01*
X42055000Y-32745000D02*
X43200000Y-31600000D01*
X43200000Y-31600000D02*
X54962004Y-31600000D01*
X61399988Y-54256980D02*
X63285948Y-56142940D01*
X54962004Y-31600000D02*
X56249989Y-32887985D01*
X61399987Y-53002101D02*
X61399988Y-54256980D01*
X63285948Y-56142940D02*
X67429126Y-56142940D01*
X56249989Y-32887985D02*
X56249989Y-47852101D01*
X56249989Y-47852101D02*
X61399987Y-53002101D01*
X74900022Y-56300022D02*
X75200000Y-56600000D01*
X67429126Y-56142940D02*
X67586208Y-56300022D01*
X75200000Y-56600000D02*
X82334984Y-56600000D01*
X67586208Y-56300022D02*
X74900022Y-56300022D01*
%TO.N,Net-(J27-Pad5)*%
X74287998Y-57600034D02*
X82345042Y-57600034D01*
X84245008Y-59500000D02*
X85100000Y-59500000D01*
X82345042Y-57600034D02*
X84245008Y-59500000D01*
%TO.N,Net-(J27-Pad3)*%
X73299999Y-58549999D02*
X82250000Y-58550000D01*
X46455000Y-35150000D02*
X46455000Y-34850010D01*
X59241240Y-54078186D02*
X62913063Y-57750009D01*
X46455000Y-34850010D02*
X48255020Y-33049990D01*
X52649990Y-33049990D02*
X54849947Y-35249947D01*
X54849947Y-35249947D02*
X54849947Y-49957554D01*
X48255020Y-33049990D02*
X52649990Y-33049990D01*
X58204397Y-53312004D02*
X58204397Y-53619427D01*
X58204397Y-53619427D02*
X58663154Y-54078184D01*
X84700000Y-61000000D02*
X85100000Y-61000000D01*
X62913063Y-57750009D02*
X72500010Y-57750010D01*
X82250000Y-58550000D02*
X84700000Y-61000000D01*
X72500010Y-57750010D02*
X73299999Y-58549999D01*
X58663154Y-54078184D02*
X59241240Y-54078186D01*
X54849947Y-49957554D02*
X58204397Y-53312004D01*
%TO.N,Net-(J27-Pad2)*%
X83850000Y-61650000D02*
X84700000Y-62500000D01*
X54499936Y-50102533D02*
X57854386Y-53456983D01*
X73149990Y-58900009D02*
X82005024Y-58900010D01*
X58518175Y-54428195D02*
X59096260Y-54428196D01*
X82005024Y-58900010D02*
X83850000Y-60744988D01*
X84700000Y-62500000D02*
X85100000Y-62500000D01*
X57854386Y-53764406D02*
X58518175Y-54428195D01*
X57854386Y-53456983D02*
X57854386Y-53764406D01*
X54499936Y-35499936D02*
X54499936Y-50102533D01*
X52400001Y-33400001D02*
X54499936Y-35499936D01*
X48399999Y-33400001D02*
X52400001Y-33400001D01*
X72350000Y-58100020D02*
X73149990Y-58900009D01*
X47555000Y-34245000D02*
X48399999Y-33400001D01*
X47555000Y-35150000D02*
X47555000Y-34245000D01*
X62768083Y-58100019D02*
X72350000Y-58100020D01*
X83850000Y-60744988D02*
X83850000Y-61650000D01*
X59096260Y-54428196D02*
X62768083Y-58100019D01*
%TO.N,Net-(J27-Pad8)*%
X82729972Y-56500000D02*
X82479962Y-56249990D01*
X85100000Y-56500000D02*
X82729972Y-56500000D01*
X82479962Y-56249990D02*
X75344978Y-56249990D01*
X75044999Y-55950011D02*
X67731187Y-55950011D01*
X75344978Y-56249990D02*
X75044999Y-55950011D01*
%TO.N,Net-(J27-Pad1)*%
X84700000Y-64000000D02*
X85100000Y-64000000D01*
X81860044Y-59250020D02*
X83450000Y-60839976D01*
X72854992Y-59100000D02*
X73005012Y-59250020D01*
X83450000Y-60839976D02*
X83450000Y-62750000D01*
X58373196Y-54778206D02*
X58951280Y-54778206D01*
X57504375Y-53909385D02*
X58373196Y-54778206D01*
X57504375Y-53601962D02*
X57504375Y-53909385D01*
X54149925Y-35844915D02*
X54149926Y-50247513D01*
X72850000Y-59100000D02*
X72854992Y-59100000D01*
X72200030Y-58450030D02*
X72850000Y-59100000D01*
X52105010Y-33800000D02*
X54149925Y-35844915D01*
X50005000Y-33800000D02*
X52105010Y-33800000D01*
X48655000Y-35150000D02*
X50005000Y-33800000D01*
X73005012Y-59250020D02*
X81860044Y-59250020D01*
X83450000Y-62750000D02*
X84700000Y-64000000D01*
X54149926Y-50247513D02*
X57504375Y-53601962D01*
X62623104Y-58450030D02*
X72200030Y-58450030D01*
X58951280Y-54778206D02*
X62623104Y-58450030D01*
%TD*%
D45*
%TO.N,Net-(U5-Pad16)*%
X100473000Y-35473000D02*
X98927000Y-35473000D01*
X98927000Y-33927000D01*
X100473000Y-33927000D01*
X100473000Y-35473000D01*
%TA.AperFunction,Conductor*%
D46*
G36*
X100473000Y-35473000D02*
G01*
X98927000Y-35473000D01*
X98927000Y-33927000D01*
X100473000Y-33927000D01*
X100473000Y-35473000D01*
G37*
%TD.AperFunction*%
%TD*%
M02*
