M48
; DRILL file {KiCad (5.1.8)-1} date 01/31/21 00:12:05
; FORMAT={-:-/ absolute / metric / decimal}
; #@! TF.CreationDate,2021-01-31T00:12:05+01:00
; #@! TF.GenerationSoftware,Kicad,Pcbnew,(5.1.8)-1
FMAT,2
METRIC
T1C0.400
T2C0.500
T3C0.700
T4C0.991
%
G90
G05
T1
X44.2Y-51.2
X44.4Y-36.25
X45.2Y-39.0
X45.2Y-45.8
X45.531Y-34.05
X49.2Y-53.2
X49.4Y-56.8
X51.0Y-64.17
X51.8Y-53.0
X52.0Y-64.2
X53.0Y-64.17
X53.6Y-53.0
X54.6Y-32.4
X56.2Y-129.8
X56.4Y-68.6
X58.955Y-53.428
X59.125Y-55.875
X60.4Y-53.0
X60.6Y-31.6
X61.434Y-45.566
X62.4Y-53.2
X62.4Y-112.8
X62.459Y-113.859
X62.6Y-110.0
X62.8Y-44.4
X62.9Y-115.306
X63.0Y-54.4
X63.4Y-112.4
X63.4Y-112.4
X63.6Y-114.6
X63.93Y-117.573
X64.0Y-73.0
X64.01Y-118.519
X64.128Y-54.472
X64.2Y-71.0
X64.2Y-75.0
X64.2Y-111.725
X64.2Y-116.0
X65.4Y-106.4
X66.0Y-54.0
X66.2Y-75.2
X66.25Y-70.8
X67.0Y-52.8
X67.2Y-81.6
X67.2Y-90.0
X67.407Y-54.793
X67.407Y-61.193
X68.2Y-71.0
X68.2Y-75.0
X68.4Y-73.0
X68.8Y-31.6
X69.894Y-104.894
X70.2Y-107.6
X70.2Y-108.8
X70.2Y-110.2
X70.2Y-117.8
X70.2Y-119.2
X70.2Y-120.4
X70.2Y-121.8
X70.2Y-123.0
X70.8Y-115.2
X71.0Y-32.4
X71.0Y-52.8
X71.0Y-113.8
X71.85Y-53.225
X72.0Y-111.05
X72.2Y-64.17
X72.2Y-112.4
X72.699Y-53.65
X72.995Y-111.88
X73.2Y-64.2
X73.46Y-57.689
X73.749Y-117.65
X73.8Y-47.4
X73.8Y-114.7
X73.8Y-116.027
X74.2Y-64.17
X74.483Y-116.688
X74.563Y-115.377
X74.6Y-41.8
X74.6Y-45.6
X74.6Y-49.0
X74.6Y-56.95
X74.76Y-50.44
X75.6Y-41.2
X76.4Y-69.8
X76.4Y-70.8
X76.4Y-71.8
X77.6Y-79.0
X77.6Y-82.2
X77.66Y-80.14
X77.8Y-52.0
X77.8Y-63.2
X77.8Y-68.6
X78.2Y-42.6
X78.2Y-44.0
X78.2Y-50.6
X78.4Y-45.6
X78.4Y-49.0
X78.6Y-46.8
X79.17Y-83.122
X79.4Y-48.0
X79.4Y-74.6
X79.4Y-82.2
X79.8Y-61.4
X80.374Y-77.978
X80.6Y-80.2
X80.6Y-83.25
X81.0Y-79.2
X82.0Y-73.4
X82.6Y-80.4
X82.8Y-51.35
X83.8Y-34.8
X85.0Y-40.6
X86.6Y-48.2
X87.8Y-32.1
X87.8Y-33.2
X87.8Y-34.2
X87.8Y-35.2
X87.8Y-38.2
X87.8Y-39.2
X87.8Y-40.2
X87.8Y-41.2
X88.4Y-78.0
X89.4Y-63.6
X89.775Y-48.825
X90.25Y-64.025
X90.4Y-61.2
X90.6Y-50.4
X91.8Y-52.6
X92.152Y-58.251
X92.8Y-47.2
X92.8Y-50.6
X93.731Y-58.788
X95.094Y-52.306
X95.807Y-55.393
X96.8Y-47.2
X96.951Y-55.937
X98.729Y-56.253
X98.8Y-54.953
X99.806Y-57.15
X100.8Y-57.2
X100.8Y-66.6
X101.6Y-32.0
X101.6Y-33.2
X101.6Y-36.2
X101.6Y-37.2
X101.6Y-39.2
X101.6Y-40.2
X101.8Y-67.2
X102.8Y-47.0
X104.328Y-53.824
X105.285Y-45.965
X105.4Y-54.0
X106.307Y-49.707
X106.738Y-48.435
X107.4Y-58.8
X107.413Y-50.482
X107.688Y-49.328
X108.193Y-67.407
X109.255Y-69.545
X109.6Y-58.6
X113.06Y-57.86
X113.2Y-43.4
X114.368Y-61.368
X116.0Y-65.4
X117.4Y-68.0
X121.2Y-56.8
X121.4Y-72.4
X121.85Y-62.6
X123.0Y-73.2
X123.15Y-62.505
X124.15Y-75.4
X124.15Y-76.4
X124.2Y-51.0
X127.06Y-65.46
X127.25Y-76.4
X127.379Y-58.7
X127.6Y-57.4
X127.85Y-66.02
X128.0Y-49.6
X128.212Y-58.127
X128.55Y-74.006
X128.6Y-65.25
X129.044Y-50.537
X129.106Y-58.448
X129.2Y-49.6
X129.2Y-71.4
X129.3Y-66.0
X129.4Y-52.2
X129.6Y-56.558
X129.6Y-73.0
X129.85Y-48.0
X130.0Y-54.6
X130.0Y-59.6
X130.4Y-63.0
X136.2Y-56.6
X136.428Y-44.15
X137.4Y-42.4
X137.4Y-48.4
X137.6Y-50.8
X137.8Y-55.2
X137.8Y-61.6
X137.8Y-68.2
X137.8Y-70.8
X137.8Y-77.4
X138.6Y-42.2
X138.822Y-38.731
X139.15Y-40.0
X139.2Y-46.2
X139.22Y-35.192
X139.25Y-51.0
X139.4Y-34.0
T2
X62.7Y-34.84
X66.7Y-34.84
T3
X138.85Y-72.95
X138.85Y-75.25
X138.85Y-63.7
X138.85Y-66.0
T4
X136.618Y-37.7
X137.634Y-32.62
X138.65Y-37.7
T0
M30
