%TF.GenerationSoftware,KiCad,Pcbnew,(5.1.8)-1*%
%TF.CreationDate,2021-02-03T00:49:59+01:00*%
%TF.ProjectId,Navi_2_0,4e617669-5f32-45f3-902e-6b696361645f,rev?*%
%TF.SameCoordinates,Original*%
%TF.FileFunction,Copper,L1,Top*%
%TF.FilePolarity,Positive*%
%FSLAX46Y46*%
G04 Gerber Fmt 4.6, Leading zero omitted, Abs format (unit mm)*
G04 Created by KiCad (PCBNEW (5.1.8)-1) date 2021-02-03 00:49:59*
%MOMM*%
%LPD*%
G01*
G04 APERTURE LIST*
%TA.AperFunction,WasherPad*%
%ADD10C,1.000000*%
%TD*%
%TA.AperFunction,SMDPad,CuDef*%
%ADD11C,1.000000*%
%TD*%
%TA.AperFunction,ViaPad*%
%ADD12C,0.800000*%
%TD*%
%TA.AperFunction,Conductor*%
%ADD13C,0.500000*%
%TD*%
%TA.AperFunction,Conductor*%
%ADD14C,0.200000*%
%TD*%
%TA.AperFunction,Conductor*%
%ADD15C,0.250000*%
%TD*%
%TA.AperFunction,Conductor*%
%ADD16C,0.254000*%
%TD*%
%TA.AperFunction,Conductor*%
%ADD17C,0.100000*%
%TD*%
G04 APERTURE END LIST*
D10*
%TO.P,SW2,*%
%TO.N,*%
X138850000Y-63700000D03*
X138850000Y-66000000D03*
%TD*%
%TO.P,SW1,*%
%TO.N,*%
X138850000Y-72950000D03*
X138850000Y-75250000D03*
%TD*%
D11*
%TO.P,J8,1*%
%TO.N,Net-(J8-Pad1)*%
X51200000Y-37400000D03*
%TD*%
%TO.P,J7,1*%
%TO.N,Net-(J7-Pad1)*%
X64400000Y-48000000D03*
%TD*%
%TO.P,J6,1*%
%TO.N,Net-(J6-Pad1)*%
X57800000Y-42800000D03*
%TD*%
%TO.P,J5,1*%
%TO.N,Net-(J5-Pad1)*%
X64400000Y-37400000D03*
%TD*%
%TO.P,J4,1*%
%TO.N,Net-(J4-Pad1)*%
X51200000Y-48000000D03*
%TD*%
%TO.P,J3,1*%
%TO.N,Net-(J3-Pad1)*%
X71000000Y-42800000D03*
%TD*%
D12*
%TO.N,GND*%
X124200000Y-51000000D03*
X52000000Y-64200000D03*
X53000000Y-64169998D03*
X51000000Y-64169998D03*
X73200000Y-64200000D03*
X72200000Y-64169998D03*
X74200000Y-64169998D03*
X77800000Y-68600000D03*
X79400000Y-74600000D03*
X80600000Y-80200000D03*
X82599998Y-80400000D03*
X88400000Y-78000000D03*
X85000000Y-40600000D03*
X83800000Y-34800000D03*
X101600000Y-37200000D03*
X101600000Y-36200000D03*
X101600000Y-39200000D03*
X101600000Y-40200000D03*
X101600000Y-33200000D03*
X101600000Y-32000000D03*
X87800000Y-41200000D03*
X87800000Y-40200000D03*
X92800000Y-47200000D03*
X96800000Y-47200000D03*
X117400000Y-68000000D03*
X65400000Y-106400000D03*
X67200000Y-90000000D03*
X71000000Y-113800000D03*
X63930354Y-117572599D03*
X45531302Y-34049998D03*
X44400000Y-36250002D03*
X113200000Y-43400000D03*
X130400000Y-63000000D03*
X137400000Y-42400000D03*
X138821846Y-38731079D03*
X60400000Y-53000000D03*
X58954997Y-53428182D03*
X54600000Y-32400000D03*
X71000000Y-32400000D03*
X60600000Y-31600000D03*
X68800000Y-31600000D03*
X67000000Y-52800010D03*
X71000000Y-52800010D03*
X62400000Y-53200000D03*
X45200000Y-39000000D03*
X45200000Y-45800000D03*
X44200000Y-51200000D03*
X74600000Y-56950032D03*
X73459970Y-57689101D03*
X68200000Y-71000000D03*
X64200000Y-71000000D03*
X64200000Y-75000000D03*
X68400000Y-73000000D03*
X68200000Y-75000000D03*
X66200000Y-75200000D03*
X66250000Y-70800000D03*
X64000000Y-73000000D03*
X56400000Y-68600000D03*
X62800000Y-44400000D03*
X61434314Y-45565686D03*
X87800000Y-32100000D03*
X87800000Y-33200000D03*
X87800000Y-35200000D03*
X87800000Y-34200000D03*
X137800000Y-68200000D03*
X137800000Y-77400000D03*
X137600000Y-50800000D03*
X136200000Y-56600000D03*
X70200000Y-107600000D03*
X70200000Y-108800000D03*
X70200000Y-110200000D03*
X70200000Y-123000000D03*
X70200000Y-121800000D03*
X70200000Y-120400000D03*
X70200000Y-119200000D03*
X70200000Y-117800000D03*
X56200000Y-129800000D03*
X108192882Y-67407126D03*
X93730836Y-58788426D03*
X123150022Y-62505002D03*
X121850010Y-62600000D03*
X92151913Y-58251126D03*
X109254617Y-69545383D03*
%TO.N,+BATT*%
X127250000Y-76400000D03*
X124150000Y-76400000D03*
X79169591Y-83121637D03*
X77659620Y-80140380D03*
X77800000Y-63200000D03*
X77800000Y-52000000D03*
%TO.N,+3V3*%
X81000000Y-79200000D03*
X80374438Y-77978091D03*
X70800000Y-115200000D03*
X136428311Y-44150000D03*
X107400000Y-58800000D03*
X109600000Y-58600000D03*
X139150000Y-40000000D03*
X139220290Y-35192051D03*
X79400000Y-48000000D03*
X79800000Y-61400000D03*
X51800000Y-53000000D03*
X53600000Y-53000000D03*
X67200000Y-81600000D03*
X82000000Y-73400000D03*
X76400000Y-69800000D03*
X76400000Y-70800000D03*
X76400000Y-71800000D03*
X137400000Y-48400000D03*
%TO.N,EINK_VCC*%
X62600000Y-110000000D03*
X69893940Y-104893940D03*
%TO.N,Net-(J3-Pad1)*%
X74600000Y-45600000D03*
%TO.N,Net-(J4-Pad1)*%
X74759627Y-50440373D03*
%TO.N,Net-(J8-Pad1)*%
X75600000Y-41200000D03*
%TO.N,I2C_DAT*%
X98800000Y-54952657D03*
X98728703Y-56252668D03*
X137800000Y-61600000D03*
X114367881Y-61367881D03*
X91535068Y-63535068D03*
%TO.N,I2C_CLK*%
X96950926Y-55936917D03*
X87800000Y-39200000D03*
X89774633Y-48825367D03*
X90863309Y-62863309D03*
%TO.N,EINK_SPI_MOSI*%
X64200000Y-116000000D03*
X127850010Y-66019691D03*
X73800000Y-116027361D03*
X127378537Y-58700012D03*
%TO.N,EINK_SPI_CLK*%
X62899999Y-115306048D03*
X127059627Y-65459627D03*
X74563108Y-115377351D03*
X127600000Y-57400000D03*
%TO.N,EINK_~CS*%
X63600000Y-114600000D03*
X128600000Y-65250010D03*
X74482722Y-116687977D03*
X128211527Y-58127019D03*
%TO.N,EINK_DC*%
X62459378Y-113859378D03*
X73800000Y-114700000D03*
%TO.N,EINK_STATE*%
X62400000Y-112800000D03*
X72000000Y-111049990D03*
X123000000Y-73200000D03*
X128550006Y-74005603D03*
%TO.N,EINK_VCC_~EN*%
X79400000Y-82200000D03*
X77600000Y-82200000D03*
%TO.N,SD_VCC_nEN*%
X63000000Y-54400000D03*
X58650000Y-55599996D03*
%TO.N,GPS_VCC_nEN*%
X82800000Y-51350000D03*
X129400000Y-52200000D03*
%TO.N,UART1_RX*%
X71849712Y-53224855D03*
X66000000Y-54000000D03*
X99805852Y-57149990D03*
X106307122Y-49707122D03*
X107413050Y-50482450D03*
%TO.N,UART1_TX*%
X64128064Y-54471936D03*
X72699420Y-53649710D03*
X100800000Y-57200000D03*
X106738021Y-48435220D03*
X107688146Y-49328429D03*
%TO.N,G_INT1*%
X100800000Y-66600000D03*
X105400000Y-53999998D03*
%TO.N,G_INT2*%
X101800000Y-67200000D03*
X104327737Y-53823595D03*
%TO.N,SD_nDET*%
X139250000Y-51000000D03*
X137800000Y-55200000D03*
X129200000Y-71400000D03*
X121400000Y-72400000D03*
%TO.N,+5V*%
X129600000Y-73000000D03*
X124150000Y-75400000D03*
X77600000Y-79000000D03*
X67407083Y-61192917D03*
X80600000Y-83250010D03*
X67407083Y-54792917D03*
%TO.N,ESP_~RST*%
X137800000Y-70800000D03*
X139200000Y-46200000D03*
%TO.N,EINK_SPI_MISO*%
X73749106Y-117650010D03*
X64010038Y-118519263D03*
X129300011Y-66000000D03*
X129105812Y-58447607D03*
%TO.N,EINK_EEPROM_~EN*%
X102800000Y-47000000D03*
X95807122Y-55392878D03*
X105284632Y-45965378D03*
X90600000Y-50400000D03*
X92800000Y-50600000D03*
X91000000Y-61500000D03*
%TO.N,JTAG_TCK*%
X78200000Y-44000000D03*
X128000000Y-49600000D03*
%TO.N,JTAG_TMS*%
X139400000Y-34000000D03*
X78400000Y-49000000D03*
X129200000Y-49600000D03*
%TO.N,JTAG_TDO*%
X121200000Y-56800000D03*
X138600000Y-42200000D03*
X78600000Y-46800000D03*
%TO.N,Net-(R18-Pad2)*%
X95093873Y-52306127D03*
X91800000Y-52600000D03*
X130000000Y-54600000D03*
X113059620Y-57859620D03*
%TO.N,Net-(R26-Pad2)*%
X87800000Y-38200000D03*
X86600000Y-48200000D03*
%TO.N,Net-(J2-Pad19)*%
X64200000Y-111724990D03*
X72995107Y-111880069D03*
%TO.N,Net-(J2-Pad18)*%
X63400000Y-112400000D03*
X63400000Y-112400000D03*
X72200000Y-112400000D03*
%TO.N,Net-(J5-Pad1)*%
X74600000Y-41800000D03*
%TO.N,Net-(J6-Pad1)*%
X74600000Y-49000000D03*
%TO.N,Net-(J7-Pad1)*%
X73800000Y-47400000D03*
%TO.N,Net-(R17-Pad2)*%
X78400000Y-45600000D03*
X116000000Y-65400000D03*
%TO.N,Net-(R36-Pad1)*%
X78200000Y-50600000D03*
X130000000Y-59600000D03*
X129600000Y-56557880D03*
X129043946Y-50537107D03*
%TO.N,Net-(R40-Pad1)*%
X78200000Y-42600000D03*
X129850000Y-48000000D03*
%TD*%
D13*
%TO.N,GND*%
X62600000Y-44400000D02*
X61434314Y-45565686D01*
X62800000Y-44400000D02*
X62600000Y-44400000D01*
D14*
X121850010Y-62600000D02*
X123055024Y-62600000D01*
X123055024Y-62600000D02*
X123150022Y-62505002D01*
%TO.N,+BATT*%
X127250000Y-76400000D02*
X124150000Y-76400000D01*
X78302382Y-80140380D02*
X77659620Y-80140380D01*
X80050001Y-81887999D02*
X78302382Y-80140380D01*
X80050001Y-82806912D02*
X80050001Y-81887999D01*
X79735276Y-83121637D02*
X80050001Y-82806912D01*
X79169591Y-83121637D02*
X79735276Y-83121637D01*
X77800000Y-63200000D02*
X77800000Y-52000000D01*
%TO.N,+3V3*%
X81000000Y-78603653D02*
X80374438Y-77978091D01*
X81000000Y-79200000D02*
X81000000Y-78603653D01*
D13*
X108700000Y-57700000D02*
X108500000Y-57700000D01*
X109600000Y-58600000D02*
X108700000Y-57700000D01*
X108500000Y-57700000D02*
X107400000Y-58800000D01*
D14*
X139150000Y-40000000D02*
X139600000Y-39550000D01*
X139600000Y-35571761D02*
X139220290Y-35192051D01*
X139600000Y-39550000D02*
X139600000Y-35571761D01*
X79400000Y-61000000D02*
X79800000Y-61400000D01*
X79400000Y-48000000D02*
X79400000Y-61000000D01*
D13*
X127069124Y-54600000D02*
X111600000Y-54600000D01*
X136028312Y-44549999D02*
X136028312Y-44805700D01*
X130550011Y-52719113D02*
X129919112Y-53350012D01*
X129919112Y-53350012D02*
X128319112Y-53350012D01*
X130550011Y-50284001D02*
X130550011Y-52719113D01*
X128319112Y-53350012D02*
X127069124Y-54600000D01*
X136028312Y-44805700D02*
X130550011Y-50284001D01*
X111600000Y-54600000D02*
X108500000Y-57700000D01*
X136428311Y-44150000D02*
X136028312Y-44549999D01*
D14*
%TO.N,EINK_VCC*%
X69893940Y-105106060D02*
X69893940Y-104893940D01*
X65000000Y-110000000D02*
X69893940Y-105106060D01*
X62600000Y-110000000D02*
X65000000Y-110000000D01*
%TO.N,Net-(J3-Pad1)*%
X74600000Y-45600000D02*
X72200000Y-45600000D01*
X72200000Y-44000000D02*
X71000000Y-42800000D01*
X72200000Y-45600000D02*
X72200000Y-44000000D01*
%TO.N,Net-(J4-Pad1)*%
X51200000Y-48000000D02*
X55350010Y-52150010D01*
X55350010Y-52150010D02*
X73049990Y-52150010D01*
X73049990Y-52150010D02*
X74759627Y-50440373D01*
%TO.N,Net-(J8-Pad1)*%
X74400000Y-40000000D02*
X75600000Y-41200000D01*
X54349999Y-34250001D02*
X51200000Y-37400000D01*
X54349999Y-34250001D02*
X55149999Y-34250001D01*
X55149999Y-34250001D02*
X55800000Y-33600000D01*
X73449990Y-33649990D02*
X74400000Y-34600000D01*
X71649990Y-33649990D02*
X73449990Y-33649990D01*
X71600000Y-33600000D02*
X71649990Y-33649990D01*
X55800000Y-33600000D02*
X71600000Y-33600000D01*
X74400000Y-34600000D02*
X74400000Y-40000000D01*
%TO.N,I2C_DAT*%
X98728703Y-55023954D02*
X98800000Y-54952657D01*
X98728703Y-56252668D02*
X98728703Y-55023954D01*
X137800000Y-61600000D02*
X132730308Y-66669692D01*
X132730308Y-66669692D02*
X118309015Y-66669692D01*
X118309015Y-66669692D02*
X114488471Y-62849148D01*
X114488471Y-61488471D02*
X114367881Y-61367881D01*
X114488471Y-62849148D02*
X114488471Y-61488471D01*
X98728703Y-56252668D02*
X91535068Y-63446303D01*
X91535068Y-63446303D02*
X91535068Y-63535068D01*
%TO.N,I2C_CLK*%
X87149999Y-39850001D02*
X87149999Y-46149999D01*
X87800000Y-39200000D02*
X87149999Y-39850001D01*
X89774633Y-48774633D02*
X89774633Y-48825367D01*
X87149999Y-46149999D02*
X89774633Y-48774633D01*
X96950926Y-56775692D02*
X90863309Y-62863309D01*
X96950926Y-55936917D02*
X96950926Y-56775692D01*
%TO.N,EINK_SPI_MOSI*%
X73267629Y-116027361D02*
X73800000Y-116027361D01*
X72544979Y-116750011D02*
X73267629Y-116027361D01*
X65417022Y-116750010D02*
X72544979Y-116750011D01*
X64667012Y-116000000D02*
X65417022Y-116750010D01*
X64200000Y-116000000D02*
X64667012Y-116000000D01*
X127850010Y-66019691D02*
X127850010Y-59171485D01*
X127850010Y-59171485D02*
X127378537Y-58700012D01*
%TO.N,EINK_SPI_CLK*%
X62899999Y-115306048D02*
X62899999Y-114337997D01*
X64400000Y-114400000D02*
X64400000Y-115000000D01*
X62899999Y-114337997D02*
X63318998Y-113918998D01*
X65562002Y-116400000D02*
X72400000Y-116400000D01*
X64512001Y-115349999D02*
X65562002Y-116400000D01*
X63318998Y-113918998D02*
X63918998Y-113918998D01*
X72400000Y-116400000D02*
X73422649Y-115377351D01*
X63918998Y-113918998D02*
X64400000Y-114400000D01*
X73422649Y-115377351D02*
X74563108Y-115377351D01*
X64512001Y-115112001D02*
X64512001Y-115349999D01*
X64400000Y-115000000D02*
X64512001Y-115112001D01*
X126659628Y-58340372D02*
X127600000Y-57400000D01*
X126659628Y-65059628D02*
X126659628Y-58340372D01*
X127059627Y-65459627D02*
X126659628Y-65059628D01*
%TO.N,EINK_~CS*%
X65172022Y-117000000D02*
X65272042Y-117100020D01*
X63600000Y-114600000D02*
X63549999Y-114650001D01*
X63549999Y-114650001D02*
X63549999Y-116312001D01*
X63549999Y-116312001D02*
X64237998Y-117000000D01*
X64237998Y-117000000D02*
X65172022Y-117000000D01*
X65272042Y-117100020D02*
X72689957Y-117100021D01*
X72689957Y-117100021D02*
X73102001Y-116687977D01*
X73102001Y-116687977D02*
X74482722Y-116687977D01*
X128600000Y-64684325D02*
X128211527Y-64295852D01*
X128600000Y-65250010D02*
X128600000Y-64684325D01*
X128211527Y-64295852D02*
X128211527Y-58127019D01*
%TO.N,EINK_DC*%
X62459378Y-113859378D02*
X62883630Y-113859378D01*
X64063976Y-113568988D02*
X64063978Y-113568990D01*
X63174020Y-113568988D02*
X64063976Y-113568988D01*
X62883630Y-113859378D02*
X63174020Y-113568988D01*
X64063978Y-113568990D02*
X64694977Y-114199989D01*
X71312001Y-113149999D02*
X71800000Y-113637998D01*
X65744967Y-113149999D02*
X71312001Y-113149999D01*
X64694977Y-114199989D02*
X65744967Y-113149999D01*
X64694977Y-114199989D02*
X65028495Y-114533507D01*
X65028495Y-114533507D02*
X65028495Y-115228495D01*
X65028495Y-115228495D02*
X65800000Y-116000000D01*
X73605012Y-114700000D02*
X73800000Y-114700000D01*
X72305012Y-116000000D02*
X73605012Y-114700000D01*
X65800000Y-116000000D02*
X72305012Y-116000000D01*
%TO.N,EINK_STATE*%
X63559326Y-111074989D02*
X64674989Y-111074989D01*
X62400000Y-112234315D02*
X63559326Y-111074989D01*
X62400000Y-112800000D02*
X62400000Y-112234315D01*
X64699988Y-111049990D02*
X72000000Y-111049990D01*
X64674989Y-111074989D02*
X64699988Y-111049990D01*
X123805603Y-74005603D02*
X128550006Y-74005603D01*
X123000000Y-73200000D02*
X123805603Y-74005603D01*
%TO.N,EINK_VCC_~EN*%
X79400000Y-82200000D02*
X77600000Y-82200000D01*
%TO.N,SD_VCC_nEN*%
X63000000Y-54400000D02*
X61800004Y-55599996D01*
X61800004Y-55599996D02*
X58650000Y-55599996D01*
%TO.N,GPS_VCC_nEN*%
X111994994Y-52200000D02*
X129400000Y-52200000D01*
X106944993Y-47149999D02*
X111994994Y-52200000D01*
X106088011Y-49006979D02*
X106088011Y-48006981D01*
X103694978Y-51400012D02*
X106088011Y-49006979D01*
X93456981Y-51400013D02*
X103694978Y-51400012D01*
X82800000Y-51350000D02*
X83199999Y-51749999D01*
X93106995Y-51749999D02*
X93456981Y-51400013D01*
X106088011Y-48006981D02*
X106944993Y-47149999D01*
X83199999Y-51749999D02*
X93106995Y-51749999D01*
%TO.N,UART1_RX*%
X71449713Y-53624854D02*
X66375146Y-53624854D01*
X66375146Y-53624854D02*
X66000000Y-54000000D01*
X71849712Y-53224855D02*
X71449713Y-53624854D01*
X106307122Y-49707122D02*
X107082450Y-50482450D01*
X107082450Y-50482450D02*
X107413050Y-50482450D01*
X99805852Y-56393496D02*
X105716898Y-50482450D01*
X99805852Y-57149990D02*
X99805852Y-56393496D01*
X105716898Y-50482450D02*
X107413050Y-50482450D01*
%TO.N,UART1_TX*%
X64528063Y-54871935D02*
X66128065Y-54871935D01*
X64128064Y-54471936D02*
X64528063Y-54871935D01*
X72374266Y-53974864D02*
X72699420Y-53649710D01*
X67025136Y-53974864D02*
X72374266Y-53974864D01*
X66128065Y-54871935D02*
X67025136Y-53974864D01*
X106794937Y-48435220D02*
X106738021Y-48435220D01*
X107688146Y-49328429D02*
X106794937Y-48435220D01*
X108088145Y-49728428D02*
X107688146Y-49328429D01*
X107725052Y-51132452D02*
X108088145Y-50769359D01*
X100800000Y-55894338D02*
X105561886Y-51132452D01*
X105561886Y-51132452D02*
X107725052Y-51132452D01*
X100800000Y-57200000D02*
X100800000Y-55894338D01*
X108088145Y-50769359D02*
X108088145Y-49728428D01*
%TO.N,G_INT1*%
X100800000Y-66600000D02*
X105400000Y-62000000D01*
X105400000Y-62000000D02*
X105400000Y-53999998D01*
%TO.N,G_INT2*%
X104327737Y-55237948D02*
X104327737Y-53823595D01*
X101400001Y-67599999D02*
X100837997Y-67599999D01*
X101800000Y-67200000D02*
X101400001Y-67599999D01*
X100837997Y-67599999D02*
X100149999Y-66912001D01*
X100149999Y-66912001D02*
X100149999Y-59415686D01*
X100149999Y-59415686D02*
X104327737Y-55237948D01*
%TO.N,SD_nDET*%
X139250000Y-53750000D02*
X137800000Y-55200000D01*
X139250000Y-51000000D02*
X139250000Y-53750000D01*
X121800000Y-72000000D02*
X121400000Y-72400000D01*
X128600000Y-72000000D02*
X121800000Y-72000000D01*
X129200000Y-71400000D02*
X128600000Y-72000000D01*
%TO.N,+5V*%
X128117611Y-75400000D02*
X124150000Y-75400000D01*
X129600000Y-73917611D02*
X128117611Y-75400000D01*
X129600000Y-73000000D02*
X129600000Y-73917611D01*
X80600000Y-81434315D02*
X80600000Y-83250010D01*
X78165685Y-79000000D02*
X80600000Y-81434315D01*
X77600000Y-79000000D02*
X78165685Y-79000000D01*
D13*
X67407083Y-61192917D02*
X67407083Y-54792917D01*
D14*
%TO.N,ESP_~RST*%
X139900001Y-46900001D02*
X139200000Y-46200000D01*
X139900001Y-68699999D02*
X139900001Y-46900001D01*
X137800000Y-70800000D02*
X139900001Y-68699999D01*
%TO.N,EINK_SPI_MISO*%
X73749106Y-117650010D02*
X72879853Y-118519263D01*
X72879853Y-118519263D02*
X64010038Y-118519263D01*
X129300011Y-58641806D02*
X129105812Y-58447607D01*
X129300011Y-66000000D02*
X129300011Y-58641806D01*
%TO.N,EINK_EEPROM_~EN*%
X103834622Y-45965378D02*
X105284632Y-45965378D01*
X102800000Y-47000000D02*
X103834622Y-45965378D01*
X90600000Y-50400000D02*
X92600000Y-50400000D01*
X92600000Y-50400000D02*
X92800000Y-50600000D01*
X95807122Y-55392878D02*
X95407123Y-55792877D01*
X95407123Y-56192877D02*
X91000000Y-60600000D01*
X95407123Y-55792877D02*
X95407123Y-56192877D01*
X91000000Y-60600000D02*
X91000000Y-61500000D01*
%TO.N,JTAG_TCK*%
X124649990Y-46249990D02*
X128000000Y-49600000D01*
X106855022Y-46249990D02*
X124649990Y-46249990D01*
X103355013Y-49749999D02*
X106855022Y-46249990D01*
X90250001Y-49749999D02*
X103355013Y-49749999D01*
X84400000Y-50600000D02*
X89400000Y-50600000D01*
X89400000Y-50600000D02*
X90250001Y-49749999D01*
X80028495Y-46228495D02*
X84400000Y-50600000D01*
X80028495Y-45828495D02*
X80028495Y-46228495D01*
X78200000Y-44000000D02*
X80028495Y-45828495D01*
%TO.N,JTAG_TMS*%
X137904699Y-40895301D02*
X129599999Y-49200001D01*
X129599999Y-49200001D02*
X129200000Y-49600000D01*
X137904699Y-35495301D02*
X137904699Y-40895301D01*
X139400000Y-34000000D02*
X137904699Y-35495301D01*
X104589328Y-52600000D02*
X128362002Y-52600000D01*
X79049990Y-61611992D02*
X79487999Y-62050001D01*
X130050001Y-52512001D02*
X130050001Y-50450001D01*
X101450001Y-55739327D02*
X104589328Y-52600000D01*
X101450001Y-57512001D02*
X101450001Y-55739327D01*
X99600000Y-54600000D02*
X99600000Y-55305012D01*
X99000000Y-54000000D02*
X99600000Y-54600000D01*
X128612003Y-52850001D02*
X129712001Y-52850001D01*
X99155851Y-57461991D02*
X99543861Y-57850001D01*
X99155851Y-56837989D02*
X99155851Y-57461991D01*
X86293873Y-62050001D02*
X94343874Y-54000000D01*
X99543861Y-57850001D02*
X101112001Y-57850001D01*
X130050001Y-50450001D02*
X129200000Y-49600000D01*
X79487999Y-62050001D02*
X86293873Y-62050001D01*
X99455842Y-56537998D02*
X99155851Y-56837989D01*
X94343874Y-54000000D02*
X99000000Y-54000000D01*
X128362002Y-52600000D02*
X128612003Y-52850001D01*
X79049990Y-49649990D02*
X79049990Y-61611992D01*
X129712001Y-52850001D02*
X130050001Y-52512001D01*
X99600000Y-55305012D02*
X99455842Y-55449170D01*
X99455842Y-55449170D02*
X99455842Y-56537998D01*
X101112001Y-57850001D02*
X101450001Y-57512001D01*
X78400000Y-49000000D02*
X79049990Y-49649990D01*
%TO.N,JTAG_TDO*%
X125576246Y-56800000D02*
X121200000Y-56800000D01*
X138600000Y-45376246D02*
X130126223Y-53850023D01*
X128526226Y-53850023D02*
X125576246Y-56800000D01*
X130126223Y-53850023D02*
X128526226Y-53850023D01*
X138600000Y-42200000D02*
X138600000Y-45376246D01*
X120200000Y-55800000D02*
X121200000Y-56800000D01*
X114200000Y-55800000D02*
X120200000Y-55800000D01*
X102049991Y-67950009D02*
X114200000Y-55800000D01*
X84893019Y-67950009D02*
X102049991Y-67950009D01*
X78512001Y-61568991D02*
X84893019Y-67950009D01*
X78512001Y-51762002D02*
X78512001Y-61568991D01*
X77887999Y-51250001D02*
X78000000Y-51250001D01*
X77399989Y-50761991D02*
X77887999Y-51250001D01*
X77399989Y-48000011D02*
X77399989Y-50761991D01*
X78000000Y-51250001D02*
X78512001Y-51762002D01*
X78600000Y-46800000D02*
X77399989Y-48000011D01*
%TO.N,Net-(R18-Pad2)*%
X95093873Y-52306127D02*
X92093873Y-52306127D01*
X92093873Y-52306127D02*
X91800000Y-52600000D01*
X128271237Y-54600000D02*
X125471237Y-57400000D01*
X130000000Y-54600000D02*
X128271237Y-54600000D01*
X125471237Y-57400000D02*
X124271237Y-58600000D01*
X124271237Y-58600000D02*
X117400000Y-58600000D01*
X113800000Y-58600000D02*
X113059620Y-57859620D01*
X117400000Y-58600000D02*
X113800000Y-58600000D01*
%TO.N,Net-(R26-Pad2)*%
X87800000Y-38200000D02*
X87000000Y-38200000D01*
X87000000Y-38200000D02*
X86000000Y-39200000D01*
X86000000Y-47600000D02*
X86600000Y-48200000D01*
X86000000Y-39200000D02*
X86000000Y-47600000D01*
D15*
%TO.N,Net-(J2-Pad19)*%
X64200000Y-111724990D02*
X72840028Y-111724990D01*
X72840028Y-111724990D02*
X72995107Y-111880069D01*
%TO.N,Net-(J2-Pad18)*%
X63400000Y-112400000D02*
X72200000Y-112400000D01*
D14*
%TO.N,Net-(J5-Pad1)*%
X71200000Y-34000000D02*
X71000000Y-34200000D01*
X72400000Y-34000000D02*
X71200000Y-34000000D01*
X73400000Y-40600000D02*
X73400000Y-35000000D01*
X73400000Y-35000000D02*
X72400000Y-34000000D01*
X74600000Y-41800000D02*
X73400000Y-40600000D01*
%TO.N,Net-(J6-Pad1)*%
X74600000Y-49565685D02*
X72365685Y-51800000D01*
X74600000Y-49000000D02*
X74600000Y-49565685D01*
X72365685Y-51800000D02*
X56600000Y-51800000D01*
X56600000Y-51800000D02*
X55800000Y-51000000D01*
X55800000Y-44800000D02*
X57800000Y-42800000D01*
X55800000Y-51000000D02*
X55800000Y-44800000D01*
%TO.N,Net-(J7-Pad1)*%
X73800000Y-47400000D02*
X73800000Y-49800000D01*
X73800000Y-49800000D02*
X72400000Y-51200000D01*
X67600000Y-51200000D02*
X64400000Y-48000000D01*
X72400000Y-51200000D02*
X67600000Y-51200000D01*
%TO.N,Net-(R17-Pad2)*%
X81938017Y-68300019D02*
X111099981Y-68300019D01*
X75409628Y-61771630D02*
X81938017Y-68300019D01*
X75409628Y-48590372D02*
X75409628Y-61771630D01*
X78400000Y-45600000D02*
X75409628Y-48590372D01*
X114000000Y-65400000D02*
X113900000Y-65500000D01*
X116000000Y-65400000D02*
X114000000Y-65400000D01*
X111099981Y-68300019D02*
X113900000Y-65500000D01*
%TO.N,Net-(R36-Pad1)*%
X129999999Y-56957879D02*
X129600000Y-56557880D01*
X130000000Y-59600000D02*
X129999999Y-56957879D01*
X78200000Y-50600000D02*
X77749999Y-50149999D01*
X77749999Y-50149999D02*
X77749999Y-48687999D01*
X83084865Y-50722863D02*
X84027873Y-50722863D01*
X77749999Y-48687999D02*
X79087999Y-47349999D01*
X84555012Y-51250002D02*
X93112002Y-51250002D01*
X79087999Y-47349999D02*
X79712001Y-47349999D01*
X102550000Y-51050002D02*
X107000001Y-46600001D01*
X79712001Y-47349999D02*
X83084865Y-50722863D01*
X93112002Y-51250002D02*
X93312002Y-51050002D01*
X107000001Y-46600001D02*
X122800001Y-46600001D01*
X126737107Y-50537107D02*
X129043946Y-50537107D01*
X84027873Y-50722863D02*
X84555012Y-51250002D01*
X93312002Y-51050002D02*
X102550000Y-51050002D01*
X122800001Y-46600001D02*
X126737107Y-50537107D01*
%TO.N,Net-(R40-Pad1)*%
X78200000Y-42600000D02*
X84000000Y-48400000D01*
X84000000Y-48400000D02*
X84000000Y-49200000D01*
X84000000Y-49200000D02*
X84000000Y-49600000D01*
X84200000Y-49800000D02*
X89705012Y-49800000D01*
X84000000Y-49600000D02*
X84200000Y-49800000D01*
X89705012Y-49800000D02*
X90105023Y-49399989D01*
X103210035Y-49399989D02*
X106710044Y-45899980D01*
X106710044Y-45899980D02*
X126099980Y-45899980D01*
X90105023Y-49399989D02*
X103210035Y-49399989D01*
X128200000Y-48000000D02*
X128000000Y-47800000D01*
X129850000Y-48000000D02*
X128200000Y-48000000D01*
X126099980Y-45899980D02*
X128000000Y-47800000D01*
%TD*%
D16*
%TO.N,Net-(J6-Pad1)*%
X63220394Y-42600000D02*
X55927000Y-49893394D01*
X55927000Y-35306606D01*
X63220394Y-42600000D01*
%TA.AperFunction,Conductor*%
D17*
G36*
X63220394Y-42600000D02*
G01*
X55927000Y-49893394D01*
X55927000Y-35306606D01*
X63220394Y-42600000D01*
G37*
%TD.AperFunction*%
%TD*%
D16*
%TO.N,Net-(J3-Pad1)*%
X72873000Y-49893394D02*
X65579606Y-42600000D01*
X72873000Y-35306606D01*
X72873000Y-49893394D01*
%TA.AperFunction,Conductor*%
D17*
G36*
X72873000Y-49893394D02*
G01*
X65579606Y-42600000D01*
X72873000Y-35306606D01*
X72873000Y-49893394D01*
G37*
%TD.AperFunction*%
%TD*%
D16*
%TO.N,Net-(J7-Pad1)*%
X71693394Y-51073000D02*
X57106606Y-51073000D01*
X63128971Y-45050635D01*
X63144364Y-45044259D01*
X63263436Y-44964698D01*
X63364698Y-44863436D01*
X63444259Y-44744364D01*
X63450635Y-44728971D01*
X64400000Y-43779606D01*
X71693394Y-51073000D01*
%TA.AperFunction,Conductor*%
D17*
G36*
X71693394Y-51073000D02*
G01*
X57106606Y-51073000D01*
X63128971Y-45050635D01*
X63144364Y-45044259D01*
X63263436Y-44964698D01*
X63364698Y-44863436D01*
X63444259Y-44744364D01*
X63450635Y-44728971D01*
X64400000Y-43779606D01*
X71693394Y-51073000D01*
G37*
%TD.AperFunction*%
%TD*%
D16*
%TO.N,Net-(J5-Pad1)*%
X64400000Y-41420394D02*
X57762776Y-34783170D01*
X62123000Y-34783170D01*
X62123000Y-34896830D01*
X62145174Y-35008305D01*
X62188669Y-35113312D01*
X62251815Y-35207816D01*
X62332184Y-35288185D01*
X62426688Y-35351331D01*
X62531695Y-35394826D01*
X62643170Y-35417000D01*
X62756830Y-35417000D01*
X62868305Y-35394826D01*
X62973312Y-35351331D01*
X63067816Y-35288185D01*
X63148185Y-35207816D01*
X63211331Y-35113312D01*
X63254826Y-35008305D01*
X63277000Y-34896830D01*
X63277000Y-34783170D01*
X66123000Y-34783170D01*
X66123000Y-34896830D01*
X66145174Y-35008305D01*
X66188669Y-35113312D01*
X66251815Y-35207816D01*
X66332184Y-35288185D01*
X66426688Y-35351331D01*
X66531695Y-35394826D01*
X66643170Y-35417000D01*
X66756830Y-35417000D01*
X66868305Y-35394826D01*
X66973312Y-35351331D01*
X67067816Y-35288185D01*
X67148185Y-35207816D01*
X67211331Y-35113312D01*
X67254826Y-35008305D01*
X67277000Y-34896830D01*
X67277000Y-34783170D01*
X67254826Y-34671695D01*
X67211331Y-34566688D01*
X67148185Y-34472184D01*
X67067816Y-34391815D01*
X66973312Y-34328669D01*
X66868305Y-34285174D01*
X66756830Y-34263000D01*
X66643170Y-34263000D01*
X66531695Y-34285174D01*
X66426688Y-34328669D01*
X66332184Y-34391815D01*
X66251815Y-34472184D01*
X66188669Y-34566688D01*
X66145174Y-34671695D01*
X66123000Y-34783170D01*
X63277000Y-34783170D01*
X63254826Y-34671695D01*
X63211331Y-34566688D01*
X63148185Y-34472184D01*
X63067816Y-34391815D01*
X62973312Y-34328669D01*
X62868305Y-34285174D01*
X62756830Y-34263000D01*
X62643170Y-34263000D01*
X62531695Y-34285174D01*
X62426688Y-34328669D01*
X62332184Y-34391815D01*
X62251815Y-34472184D01*
X62188669Y-34566688D01*
X62145174Y-34671695D01*
X62123000Y-34783170D01*
X57762776Y-34783170D01*
X57106606Y-34127000D01*
X71693394Y-34127000D01*
X64400000Y-41420394D01*
%TA.AperFunction,Conductor*%
D17*
G36*
X64400000Y-41420394D02*
G01*
X57762776Y-34783170D01*
X62123000Y-34783170D01*
X62123000Y-34896830D01*
X62145174Y-35008305D01*
X62188669Y-35113312D01*
X62251815Y-35207816D01*
X62332184Y-35288185D01*
X62426688Y-35351331D01*
X62531695Y-35394826D01*
X62643170Y-35417000D01*
X62756830Y-35417000D01*
X62868305Y-35394826D01*
X62973312Y-35351331D01*
X63067816Y-35288185D01*
X63148185Y-35207816D01*
X63211331Y-35113312D01*
X63254826Y-35008305D01*
X63277000Y-34896830D01*
X63277000Y-34783170D01*
X66123000Y-34783170D01*
X66123000Y-34896830D01*
X66145174Y-35008305D01*
X66188669Y-35113312D01*
X66251815Y-35207816D01*
X66332184Y-35288185D01*
X66426688Y-35351331D01*
X66531695Y-35394826D01*
X66643170Y-35417000D01*
X66756830Y-35417000D01*
X66868305Y-35394826D01*
X66973312Y-35351331D01*
X67067816Y-35288185D01*
X67148185Y-35207816D01*
X67211331Y-35113312D01*
X67254826Y-35008305D01*
X67277000Y-34896830D01*
X67277000Y-34783170D01*
X67254826Y-34671695D01*
X67211331Y-34566688D01*
X67148185Y-34472184D01*
X67067816Y-34391815D01*
X66973312Y-34328669D01*
X66868305Y-34285174D01*
X66756830Y-34263000D01*
X66643170Y-34263000D01*
X66531695Y-34285174D01*
X66426688Y-34328669D01*
X66332184Y-34391815D01*
X66251815Y-34472184D01*
X66188669Y-34566688D01*
X66145174Y-34671695D01*
X66123000Y-34783170D01*
X63277000Y-34783170D01*
X63254826Y-34671695D01*
X63211331Y-34566688D01*
X63148185Y-34472184D01*
X63067816Y-34391815D01*
X62973312Y-34328669D01*
X62868305Y-34285174D01*
X62756830Y-34263000D01*
X62643170Y-34263000D01*
X62531695Y-34285174D01*
X62426688Y-34328669D01*
X62332184Y-34391815D01*
X62251815Y-34472184D01*
X62188669Y-34566688D01*
X62145174Y-34671695D01*
X62123000Y-34783170D01*
X57762776Y-34783170D01*
X57106606Y-34127000D01*
X71693394Y-34127000D01*
X64400000Y-41420394D01*
G37*
%TD.AperFunction*%
%TD*%
D16*
%TO.N,Net-(J8-Pad1)*%
X54473000Y-42073000D02*
X47127000Y-42073000D01*
X47127000Y-34127000D01*
X54473000Y-34127000D01*
X54473000Y-42073000D01*
%TA.AperFunction,Conductor*%
D17*
G36*
X54473000Y-42073000D02*
G01*
X47127000Y-42073000D01*
X47127000Y-34127000D01*
X54473000Y-34127000D01*
X54473000Y-42073000D01*
G37*
%TD.AperFunction*%
%TD*%
D16*
%TO.N,Net-(J4-Pad1)*%
X54473000Y-51073000D02*
X47127000Y-51073000D01*
X47127000Y-43127000D01*
X54473000Y-43127000D01*
X54473000Y-51073000D01*
%TA.AperFunction,Conductor*%
D17*
G36*
X54473000Y-51073000D02*
G01*
X47127000Y-51073000D01*
X47127000Y-43127000D01*
X54473000Y-43127000D01*
X54473000Y-51073000D01*
G37*
%TD.AperFunction*%
%TD*%
M02*
